<svg xmlns="http://www.w3.org/2000/svg" viewBox="0 0 593.06 129.4"><defs><style>.cls-1{stroke:#000;}.cls-1,.cls-2{stroke-miterlimit:10;stroke-width:4px;}.cls-2,.cls-3{fill:#009953;}.cls-2{stroke:#009953;}</style></defs><title>Ativo 22</title><g id="Camada_2" data-name="Camada 2"><g id="Camada_1-2" data-name="Camada 1"><ellipse class="cls-1" cx="39.51" cy="119.16" rx="7.18" ry="6.86"/><ellipse class="cls-1" cx="100.72" cy="119.16" rx="7.18" ry="6.86"/><path class="cls-2" d="M139.68,9.56a6.4,6.4,0,0,1-6.39,6.4s-.8,0-2,0c-.35,0-.7,0-1,0l-70.46.07c-12.13,0-21.51,0-33.64,0l-.65,0h-1.7a7.48,7.48,0,0,0-7.48,7.49c0,.61.25,10.35.72,11.8a6.44,6.44,0,0,0,.25.74l.06.15A7.49,7.49,0,0,0,24,40.89h97.16a14.93,14.93,0,0,1,14.83,13h0a15.72,15.72,0,0,1-.5,6.31l-.23.71q-3.78,11.71-7.62,23.44h-.16c0,.06,0,.12,0,.18s0,.06,0,.09a.57.57,0,0,1,0,.18s0,.08,0,.12a.85.85,0,0,1,0,.17,1.87,1.87,0,0,1,0,.25h0l-.2.6a16.93,16.93,0,0,1-4.8,7.87l0,0a14.83,14.83,0,0,1-1.41,1.06l0,0a17.29,17.29,0,0,1-8.16,2.42c-.79.06-1.62.09-2.48.09-28.89,0-42.16.08-71.05,0l-7.62,0H20.16a6.49,6.49,0,0,1-5.44-4.11l-.23-.69a6.67,6.67,0,0,1-.22-1.68,6.5,6.5,0,0,1,6.51-6.51l77.37,0q7.63,0,15.28,0c3,0-9.52,0-6.47,0h.73c.21,0,.43,0,.65,0h.6l.2,0h.15l.14,0a7.52,7.52,0,0,0,5.88-4.68,7.65,7.65,0,0,0,.3-1c.09-.32.19-.67.3-1,.56-1.91,1.25-3.78,1.82-5.68.12-.38.26-.86.44-1.42a.14.14,0,0,0,0-.06c.17-.51.35-1.11.56-1.75l1.4-4.32a7.44,7.44,0,0,0,.48-1.47A7.36,7.36,0,0,0,120.8,61,7.69,7.69,0,0,0,113,53.86H20.09A15,15,0,0,1,6,44l-.31-.94h0L3,28a57.92,57.92,0,0,1-1-9.38c0-.21,0-.38,0-.52a15.06,15.06,0,0,1,.76-4.72c1.3-3.93,3.27-7.13,7-8.86A14.88,14.88,0,0,1,16,3.11h115.2s1,0,1.75,0l.3,0c.42.05.84.12,1.25.21a13.84,13.84,0,0,1,1.44.38h0A6.4,6.4,0,0,1,139.68,9.56Z"/><path d="M257.51,95.18l-.14-57.11-28,47.05h-9.93L191.56,39.3V95.18H170.89V0h18.22l35.63,59.15L259.82,0H277.9l.28,95.18Z"/><path d="M370.5,64.59H315.16a17.2,17.2,0,0,0,7.07,10.74q5.58,3.94,13.87,3.94a27.94,27.94,0,0,0,10.13-1.7,24.4,24.4,0,0,0,8.22-5.37l11.29,12.24q-10.33,11.84-30.19,11.83a47.73,47.73,0,0,1-21.89-4.83A35.32,35.32,0,0,1,299,78.05a36.84,36.84,0,0,1-5.17-19.44,37.4,37.4,0,0,1,5.1-19.38,35.71,35.71,0,0,1,14-13.46,43.35,43.35,0,0,1,39.36-.21A33.93,33.93,0,0,1,366,38.82a39.63,39.63,0,0,1,5,20.06Q370.91,59.29,370.5,64.59ZM320.87,41.06a17.37,17.37,0,0,0-6,11.15h36a17.59,17.59,0,0,0-6-11.08A17.93,17.93,0,0,0,333,37,18.31,18.31,0,0,0,320.87,41.06Z"/><path d="M415.58,23.66a38.11,38.11,0,0,1,14.89-2.72V40.52c-2.36-.18-4-.27-4.76-.27q-9.12,0-14.28,5.1t-5.17,15.3V95.18H385.05V22h20.26v9.65A23.6,23.6,0,0,1,415.58,23.66Z"/><path d="M456.78,91.44a36.09,36.09,0,0,1-14.55-13.39A36.53,36.53,0,0,1,437,58.61a36.54,36.54,0,0,1,5.24-19.45,36.16,36.16,0,0,1,14.55-13.39,45,45,0,0,1,21-4.83A40.7,40.7,0,0,1,498,25.77a28.69,28.69,0,0,1,12.58,13.8L494.1,48.41q-5.7-10.06-16.45-10.06a18.61,18.61,0,0,0-13.73,5.43q-5.44,5.44-5.44,14.83t5.44,14.82a18.62,18.62,0,0,0,13.73,5.44q10.88,0,16.45-10.07l16.46,9A29.29,29.29,0,0,1,498,91.38a40.3,40.3,0,0,1-20.19,4.89A45,45,0,0,1,456.78,91.44Z"/><path d="M578.41,29q9.11,8.1,9.11,24.41V95.18H567.66V86.07q-6,10.2-22.3,10.2a34.62,34.62,0,0,1-14.61-2.85,21.81,21.81,0,0,1-9.45-7.89A20.48,20.48,0,0,1,518,74.11q0-10.2,7.69-16t23.72-5.85H566.3q0-6.93-4.21-10.67T549.44,37.8A36.73,36.73,0,0,0,538,39.64a30.31,30.31,0,0,0-9.58,5l-7.62-14.82a45.92,45.92,0,0,1,14.35-6.53,64.28,64.28,0,0,1,17.2-2.31Q569.3,20.94,578.41,29ZM560.32,79.48a13.79,13.79,0,0,0,6-7.41V64.59H551.75q-13.05,0-13,8.56a7.63,7.63,0,0,0,3.2,6.46Q545.1,82,550.67,82A18.44,18.44,0,0,0,560.32,79.48Z"/><path class="cls-3" d="M173.49,124.46a5.67,5.67,0,0,1-1.45-4.18v-7.23h1.86v7.15q0,4.1,3.66,4.09a3.53,3.53,0,0,0,2.73-1,4.37,4.37,0,0,0,1-3.08v-7.15H183v7.23a5.66,5.66,0,0,1-1.45,4.18,6.38,6.38,0,0,1-8.1,0Z"/><path class="cls-3" d="M201.85,117.1a4.16,4.16,0,0,1,1.08,3.12v5.54h-1.78v-5.34a3,3,0,0,0-.66-2.11,2.45,2.45,0,0,0-1.88-.7,2.86,2.86,0,0,0-2.16.82,3.28,3.28,0,0,0-.8,2.37v5h-1.78v-5.34a3,3,0,0,0-.66-2.11,2.46,2.46,0,0,0-1.89-.7,2.85,2.85,0,0,0-2.15.82,3.28,3.28,0,0,0-.8,2.37v5h-1.78v-9.63h1.71v1.44a3.45,3.45,0,0,1,1.41-1.14,4.81,4.81,0,0,1,2-.39,4.5,4.5,0,0,1,2,.46,3.17,3.17,0,0,1,1.37,1.32,3.82,3.82,0,0,1,1.55-1.3,5.11,5.11,0,0,1,2.24-.48A4.08,4.08,0,0,1,201.85,117.1Z"/><path class="cls-3" d="M212.94,117A3.77,3.77,0,0,1,214,120v5.81h-1.7v-1.27a2.79,2.79,0,0,1-1.27,1,5,5,0,0,1-2,.35,4.2,4.2,0,0,1-2.65-.78,2.48,2.48,0,0,1-1-2,2.53,2.53,0,0,1,.95-2.05,4.77,4.77,0,0,1,3-.77h2.82v-.34a2.2,2.2,0,0,0-.67-1.73,2.85,2.85,0,0,0-2-.6,5.57,5.57,0,0,0-1.71.28,4.52,4.52,0,0,0-1.41.76l-.74-1.31a5.38,5.38,0,0,1,1.82-.92,7.89,7.89,0,0,1,2.25-.32A4.55,4.55,0,0,1,212.94,117Zm-1.78,7.06a2.52,2.52,0,0,0,1.08-1.26v-1.34h-2.75c-1.51,0-2.26.49-2.26,1.48a1.35,1.35,0,0,0,.57,1.15,2.69,2.69,0,0,0,1.6.42A3.31,3.31,0,0,0,211.16,124.08Z"/><path class="cls-3" d="M237.59,117.1a4.13,4.13,0,0,1,1.09,3.12v5.54h-1.79v-5.34a3.06,3.06,0,0,0-.65-2.11,2.46,2.46,0,0,0-1.89-.7,2.89,2.89,0,0,0-2.16.82,3.28,3.28,0,0,0-.79,2.37v5h-1.79v-5.34a3,3,0,0,0-.66-2.11,2.45,2.45,0,0,0-1.88-.7,2.86,2.86,0,0,0-2.16.82,3.28,3.28,0,0,0-.8,2.37v5h-1.78v-9.63H224v1.44a3.51,3.51,0,0,1,1.41-1.14,4.84,4.84,0,0,1,2-.39,4.44,4.44,0,0,1,2,.46,3.2,3.2,0,0,1,1.38,1.32,3.75,3.75,0,0,1,1.55-1.3,5.08,5.08,0,0,1,2.24-.48A4,4,0,0,1,237.59,117.1Z"/><path class="cls-3" d="M248.68,117a3.74,3.74,0,0,1,1.09,2.93v5.81h-1.69v-1.27a2.84,2.84,0,0,1-1.27,1,5.12,5.12,0,0,1-2,.35,4.16,4.16,0,0,1-2.65-.78,2.49,2.49,0,0,1-1-2,2.53,2.53,0,0,1,1-2.05,4.79,4.79,0,0,1,3-.77H248v-.34a2.23,2.23,0,0,0-.67-1.73,2.88,2.88,0,0,0-2-.6,5.52,5.52,0,0,0-1.71.28,4.31,4.31,0,0,0-1.41.76l-.75-1.31a5.47,5.47,0,0,1,1.82-.92,7.89,7.89,0,0,1,2.25-.32A4.53,4.53,0,0,1,248.68,117Zm-1.77,7.06a2.62,2.62,0,0,0,1.08-1.26v-1.34h-2.75c-1.52,0-2.27.49-2.27,1.48a1.35,1.35,0,0,0,.57,1.15,2.69,2.69,0,0,0,1.6.42A3.38,3.38,0,0,0,246.91,124.08Z"/><path class="cls-3" d="M261.31,117.11a4.1,4.1,0,0,1,1.11,3.11v5.54h-1.78v-5.34a2.93,2.93,0,0,0-.69-2.11,2.63,2.63,0,0,0-2-.7,3.12,3.12,0,0,0-2.29.82,3.21,3.21,0,0,0-.83,2.37v5h-1.78v-9.63h1.7v1.46a3.49,3.49,0,0,1,1.46-1.15,5.33,5.33,0,0,1,2.09-.4A4.11,4.11,0,0,1,261.31,117.11Z"/><path class="cls-3" d="M274.64,121.53h-8a3,3,0,0,0,1.14,2,3.76,3.76,0,0,0,2.42.78,3.66,3.66,0,0,0,2.84-1.17l1,1.13a4.26,4.26,0,0,1-1.66,1.16,5.89,5.89,0,0,1-2.22.4,6,6,0,0,1-2.77-.62,4.54,4.54,0,0,1-1.87-1.76,4.93,4.93,0,0,1-.66-2.54,5.11,5.11,0,0,1,.64-2.53,4.58,4.58,0,0,1,1.77-1.75,5.08,5.08,0,0,1,2.53-.63,5,5,0,0,1,2.52.63,4.48,4.48,0,0,1,1.73,1.75,5.29,5.29,0,0,1,.62,2.58A3.89,3.89,0,0,1,274.64,121.53Zm-7-3.25a3,3,0,0,0-1,2H273a3.25,3.25,0,0,0-5.3-2Z"/><path class="cls-3" d="M277.18,114a1.12,1.12,0,0,1,0-1.61A1.17,1.17,0,0,1,278,112a1.24,1.24,0,0,1,.87.32,1,1,0,0,1,.34.79,1.12,1.12,0,0,1-.34.83,1.21,1.21,0,0,1-.87.33A1.24,1.24,0,0,1,277.18,114Zm0,2.17h1.79v9.63h-1.79Z"/><path class="cls-3" d="M285.42,116.48a5.09,5.09,0,0,1,2.21-.44v1.69l-.41,0a3,3,0,0,0-2.27.85,3.27,3.27,0,0,0-.83,2.41v4.79h-1.79v-9.63H284v1.62A3,3,0,0,1,285.42,116.48Z"/><path class="cls-3" d="M296.52,117a3.77,3.77,0,0,1,1.09,2.93v5.81h-1.69v-1.27a2.87,2.87,0,0,1-1.28,1,5,5,0,0,1-2,.35,4.15,4.15,0,0,1-2.64-.78,2.46,2.46,0,0,1-1-2A2.53,2.53,0,0,1,290,121a4.77,4.77,0,0,1,3-.77h2.82v-.34a2.2,2.2,0,0,0-.67-1.73,2.85,2.85,0,0,0-2-.6,5.46,5.46,0,0,0-1.7.28,4.47,4.47,0,0,0-1.42.76l-.74-1.31a5.38,5.38,0,0,1,1.82-.92,7.89,7.89,0,0,1,2.25-.32A4.55,4.55,0,0,1,296.52,117Zm-1.78,7.06a2.52,2.52,0,0,0,1.08-1.26v-1.34h-2.75c-1.51,0-2.26.49-2.26,1.48a1.35,1.35,0,0,0,.57,1.15,2.69,2.69,0,0,0,1.6.42A3.31,3.31,0,0,0,294.74,124.08Z"/><path class="cls-3" d="M307.92,115.3v.83h2.86v1.44H308v8.19h-1.78v-8.19H304.5v-1.44h1.67v-.85A3,3,0,0,1,307,113a3.24,3.24,0,0,1,2.39-.84,4,4,0,0,1,1.12.15,2.93,2.93,0,0,1,.89.42l-.54,1.32a2.28,2.28,0,0,0-1.38-.45C308.45,113.61,307.92,114.17,307.92,115.3Z"/><path class="cls-3" d="M319,117a3.77,3.77,0,0,1,1.08,2.93v5.81h-1.69v-1.27a2.79,2.79,0,0,1-1.27,1,5,5,0,0,1-2,.35,4.2,4.2,0,0,1-2.65-.78,2.48,2.48,0,0,1-1-2,2.53,2.53,0,0,1,1-2.05,4.77,4.77,0,0,1,3-.77h2.82v-.34a2.2,2.2,0,0,0-.67-1.73,2.85,2.85,0,0,0-2-.6,5.57,5.57,0,0,0-1.71.28,4.52,4.52,0,0,0-1.41.76l-.74-1.31a5.38,5.38,0,0,1,1.82-.92,7.89,7.89,0,0,1,2.25-.32A4.55,4.55,0,0,1,319,117Zm-1.78,7.06a2.52,2.52,0,0,0,1.08-1.26v-1.34h-2.75c-1.51,0-2.27.49-2.27,1.48a1.36,1.36,0,0,0,.58,1.15,2.67,2.67,0,0,0,1.6.42A3.31,3.31,0,0,0,317.22,124.08Zm-.09-11.71h2.27l-3.12,2.37H314.6Z"/><path class="cls-3" d="M325.05,125.24a4.72,4.72,0,0,1-1.84-1.76,5.13,5.13,0,0,1,0-5.07,4.67,4.67,0,0,1,1.84-1.74,5.65,5.65,0,0,1,2.69-.63,5.28,5.28,0,0,1,2.39.53,3.74,3.74,0,0,1,1.62,1.53l-1.35.85a3,3,0,0,0-1.16-1,3.21,3.21,0,0,0-1.52-.35A3.61,3.61,0,0,0,326,118a3,3,0,0,0-1.2,1.19,3.42,3.42,0,0,0-.44,1.77,3.49,3.49,0,0,0,.44,1.79,3.05,3.05,0,0,0,1.2,1.19,3.61,3.61,0,0,0,1.74.42,3.33,3.33,0,0,0,1.52-.35,3,3,0,0,0,1.16-1l1.35.84a3.82,3.82,0,0,1-1.62,1.54,5.28,5.28,0,0,1-2.39.53A5.65,5.65,0,0,1,325.05,125.24Z"/><path class="cls-3" d="M334.08,114a1.12,1.12,0,0,1,0-1.61A1.18,1.18,0,0,1,335,112a1.24,1.24,0,0,1,.86.32,1,1,0,0,1,.34.79,1.12,1.12,0,0,1-.34.83,1.2,1.2,0,0,1-.86.33A1.24,1.24,0,0,1,334.08,114Zm0,2.17h1.79v9.63h-1.79Z"/><path class="cls-3" d="M339.24,112.28H341v13.48h-1.78Z"/><path class="cls-3" d="M358.28,121.53h-8a3,3,0,0,0,1.14,2,3.77,3.77,0,0,0,2.43.78,3.69,3.69,0,0,0,2.84-1.17l1,1.13a4.3,4.3,0,0,1-1.67,1.16,5.81,5.81,0,0,1-2.22.4,6,6,0,0,1-2.77-.62,4.58,4.58,0,0,1-1.86-1.76,4.93,4.93,0,0,1-.66-2.54,5,5,0,0,1,.64-2.53,4.55,4.55,0,0,1,1.76-1.75,5.12,5.12,0,0,1,2.54-.63,5,5,0,0,1,2.52.63,4.45,4.45,0,0,1,1.72,1.75,5.19,5.19,0,0,1,.63,2.58C358.32,121.14,358.3,121.31,358.28,121.53Zm-7-3.25a3.07,3.07,0,0,0-1,2h6.32a3.07,3.07,0,0,0-3.16-2.76A3.12,3.12,0,0,0,351.3,118.28Z"/><path class="cls-3" d="M372.5,117a3.74,3.74,0,0,1,1.09,2.93v5.81H371.9v-1.27a2.81,2.81,0,0,1-1.28,1,5,5,0,0,1-2,.35,4.15,4.15,0,0,1-2.64-.78,2.46,2.46,0,0,1-1-2,2.53,2.53,0,0,1,1-2.05,4.79,4.79,0,0,1,3-.77h2.82v-.34a2.22,2.22,0,0,0-.66-1.73,2.88,2.88,0,0,0-2-.6,5.47,5.47,0,0,0-1.71.28,4.47,4.47,0,0,0-1.42.76l-.74-1.31a5.47,5.47,0,0,1,1.82-.92,7.89,7.89,0,0,1,2.25-.32A4.53,4.53,0,0,1,372.5,117Zm-1.77,7.06a2.55,2.55,0,0,0,1.07-1.26v-1.34h-2.75c-1.51,0-2.26.49-2.26,1.48a1.35,1.35,0,0,0,.57,1.15,2.69,2.69,0,0,0,1.6.42A3.38,3.38,0,0,0,370.73,124.08Zm-.1-11.71h2.27l-3.12,2.37h-1.67Z"/><path class="cls-3" d="M386.37,116.13v8.33a4.93,4.93,0,0,1-1.28,3.73,5.43,5.43,0,0,1-3.83,1.21,9.35,9.35,0,0,1-2.66-.38,5.19,5.19,0,0,1-2-1.06l.85-1.34a5.2,5.2,0,0,0,1.7.91,6.49,6.49,0,0,0,2.09.34,3.57,3.57,0,0,0,2.56-.8,3.23,3.23,0,0,0,.83-2.43v-.77A4,4,0,0,1,383,125a5.18,5.18,0,0,1-2,.37,5.43,5.43,0,0,1-2.56-.59,4.39,4.39,0,0,1-1.79-1.65,4.85,4.85,0,0,1,0-4.85,4.3,4.3,0,0,1,1.79-1.64A5.55,5.55,0,0,1,381,116a5.45,5.45,0,0,1,2.07.4,3.87,3.87,0,0,1,1.57,1.18v-1.49ZM383,123.44a3,3,0,0,0,1.21-1.12,3.08,3.08,0,0,0,.43-1.63,2.92,2.92,0,0,0-.94-2.26,3.91,3.91,0,0,0-4.89,0,2.93,2.93,0,0,0-1,2.26,3.08,3.08,0,0,0,.44,1.63,3,3,0,0,0,1.21,1.12,4,4,0,0,0,3.49,0Z"/><path class="cls-3" d="M389.8,114a1.1,1.1,0,0,1,0-1.61,1.15,1.15,0,0,1,.86-.34,1.22,1.22,0,0,1,.86.32,1,1,0,0,1,.35.79,1.13,1.13,0,0,1-.35.83,1.18,1.18,0,0,1-.86.33A1.22,1.22,0,0,1,389.8,114Zm0,2.17h1.78v9.63h-1.78Z"/><path class="cls-3" d="M395,112.28h1.78v13.48H395Z"/><path class="cls-3" d="M414.42,112.28v13.48h-1.71v-1.52a3.77,3.77,0,0,1-1.5,1.21,4.76,4.76,0,0,1-2,.42,5.16,5.16,0,0,1-2.56-.62,4.49,4.49,0,0,1-1.78-1.73,5.16,5.16,0,0,1-.64-2.57,5.09,5.09,0,0,1,.64-2.56,4.49,4.49,0,0,1,1.78-1.73,5.27,5.27,0,0,1,2.56-.62,4.78,4.78,0,0,1,1.95.39,3.87,3.87,0,0,1,1.49,1.16v-5.31ZM411,123.92a3.12,3.12,0,0,0,1.19-1.2,3.86,3.86,0,0,0,0-3.54A3,3,0,0,0,411,118a3.63,3.63,0,0,0-3.39,0,3,3,0,0,0-1.19,1.19,3.78,3.78,0,0,0,0,3.54,3.19,3.19,0,0,0,1.19,1.2,3.56,3.56,0,0,0,3.39,0Z"/><path class="cls-3" d="M426.66,121.53h-8a3,3,0,0,0,1.15,2,3.76,3.76,0,0,0,2.42.78,3.66,3.66,0,0,0,2.84-1.17l1,1.13a4.26,4.26,0,0,1-1.66,1.16,5.89,5.89,0,0,1-2.22.4,6,6,0,0,1-2.77-.62,4.54,4.54,0,0,1-1.87-1.76,4.93,4.93,0,0,1-.66-2.54,5.11,5.11,0,0,1,.64-2.53,4.58,4.58,0,0,1,1.77-1.75,5.08,5.08,0,0,1,2.53-.63,5,5,0,0,1,2.52.63,4.48,4.48,0,0,1,1.73,1.75,5.29,5.29,0,0,1,.62,2.58A3.89,3.89,0,0,1,426.66,121.53Zm-7-3.25a3,3,0,0,0-1,2H425a3.25,3.25,0,0,0-5.3-2Z"/><path class="cls-3" d="M434.67,125.55a5.39,5.39,0,0,1-1.75-.8l.75-1.39a5.13,5.13,0,0,0,1.58.73,6.66,6.66,0,0,0,1.87.27c1.56,0,2.34-.43,2.34-1.3a.84.84,0,0,0-.31-.69,2.08,2.08,0,0,0-.79-.38c-.32-.07-.77-.16-1.35-.26a13,13,0,0,1-1.94-.42,3,3,0,0,1-1.29-.8,2.18,2.18,0,0,1-.54-1.58,2.47,2.47,0,0,1,1.11-2.1,5.15,5.15,0,0,1,3-.79,8.36,8.36,0,0,1,2,.24,5.35,5.35,0,0,1,1.61.64l-.76,1.38a5.2,5.2,0,0,0-2.84-.77,3.27,3.27,0,0,0-1.73.37,1.08,1.08,0,0,0-.6,1,.92.92,0,0,0,.34.74,2,2,0,0,0,.83.4c.32.09.79.19,1.38.29a16.94,16.94,0,0,1,1.92.43,2.93,2.93,0,0,1,1.26.77,2.18,2.18,0,0,1,.52,1.53,2.39,2.39,0,0,1-1.15,2.08,5.5,5.5,0,0,1-3.11.77A8.13,8.13,0,0,1,434.67,125.55Z"/><path class="cls-3" d="M452.34,121.53h-8a3,3,0,0,0,1.14,2,3.77,3.77,0,0,0,2.43.78,3.69,3.69,0,0,0,2.84-1.17l1,1.13a4.19,4.19,0,0,1-1.66,1.16,5.81,5.81,0,0,1-2.22.4,6,6,0,0,1-2.77-.62,4.6,4.6,0,0,1-1.87-1.76,4.93,4.93,0,0,1-.65-2.54,5,5,0,0,1,.64-2.53,4.49,4.49,0,0,1,1.76-1.75,5.12,5.12,0,0,1,2.54-.63,5,5,0,0,1,2.51.63,4.41,4.41,0,0,1,1.73,1.75,5.19,5.19,0,0,1,.62,2.58C452.37,121.14,452.36,121.31,452.34,121.53Zm-7-3.25a3,3,0,0,0-1,2h6.31a3,3,0,0,0-1-2,3.06,3.06,0,0,0-2.14-.77A3.12,3.12,0,0,0,445.36,118.28Z"/><path class="cls-3" d="M461.85,115.3v.83h2.86v1.44h-2.82v8.19H460.1v-8.19h-1.67v-1.44h1.67v-.85A3,3,0,0,1,461,113a3.27,3.27,0,0,1,2.39-.84,4,4,0,0,1,1.12.15,2.82,2.82,0,0,1,.89.42l-.54,1.32a2.27,2.27,0,0,0-1.37-.45C462.38,113.61,461.85,114.17,461.85,115.3Z"/><path class="cls-3" d="M472.93,117A3.74,3.74,0,0,1,474,120v5.81h-1.69v-1.27a2.81,2.81,0,0,1-1.28,1,5,5,0,0,1-2,.35,4.15,4.15,0,0,1-2.64-.78,2.46,2.46,0,0,1-1-2,2.53,2.53,0,0,1,.95-2.05,4.77,4.77,0,0,1,3-.77h2.82v-.34a2.22,2.22,0,0,0-.66-1.73,2.88,2.88,0,0,0-2-.6,5.47,5.47,0,0,0-1.71.28,4.47,4.47,0,0,0-1.42.76l-.74-1.31a5.47,5.47,0,0,1,1.82-.92,7.89,7.89,0,0,1,2.25-.32A4.53,4.53,0,0,1,472.93,117Zm-1.77,7.06a2.55,2.55,0,0,0,1.07-1.26v-1.34h-2.75c-1.51,0-2.26.49-2.26,1.48a1.35,1.35,0,0,0,.57,1.15,2.69,2.69,0,0,0,1.6.42A3.38,3.38,0,0,0,471.16,124.08Z"/><path class="cls-3" d="M484.62,124.33v1.43h-8.24v-1.12l5.81-7.07h-5.7v-1.44h8v1.15l-5.82,7Z"/><path class="cls-3" d="M495.72,121.53h-8a3,3,0,0,0,1.14,2,3.76,3.76,0,0,0,2.42.78,3.69,3.69,0,0,0,2.85-1.17l1,1.13a4.19,4.19,0,0,1-1.66,1.16,5.81,5.81,0,0,1-2.22.4,6,6,0,0,1-2.77-.62,4.6,4.6,0,0,1-1.87-1.76,4.93,4.93,0,0,1-.66-2.54,5.11,5.11,0,0,1,.64-2.53,4.58,4.58,0,0,1,1.77-1.75,5.09,5.09,0,0,1,2.54-.63,5,5,0,0,1,2.51.63,4.41,4.41,0,0,1,1.73,1.75,5.19,5.19,0,0,1,.62,2.58C495.75,121.14,495.74,121.31,495.72,121.53Zm-7-3.25a3,3,0,0,0-1,2H494a3,3,0,0,0-1-2,3.06,3.06,0,0,0-2.14-.77A3.12,3.12,0,0,0,488.74,118.28Z"/><path class="cls-3" d="M501.31,116.48a5.06,5.06,0,0,1,2.21-.44v1.69l-.41,0a3.07,3.07,0,0,0-2.28.85A3.31,3.31,0,0,0,500,121v4.79h-1.79v-9.63h1.71v1.62A3,3,0,0,1,501.31,116.48Z"/><path class="cls-3" d="M526.1,117.1a4.17,4.17,0,0,1,1.09,3.12v5.54H525.4v-5.34a3,3,0,0,0-.66-2.11,2.45,2.45,0,0,0-1.88-.7,2.87,2.87,0,0,0-2.16.82,3.28,3.28,0,0,0-.8,2.37v5h-1.78v-5.34a3,3,0,0,0-.66-2.11,2.45,2.45,0,0,0-1.88-.7,2.86,2.86,0,0,0-2.16.82,3.28,3.28,0,0,0-.8,2.37v5h-1.78v-9.63h1.71v1.44a3.51,3.51,0,0,1,1.41-1.14,4.81,4.81,0,0,1,2-.39,4.47,4.47,0,0,1,2,.46,3.25,3.25,0,0,1,1.38,1.32,3.69,3.69,0,0,1,1.55-1.3,5.08,5.08,0,0,1,2.24-.48A4.08,4.08,0,0,1,526.1,117.1Z"/><path class="cls-3" d="M539.39,121.53h-8a3,3,0,0,0,1.15,2,3.74,3.74,0,0,0,2.42.78,3.67,3.67,0,0,0,2.84-1.17l1,1.13a4.23,4.23,0,0,1-1.67,1.16,5.81,5.81,0,0,1-2.22.4,6,6,0,0,1-2.76-.62,4.54,4.54,0,0,1-1.87-1.76,4.93,4.93,0,0,1-.66-2.54,5,5,0,0,1,.64-2.53,4.58,4.58,0,0,1,1.77-1.75,5.08,5.08,0,0,1,2.53-.63,5,5,0,0,1,2.52.63,4.48,4.48,0,0,1,1.73,1.75,5.29,5.29,0,0,1,.62,2.58A3.89,3.89,0,0,1,539.39,121.53Zm-7-3.25a3,3,0,0,0-1,2h6.32a3.25,3.25,0,0,0-5.3-2Z"/><path class="cls-3" d="M545,116.48a5.14,5.14,0,0,1,2.22-.44v1.69l-.41,0a3.06,3.06,0,0,0-2.28.85,3.31,3.31,0,0,0-.83,2.41v4.79H541.9v-9.63h1.71v1.62A3,3,0,0,1,545,116.48Z"/><path class="cls-3" d="M550.9,125.24a4.75,4.75,0,0,1-1.85-1.76,5.13,5.13,0,0,1,0-5.07,4.7,4.7,0,0,1,1.85-1.74,5.62,5.62,0,0,1,2.69-.63,5.24,5.24,0,0,1,2.38.53,3.82,3.82,0,0,1,1.63,1.53l-1.36.85a3,3,0,0,0-1.15-1,3.24,3.24,0,0,0-1.52-.35,3.56,3.56,0,0,0-1.74.42,3,3,0,0,0-1.21,1.19,3.52,3.52,0,0,0-.43,1.77,3.59,3.59,0,0,0,.43,1.79,3.08,3.08,0,0,0,1.21,1.19,3.56,3.56,0,0,0,1.74.42,3.36,3.36,0,0,0,1.52-.35,2.93,2.93,0,0,0,1.15-1l1.36.84a3.91,3.91,0,0,1-1.63,1.54,5.24,5.24,0,0,1-2.38.53A5.62,5.62,0,0,1,550.9,125.24Z"/><path class="cls-3" d="M566.62,117A3.77,3.77,0,0,1,567.7,120v5.81H566v-1.27a2.79,2.79,0,0,1-1.27,1,5,5,0,0,1-2,.35,4.2,4.2,0,0,1-2.65-.78,2.48,2.48,0,0,1-1-2,2.53,2.53,0,0,1,1-2.05,4.77,4.77,0,0,1,3-.77h2.82v-.34a2.2,2.2,0,0,0-.67-1.73,2.85,2.85,0,0,0-2-.6,5.57,5.57,0,0,0-1.71.28,4.41,4.41,0,0,0-1.41.76l-.74-1.31a5.38,5.38,0,0,1,1.82-.92,7.84,7.84,0,0,1,2.25-.32A4.55,4.55,0,0,1,566.62,117Zm-1.78,7.06a2.52,2.52,0,0,0,1.08-1.26v-1.34h-2.75c-1.51,0-2.27.49-2.27,1.48a1.36,1.36,0,0,0,.58,1.15,2.67,2.67,0,0,0,1.6.42A3.31,3.31,0,0,0,564.84,124.08Z"/><path class="cls-3" d="M580.36,112.28v13.48h-1.71v-1.52a3.8,3.8,0,0,1-1.51,1.21,4.73,4.73,0,0,1-2,.42,5.19,5.19,0,0,1-2.56-.62,4.46,4.46,0,0,1-1.77-1.73,5.05,5.05,0,0,1-.64-2.57,5,5,0,0,1,.64-2.56,4.46,4.46,0,0,1,1.77-1.73,5.3,5.3,0,0,1,2.56-.62,4.86,4.86,0,0,1,2,.39,3.83,3.83,0,0,1,1.48,1.16v-5.31ZM577,123.92a3.05,3.05,0,0,0,1.19-1.2,3.86,3.86,0,0,0,0-3.54A2.9,2.9,0,0,0,577,118a3.63,3.63,0,0,0-3.39,0,3.09,3.09,0,0,0-1.19,1.19,3.86,3.86,0,0,0,0,3.54,3.26,3.26,0,0,0,1.19,1.2,3.56,3.56,0,0,0,3.39,0Z"/><path class="cls-3" d="M585.32,125.24a4.56,4.56,0,0,1-1.83-1.76,5.2,5.2,0,0,1,0-5.07,4.52,4.52,0,0,1,1.83-1.74,5.8,5.8,0,0,1,5.26,0,4.62,4.62,0,0,1,1.82,1.74,5.2,5.2,0,0,1,0,5.07,4.67,4.67,0,0,1-1.82,1.76,5.8,5.8,0,0,1-5.26,0Zm4.33-1.32a3,3,0,0,0,1.18-1.2,3.86,3.86,0,0,0,0-3.54,2.88,2.88,0,0,0-1.18-1.19,3.65,3.65,0,0,0-3.4,0,3.09,3.09,0,0,0-1.19,1.19,3.86,3.86,0,0,0,0,3.54,3.26,3.26,0,0,0,1.19,1.2,3.58,3.58,0,0,0,3.4,0Z"/></g></g></svg>