<svg width="671" height="671" viewBox="0 0 671 671" fill="none" xmlns="http://www.w3.org/2000/svg">
<g clip-path="url(#clip0)">
<path opacity="0.29" d="M530.235 530.239C637.786 422.688 637.786 248.312 530.235 140.761C422.683 33.2096 248.308 33.2096 140.757 140.761C33.2052 248.312 33.2052 422.688 140.757 530.239C248.308 637.79 422.683 637.79 530.235 530.239Z" fill="#009955"/>
<path opacity="0.4" d="M278.787 191.034L570.457 150.868L584.817 259.489L302.863 300.246L278.787 191.034Z" fill="#009955"/>
<path d="M614.368 199.891L599.995 29.5911L308.338 92.5711L324.643 262.509L483.429 228.194L505.021 273.567L464.332 336.251L532.64 288.235L533.512 217.364L614.368 199.891Z" fill="#00B561"/>
<path d="M446.417 309.653L446.457 282.88L461.407 286.249L446.417 309.653Z" fill="#FFFAEF"/>
<path d="M463.004 316.081L472.572 291.08L485.348 299.561L463.004 316.081Z" fill="#FFFAEF"/>
<path d="M478.182 342.68L503.666 334.507L505.048 349.779L478.182 342.68Z" fill="#FFFAEF"/>
<path d="M478.262 360.783L505.021 360.501L501.827 375.505L478.262 360.783Z" fill="#FFFAEF"/>
<path d="M466.452 372.848L489.91 385.758L479.765 397.246L466.452 372.848Z" fill="#FFFAEF"/>
<path d="M285.443 480.825L399.071 577.744L367.842 604.813L289.295 544.503L285.443 480.825Z" fill="#05C66A"/>
<path d="M326.495 434.446L349.792 546.181L389.784 544.839L363.655 456.696L384.59 446.296L361.119 408.76L326.495 434.446Z" fill="#F6BC9F"/>
<path d="M245.358 409.23L258.174 508.014L187.88 469.136L182.794 369.05L245.358 409.23Z" fill="#F6BC9F"/>
<path d="M251.128 447.074L199.488 430.675L204.641 470.921L187.88 469.136L181.881 380.175L248.672 430.084L251.128 447.074Z" fill="#E9946F"/>
<path d="M454.911 342.881C457.568 353.429 451.18 364.125 440.646 366.795C430.097 369.453 419.402 363.065 416.745 352.53C414.087 341.982 420.475 331.286 431.01 328.629C441.545 325.958 452.254 332.346 454.911 342.881Z" fill="#FFFAEF"/>
<path d="M371.036 363.588C374.981 379.195 365.52 395.044 349.913 398.99C334.305 402.922 318.456 393.474 314.511 377.867C310.565 362.259 320.026 346.41 335.634 342.465C351.255 338.519 367.104 347.967 371.036 363.588Z" fill="#EE4623"/>
<path d="M356.965 337.09L335.964 342.391L350.229 398.915L371.23 393.615L356.965 337.09Z" fill="#EE4623"/>
<path d="M425.427 294.019L438.794 346.947L364.232 365.776L356.985 337.07C356.972 337.07 406.022 319.477 425.427 294.019Z" fill="#FFFAEF"/>
<path d="M452.147 399.889L438.78 346.961L364.219 365.789L371.237 393.609C371.237 393.595 422.998 386.684 452.147 399.889Z" fill="#F5EFDB"/>
<path d="M457.366 396.99C458.144 400.077 456.279 403.204 453.192 403.982C450.106 404.761 446.979 402.895 446.201 399.809L420.421 297.696C419.642 294.609 421.508 291.482 424.594 290.704C427.681 289.926 430.808 291.791 431.6 294.878L457.366 396.99Z" fill="#EE4623"/>
<path d="M374.163 435.211C375.022 438.619 372.955 442.068 369.56 442.927C366.151 443.786 362.702 441.719 361.843 438.324L349.631 389.958C348.772 386.55 350.839 383.101 354.234 382.242C357.643 381.383 361.092 383.45 361.951 386.845L374.163 435.211Z" fill="#EE4623"/>
<path d="M364.13 395.336L351.795 398.452L354.519 409.239L366.855 406.123L364.13 395.336Z" fill="#B72025"/>
<path d="M326.495 434.446L344.786 403.808L375.813 403.311C375.813 403.311 378.403 411.726 367.869 414.973C358.985 417.711 351.55 415.966 351.55 415.966C351.55 415.966 363.762 442.981 343.672 443.853C323.583 444.739 326.495 434.446 326.495 434.446Z" fill="#F6BC9F"/>
<path d="M292.878 416.557C292.878 416.557 261.408 441.706 211.915 421.536L162.274 314.712C162.274 314.712 185.075 271.487 214.263 274.962C214.263 274.962 214.263 274.962 214.277 274.962C214.934 275.043 215.592 275.137 216.263 275.271L291.63 328.575L256.456 345.028L260.388 349.967L265.219 356.019C265.219 356.019 265.018 356.194 264.629 356.502C262.253 358.368 252.994 365.118 243.546 364.742C237.547 364.501 231.468 361.414 227.026 352.355C226.623 351.55 226.234 350.678 225.858 349.765C225.858 349.765 225.791 350.114 225.684 350.745C225.684 350.785 225.67 350.826 225.67 350.852C225.67 350.879 225.67 350.906 225.657 350.946C224.53 357.844 219.846 392.803 238.648 399.191C247.599 406.492 262.347 408.451 286.463 397.581L292.878 416.557Z" fill="#F6BC9F"/>
<path d="M145.835 304.084C145.835 304.084 119.733 325.354 131.166 357.911C142.587 390.468 179.747 374.082 179.747 374.082L145.835 304.084Z" fill="#AA5C27"/>
<path d="M218.947 291.71L223.282 297.776L204.373 312.216C204.373 312.203 194.04 295.763 218.947 291.71Z" fill="#AA5C27"/>
<path d="M227.227 305.614C227.227 305.614 237.453 321.355 229.576 324.133C221.698 326.911 217.578 313.277 217.578 313.277C217.578 313.277 223.818 319.826 226.247 317.611C228.676 315.41 227.227 305.614 227.227 305.614Z" fill="#3C2A34"/>
<path d="M242.19 293.616L256.456 345.028L291.643 328.575L242.19 293.616Z" fill="url(#paint0_linear)"/>
<path d="M222.115 279.418C222.115 279.418 187.29 292.341 187.491 311.8C187.692 331.259 216.84 376.243 216.84 376.243L215.109 397.259L161.563 306.862L214.17 275.003L222.115 279.418Z" fill="#E9946F"/>
<path d="M302.312 414.423C302.312 414.423 214.424 479.376 179.747 374.096L143.365 304.701C143.365 304.701 144.412 242.835 198.24 249.505C223.738 252.672 215.176 239.386 215.176 239.386C215.176 239.386 234.809 240.594 228.435 256.98C222.463 272.359 215.162 274.734 214.277 274.962C214.263 274.962 214.263 274.962 214.263 274.962C214.209 274.989 214.183 274.989 214.183 274.989L175.104 301.346L187.691 324.898L181.344 331.246L216.035 395.903C216.035 395.903 213.914 343.19 222.342 343.485C230.783 343.767 260.388 349.967 260.388 349.967L264.628 356.502L265.876 358.408C261.501 362.769 253.664 368.07 243.546 364.742C237.547 364.501 231.468 361.414 227.026 352.356C226.583 351.846 226.14 351.295 225.684 350.745C225.684 350.785 225.67 350.826 225.67 350.853C225.67 350.879 225.67 350.906 225.657 350.946C225.335 353.765 222.06 385.651 238.647 399.191C247.598 406.492 262.347 408.451 286.463 397.581C287.697 397.031 288.945 396.454 290.22 395.823L302.312 414.423Z" fill="#AA5C27"/>
<path d="M243.546 364.742C237.548 364.501 231.468 361.414 227.026 352.356C232.998 359.348 238.554 363.092 243.546 364.742Z" fill="#ADDFE8"/>
<path d="M263.407 360.622L266.454 371.949C266.454 371.949 228.274 396.548 225.684 350.745C225.684 350.745 237.372 369.949 263.407 360.622Z" fill="#FFFAEF"/>
<path d="M259.986 473.511L258.174 508.014L198.898 472.438L172.595 476.585L185.035 671H326.495L285.443 480.825L259.986 473.511Z" fill="#05C66A"/>
<path d="M258.174 508.014L252.752 466.198L270.278 471.123L278.787 508.014L266.91 495.252L258.174 508.014Z" fill="#FFFAEF"/>
<path d="M191.852 534.653L140.883 600.545L202.253 636.309L185.035 671L65.7578 619.212L172.594 476.584L191.852 534.653Z" fill="#05C66A"/>
<path d="M375.827 403.311L351.591 414.222L355.322 424.837L380.726 416.798C380.712 416.785 385.919 405.807 375.827 403.311Z" fill="#F6BC9F"/>
<path d="M382.336 422.354L358.1 433.265L361.83 443.866L386.469 436.257C386.456 436.257 392.428 424.837 382.336 422.354Z" fill="#F6BC9F"/>
<path d="M379.263 412.544L355.026 423.455L358.757 434.07L384.161 426.031C384.148 426.031 389.355 415.04 379.263 412.544Z" fill="#F6BC9F"/>
<path d="M375.801 424.367L358.704 431.44L356.02 420.985L374.485 413.363L357.885 421.267L360.81 428.272L375.801 424.367Z" fill="#E9946F"/>
<path d="M381.974 432.205L356.274 438.995L358.22 450.067L384.591 446.296C384.591 446.296 391.529 436.311 381.974 432.205Z" fill="#F6BC9F"/>
<path d="M339.284 440.042C339.284 440.042 360.689 438.338 354.61 418.194C354.61 418.194 361.776 422.784 373.693 413.685C373.693 413.685 362.138 420.959 351.657 415.188C351.657 415.188 353.402 436.19 339.284 440.042Z" fill="#E9946F"/>
<path d="M380.578 446L364.447 452.777L360.797 442.632L379.263 434.996L362.662 442.9L365.588 449.919L380.578 446Z" fill="#E9946F"/>
<path d="M385.382 432.044L360.555 442.337L356.918 432.178L375.384 424.542L358.783 432.446L361.709 439.465L385.382 432.044Z" fill="#E9946F"/>
<path d="M172.863 252.256C172.863 252.256 135.112 291.469 156.772 313.169C156.772 313.169 134.294 328.28 137.863 339.258C141.433 350.222 172.594 360.998 172.594 360.998L179.747 374.096C179.747 374.096 140.319 392.978 128.268 357.898C116.204 322.818 143.366 304.701 143.366 304.701C143.366 304.701 133.193 268.843 172.863 252.256Z" fill="#9D3522"/>
<path d="M164.462 342.089C164.462 342.089 158.826 335.513 150.331 347.377C142.144 358.81 159.59 383.074 172.863 361.615L164.462 342.089Z" fill="#F6BC9F"/>
<path d="M164.462 342.089C164.462 342.089 203.621 420.905 231.039 424.757C258.442 428.608 302.326 414.423 302.326 414.423C302.326 414.423 263.354 443.384 232.568 434.661C187.182 421.791 164.462 342.089 164.462 342.089Z" fill="#9D3522"/>
<path d="M258.174 508.014L242.862 482.342L185.599 456.75L172.595 486.153L228.878 519.582L237.145 495.211L258.174 508.014Z" fill="#FFFAEF"/>
<path d="M156.92 531.982L175.453 547.254L178.701 524.883L196.455 659.472L324.173 660.21L326.495 671H185.035L175.211 556.165L155.417 581.744L172.595 551.549L156.92 531.982Z" fill="#009955"/>
<path d="M172.594 476.584L78.0371 615.361L179.747 656.48L182.794 624.084L185.035 671L65.7578 619.212L172.594 476.584Z" fill="#009955"/>
<path d="M372.096 482.1L399.07 577.744L342.786 571.625L336.613 494.715L372.096 482.1Z" fill="#05C66A"/>
<path d="M299.762 552.542L293.24 512.215L305.721 546.181L367.842 604.813L299.762 552.542Z" fill="#009955"/>
<path d="M343.833 500.338L342.263 564.244L336.613 501.908L343.833 500.338Z" fill="#009955"/>
<path d="M331.501 480.785L375.317 474.572L384.094 496.044L357.28 501.358L352.825 490.447L350.342 501.479L331.165 502.083L331.501 480.785Z" fill="#FFFAEF"/>
<path d="M341.552 409.229L328.508 434.244L338.613 479.778L334.037 480.825L324.817 434.07L341.552 409.229Z" fill="#E9946F"/>
<path d="M151.243 356.959C151.243 356.959 162.288 347.712 167.777 362.515C167.763 362.501 164.999 340.546 151.243 356.959Z" fill="#E9946F"/>
<path d="M350.364 101.77C350.474 103.423 350.112 104.768 349.277 105.803C348.449 106.836 347.217 107.498 345.581 107.788C344.439 107.99 343.377 107.884 342.394 107.468C341.418 107.052 340.598 106.364 339.934 105.406C339.269 104.44 338.813 103.284 338.568 101.938L338.214 99.9392C337.972 98.5711 337.997 97.3157 338.289 96.1731C338.581 95.0304 339.125 94.0942 339.919 93.3645C340.719 92.6265 341.705 92.1538 342.875 91.9466C344.526 91.6545 345.906 91.872 347.016 92.5991C348.133 93.3178 348.908 94.4497 349.341 95.9948L348.03 96.227C347.242 93.6682 345.589 92.6116 343.072 93.0573C341.676 93.3045 340.654 94.0235 340.007 95.2145C339.366 96.4042 339.209 97.9193 339.535 99.7599L339.868 101.643C340.183 103.42 340.836 104.766 341.827 105.681C342.825 106.596 344.012 106.931 345.387 106.688C346.748 106.447 347.716 105.941 348.293 105.17C348.867 104.391 349.121 103.336 349.052 102.002L350.364 101.77ZM357.534 94.7627C357.257 94.7608 356.967 94.7867 356.664 94.8403C355.874 94.9802 355.244 95.3209 354.772 95.8625C354.307 96.3958 354.032 97.1027 353.948 97.9831L355.339 105.842L354.08 106.065L352.054 94.62L353.292 94.4009L353.635 96.2166C354.065 94.744 355.021 93.8767 356.502 93.6145C356.854 93.5521 357.141 93.5487 357.362 93.6041L357.534 94.7627ZM362.796 104.522L361.527 104.747L359.501 93.3018L360.77 93.0771L362.796 104.522ZM358.693 90.0303C358.65 89.7905 358.692 89.5758 358.819 89.3862C358.944 89.1895 359.14 89.0674 359.408 89.02C359.676 88.9725 359.903 89.0197 360.088 89.1615C360.279 89.295 360.396 89.4816 360.438 89.7213C360.48 89.9611 360.435 90.1764 360.301 90.3673C360.175 90.557 359.978 90.6755 359.71 90.723C359.442 90.7704 359.216 90.7268 359.032 90.592C358.848 90.4573 358.735 90.2701 358.693 90.0303ZM370.714 103.339C369.741 103.511 368.817 103.427 367.942 103.088C367.075 102.747 366.347 102.188 365.758 101.412C365.169 100.629 364.78 99.7056 364.591 98.6407L364.511 98.1859C364.316 97.0858 364.352 96.0576 364.619 95.1012C364.894 94.1436 365.367 93.347 366.04 92.7115C366.712 92.069 367.492 91.6691 368.38 91.5118C369.77 91.2658 370.954 91.5471 371.934 92.3555C372.919 93.1557 373.557 94.3773 373.848 96.0204L373.973 96.7291L365.807 98.1746L365.85 98.4179C366.08 99.7154 366.642 100.732 367.536 101.469C368.436 102.197 369.45 102.461 370.578 102.261C371.255 102.141 371.829 101.912 372.3 101.574C372.778 101.235 373.181 100.757 373.508 100.139L374.408 100.601C373.715 102.113 372.484 103.025 370.714 103.339ZM368.571 92.5907C367.619 92.7592 366.877 93.2506 366.345 94.0648C365.82 94.8778 365.591 95.8856 365.658 97.0882L372.523 95.873L372.499 95.7355C372.269 94.6416 371.797 93.8016 371.082 93.2154C370.367 92.6291 369.531 92.4209 368.571 92.5907ZM389.043 96.876C388.932 96.2484 388.589 95.7891 388.014 95.4982C387.446 95.206 386.635 95.0441 385.582 95.0123C384.528 94.9734 383.694 94.8664 383.082 94.6912C382.475 94.5078 381.998 94.2394 381.652 93.8862C381.313 93.5316 381.093 93.0688 380.991 92.4976C380.832 91.595 381.077 90.7842 381.728 90.0653C382.378 89.3394 383.292 88.8722 384.469 88.6637C385.746 88.4378 386.824 88.5741 387.705 89.0727C388.592 89.563 389.125 90.3159 389.305 91.3314L388.036 91.5561C387.917 90.8861 387.536 90.379 386.894 90.0346C386.258 89.6889 385.513 89.5916 384.66 89.7427C383.828 89.89 383.191 90.1954 382.75 90.6591C382.314 91.1144 382.148 91.6382 382.253 92.2306C382.354 92.8018 382.641 93.2092 383.113 93.4529C383.591 93.6883 384.407 93.8384 385.56 93.9034C386.721 93.9671 387.602 94.0983 388.205 94.2971C388.814 94.4947 389.29 94.7778 389.631 95.1464C389.973 95.515 390.196 95.9955 390.301 96.5878C390.472 97.5539 390.217 98.3954 389.537 99.1122C388.864 99.8278 387.899 100.297 386.644 100.519C385.311 100.755 384.172 100.626 383.226 100.131C382.286 99.6284 381.729 98.8834 381.554 97.8962L382.824 97.6715C383.004 98.4032 383.417 98.9265 384.062 99.2414C384.712 99.5481 385.51 99.6178 386.455 99.4505C387.337 99.2945 388.014 98.9745 388.489 98.4905C388.963 98.0065 389.148 97.4684 389.043 96.876ZM400.789 96.3022C400.223 97.5442 399.105 98.3131 397.433 98.6089C396.213 98.8249 395.224 98.6365 394.464 98.0436C393.704 97.4437 393.193 96.4504 392.933 95.0637L391.615 87.617L392.874 87.3942L394.164 94.6822C394.549 96.8612 395.624 97.7947 397.387 97.4826C399.22 97.1581 400.246 96.1947 400.464 94.5924L398.998 86.31L400.267 86.0853L402.293 97.5304L401.066 97.7476L400.789 96.3022ZM412.818 95.6673C412.628 95.3302 412.452 94.8121 412.292 94.1132C411.95 94.7701 411.462 95.3183 410.827 95.758C410.198 96.1894 409.499 96.4731 408.73 96.6091C407.63 96.8039 406.684 96.655 405.891 96.1626C405.106 95.6689 404.63 94.9532 404.464 94.0153C404.267 92.9011 404.573 91.9378 405.382 91.1255C406.198 90.312 407.434 89.7586 409.091 89.4652L411.387 89.0589L411.156 87.7578C411.012 86.9398 410.644 86.343 410.054 85.9675C409.47 85.5836 408.694 85.4772 407.728 85.6482C406.847 85.8043 406.157 86.1591 405.659 86.7128C405.16 87.2665 404.967 87.8607 405.08 88.4953L403.808 88.7095C403.647 87.7998 403.931 86.9386 404.66 86.1259C405.388 85.3062 406.369 84.7871 407.603 84.5687C408.879 84.3427 409.941 84.4857 410.788 84.9976C411.641 85.5012 412.179 86.3223 412.402 87.4609L413.361 92.8767C413.557 93.9839 413.82 94.7919 414.15 95.3007L414.172 95.4277L412.818 95.6673ZM408.68 95.4617C409.526 95.3119 410.245 94.9738 410.835 94.4475C411.433 93.9199 411.822 93.2872 412.005 92.5495L411.559 90.032L409.295 90.4327C408.036 90.6703 407.089 91.0778 406.457 91.6552C405.824 92.2255 405.576 92.902 405.715 93.6848C405.828 94.3265 406.159 94.8171 406.706 95.1566C407.26 95.4948 407.918 95.5965 408.68 95.4617ZM423.893 93.7069L422.624 93.9316L419.748 77.6842L421.017 77.4595L423.893 93.7069ZM425.6 87.3282C425.406 86.2281 425.442 85.1999 425.709 84.2435C425.983 83.2859 426.465 82.4951 427.154 81.8713C427.85 81.2391 428.691 80.8356 429.678 80.6608C431.202 80.3912 432.531 80.7087 433.665 81.6133C434.799 82.5108 435.521 83.8411 435.834 85.604L435.88 85.8685C436.076 86.9756 436.038 88.0115 435.765 88.9762C435.498 89.9326 435.019 90.7192 434.328 91.336C433.637 91.9529 432.795 92.3493 431.8 92.5253C430.284 92.7937 428.956 92.4797 427.816 91.5834C426.681 90.6788 425.957 89.345 425.645 87.5821L425.6 87.3282ZM426.932 87.4526C427.174 88.8206 427.725 89.883 428.587 90.6396C429.454 91.388 430.462 91.6604 431.611 91.4569C432.754 91.2547 433.6 90.654 434.151 89.6547C434.707 88.6472 434.858 87.4241 434.603 85.9855L434.56 85.7422C434.405 84.8678 434.101 84.0961 433.648 83.4272C433.195 82.7583 432.641 82.2782 431.986 81.9869C431.329 81.6886 430.624 81.6062 429.869 81.7398C428.741 81.9395 427.9 82.5467 427.345 83.5613C426.788 84.5688 426.637 85.7884 426.89 87.2199L426.932 87.4526ZM438.823 79.2602L441.091 92.0698C441.278 93.1276 441.167 93.98 440.758 94.6269C440.349 95.2739 439.651 95.6848 438.664 95.8595C438.283 95.927 437.901 95.9255 437.517 95.8552L437.353 94.8042C437.68 94.841 438.005 94.8306 438.329 94.7732C439.585 94.551 440.084 93.7171 439.828 92.2715L437.565 79.483L438.823 79.2602ZM437.461 75.203C437.736 75.1544 437.967 75.2009 438.152 75.3427C438.336 75.4774 438.449 75.6647 438.491 75.9044C438.534 76.1442 438.492 76.3589 438.365 76.5485C438.239 76.7382 438.038 76.8574 437.763 76.906C437.495 76.9535 437.269 76.9098 437.085 76.7751C436.908 76.6391 436.799 76.4513 436.756 76.2115C436.714 75.9717 436.752 75.7577 436.872 75.5692C436.997 75.3725 437.194 75.2505 437.461 75.203ZM451.66 88.7916C451.469 88.4545 451.294 87.9364 451.134 87.2375C450.792 87.8944 450.303 88.4426 449.669 88.8823C449.039 89.3137 448.341 89.5974 447.572 89.7335C446.472 89.9282 445.525 89.7793 444.733 89.2869C443.947 88.7933 443.471 88.0775 443.305 87.1396C443.108 86.0254 443.414 85.0621 444.223 84.2499C445.039 83.4363 446.276 82.8829 447.933 82.5895L450.228 82.1832L449.998 80.8821C449.853 80.0641 449.486 79.4673 448.895 79.0918C448.311 78.7079 447.536 78.6015 446.57 78.7726C445.688 78.9286 444.998 79.2834 444.5 79.8371C444.002 80.3908 443.809 80.985 443.921 81.6196L442.65 81.8338C442.489 80.9241 442.773 80.0629 443.502 79.2502C444.229 78.4305 445.21 77.9114 446.444 77.693C447.721 77.467 448.782 77.61 449.629 78.1219C450.482 78.6255 451.02 79.4466 451.243 80.5852L452.202 86.001C452.398 87.1082 452.661 87.9162 452.991 88.425L453.014 88.552L451.66 88.7916ZM447.522 88.586C448.368 88.4362 449.086 88.0981 449.677 87.5718C450.274 87.0442 450.664 86.4115 450.846 85.6738L450.4 83.1563L448.137 83.557C446.877 83.7946 445.931 84.2021 445.299 84.7795C444.665 85.3498 444.417 86.0264 444.556 86.8091C444.67 87.4508 445 87.9414 445.547 88.2809C446.102 88.6191 446.76 88.7208 447.522 88.586ZM464.573 84.7057L466.336 74.3899L467.637 74.1596L465.39 86.3612L464.364 86.5428L458.043 75.8579L459.344 75.6276L464.573 84.7057ZM473.164 84.9849L471.895 85.2096L469.869 73.7645L471.138 73.5398L473.164 84.9849ZM469.061 70.493C469.018 70.2532 469.06 70.0385 469.187 69.8489C469.312 69.6522 469.508 69.5301 469.776 69.4827C470.044 69.4352 470.271 69.4824 470.456 69.6242C470.647 69.7577 470.764 69.9443 470.806 70.184C470.849 70.4238 470.803 70.6391 470.67 70.83C470.543 71.0197 470.346 71.1382 470.078 71.1857C469.81 71.2331 469.584 71.1895 469.4 71.0547C469.216 70.92 469.103 70.7328 469.061 70.493ZM480.066 73.0721C479.79 73.0701 479.5 73.096 479.197 73.1497C478.407 73.2895 477.776 73.6302 477.305 74.1719C476.839 74.7052 476.564 75.412 476.48 76.2924L477.871 84.1517L476.613 84.3745L474.587 72.9294L475.824 72.7103L476.167 74.5259C476.598 73.0534 477.553 72.186 479.034 71.9239C479.387 71.8615 479.673 71.858 479.894 71.9135L480.066 73.0721ZM483.863 68.2654L484.382 71.1955L486.751 70.776L486.935 71.8127L484.565 72.2321L485.915 79.8586C486.028 80.4933 486.224 80.9458 486.505 81.2161C486.792 81.4852 487.204 81.5723 487.74 81.4775C487.951 81.44 488.287 81.3442 488.747 81.1901L488.984 82.2173C488.673 82.3959 488.233 82.5357 487.662 82.6368C486.794 82.7903 486.119 82.6517 485.635 82.221C485.15 81.7831 484.821 81.0741 484.648 80.0939L483.296 72.4568L481.191 72.8294L481.007 71.7928L483.112 71.4202L482.594 68.4901L483.863 68.2654ZM498.506 79.0044C497.94 80.2463 496.822 81.0152 495.151 81.3111C493.931 81.5271 492.941 81.3386 492.181 80.7458C491.421 80.1459 490.91 79.1526 490.65 77.7659L489.332 70.3192L490.591 70.0963L491.881 77.3844C492.267 79.5634 493.341 80.4969 495.104 80.1848C496.937 79.8602 497.963 78.8968 498.181 77.2945L496.715 69.0122L497.985 68.7875L500.011 80.2326L498.784 80.4498L498.506 79.0044ZM510.535 78.3695C510.345 78.0323 510.169 77.5143 510.009 76.8153C509.667 77.4722 509.179 78.0205 508.544 78.4602C507.915 78.8915 507.216 79.1752 506.448 79.3113C505.347 79.506 504.401 79.3572 503.608 78.8648C502.823 78.3711 502.347 77.6553 502.181 76.7174C501.984 75.6032 502.29 74.64 503.099 73.8277C503.915 73.0142 505.151 72.4607 506.808 72.1674L509.104 71.761L508.873 70.46C508.729 69.642 508.361 69.0452 507.771 68.6696C507.187 68.2858 506.412 68.1794 505.445 68.3504C504.564 68.5064 503.874 68.8613 503.376 69.415C502.877 69.9687 502.684 70.5628 502.797 71.1975L501.525 71.4116C501.364 70.5019 501.648 69.6408 502.377 68.8281C503.105 68.0084 504.086 67.4893 505.32 67.2708C506.596 67.0449 507.658 67.1879 508.505 67.6997C509.358 68.2033 509.896 69.0245 510.119 70.1631L511.078 75.5789C511.274 76.686 511.537 77.494 511.867 78.0029L511.889 78.1298L510.535 78.3695ZM506.397 78.1639C507.243 78.0141 507.962 77.676 508.552 77.1496C509.15 76.622 509.54 75.9894 509.722 75.2517L509.276 72.7342L507.012 73.1349C505.753 73.3724 504.807 73.7799 504.174 74.3573C503.541 74.9277 503.293 75.6042 503.432 76.387C503.545 77.0287 503.876 77.5193 504.423 77.8587C504.978 78.197 505.636 78.2987 506.397 78.1639ZM516.343 77.3415L515.073 77.5662L512.197 61.3188L513.467 61.0941L516.343 77.3415ZM520.036 79.655L519.187 79.2379C519.677 78.264 519.85 77.3133 519.708 76.3858L519.418 74.7462L520.655 74.5271L520.889 75.8494C521.149 77.3161 520.865 78.5847 520.036 79.655ZM537.547 69.6824C537.396 68.8291 536.977 68.2088 536.29 67.8212C535.602 67.4267 534.422 67.1483 532.75 66.9862C531.076 66.817 529.826 66.5328 528.999 66.1338C527.823 65.571 527.127 64.6832 526.913 63.4703C526.704 62.2926 527.018 61.2516 527.854 60.3472C528.697 59.4345 529.872 58.8445 531.381 58.5774C532.404 58.3964 533.352 58.4322 534.226 58.6848C535.107 58.9361 535.832 59.3751 536.401 60.0016C536.97 60.6282 537.331 61.3751 537.485 62.2425L536.173 62.4747C535.987 61.424 535.478 60.6449 534.646 60.1376C533.814 59.6232 532.791 59.4734 531.578 59.6881C530.4 59.8965 529.509 60.327 528.905 60.9795C528.299 61.6249 528.071 62.3707 528.221 63.2169C528.359 63.9997 528.786 64.5823 529.501 64.9649C530.216 65.3474 531.298 65.6067 532.748 65.7428C534.196 65.8719 535.313 66.0779 536.097 66.3608C536.881 66.6367 537.502 67.0249 537.962 67.5254C538.421 68.0259 538.719 68.6604 538.855 69.4291C539.07 70.642 538.755 71.7013 537.912 72.6069C537.076 73.5113 535.864 74.104 534.278 74.3848C533.192 74.5771 532.159 74.5598 531.181 74.333C530.21 74.1049 529.426 73.6836 528.83 73.0691C528.241 72.4534 527.867 71.6942 527.707 70.7916L529.008 70.5613C529.2 71.6472 529.757 72.4323 530.679 72.9163C531.601 73.4004 532.736 73.5232 534.083 73.2848C535.282 73.0726 536.197 72.6377 536.83 71.9803C537.463 71.3228 537.702 70.5568 537.547 69.6824ZM549.54 63.8503L542.337 65.1254L543.449 71.4086L551.731 69.9424L551.926 71.0425L542.343 72.739L539.616 57.3378L549.147 55.6507L549.344 56.7614L541.114 58.2182L542.142 64.0253L549.345 62.7502L549.54 63.8503ZM553.674 54.8493L561.761 67.4362L565.056 52.8345L566.791 52.5274L569.517 67.9286L568.216 68.1589L567.029 61.4527L565.917 54.5584L562.588 69.1551L561.584 69.333L553.477 56.8152L554.783 63.5768L555.977 70.3254L554.676 70.5557L551.95 55.1545L553.674 54.8493ZM357.944 117.047L352.666 117.981L355.196 132.272L353.895 132.502L351.365 118.212L346.097 119.144L345.901 118.034L357.748 115.936L357.944 117.047ZM369.674 125.258L362.682 126.496L361.86 131.092L360.495 131.334L363.597 114.901L364.835 114.682L373.389 129.051L372.035 129.291L369.674 125.258ZM362.888 125.314L369.065 124.22L364.491 116.379L362.888 125.314ZM378.777 118.934L381.96 111.65L383.515 111.375L379.761 119.872L386.4 126.748L384.834 127.025L379.159 121.092L375.843 128.617L374.299 128.89L378.185 120.151L371.731 113.461L373.286 113.186L378.777 118.934ZM396.478 120.513L389.486 121.751L388.664 126.347L387.299 126.589L390.401 110.156L391.639 109.937L400.193 124.306L398.839 124.546L396.478 120.513ZM389.692 120.569L395.869 119.475L391.295 111.634L389.692 120.569ZM407.735 122.971L405.009 107.57L409.314 106.808C410.576 106.585 411.759 106.673 412.863 107.074C413.966 107.468 414.89 108.152 415.637 109.125C416.391 110.097 416.889 111.267 417.131 112.635L417.382 114.053C417.625 115.428 417.563 116.697 417.194 117.861C416.826 119.024 416.185 119.985 415.272 120.743C414.366 121.499 413.257 121.994 411.945 122.226L407.735 122.971ZM406.507 108.451L408.842 121.641L411.761 121.124C413.383 120.837 414.589 120.071 415.38 118.825C416.169 117.573 416.401 116.03 416.077 114.197L415.837 112.843C415.524 111.073 414.79 109.741 413.635 108.847C412.48 107.953 411.113 107.642 409.532 107.915L406.507 108.451ZM429.128 111.57L421.925 112.845L423.037 119.128L431.319 117.662L431.514 118.762L421.931 120.459L419.204 105.057L428.735 103.37L428.931 104.481L420.702 105.938L421.73 111.745L428.933 110.47L429.128 111.57ZM447.082 111.555L440.09 112.793L439.267 117.39L437.903 117.631L441.005 101.198L442.243 100.979L450.797 115.349L449.443 115.588L447.082 111.555ZM440.295 111.611L446.473 110.518L441.899 102.676L440.295 111.611ZM453.071 114.946L450.345 99.5448L454.65 98.7827C455.912 98.5593 457.095 98.648 458.199 99.049C459.302 99.4429 460.226 100.127 460.973 101.1C461.727 102.072 462.225 103.242 462.467 104.61L462.718 106.027C462.962 107.402 462.899 108.672 462.53 109.835C462.162 110.999 461.521 111.959 460.608 112.717C459.702 113.474 458.593 113.969 457.281 114.201L453.071 114.946ZM451.843 100.425L454.178 113.616L457.097 113.099C458.719 112.812 459.925 112.045 460.716 110.8C461.505 109.548 461.737 108.005 461.413 106.171L461.173 104.817C460.86 103.047 460.126 101.715 458.971 100.821C457.817 99.9277 456.449 99.617 454.868 99.8896L451.843 100.425ZM474.464 103.544L467.261 104.82L468.373 111.103L476.655 109.637L476.85 110.737L467.267 112.433L464.54 97.0319L474.071 95.3449L474.268 96.4555L466.038 97.9123L467.066 103.719L474.269 102.444L474.464 103.544ZM487.646 104.92C487.495 104.067 487.076 103.446 486.389 103.059C485.701 102.664 484.521 102.386 482.849 102.224C481.175 102.055 479.925 101.77 479.098 101.371C477.922 100.809 477.226 99.9209 477.012 98.7079C476.803 97.5303 477.117 96.4893 477.953 95.5849C478.796 94.6721 479.971 94.0822 481.48 93.8151C482.503 93.6341 483.451 93.6699 484.325 93.9225C485.206 94.1738 485.931 94.6128 486.5 95.2393C487.069 95.8658 487.43 96.6128 487.584 97.4802L486.272 97.7123C486.086 96.6616 485.577 95.8826 484.746 95.3753C483.913 94.8609 482.89 94.711 481.677 94.9257C480.499 95.1342 479.608 95.5647 479.004 96.2171C478.398 96.8626 478.17 97.6084 478.32 98.4546C478.458 99.2374 478.885 99.82 479.6 100.203C480.315 100.585 481.397 100.844 482.847 100.981C484.295 101.11 485.412 101.316 486.196 101.599C486.98 101.874 487.601 102.263 488.061 102.763C488.52 103.264 488.818 103.898 488.954 104.667C489.169 105.88 488.854 106.939 488.011 107.845C487.175 108.749 485.963 109.342 484.377 109.623C483.291 109.815 482.258 109.797 481.28 109.571C480.309 109.343 479.525 108.921 478.929 108.307C478.34 107.691 477.966 106.932 477.806 106.029L479.107 105.799C479.299 106.885 479.856 107.67 480.778 108.154C481.701 108.638 482.835 108.761 484.182 108.522C485.381 108.31 486.296 107.875 486.929 107.218C487.562 106.56 487.801 105.795 487.646 104.92ZM499.992 102.189L493 103.427L492.177 108.023L490.813 108.265L493.915 91.8321L495.152 91.613L503.707 105.982L502.353 106.222L499.992 102.189ZM493.205 102.245L499.383 101.152L494.809 93.3102L493.205 102.245ZM497.506 87.3454C497.626 88.0224 497.522 88.6045 497.193 89.0917C496.871 89.5706 496.42 89.8613 495.842 89.9636C495.306 90.0585 494.747 89.9576 494.163 89.6608C493.587 89.3629 493.098 89.2495 492.696 89.3206C492.364 89.3793 492.105 89.5379 491.918 89.7965C491.738 90.0538 491.683 90.3799 491.753 90.7748L490.795 90.9116C490.681 90.2628 490.776 89.6931 491.082 89.2026C491.395 88.7109 491.855 88.4113 492.461 88.3039C492.8 88.244 493.099 88.2528 493.36 88.3302C493.621 88.4077 493.871 88.5017 494.108 88.6123C494.346 88.723 494.581 88.8195 494.814 88.9019C495.054 88.9831 495.319 88.9981 495.608 88.9469C495.932 88.8895 496.186 88.7245 496.371 88.4518C496.562 88.1779 496.623 87.8435 496.553 87.4486L497.506 87.3454ZM516.021 96.7226C516.272 98.1401 516.245 99.4284 515.941 100.588C515.644 101.746 515.092 102.694 514.285 103.434C513.478 104.173 512.478 104.648 511.286 104.859C509.488 105.177 507.922 104.793 506.588 103.705C505.252 102.611 504.391 100.97 504.004 98.7844L503.723 97.1978C503.474 95.7945 503.502 94.5096 503.804 93.3433C504.113 92.1687 504.671 91.2118 505.478 90.4725C506.284 89.7262 507.279 89.2481 508.464 89.0384C509.649 88.8287 510.743 88.9296 511.747 89.341C512.757 89.7511 513.602 90.4344 514.28 91.3906C514.959 92.3469 515.43 93.5108 515.695 94.8821L516.021 96.7226ZM514.424 95.2817C514.095 93.427 513.419 92.0486 512.394 91.1465C511.368 90.2443 510.126 89.9224 508.666 90.1808C507.235 90.4342 506.186 91.1653 505.52 92.3742C504.86 93.5747 504.697 95.1199 505.031 97.0098L505.316 98.6176C505.639 100.444 506.319 101.818 507.355 102.74C508.39 103.655 509.633 103.984 511.086 103.727C512.56 103.466 513.616 102.737 514.255 101.541C514.893 100.337 515.045 98.7935 514.712 96.9106L514.424 95.2817ZM519.385 106.175L518.536 105.757C519.026 104.783 519.199 103.833 519.057 102.905L518.767 101.266L520.004 101.047L520.238 102.369C520.498 103.836 520.213 105.104 519.385 106.175ZM536.896 96.2019C536.745 95.3486 536.326 94.7282 535.639 94.3407C534.951 93.9461 533.771 93.6678 532.099 93.5056C530.425 93.3364 529.175 93.0523 528.348 92.6532C527.172 92.0905 526.476 91.2027 526.262 89.9897C526.053 88.8121 526.367 87.7711 527.203 86.8667C528.045 85.9539 529.221 85.364 530.73 85.0969C531.753 84.9159 532.701 84.9517 533.575 85.2043C534.455 85.4556 535.18 85.8946 535.75 86.5211C536.319 87.1476 536.68 87.8946 536.834 88.762L535.522 88.9941C535.336 87.9434 534.827 87.1644 533.995 86.6571C533.163 86.1427 532.14 85.9928 530.927 86.2075C529.749 86.416 528.858 86.8465 528.254 87.4989C527.648 88.1444 527.42 88.8902 527.57 89.7364C527.708 90.5192 528.135 91.1018 528.85 91.4843C529.565 91.8669 530.647 92.1262 532.097 92.2623C533.545 92.3914 534.662 92.5974 535.446 92.8803C536.23 93.1562 536.851 93.5444 537.311 94.0449C537.77 94.5453 538.068 95.1799 538.204 95.9485C538.419 97.1615 538.104 98.2207 537.261 99.1264C536.425 100.031 535.213 100.623 533.627 100.904C532.541 101.097 531.508 101.079 530.53 100.852C529.559 100.624 528.775 100.203 528.179 99.5886C527.59 98.9729 527.216 98.2137 527.056 97.311L528.357 97.0807C528.549 98.1667 529.106 98.9517 530.028 99.4358C530.95 99.9198 532.085 100.043 533.432 99.8042C534.631 99.592 535.546 99.1572 536.179 98.4997C536.812 97.8423 537.051 97.0763 536.896 96.2019ZM548.889 90.3697L541.686 91.6449L542.798 97.9281L551.08 96.4619L551.275 97.562L541.692 99.2585L538.965 83.8573L548.496 82.1702L548.692 83.2808L540.463 84.7376L541.491 90.5448L548.694 89.2697L548.889 90.3697ZM553.023 81.3688L561.109 93.9556L564.405 79.354L566.14 79.0469L568.866 94.4481L567.565 94.6784L566.378 87.9721L565.266 81.0779L561.937 95.6746L560.933 95.8524L552.826 83.3347L554.132 90.0963L555.326 96.8448L554.025 97.0752L551.299 81.674L553.023 81.3688ZM328.833 147.459L336.919 160.046L340.214 145.444L341.949 145.137L344.676 160.538L343.374 160.769L342.187 154.062L341.076 147.168L337.747 161.765L336.742 161.943L328.635 149.425L329.941 156.187L331.136 162.935L329.835 163.165L327.109 147.764L328.833 147.459ZM355.776 150.959L348.573 152.234L349.685 158.517L357.967 157.051L358.162 158.151L348.579 159.847L345.852 144.446L355.383 142.759L355.58 143.87L347.35 145.327L348.378 151.134L355.582 149.859L355.776 150.959ZM372.379 155.634L371.078 155.865L359.891 144.252L362.224 157.432L360.912 157.664L358.186 142.263L359.498 142.031L370.697 153.652L368.362 140.462L369.652 140.233L372.379 155.634ZM384.338 149.612C384.187 148.759 383.768 148.138 383.081 147.751C382.393 147.356 381.213 147.078 379.541 146.916C377.867 146.746 376.617 146.462 375.79 146.063C374.614 145.5 373.919 144.613 373.704 143.4C373.495 142.222 373.809 141.181 374.646 140.277C375.488 139.364 376.663 138.774 378.172 138.507C379.195 138.326 380.143 138.362 381.017 138.614C381.898 138.866 382.623 139.305 383.192 139.931C383.761 140.558 384.122 141.305 384.276 142.172L382.964 142.404C382.778 141.353 382.269 140.574 381.438 140.067C380.605 139.553 379.582 139.403 378.369 139.617C377.191 139.826 376.3 140.256 375.696 140.909C375.09 141.554 374.862 142.3 375.012 143.146C375.15 143.929 375.577 144.512 376.292 144.894C377.007 145.277 378.089 145.536 379.539 145.672C380.987 145.801 382.104 146.007 382.888 146.29C383.672 146.566 384.293 146.954 384.753 147.455C385.212 147.955 385.51 148.59 385.646 149.358C385.861 150.571 385.546 151.631 384.703 152.536C383.867 153.441 382.655 154.033 381.069 154.314C379.983 154.507 378.951 154.489 377.972 154.262C377.001 154.034 376.217 153.613 375.621 152.999C375.032 152.383 374.658 151.624 374.498 150.721L375.799 150.491C375.991 151.577 376.548 152.362 377.47 152.846C378.393 153.33 379.527 153.453 380.874 153.214C382.073 153.002 382.989 152.567 383.621 151.91C384.254 151.252 384.493 150.486 384.338 149.612ZM396.684 146.881L389.692 148.119L388.869 152.715L387.505 152.957L390.607 136.524L391.844 136.305L400.399 150.674L399.045 150.914L396.684 146.881ZM389.897 146.937L396.075 145.843L391.501 138.002L389.897 146.937ZM403.79 148.939L411.396 147.593L411.59 148.693L402.673 150.272L399.947 134.87L401.259 134.638L403.79 148.939ZM415.684 147.969L414.383 148.199L411.657 132.798L412.958 132.567L415.684 147.969ZM419.873 147.227L417.146 131.826L421.451 131.064C422.714 130.84 423.897 130.929 425 131.33C426.103 131.724 427.028 132.408 427.774 133.381C428.528 134.353 429.026 135.523 429.269 136.891L429.519 138.308C429.763 139.683 429.7 140.953 429.332 142.116C428.963 143.28 428.322 144.24 427.409 144.998C426.503 145.755 425.394 146.25 424.083 146.482L419.873 147.227ZM418.644 132.706L420.979 145.897L423.898 145.38C425.52 145.093 426.727 144.326 427.517 143.081C428.306 141.829 428.539 140.286 428.214 138.452L427.974 137.098C427.661 135.328 426.927 133.996 425.772 133.103C424.618 132.209 423.25 131.898 421.669 132.171L418.644 132.706ZM441.385 138.968L434.394 140.206L433.571 144.802L432.206 145.044L435.308 128.611L436.546 128.392L445.101 142.761L443.747 143.001L441.385 138.968ZM434.599 139.024L440.776 137.93L436.203 130.089L434.599 139.024ZM447.375 142.359L444.648 126.957L448.954 126.195C450.216 125.972 451.399 126.061 452.503 126.462C453.605 126.856 454.53 127.539 455.277 128.512C456.03 129.484 456.528 130.654 456.771 132.023L457.022 133.44C457.265 134.815 457.202 136.084 456.834 137.248C456.465 138.411 455.824 139.372 454.911 140.13C454.005 140.887 452.896 141.381 451.585 141.613L447.375 142.359ZM446.146 127.838L448.481 141.028L451.401 140.511C453.022 140.224 454.229 139.458 455.019 138.213C455.808 136.96 456.041 135.417 455.716 133.584L455.476 132.23C455.163 130.46 454.429 129.128 453.275 128.234C452.12 127.34 450.752 127.03 449.171 127.302L446.146 127.838ZM468.768 130.957L461.564 132.232L462.676 138.515L470.959 137.049L471.154 138.149L461.57 139.846L458.844 124.445L468.374 122.757L468.571 123.868L460.341 125.325L461.369 131.132L468.573 129.857L468.768 130.957ZM483.345 136.209C482.372 136.382 481.448 136.298 480.573 135.958C479.705 135.617 478.977 135.059 478.389 134.283C477.8 133.5 477.411 132.576 477.222 131.511L477.142 131.057C476.947 129.956 476.983 128.928 477.25 127.972C477.524 127.014 477.998 126.218 478.671 125.582C479.343 124.94 480.123 124.54 481.011 124.382C482.4 124.136 483.585 124.418 484.564 125.226C485.549 126.026 486.188 127.248 486.478 128.891L486.604 129.6L478.438 131.045L478.481 131.289C478.711 132.586 479.272 133.603 480.166 134.339C481.066 135.067 482.08 135.331 483.209 135.132C483.886 135.012 484.46 134.783 484.931 134.445C485.409 134.106 485.811 133.627 486.138 133.009L487.038 133.472C486.346 134.984 485.115 135.896 483.345 136.209ZM481.202 125.461C480.25 125.63 479.508 126.121 478.976 126.935C478.451 127.748 478.222 128.756 478.289 129.959L485.154 128.744L485.13 128.606C484.9 127.512 484.427 126.672 483.713 126.086C482.998 125.5 482.161 125.292 481.202 125.461ZM499.414 132.263C500.295 132.107 500.988 131.73 501.493 131.131C502.004 130.524 502.214 129.822 502.124 129.023L503.34 128.808C503.429 129.512 503.323 130.189 503.023 130.839C502.722 131.481 502.266 132.024 501.653 132.467C501.048 132.908 500.364 133.197 499.603 133.331C498.101 133.597 496.817 133.286 495.75 132.399C494.691 131.51 494.006 130.184 493.693 128.421L493.626 128.04C493.426 126.912 493.447 125.879 493.689 124.942C493.93 124.005 494.375 123.235 495.025 122.633C495.682 122.029 496.504 121.64 497.491 121.465C498.746 121.243 499.846 121.434 500.789 122.038C501.739 122.64 502.351 123.547 502.623 124.757L501.407 124.972C501.192 124.086 500.739 123.421 500.05 122.976C499.367 122.529 498.578 122.385 497.682 122.544C496.54 122.746 495.724 123.316 495.236 124.253C494.754 125.19 494.645 126.402 494.908 127.89L494.974 128.26C495.232 129.72 495.748 130.803 496.52 131.51C497.3 132.215 498.264 132.467 499.414 132.263ZM504.763 126.123C504.568 125.023 504.605 123.995 504.872 123.039C505.146 122.081 505.628 121.29 506.317 120.666C507.013 120.034 507.854 119.631 508.841 119.456C510.364 119.186 511.693 119.504 512.828 120.408C513.961 121.306 514.684 122.636 514.996 124.399L515.043 124.664C515.239 125.771 515.201 126.807 514.928 127.771C514.661 128.728 514.182 129.514 513.491 130.131C512.8 130.748 511.958 131.144 510.963 131.32C509.447 131.589 508.119 131.275 506.978 130.379C505.844 129.474 505.12 128.14 504.808 126.377L504.763 126.123ZM506.094 126.248C506.336 127.616 506.888 128.678 507.749 129.435C508.616 130.183 509.625 130.456 510.774 130.252C511.917 130.05 512.763 129.449 513.313 128.45C513.869 127.442 514.02 126.219 513.766 124.781L513.723 124.537C513.568 123.663 513.264 122.891 512.811 122.222C512.358 121.553 511.804 121.073 511.149 120.782C510.492 120.484 509.787 120.401 509.032 120.535C507.904 120.735 507.062 121.342 506.507 122.356C505.951 123.364 505.8 124.583 506.053 126.015L506.094 126.248ZM517.774 118.093L518.146 119.947C518.447 119.181 518.884 118.569 519.458 118.111C520.031 117.653 520.706 117.356 521.482 117.218C523.287 116.899 524.564 117.436 525.313 118.831C525.595 118.046 526.045 117.403 526.662 116.901C527.277 116.392 527.997 116.065 528.823 115.919C531.277 115.484 532.765 116.603 533.289 119.274L534.641 126.911L533.372 127.135L532.037 119.594C531.849 118.572 531.492 117.854 530.968 117.437C530.45 117.02 529.701 116.898 528.721 117.071C527.814 117.246 527.098 117.679 526.572 118.368C526.046 119.05 525.82 119.81 525.896 120.648L527.237 128.221L525.967 128.446L524.615 120.809C524.435 119.83 524.073 119.141 523.53 118.743C522.992 118.336 522.251 118.217 521.306 118.384C520.509 118.525 519.866 118.875 519.376 119.435C518.884 119.987 518.581 120.736 518.464 121.68L519.853 129.528L518.584 129.753L516.558 118.308L517.774 118.093ZM544.962 123.589C544.397 124.831 543.278 125.6 541.607 125.896C540.387 126.112 539.397 125.923 538.638 125.331C537.877 124.731 537.367 123.737 537.107 122.351L535.788 114.904L537.047 114.681L538.337 121.969C538.723 124.148 539.797 125.082 541.56 124.77C543.394 124.445 544.42 123.482 544.638 121.879L543.172 113.597L544.441 113.372L546.467 124.817L545.24 125.035L544.962 123.589ZM548.947 112.575L549.336 114.524C549.641 113.743 550.082 113.112 550.659 112.632C551.235 112.144 551.91 111.832 552.686 111.695C553.913 111.477 554.887 111.661 555.609 112.246C556.331 112.831 556.817 113.814 557.069 115.195L558.399 122.705L557.14 122.928L555.809 115.407C555.621 114.386 555.267 113.663 554.748 113.239C554.237 112.813 553.512 112.683 552.574 112.849C551.791 112.987 551.14 113.357 550.621 113.958C550.108 114.551 549.78 115.289 549.638 116.172L551.026 124.01L549.767 124.233L547.741 112.788L548.947 112.575ZM563.095 121.874L561.826 122.099L559.8 110.653L561.069 110.429L563.095 121.874ZM558.992 107.382C558.949 107.142 558.991 106.927 559.118 106.738C559.243 106.541 559.439 106.419 559.707 106.372C559.975 106.324 560.202 106.371 560.387 106.513C560.578 106.647 560.695 106.833 560.737 107.073C560.779 107.313 560.734 107.528 560.6 107.719C560.474 107.909 560.277 108.027 560.009 108.075C559.741 108.122 559.515 108.078 559.331 107.944C559.147 107.809 559.034 107.622 558.992 107.382ZM565.004 115.525C564.687 113.734 564.831 112.246 565.436 111.063C566.047 109.871 567.04 109.154 568.415 108.91C569.959 108.637 571.238 109.018 572.25 110.053L572.038 108.487L573.223 108.277L576.028 124.123L574.759 124.347L573.729 118.53C573.089 119.763 572.011 120.514 570.495 120.782C569.155 121.019 567.989 120.68 566.998 119.765C566.007 118.849 565.352 117.492 565.034 115.694L565.004 115.525ZM566.323 115.521C566.585 117.001 567.088 118.113 567.83 118.854C568.578 119.587 569.481 119.86 570.538 119.673C572.054 119.404 573.034 118.551 573.478 117.112L572.485 111.506C572.047 110.878 571.513 110.431 570.884 110.164C570.261 109.889 569.579 109.817 568.839 109.948C567.774 110.136 567.017 110.707 566.567 111.659C566.116 112.604 566.035 113.892 566.323 115.521ZM585.729 116.373C585.163 117.615 584.045 118.384 582.374 118.679C581.154 118.895 580.164 118.707 579.404 118.114C578.644 117.514 578.133 116.521 577.873 115.134L576.555 107.687L577.814 107.465L579.104 114.753C579.49 116.932 580.564 117.865 582.327 117.553C584.16 117.229 585.186 116.265 585.404 114.663L583.938 106.38L585.208 106.156L587.234 117.601L586.007 117.818L585.729 116.373ZM595.003 116.444C594.03 116.616 593.106 116.532 592.232 116.192C591.364 115.852 590.636 115.293 590.048 114.517C589.458 113.734 589.069 112.81 588.881 111.746L588.8 111.291C588.605 110.191 588.642 109.162 588.909 108.206C589.183 107.248 589.656 106.452 590.329 105.816C591.001 105.174 591.781 104.774 592.67 104.617C594.059 104.371 595.243 104.652 596.223 105.46C597.208 106.261 597.846 107.482 598.137 109.125L598.262 109.834L590.096 111.279L590.139 111.523C590.369 112.82 590.931 113.837 591.825 114.574C592.725 115.302 593.739 115.566 594.867 115.366C595.544 115.246 596.118 115.017 596.589 114.679C597.067 114.34 597.47 113.862 597.797 113.244L598.697 113.706C598.005 115.218 596.773 116.13 595.003 116.444ZM592.861 105.696C591.909 105.864 591.167 106.355 590.634 107.17C590.109 107.983 589.88 108.99 589.948 110.193L596.813 108.978L596.788 108.84C596.558 107.746 596.086 106.906 595.371 106.32C594.657 105.734 593.82 105.526 592.861 105.696ZM339.765 184.812C339.654 184.184 339.311 183.725 338.736 183.434C338.168 183.142 337.357 182.98 336.304 182.948C335.25 182.909 334.417 182.802 333.804 182.627C333.197 182.444 332.72 182.175 332.374 181.822C332.035 181.467 331.815 181.005 331.714 180.433C331.554 179.531 331.799 178.72 332.45 178.001C333.1 177.275 334.014 176.808 335.191 176.6C336.468 176.374 337.546 176.51 338.427 177.009C339.314 177.499 339.847 178.252 340.027 179.267L338.758 179.492C338.639 178.822 338.259 178.315 337.616 177.97C336.98 177.625 336.236 177.527 335.382 177.678C334.55 177.826 333.913 178.131 333.472 178.595C333.036 179.05 332.871 179.574 332.975 180.166C333.077 180.738 333.363 181.145 333.835 181.389C334.313 181.624 335.129 181.774 336.282 181.839C337.443 181.903 338.324 182.034 338.927 182.233C339.536 182.43 340.012 182.714 340.353 183.082C340.695 183.451 340.918 183.931 341.023 184.524C341.194 185.49 340.939 186.331 340.259 187.048C339.586 187.764 338.621 188.232 337.366 188.455C336.033 188.691 334.894 188.561 333.948 188.067C333.009 187.564 332.451 186.819 332.276 185.832L333.546 185.607C333.726 186.339 334.139 186.862 334.784 187.177C335.434 187.484 336.232 187.554 337.177 187.386C338.059 187.23 338.737 186.91 339.211 186.426C339.685 185.942 339.87 185.404 339.765 184.812ZM348.875 186.417C347.902 186.59 346.978 186.506 346.103 186.166C345.235 185.825 344.507 185.267 343.919 184.491C343.33 183.708 342.941 182.784 342.752 181.719L342.672 181.265C342.477 180.164 342.513 179.136 342.78 178.18C343.054 177.222 343.528 176.426 344.201 175.79C344.873 175.148 345.653 174.748 346.541 174.59C347.93 174.344 349.115 174.626 350.094 175.434C351.08 176.234 351.718 177.456 352.008 179.099L352.134 179.808L343.968 181.253L344.011 181.497C344.241 182.794 344.802 183.811 345.696 184.547C346.596 185.275 347.61 185.539 348.739 185.34C349.416 185.22 349.99 184.991 350.461 184.653C350.939 184.314 351.341 183.835 351.668 183.217L352.568 183.68C351.876 185.192 350.645 186.104 348.875 186.417ZM346.732 175.669C345.78 175.838 345.038 176.329 344.506 177.143C343.981 177.956 343.752 178.964 343.819 180.167L350.684 178.952L350.66 178.814C350.43 177.72 349.957 176.88 349.243 176.294C348.528 175.708 347.691 175.5 346.732 175.669ZM362.702 182.257C362.137 183.499 361.018 184.268 359.347 184.564C358.127 184.78 357.137 184.591 356.378 183.998C355.617 183.398 355.106 182.405 354.846 181.018L353.528 173.572L354.787 173.349L356.077 180.637C356.463 182.816 357.537 183.749 359.3 183.437C361.134 183.113 362.159 182.149 362.378 180.547L360.911 172.265L362.181 172.04L364.207 183.485L362.98 183.702L362.702 182.257ZM373.847 178.779C373.735 178.151 373.392 177.692 372.817 177.401C372.249 177.109 371.439 176.947 370.386 176.915C369.331 176.876 368.498 176.769 367.885 176.594C367.278 176.411 366.802 176.142 366.455 175.789C366.116 175.434 365.896 174.972 365.795 174.4C365.635 173.498 365.881 172.687 366.532 171.968C367.181 171.242 368.095 170.775 369.273 170.566C370.549 170.341 371.628 170.477 372.509 170.975C373.396 171.466 373.929 172.219 374.109 173.234L372.839 173.459C372.721 172.789 372.34 172.282 371.697 171.937C371.062 171.592 370.317 171.494 369.464 171.645C368.632 171.793 367.995 172.098 367.553 172.562C367.117 173.017 366.952 173.541 367.057 174.133C367.158 174.705 367.445 175.112 367.917 175.356C368.395 175.591 369.211 175.741 370.364 175.806C371.524 175.87 372.406 176.001 373.008 176.2C373.618 176.397 374.093 176.68 374.435 177.049C374.777 177.418 375 177.898 375.105 178.491C375.276 179.457 375.021 180.298 374.341 181.015C373.667 181.731 372.703 182.199 371.448 182.422C370.115 182.658 368.976 182.528 368.03 182.034C367.09 181.531 366.533 180.786 366.358 179.799L367.627 179.574C367.808 180.306 368.22 180.829 368.865 181.144C369.516 181.451 370.314 181.521 371.259 181.353C372.14 181.197 372.818 180.877 373.292 180.393C373.767 179.909 373.951 179.371 373.847 178.779ZM387.834 178.419C388.715 178.263 389.409 177.886 389.914 177.287C390.424 176.681 390.635 175.978 390.544 175.179L391.761 174.964C391.849 175.668 391.743 176.345 391.444 176.995C391.143 177.637 390.686 178.18 390.074 178.623C389.468 179.064 388.785 179.353 388.023 179.487C386.521 179.753 385.237 179.442 384.171 178.555C383.111 177.666 382.426 176.34 382.114 174.577L382.046 174.196C381.847 173.068 381.867 172.035 382.109 171.098C382.35 170.161 382.796 169.391 383.445 168.789C384.102 168.185 384.924 167.796 385.912 167.621C387.167 167.399 388.266 167.59 389.209 168.194C390.16 168.796 390.771 169.703 391.043 170.913L389.827 171.128C389.612 170.242 389.16 169.577 388.47 169.132C387.787 168.685 386.998 168.541 386.103 168.7C384.96 168.902 384.145 169.472 383.656 170.409C383.174 171.346 383.065 172.558 383.329 174.046L383.394 174.416C383.653 175.876 384.168 176.959 384.941 177.666C385.72 178.371 386.684 178.623 387.834 178.419ZM396.342 177.797L395.073 178.021L392.197 161.774L393.466 161.549L396.342 177.797ZM401.208 176.935L399.938 177.16L397.912 165.715L399.182 165.49L401.208 176.935ZM397.104 162.443C397.062 162.204 397.104 161.989 397.23 161.799C397.355 161.603 397.552 161.48 397.82 161.433C398.088 161.386 398.314 161.433 398.499 161.575C398.69 161.708 398.807 161.895 398.85 162.134C398.892 162.374 398.846 162.59 398.713 162.78C398.587 162.97 398.389 163.089 398.121 163.136C397.853 163.183 397.627 163.14 397.444 163.005C397.26 162.87 397.147 162.683 397.104 162.443ZM409.126 175.752C408.152 175.924 407.229 175.84 406.354 175.501C405.486 175.16 404.758 174.601 404.17 173.825C403.58 173.043 403.191 172.119 403.003 171.054L402.922 170.599C402.728 169.499 402.764 168.471 403.031 167.514C403.305 166.557 403.779 165.76 404.452 165.125C405.123 164.482 405.903 164.082 406.792 163.925C408.181 163.679 409.366 163.96 410.345 164.769C411.33 165.569 411.968 166.79 412.259 168.433L412.385 169.142L404.219 170.588L404.262 170.831C404.491 172.129 405.053 173.145 405.947 173.882C406.847 174.61 407.861 174.874 408.989 174.674C409.666 174.554 410.24 174.325 410.711 173.987C411.19 173.648 411.592 173.17 411.919 172.552L412.819 173.014C412.127 174.526 410.896 175.439 409.126 175.752ZM406.983 165.004C406.031 165.172 405.289 165.664 404.757 166.478C404.231 167.291 404.003 168.299 404.07 169.501L410.935 168.286L410.911 168.149C410.681 167.055 410.208 166.215 409.494 165.628C408.779 165.042 407.942 164.834 406.983 165.004ZM415.027 162.685L415.416 164.635C415.721 163.853 416.162 163.222 416.739 162.742C417.315 162.255 417.99 161.943 418.766 161.805C419.993 161.588 420.967 161.772 421.689 162.357C422.411 162.942 422.898 163.925 423.149 165.306L424.479 172.816L423.22 173.039L421.889 165.518C421.701 164.497 421.347 163.774 420.828 163.349C420.317 162.923 419.592 162.794 418.654 162.96C417.871 163.098 417.22 163.468 416.701 164.069C416.188 164.662 415.86 165.4 415.719 166.283L417.106 174.121L415.847 174.344L413.821 162.899L415.027 162.685ZM427.181 157.512L427.699 160.442L430.069 160.023L430.252 161.059L427.883 161.479L429.233 169.105C429.345 169.74 429.542 170.192 429.822 170.463C430.11 170.732 430.522 170.819 431.058 170.724C431.269 170.687 431.605 170.591 432.065 170.437L432.301 171.464C431.991 171.642 431.55 171.782 430.979 171.883C430.112 172.037 429.436 171.898 428.953 171.468C428.468 171.03 428.139 170.321 427.965 169.34L426.613 161.703L424.509 162.076L424.325 161.039L426.43 160.667L425.911 157.737L427.181 157.512ZM439.188 170.43C438.214 170.603 437.29 170.519 436.416 170.179C435.548 169.838 434.82 169.28 434.232 168.504C433.642 167.721 433.253 166.797 433.065 165.732L432.984 165.277C432.79 164.177 432.826 163.149 433.093 162.193C433.367 161.235 433.841 160.439 434.514 159.803C435.185 159.161 435.965 158.761 436.854 158.603C438.243 158.357 439.427 158.639 440.407 159.447C441.392 160.247 442.03 161.469 442.321 163.112L442.447 163.821L434.281 165.266L434.324 165.509C434.553 166.807 435.115 167.824 436.009 168.56C436.909 169.288 437.923 169.552 439.051 169.353C439.728 169.233 440.302 169.004 440.773 168.666C441.252 168.327 441.654 167.848 441.981 167.23L442.881 167.693C442.189 169.204 440.958 170.117 439.188 170.43ZM437.045 159.682C436.093 159.851 435.351 160.342 434.819 161.156C434.293 161.969 434.064 162.977 434.132 164.18L440.997 162.965L440.973 162.827C440.743 161.733 440.27 160.893 439.555 160.307C438.841 159.721 438.004 159.512 437.045 159.682ZM452.249 164.9C452.138 164.272 451.794 163.813 451.219 163.522C450.651 163.23 449.841 163.068 448.788 163.036C447.734 162.997 446.9 162.89 446.287 162.715C445.68 162.532 445.204 162.263 444.858 161.91C444.518 161.556 444.298 161.093 444.197 160.522C444.037 159.619 444.283 158.808 444.934 158.089C445.584 157.363 446.497 156.896 447.675 156.688C448.951 156.462 450.03 156.598 450.911 157.097C451.798 157.587 452.331 158.34 452.511 159.355L451.241 159.58C451.123 158.91 450.742 158.403 450.099 158.059C449.464 157.713 448.719 157.616 447.866 157.767C447.034 157.914 446.397 158.219 445.955 158.683C445.52 159.138 445.354 159.662 445.459 160.255C445.56 160.826 445.847 161.233 446.319 161.477C446.797 161.712 447.613 161.862 448.766 161.927C449.926 161.991 450.808 162.122 451.41 162.321C452.02 162.519 452.495 162.802 452.837 163.17C453.179 163.539 453.402 164.02 453.507 164.612C453.678 165.578 453.423 166.419 452.743 167.136C452.069 167.852 451.105 168.321 449.85 168.543C448.517 168.779 447.378 168.65 446.432 168.155C445.492 167.652 444.935 166.907 444.76 165.92L446.029 165.695C446.21 166.427 446.623 166.951 447.267 167.265C447.918 167.572 448.716 167.642 449.661 167.475C450.542 167.318 451.22 166.998 451.694 166.515C452.169 166.031 452.354 165.492 452.249 164.9ZM460.617 160.408C460.3 158.617 460.444 157.129 461.049 155.946C461.66 154.754 462.653 154.036 464.028 153.793C465.572 153.52 466.851 153.901 467.863 154.936L467.651 153.37L468.836 153.16L471.641 169.005L470.372 169.23L469.342 163.412C468.702 164.646 467.624 165.397 466.108 165.665C464.768 165.902 463.602 165.563 462.611 164.647C461.62 163.732 460.965 162.375 460.647 160.577L460.617 160.408ZM461.936 160.403C462.199 161.884 462.701 162.995 463.443 163.737C464.191 164.47 465.094 164.743 466.151 164.555C467.668 164.287 468.647 163.434 469.091 161.995L468.099 156.389C467.66 155.761 467.126 155.314 466.497 155.047C465.874 154.772 465.192 154.7 464.452 154.831C463.387 155.019 462.63 155.59 462.18 156.542C461.729 157.487 461.648 158.774 461.936 160.403ZM481.342 161.255C480.776 162.497 479.658 163.266 477.987 163.562C476.767 163.778 475.777 163.59 475.017 162.997C474.257 162.397 473.746 161.404 473.486 160.017L472.168 152.57L473.427 152.347L474.717 159.635C475.103 161.814 476.177 162.748 477.94 162.436C479.773 162.111 480.799 161.148 481.017 159.546L479.551 151.263L480.821 151.039L482.847 162.484L481.62 162.701L481.342 161.255ZM490.616 161.326C489.643 161.499 488.719 161.415 487.845 161.075C486.977 160.734 486.249 160.176 485.661 159.4C485.071 158.617 484.682 157.693 484.494 156.628L484.413 156.173C484.219 155.073 484.255 154.045 484.522 153.089C484.796 152.131 485.269 151.335 485.942 150.699C486.614 150.057 487.394 149.657 488.283 149.499C489.672 149.253 490.856 149.535 491.836 150.343C492.821 151.143 493.459 152.365 493.75 154.008L493.876 154.717L485.71 156.162L485.753 156.406C485.982 157.703 486.544 158.72 487.438 159.456C488.338 160.184 489.352 160.448 490.48 160.249C491.157 160.129 491.731 159.9 492.202 159.562C492.68 159.223 493.083 158.744 493.41 158.126L494.31 158.589C493.618 160.101 492.386 161.013 490.616 161.326ZM488.474 150.578C487.522 150.747 486.78 151.238 486.247 152.052C485.722 152.865 485.493 153.873 485.561 155.076L492.426 153.861L492.401 153.723C492.171 152.629 491.699 151.789 490.984 151.203C490.27 150.617 489.433 150.409 488.474 150.578ZM509.83 157.707C509.64 157.37 509.465 156.852 509.304 156.153C508.963 156.81 508.474 157.358 507.839 157.798C507.21 158.229 506.511 158.513 505.743 158.649C504.643 158.844 503.696 158.695 502.904 158.202C502.118 157.709 501.642 156.993 501.476 156.055C501.279 154.941 501.585 153.977 502.394 153.165C503.21 152.352 504.446 151.798 506.103 151.505L508.399 151.098L508.169 149.797C508.024 148.979 507.656 148.383 507.066 148.007C506.482 147.623 505.707 147.517 504.741 147.688C503.859 147.844 503.169 148.199 502.671 148.752C502.172 149.306 501.979 149.9 502.092 150.535L500.821 150.749C500.66 149.839 500.943 148.978 501.672 148.166C502.4 147.346 503.381 146.827 504.615 146.608C505.891 146.382 506.953 146.525 507.8 147.037C508.653 147.541 509.191 148.362 509.414 149.501L510.373 154.916C510.569 156.024 510.832 156.831 511.162 157.34L511.184 157.467L509.83 157.707ZM505.692 157.501C506.538 157.352 507.257 157.013 507.847 156.487C508.445 155.959 508.835 155.327 509.017 154.589L508.571 152.072L506.307 152.472C505.048 152.71 504.102 153.117 503.469 153.695C502.836 154.265 502.588 154.942 502.727 155.724C502.84 156.366 503.171 156.857 503.718 157.196C504.273 157.534 504.931 157.636 505.692 157.501ZM512.681 151.191C512.364 149.4 512.508 147.913 513.113 146.729C513.724 145.538 514.71 144.821 516.071 144.58C517.629 144.305 518.924 144.715 519.954 145.813L519.726 144.152L520.91 143.942L522.895 155.154C523.156 156.628 522.95 157.868 522.277 158.875C521.605 159.881 520.563 160.509 519.153 160.759C518.356 160.9 517.562 160.855 516.772 160.624C515.991 160.398 515.339 160.026 514.818 159.508L515.392 158.621C516.483 159.562 517.645 159.924 518.879 159.705C519.937 159.518 520.706 159.058 521.187 158.326C521.67 157.6 521.824 156.682 521.649 155.571L521.394 154.133C520.783 155.404 519.702 156.178 518.15 156.452C516.825 156.687 515.666 156.347 514.675 155.431C513.684 154.516 513.029 153.159 512.711 151.361L512.681 151.191ZM514 151.187C514.258 152.647 514.755 153.748 515.49 154.49C516.224 155.226 517.123 155.5 518.188 155.311C519.747 155.035 520.727 154.142 521.128 152.631L520.187 147.31C519.761 146.629 519.235 146.147 518.611 145.865C517.985 145.576 517.281 145.501 516.498 145.639C515.433 145.828 514.679 146.394 514.235 147.338C513.79 148.275 513.712 149.558 514 151.187ZM524.495 149.035C524.301 147.934 524.337 146.906 524.604 145.95C524.878 144.992 525.36 144.201 526.049 143.578C526.745 142.945 527.586 142.542 528.573 142.367C530.097 142.098 531.426 142.415 532.56 143.32C533.694 144.217 534.416 145.547 534.729 147.31L534.775 147.575C534.971 148.682 534.933 149.718 534.66 150.683C534.393 151.639 533.914 152.426 533.223 153.042C532.532 153.659 531.69 154.056 530.695 154.232C529.179 154.5 527.851 154.186 526.711 153.29C525.576 152.385 524.852 151.051 524.54 149.288L524.495 149.035ZM525.827 149.159C526.069 150.527 526.62 151.589 527.482 152.346C528.349 153.094 529.357 153.367 530.506 153.163C531.649 152.961 532.495 152.36 533.046 151.361C533.602 150.353 533.753 149.13 533.498 147.692L533.455 147.449C533.3 146.574 532.996 145.802 532.543 145.134C532.09 144.465 531.536 143.985 530.881 143.693C530.224 143.395 529.519 143.313 528.764 143.446C527.636 143.646 526.795 144.253 526.24 145.268C525.683 146.275 525.532 147.495 525.785 148.926L525.827 149.159ZM541.834 141.351C541.557 141.349 541.267 141.375 540.964 141.428C540.174 141.568 539.543 141.909 539.072 142.451C538.606 142.984 538.331 143.691 538.247 144.571L539.639 152.43L538.38 152.653L536.354 141.208L537.591 140.989L537.935 142.805C538.365 141.332 539.32 140.465 540.801 140.203C541.154 140.14 541.441 140.137 541.661 140.192L541.834 141.351ZM552.48 150.157C552.289 149.82 552.114 149.302 551.954 148.603C551.612 149.26 551.124 149.808 550.489 150.248C549.86 150.679 549.161 150.963 548.392 151.099C547.292 151.294 546.346 151.145 545.553 150.652C544.767 150.159 544.292 149.443 544.126 148.505C543.928 147.391 544.234 146.428 545.043 145.615C545.859 144.802 547.096 144.248 548.753 143.955L551.048 143.549L550.818 142.248C550.673 141.43 550.306 140.833 549.716 140.457C549.131 140.073 548.356 139.967 547.39 140.138C546.508 140.294 545.819 140.649 545.32 141.203C544.822 141.756 544.629 142.351 544.741 142.985L543.47 143.199C543.309 142.29 543.593 141.428 544.322 140.616C545.049 139.796 546.03 139.277 547.264 139.058C548.541 138.833 549.602 138.976 550.449 139.487C551.302 139.991 551.84 140.812 552.064 141.951L553.022 147.367C553.218 148.474 553.481 149.282 553.811 149.791L553.834 149.917L552.48 150.157ZM548.342 149.952C549.188 149.802 549.906 149.464 550.497 148.937C551.094 148.41 551.484 147.777 551.666 147.039L551.221 144.522L548.957 144.923C547.697 145.16 546.751 145.568 546.119 146.145C545.485 146.715 545.238 147.392 545.376 148.175C545.49 148.816 545.82 149.307 546.368 149.646C546.922 149.985 547.58 150.086 548.342 149.952ZM565.393 146.071L567.156 135.755L568.457 135.525L566.21 147.727L565.184 147.908L558.863 137.223L560.164 136.993L565.393 146.071ZM570.657 140.863C570.462 139.763 570.498 138.735 570.765 137.778C571.039 136.821 571.521 136.03 572.211 135.406C572.906 134.774 573.747 134.37 574.735 134.196C576.258 133.926 577.587 134.244 578.721 135.148C579.855 136.046 580.578 137.376 580.89 139.139L580.937 139.403C581.133 140.51 581.094 141.546 580.821 142.511C580.554 143.467 580.075 144.254 579.384 144.871C578.694 145.488 577.851 145.884 576.857 146.06C575.341 146.329 574.012 146.015 572.872 145.118C571.737 144.214 571.014 142.88 570.702 141.117L570.657 140.863ZM571.988 140.987C572.23 142.356 572.782 143.418 573.643 144.175C574.51 144.923 575.518 145.195 576.668 144.992C577.81 144.79 578.656 144.189 579.207 143.19C579.763 142.182 579.914 140.959 579.659 139.52L579.616 139.277C579.461 138.403 579.157 137.631 578.704 136.962C578.251 136.293 577.697 135.813 577.042 135.522C576.386 135.223 575.68 135.141 574.926 135.275C573.797 135.474 572.956 136.082 572.401 137.096C571.845 138.104 571.693 139.323 571.947 140.755L571.988 140.987ZM588.62 142.876C589.502 142.72 590.195 142.343 590.7 141.744C591.211 141.137 591.421 140.435 591.331 139.636L592.547 139.421C592.635 140.125 592.53 140.802 592.23 141.451C591.929 142.094 591.473 142.637 590.86 143.079C590.255 143.521 589.571 143.809 588.81 143.944C587.308 144.21 586.023 143.899 584.957 143.012C583.898 142.123 583.212 140.797 582.9 139.034L582.833 138.653C582.633 137.525 582.654 136.492 582.895 135.555C583.137 134.617 583.582 133.848 584.232 133.245C584.889 132.642 585.711 132.253 586.698 132.078C587.953 131.856 589.053 132.047 589.996 132.651C590.946 133.253 591.558 134.16 591.83 135.37L590.613 135.585C590.398 134.699 589.946 134.034 589.256 133.589C588.574 133.142 587.785 132.998 586.889 133.157C585.747 133.359 584.931 133.929 584.443 134.866C583.961 135.802 583.852 137.015 584.115 138.502L584.181 138.873C584.439 140.332 584.955 141.416 585.727 142.123C586.507 142.828 587.471 143.079 588.62 142.876ZM600.181 141.931C599.207 142.104 598.284 142.02 597.409 141.68C596.541 141.339 595.813 140.781 595.225 140.005C594.636 139.222 594.247 138.298 594.058 137.233L593.977 136.778C593.783 135.678 593.819 134.65 594.086 133.694C594.36 132.736 594.834 131.94 595.507 131.304C596.178 130.662 596.958 130.262 597.847 130.104C599.236 129.858 600.421 130.14 601.4 130.948C602.385 131.748 603.023 132.97 603.314 134.613L603.44 135.322L595.274 136.767L595.317 137.011C595.546 138.308 596.108 139.325 597.002 140.061C597.902 140.789 598.916 141.053 600.044 140.854C600.721 140.734 601.295 140.505 601.766 140.167C602.245 139.828 602.647 139.349 602.974 138.731L603.874 139.194C603.182 140.706 601.951 141.618 600.181 141.931ZM598.038 131.183C597.086 131.352 596.344 131.843 595.812 132.657C595.286 133.47 595.058 134.478 595.125 135.681L601.99 134.466L601.966 134.328C601.736 133.234 601.263 132.394 600.549 131.808C599.834 131.222 598.997 131.014 598.038 131.183ZM600.625 127.802L600.644 127.907L599.469 128.115L597.35 126.494L595.926 128.743L594.773 128.947L594.749 128.809L596.789 125.666L597.593 125.524L600.625 127.802ZM345.335 198.405L345.854 201.335L348.223 200.915L348.406 201.952L346.037 202.371L347.387 209.998C347.499 210.632 347.696 211.085 347.977 211.355C348.264 211.624 348.676 211.711 349.212 211.617C349.423 211.579 349.759 211.483 350.219 211.329L350.456 212.356C350.145 212.535 349.705 212.675 349.133 212.776C348.266 212.929 347.591 212.791 347.107 212.36C346.622 211.922 346.293 211.213 346.12 210.233L344.768 202.596L342.663 202.968L342.479 201.932L344.584 201.559L344.066 198.629L345.335 198.405ZM357.342 211.323C356.369 211.495 355.445 211.411 354.57 211.072C353.702 210.731 352.974 210.172 352.386 209.396C351.797 208.613 351.408 207.69 351.219 206.625L351.139 206.17C350.944 205.07 350.98 204.042 351.247 203.085C351.521 202.128 351.995 201.331 352.668 200.696C353.34 200.053 354.12 199.653 355.008 199.496C356.397 199.25 357.582 199.531 358.561 200.34C359.546 201.14 360.185 202.361 360.475 204.004L360.601 204.713L352.435 206.159L352.478 206.402C352.708 207.699 353.269 208.716 354.163 209.453C355.063 210.181 356.077 210.445 357.206 210.245C357.883 210.125 358.457 209.896 358.928 209.558C359.406 209.219 359.808 208.741 360.135 208.123L361.035 208.585C360.343 210.097 359.112 211.01 357.342 211.323ZM355.199 200.575C354.247 200.743 353.505 201.235 352.973 202.049C352.448 202.862 352.219 203.87 352.286 205.072L359.151 203.857L359.127 203.72C358.897 202.626 358.424 201.786 357.71 201.199C356.995 200.613 356.158 200.405 355.199 200.575ZM363.19 198.266L363.562 200.12C363.863 199.354 364.3 198.742 364.874 198.284C365.447 197.826 366.122 197.528 366.898 197.391C368.703 197.072 369.98 197.609 370.729 199.004C371.011 198.219 371.461 197.576 372.078 197.074C372.693 196.565 373.413 196.238 374.238 196.092C376.693 195.657 378.181 196.776 378.705 199.446L380.057 207.084L378.788 207.308L377.453 199.766C377.265 198.745 376.908 198.026 376.384 197.61C375.866 197.193 375.117 197.071 374.137 197.244C373.23 197.419 372.514 197.852 371.988 198.541C371.462 199.223 371.236 199.983 371.312 200.821L372.653 208.394L371.383 208.619L370.031 200.982C369.851 200.003 369.489 199.314 368.946 198.916C368.408 198.509 367.667 198.39 366.722 198.557C365.925 198.698 365.282 199.048 364.792 199.608C364.3 200.16 363.996 200.908 363.88 201.853L365.269 209.701L364 209.926L361.974 198.481L363.19 198.266ZM395.765 204.303C395.574 203.966 395.399 203.448 395.239 202.749C394.897 203.406 394.409 203.954 393.774 204.394C393.145 204.825 392.446 205.109 391.677 205.245C390.577 205.44 389.631 205.291 388.838 204.798C388.052 204.305 387.577 203.589 387.411 202.651C387.213 201.537 387.519 200.574 388.328 199.761C389.144 198.948 390.381 198.394 392.038 198.101L394.333 197.695L394.103 196.393C393.958 195.575 393.591 194.979 393.001 194.603C392.416 194.219 391.641 194.113 390.675 194.284C389.794 194.44 389.104 194.795 388.605 195.348C388.107 195.902 387.914 196.496 388.026 197.131L386.755 197.345C386.594 196.435 386.878 195.574 387.607 194.762C388.334 193.942 389.315 193.423 390.549 193.204C391.826 192.978 392.887 193.121 393.734 193.633C394.587 194.137 395.125 194.958 395.349 196.097L396.307 201.512C396.503 202.62 396.766 203.428 397.096 203.936L397.119 204.063L395.765 204.303ZM391.627 204.097C392.473 203.948 393.191 203.609 393.782 203.083C394.379 202.556 394.769 201.923 394.951 201.185L394.506 198.668L392.242 199.068C390.982 199.306 390.036 199.713 389.404 200.291C388.77 200.861 388.523 201.538 388.661 202.32C388.775 202.962 389.105 203.453 389.653 203.792C390.207 204.13 390.865 204.232 391.627 204.097ZM403.681 196.825C403.487 195.725 403.523 194.697 403.79 193.741C404.064 192.783 404.546 191.992 405.235 191.368C405.931 190.736 406.772 190.333 407.759 190.158C409.283 189.888 410.611 190.206 411.746 191.11C412.88 192.008 413.602 193.338 413.914 195.101L413.961 195.365C414.157 196.473 414.119 197.509 413.846 198.473C413.579 199.43 413.1 200.216 412.409 200.833C411.718 201.45 410.876 201.846 409.881 202.022C408.365 202.291 407.037 201.977 405.896 201.08C404.762 200.176 404.038 198.842 403.726 197.079L403.681 196.825ZM405.012 196.95C405.255 198.318 405.806 199.38 406.668 200.137C407.535 200.885 408.543 201.157 409.692 200.954C410.835 200.752 411.681 200.151 412.231 199.152C412.788 198.144 412.938 196.921 412.684 195.483L412.641 195.239C412.486 194.365 412.182 193.593 411.729 192.924C411.276 192.255 410.722 191.775 410.067 191.484C409.41 191.186 408.705 191.103 407.95 191.237C406.822 191.436 405.98 192.044 405.425 193.058C404.869 194.066 404.718 195.285 404.971 196.717L405.012 196.95ZM425.776 193.209C426.092 194.993 425.948 196.48 425.344 197.671C424.739 198.854 423.773 199.563 422.448 199.798C420.882 200.075 419.586 199.737 418.559 198.784L419.593 204.623L418.334 204.846L415.529 189.001L416.703 188.793L417.053 190.4C417.662 189.034 418.75 188.212 420.315 187.935C421.683 187.693 422.847 188.022 423.806 188.921C424.772 189.819 425.418 191.188 425.744 193.029L425.776 193.209ZM424.467 193.211C424.209 191.751 423.705 190.652 422.956 189.911C422.207 189.171 421.296 188.896 420.224 189.086C419.449 189.223 418.815 189.528 418.324 190C417.833 190.473 417.503 191.091 417.333 191.856L418.305 197.346C418.724 197.948 419.246 198.372 419.872 198.617C420.497 198.863 421.194 198.918 421.962 198.782C423.027 198.593 423.781 198.024 424.224 197.073C424.672 196.113 424.753 194.826 424.467 193.211ZM433.661 196.711C434.543 196.555 435.236 196.178 435.741 195.579C436.252 194.972 436.462 194.27 436.372 193.471L437.588 193.256C437.676 193.96 437.571 194.637 437.271 195.286C436.97 195.929 436.514 196.472 435.901 196.914C435.296 197.356 434.612 197.644 433.851 197.779C432.348 198.045 431.064 197.734 429.998 196.847C428.939 195.958 428.253 194.632 427.941 192.869L427.874 192.488C427.674 191.36 427.695 190.327 427.936 189.39C428.178 188.452 428.623 187.683 429.273 187.08C429.93 186.477 430.752 186.088 431.739 185.913C432.994 185.691 434.094 185.882 435.037 186.486C435.987 187.088 436.598 187.995 436.871 189.205L435.654 189.42C435.439 188.534 434.987 187.869 434.297 187.424C433.615 186.977 432.826 186.833 431.93 186.992C430.788 187.194 429.972 187.764 429.484 188.701C429.002 189.637 428.893 190.85 429.156 192.337L429.222 192.708C429.48 194.167 429.996 195.251 430.768 195.958C431.548 196.663 432.512 196.914 433.661 196.711ZM434.179 197.601L434.172 198.301C435.362 198.243 436.05 198.743 436.237 199.8C436.352 200.449 436.165 201.013 435.675 201.493C435.185 201.972 434.461 202.297 433.502 202.466L433.282 201.655C433.91 201.543 434.4 201.337 434.754 201.034C435.116 200.737 435.263 200.395 435.194 200.007C435.122 199.598 434.917 199.343 434.579 199.243C434.248 199.142 433.764 199.118 433.126 199.173L433.195 197.775L434.179 197.601ZM447.977 195.061C447.786 194.723 447.611 194.205 447.451 193.506C447.109 194.163 446.62 194.712 445.985 195.151C445.356 195.583 444.657 195.866 443.889 196.002C442.789 196.197 441.842 196.048 441.05 195.556C440.264 195.062 439.788 194.346 439.622 193.408C439.425 192.294 439.731 191.331 440.54 190.519C441.356 189.705 442.592 189.152 444.25 188.858L446.545 188.452L446.315 187.151C446.17 186.333 445.802 185.736 445.212 185.361C444.628 184.977 443.853 184.87 442.887 185.041C442.005 185.197 441.315 185.552 440.817 186.106C440.319 186.66 440.126 187.254 440.238 187.889L438.967 188.103C438.806 187.193 439.09 186.332 439.819 185.519C440.546 184.699 441.527 184.18 442.761 183.962C444.037 183.736 445.099 183.879 445.946 184.391C446.799 184.894 447.337 185.715 447.56 186.854L448.519 192.27C448.715 193.377 448.978 194.185 449.308 194.694L449.331 194.821L447.977 195.061ZM443.838 194.855C444.685 194.705 445.403 194.367 445.993 193.841C446.591 193.313 446.981 192.68 447.163 191.943L446.717 189.425L444.454 189.826C443.194 190.063 442.248 190.471 441.615 191.048C440.982 191.619 440.734 192.295 440.873 193.078C440.987 193.72 441.317 194.21 441.864 194.55C442.419 194.888 443.077 194.99 443.838 194.855ZM446.036 179.106C446.156 179.783 446.052 180.365 445.723 180.852C445.401 181.331 444.95 181.622 444.372 181.724C443.836 181.819 443.277 181.718 442.693 181.421C442.117 181.123 441.628 181.01 441.226 181.081C440.894 181.14 440.635 181.298 440.448 181.557C440.268 181.814 440.213 182.14 440.283 182.535L439.325 182.672C439.211 182.023 439.306 181.453 439.612 180.963C439.925 180.471 440.385 180.172 440.991 180.064C441.33 180.004 441.629 180.013 441.89 180.09C442.151 180.168 442.401 180.262 442.638 180.373C442.876 180.483 443.111 180.58 443.344 180.662C443.584 180.743 443.849 180.758 444.138 180.707C444.462 180.65 444.716 180.485 444.901 180.212C445.092 179.938 445.153 179.604 445.083 179.209L446.036 179.106ZM450.625 188.515C450.431 187.415 450.467 186.387 450.734 185.431C451.008 184.473 451.49 183.682 452.179 183.058C452.875 182.426 453.716 182.023 454.703 181.848C456.227 181.578 457.555 181.896 458.69 182.8C459.824 183.698 460.546 185.028 460.858 186.791L460.905 187.055C461.101 188.163 461.063 189.199 460.79 190.163C460.523 191.12 460.044 191.906 459.353 192.523C458.662 193.14 457.82 193.536 456.825 193.712C455.309 193.981 453.981 193.667 452.84 192.77C451.706 191.866 450.982 190.532 450.67 188.769L450.625 188.515ZM451.956 188.64C452.199 190.008 452.75 191.07 453.612 191.827C454.479 192.575 455.487 192.847 456.636 192.644C457.779 192.442 458.625 191.841 459.175 190.842C459.732 189.834 459.882 188.611 459.628 187.173L459.585 186.929C459.43 186.055 459.126 185.283 458.673 184.614C458.22 183.945 457.666 183.465 457.011 183.174C456.354 182.876 455.649 182.793 454.894 182.927C453.766 183.126 452.924 183.734 452.369 184.748C451.813 185.756 451.662 186.975 451.915 188.407L451.956 188.64ZM468.238 185.463C467.923 183.686 468.068 182.202 468.672 181.012C469.281 179.813 470.267 179.093 471.628 178.852C473.172 178.578 474.458 178.98 475.485 180.056L474.348 173.636L475.607 173.413L478.483 189.66L477.298 189.87L476.976 188.356C476.369 189.656 475.28 190.445 473.707 190.724C472.389 190.957 471.23 190.617 470.232 189.703C469.24 188.78 468.584 187.416 468.264 185.611L468.238 185.463ZM469.557 185.458C469.816 186.918 470.312 188.019 471.047 188.762C471.781 189.498 472.681 189.771 473.745 189.583C475.304 189.307 476.289 188.423 476.702 186.932L475.75 181.558C474.831 180.187 473.599 179.637 472.055 179.911C470.99 180.099 470.236 180.666 469.792 181.61C469.347 182.547 469.269 183.829 469.557 185.458ZM486.284 188.497C485.311 188.67 484.387 188.586 483.513 188.246C482.645 187.905 481.917 187.347 481.329 186.571C480.739 185.788 480.35 184.864 480.162 183.799L480.081 183.345C479.887 182.245 479.923 181.216 480.19 180.26C480.464 179.302 480.937 178.506 481.61 177.87C482.282 177.228 483.062 176.828 483.951 176.67C485.34 176.425 486.524 176.706 487.504 177.514C488.489 178.314 489.127 179.536 489.418 181.179L489.543 181.888L481.377 183.333L481.421 183.577C481.65 184.874 482.212 185.891 483.106 186.627C484.006 187.355 485.02 187.619 486.148 187.42C486.825 187.3 487.399 187.071 487.87 186.733C488.348 186.394 488.751 185.915 489.078 185.297L489.978 185.76C489.286 187.272 488.054 188.184 486.284 188.497ZM484.142 177.749C483.19 177.918 482.448 178.409 481.915 179.224C481.39 180.036 481.161 181.044 481.229 182.247L488.094 181.032L488.069 180.894C487.839 179.8 487.367 178.96 486.652 178.374C485.938 177.788 485.101 177.58 484.142 177.749ZM502.353 184.551C503.235 184.395 503.928 184.018 504.433 183.419C504.944 182.813 505.154 182.11 505.063 181.311L506.28 181.096C506.368 181.8 506.263 182.477 505.963 183.127C505.662 183.769 505.205 184.312 504.593 184.755C503.987 185.196 503.304 185.485 502.542 185.62C501.04 185.885 499.756 185.575 498.69 184.687C497.631 183.798 496.945 182.472 496.633 180.709L496.566 180.328C496.366 179.2 496.387 178.167 496.628 177.23C496.869 176.293 497.315 175.523 497.965 174.921C498.622 174.317 499.444 173.928 500.431 173.753C501.686 173.531 502.785 173.722 503.729 174.326C504.679 174.928 505.29 175.835 505.563 177.045L504.346 177.26C504.131 176.375 503.679 175.709 502.989 175.264C502.307 174.817 501.517 174.674 500.622 174.832C499.479 175.034 498.664 175.604 498.175 176.542C497.694 177.478 497.585 178.69 497.848 180.178L497.914 180.548C498.172 182.008 498.687 183.091 499.46 183.798C500.239 184.504 501.204 184.755 502.353 184.551ZM507.703 178.411C507.508 177.311 507.544 176.283 507.811 175.327C508.085 174.369 508.567 173.578 509.257 172.954C509.952 172.322 510.794 171.919 511.781 171.744C513.304 171.474 514.633 171.792 515.768 172.696C516.901 173.594 517.624 174.924 517.936 176.687L517.983 176.952C518.179 178.059 518.14 179.095 517.867 180.059C517.6 181.016 517.121 181.802 516.431 182.419C515.74 183.036 514.897 183.432 513.903 183.608C512.387 183.877 511.058 183.563 509.918 182.667C508.783 181.762 508.06 180.428 507.748 178.665L507.703 178.411ZM509.034 178.536C509.276 179.904 509.828 180.966 510.689 181.723C511.556 182.471 512.564 182.744 513.714 182.54C514.856 182.338 515.702 181.737 516.253 180.738C516.809 179.73 516.96 178.507 516.705 177.069L516.662 176.825C516.507 175.951 516.203 175.179 515.751 174.51C515.298 173.841 514.743 173.361 514.088 173.07C513.432 172.772 512.726 172.689 511.972 172.823C510.843 173.023 510.002 173.63 509.447 174.644C508.891 175.652 508.739 176.872 508.993 178.303L509.034 178.536ZM520.714 170.381L521.086 172.235C521.387 171.469 521.824 170.857 522.397 170.399C522.971 169.941 523.645 169.644 524.421 169.506C526.226 169.187 527.503 169.724 528.252 171.119C528.535 170.335 528.985 169.691 529.601 169.189C530.217 168.68 530.937 168.353 531.762 168.207C534.216 167.772 535.705 168.891 536.229 171.562L537.581 179.199L536.311 179.424L534.976 171.882C534.788 170.86 534.432 170.142 533.907 169.725C533.39 169.308 532.641 169.186 531.661 169.359C530.753 169.535 530.037 169.967 529.512 170.656C528.986 171.338 528.76 172.098 528.836 172.936L530.176 180.51L528.907 180.734L527.555 173.097C527.374 172.118 527.013 171.43 526.469 171.031C525.932 170.624 525.191 170.505 524.246 170.672C523.449 170.813 522.805 171.163 522.315 171.723C521.824 172.275 521.52 173.024 521.404 173.968L522.793 181.817L521.524 182.041L519.498 170.596L520.714 170.381ZM549.007 171.394C549.322 173.178 549.178 174.666 548.575 175.856C547.969 177.04 547.004 177.749 545.678 177.984C544.113 178.261 542.817 177.923 541.79 176.97L542.823 182.809L541.565 183.032L538.76 167.186L539.934 166.979L540.284 168.586C540.893 167.22 541.98 166.398 543.546 166.121C544.914 165.879 546.077 166.207 547.037 167.107C548.003 168.005 548.649 169.374 548.975 171.215L549.007 171.394ZM547.698 171.397C547.439 169.937 546.936 168.837 546.186 168.097C545.437 167.357 544.527 167.082 543.455 167.272C542.679 167.409 542.046 167.714 541.555 168.186C541.064 168.659 540.733 169.277 540.563 170.042L541.535 175.532C541.954 176.134 542.477 176.558 543.102 176.803C543.727 177.049 544.424 177.104 545.193 176.968C546.258 176.779 547.012 176.209 547.454 175.258C547.902 174.299 547.984 173.012 547.698 171.397ZM556.266 165.2C555.99 165.198 555.7 165.224 555.397 165.278C554.607 165.418 553.976 165.758 553.505 166.3C553.039 166.833 552.764 167.54 552.68 168.42L554.071 176.28L552.813 176.502L550.787 165.057L552.024 164.838L552.367 166.654C552.798 165.181 553.753 164.314 555.234 164.052C555.587 163.989 555.873 163.986 556.094 164.041L556.266 165.2ZM566.913 174.007C566.722 173.669 566.547 173.151 566.387 172.452C566.045 173.109 565.556 173.658 564.921 174.097C564.292 174.529 563.593 174.812 562.825 174.948C561.725 175.143 560.778 174.994 559.986 174.502C559.2 174.008 558.724 173.292 558.558 172.354C558.361 171.24 558.667 170.277 559.476 169.465C560.292 168.651 561.529 168.098 563.186 167.804L565.481 167.398L565.251 166.097C565.106 165.279 564.738 164.682 564.148 164.307C563.564 163.923 562.789 163.816 561.823 163.987C560.941 164.143 560.251 164.498 559.753 165.052C559.255 165.606 559.062 166.2 559.174 166.835L557.903 167.049C557.742 166.139 558.026 165.278 558.755 164.465C559.482 163.645 560.463 163.126 561.697 162.908C562.973 162.682 564.035 162.825 564.882 163.337C565.735 163.84 566.273 164.661 566.496 165.8L567.455 171.216C567.651 172.323 567.914 173.131 568.244 173.64L568.267 173.767L566.913 174.007ZM562.774 173.801C563.621 173.651 564.339 173.313 564.929 172.787C565.527 172.259 565.917 171.626 566.099 170.889L565.653 168.371L563.39 168.772C562.13 169.009 561.184 169.417 560.552 169.994C559.918 170.565 559.67 171.241 559.809 172.024C559.923 172.666 560.253 173.156 560.8 173.496C561.355 173.834 562.013 173.936 562.774 173.801ZM579.826 169.921L581.589 159.605L582.89 159.374L580.643 171.576L579.617 171.758L573.296 161.073L574.597 160.842L579.826 169.921ZM588.417 170.2L587.148 170.424L585.122 158.979L586.391 158.755L588.417 170.2ZM584.314 155.708C584.271 155.468 584.313 155.253 584.44 155.064C584.565 154.867 584.761 154.745 585.029 154.698C585.297 154.65 585.524 154.697 585.709 154.839C585.9 154.973 586.017 155.159 586.059 155.399C586.101 155.639 586.056 155.854 585.922 156.045C585.796 156.235 585.599 156.353 585.331 156.401C585.063 156.448 584.837 156.404 584.653 156.27C584.469 156.135 584.356 155.948 584.314 155.708ZM599.09 168.31C598.9 167.973 598.724 167.455 598.564 166.756C598.222 167.413 597.734 167.961 597.099 168.401C596.47 168.832 595.771 169.116 595.002 169.252C593.902 169.447 592.956 169.298 592.163 168.806C591.378 168.312 590.902 167.596 590.736 166.658C590.539 165.544 590.844 164.581 591.653 163.769C592.469 162.955 593.706 162.402 595.363 162.108L597.659 161.702L597.428 160.401C597.283 159.583 596.916 158.986 596.326 158.611C595.742 158.227 594.966 158.12 594 158.291C593.119 158.447 592.429 158.802 591.93 159.356C591.432 159.91 591.239 160.504 591.351 161.138L590.08 161.353C589.919 160.443 590.203 159.582 590.932 158.769C591.66 157.949 592.64 157.43 593.875 157.212C595.151 156.986 596.213 157.129 597.06 157.641C597.912 158.144 598.45 158.965 598.674 160.104L599.633 165.52C599.829 166.627 600.092 167.435 600.422 167.944L600.444 168.071L599.09 168.31ZM594.952 168.105C595.798 167.955 596.516 167.617 597.107 167.091C597.704 166.563 598.094 165.93 598.276 165.193L597.831 162.675L595.567 163.076C594.307 163.313 593.361 163.721 592.729 164.298C592.095 164.869 591.848 165.545 591.986 166.328C592.1 166.97 592.431 167.46 592.978 167.8C593.532 168.138 594.19 168.24 594.952 168.105ZM443.618 210.433L443.99 212.287C444.29 211.521 444.728 210.909 445.301 210.451C445.875 209.993 446.549 209.695 447.325 209.558C449.13 209.239 450.407 209.776 451.156 211.171C451.439 210.386 451.889 209.743 452.505 209.241C453.12 208.732 453.841 208.405 454.666 208.259C457.12 207.824 458.609 208.943 459.132 211.614L460.484 219.251L459.215 219.475L457.88 211.933C457.692 210.912 457.336 210.193 456.811 209.777C456.293 209.36 455.545 209.238 454.564 209.411C453.657 209.586 452.941 210.019 452.416 210.708C451.889 211.39 451.664 212.15 451.739 212.988L453.08 220.561L451.811 220.786L450.459 213.149C450.278 212.17 449.916 211.481 449.373 211.083C448.835 210.676 448.094 210.557 447.149 210.724C446.352 210.865 445.709 211.215 445.219 211.775C444.728 212.327 444.424 213.075 444.307 214.02L445.697 221.868L444.427 222.093L442.401 210.648L443.618 210.433ZM461.959 212.913C461.764 211.813 461.8 210.785 462.067 209.828C462.341 208.871 462.823 208.08 463.513 207.456C464.208 206.824 465.05 206.421 466.037 206.246C467.56 205.976 468.889 206.294 470.024 207.198C471.157 208.096 471.88 209.426 472.192 211.189L472.239 211.453C472.435 212.561 472.396 213.596 472.123 214.561C471.856 215.518 471.377 216.304 470.687 216.921C469.996 217.538 469.153 217.934 468.159 218.11C466.643 218.379 465.314 218.065 464.174 217.168C463.039 216.264 462.316 214.93 462.004 213.167L461.959 212.913ZM463.29 213.038C463.532 214.406 464.084 215.468 464.945 216.225C465.812 216.973 466.82 217.245 467.97 217.042C469.112 216.84 469.959 216.239 470.509 215.24C471.065 214.232 471.216 213.009 470.961 211.57L470.918 211.327C470.763 210.453 470.46 209.681 470.007 209.012C469.554 208.343 469 207.863 468.344 207.572C467.688 207.274 466.982 207.191 466.228 207.325C465.1 207.524 464.258 208.132 463.703 209.146C463.147 210.154 462.995 211.373 463.249 212.805L463.29 213.038ZM484.064 209.295C484.38 211.079 484.236 212.566 483.632 213.757C483.027 214.94 482.058 215.65 480.725 215.886C479.132 216.168 477.821 215.789 476.793 214.749L477.017 216.324L475.833 216.534L472.957 200.286L474.215 200.063L475.359 206.526C475.942 205.136 477.024 204.301 478.603 204.021C479.957 203.782 481.117 204.111 482.083 205.009C483.056 205.899 483.704 207.264 484.03 209.104L484.064 209.295ZM482.755 209.297C482.488 207.788 481.99 206.676 481.259 205.962C480.528 205.241 479.63 204.974 478.565 205.163C477.754 205.306 477.102 205.629 476.609 206.131C476.115 206.625 475.791 207.283 475.638 208.103L476.552 213.264C477.441 214.591 478.69 215.111 480.298 214.827C481.341 214.642 482.083 214.085 482.522 213.157C482.968 212.227 483.046 210.94 482.755 209.297ZM489.277 214.154L488.008 214.378L485.982 202.933L487.251 202.709L489.277 214.154ZM485.173 199.662C485.131 199.422 485.173 199.207 485.299 199.018C485.425 198.821 485.621 198.699 485.889 198.652C486.157 198.604 486.384 198.651 486.569 198.793C486.76 198.927 486.876 199.113 486.919 199.353C486.961 199.593 486.916 199.808 486.782 199.999C486.656 200.189 486.459 200.307 486.191 200.355C485.923 200.402 485.697 200.358 485.513 200.224C485.329 200.089 485.216 199.902 485.173 199.662ZM494.143 213.292L492.873 213.517L489.997 197.27L491.267 197.045L494.143 213.292ZM502.061 212.109C501.087 212.281 500.163 212.198 499.289 211.858C498.421 211.517 497.693 210.958 497.105 210.183C496.515 209.4 496.126 208.476 495.938 207.411L495.857 206.956C495.663 205.856 495.699 204.828 495.966 203.871C496.24 202.914 496.714 202.117 497.387 201.482C498.058 200.839 498.838 200.439 499.727 200.282C501.116 200.036 502.3 200.317 503.28 201.126C504.265 201.926 504.903 203.148 505.194 204.791L505.32 205.499L497.154 206.945L497.197 207.188C497.426 208.486 497.988 209.503 498.882 210.239C499.782 210.967 500.796 211.231 501.924 211.031C502.601 210.911 503.175 210.683 503.646 210.345C504.125 210.005 504.527 209.527 504.854 208.909L505.754 209.372C505.062 210.883 503.831 211.796 502.061 212.109ZM499.918 201.361C498.966 201.529 498.224 202.021 497.692 202.835C497.166 203.648 496.938 204.656 497.005 205.858L503.87 204.643L503.846 204.506C503.616 203.412 503.143 202.572 502.429 201.986C501.714 201.399 500.877 201.191 499.918 201.361ZM508.531 209.96C508.487 209.713 508.528 209.491 508.653 209.295C508.784 209.09 508.991 208.962 509.273 208.912C509.555 208.862 509.793 208.911 509.986 209.059C510.178 209.199 510.296 209.393 510.34 209.64C510.384 209.887 510.339 210.105 510.205 210.296C510.07 210.48 509.862 210.597 509.58 210.647C509.298 210.697 509.062 210.659 508.872 210.532C508.689 210.398 508.575 210.207 508.531 209.96Z" fill="white"/>
</g>
<defs>
<linearGradient id="paint0_linear" x1="274.36" y1="321.374" x2="249.892" y2="319.365" gradientUnits="userSpaceOnUse">
<stop stop-color="#CC5B40"/>
<stop offset="0.0662" stop-color="#CF6348" stop-opacity="0.9338"/>
<stop offset="0.7048" stop-color="#EAAB93" stop-opacity="0.2954"/>
<stop offset="1" stop-color="#F5C7B0" stop-opacity="0.01"/>
</linearGradient>
<clipPath id="clip0">
<rect width="671" height="671" fill="white"/>
</clipPath>
</defs>
</svg>
