<svg width="265" height="251" viewBox="0 0 265 251" fill="none" xmlns="http://www.w3.org/2000/svg">
<path d="M265 191.965H0V192.09H265V191.965Z" fill="#EBEBEB"/>
<path d="M175.547 201.407H170.941V201.534H175.547V201.407Z" fill="#EBEBEB"/>
<path d="M91.8069 195.167H79.5215V195.293H91.8069V195.167Z" fill="#EBEBEB"/>
<path d="M243.148 197.858H213.113V197.983H243.148V197.858Z" fill="#EBEBEB"/>
<path d="M52.6767 197.858H22.6416V197.983H52.6767V197.858Z" fill="#EBEBEB"/>
<path d="M125.61 169.575H23.272C22.4703 169.574 21.7019 169.272 21.1355 168.734C20.5691 168.197 20.251 167.468 20.251 166.709V30.4512C20.258 29.6962 20.5791 28.9743 21.1448 28.4423C21.7104 27.9103 22.4748 27.6112 23.272 27.6099H125.61C126.412 27.6099 127.182 27.9119 127.75 28.4494C128.317 28.987 128.636 29.7161 128.636 30.4763V166.709C128.636 167.469 128.317 168.198 127.75 168.736C127.182 169.273 126.412 169.575 125.61 169.575ZM23.272 27.7103C22.5054 27.7116 21.7707 28.001 21.2292 28.5148C20.6876 29.0287 20.3835 29.7251 20.3835 30.4512V166.709C20.3835 167.435 20.6876 168.131 21.2292 168.645C21.7707 169.159 22.5054 169.449 23.272 169.45H125.61C126.377 169.449 127.112 169.159 127.654 168.646C128.197 168.132 128.502 167.436 128.504 166.709V30.4512C128.502 29.7247 128.197 29.0283 127.654 28.5145C127.112 28.0008 126.377 27.7116 125.61 27.7103H23.272Z" fill="#EBEBEB"/>
<path d="M240.254 169.575H137.911C137.109 169.574 136.34 169.272 135.773 168.734C135.205 168.197 134.886 167.469 134.885 166.709V30.4512C134.893 29.6957 135.216 28.9738 135.782 28.442C136.348 27.9101 137.113 27.6111 137.911 27.6099H240.254C241.05 27.6125 241.813 27.9122 242.378 28.4441C242.942 28.9759 243.263 29.6971 243.27 30.4512V166.709C243.27 167.467 242.952 168.195 242.387 168.732C241.822 169.27 241.055 169.573 240.254 169.575ZM137.911 27.7103C137.144 27.7116 136.409 28.0008 135.866 28.5145C135.324 29.0283 135.019 29.7247 135.017 30.4512V166.709C135.019 167.436 135.324 168.132 135.866 168.646C136.409 169.159 137.144 169.449 137.911 169.45H240.254C241.021 169.449 241.756 169.159 242.299 168.646C242.841 168.132 243.146 167.436 243.148 166.709V30.4512C243.146 29.7247 242.841 29.0283 242.299 28.5145C241.756 28.0008 241.021 27.7116 240.254 27.7103H137.911Z" fill="#EBEBEB"/>
<path d="M214.501 41.2946C214.65 38.0366 212.567 35.5216 209.201 34.9945C208.168 33.5537 206.382 32.6602 204.108 32.6602C200.557 32.6602 196.889 34.8338 194.913 37.8559C193.53 38.0463 192.203 38.5004 191.012 39.1907C189.82 39.881 188.789 40.7931 187.98 41.8719C187.621 41.7618 187.245 41.7076 186.867 41.7112C185.716 41.7761 184.613 42.1723 183.705 42.8469C182.798 43.5215 182.13 44.4423 181.79 45.4863C181.633 45.984 181.593 46.5084 181.673 47.0224H216.219C216.556 46.5513 216.814 46.033 216.982 45.4863C217.586 43.3879 216.51 41.666 214.501 41.2946Z" fill="#F5F5F5"/>
<path d="M55.6503 50.17C55.7798 48.8744 55.3731 47.5817 54.5158 46.5646C53.6586 45.5476 52.4178 44.8856 51.0552 44.7183C50.5557 44.0627 49.8912 43.5356 49.122 43.1849C48.3529 42.8343 47.5035 42.6711 46.6509 42.7103C43.5769 42.7103 40.4075 44.5928 38.7009 47.2283C37.5024 47.3987 36.3531 47.798 35.3226 48.4021C34.2922 49.0062 33.4021 49.8024 32.7066 50.7423C32.3949 50.6474 32.0693 50.6 31.742 50.6017C30.7455 50.6542 29.7896 50.9932 29.0017 51.5735C28.2139 52.1538 27.6315 52.9478 27.3324 53.8497C27.1959 54.279 27.1615 54.7316 27.2317 55.1749H57.1184C57.4118 54.7692 57.6354 54.3218 57.7809 53.8497C58.3374 51.9822 57.4046 50.4712 55.6503 50.17Z" fill="#F5F5F5"/>
<path d="M145.539 51.5651C144.315 51.5715 143.099 51.756 141.935 52.1123C139.584 50.2502 136.624 49.2192 133.561 49.1957C131.748 43.7841 126.58 40.1597 119.425 40.1597C112.573 40.1597 105.539 43.4779 100.504 48.5129C100.102 48.4778 99.6936 48.4628 99.2696 48.4628C91.0175 48.4628 82.4262 54.798 80.073 62.6141C79.7691 63.6059 79.579 64.6259 79.5059 65.6562H150.95C151.901 64.4264 152.619 63.0486 153.07 61.585C154.761 56.053 151.384 51.5651 145.539 51.5651Z" fill="#FAFAFA"/>
<path d="M52.3006 147.553H27.2051V191.96H52.3006V147.553Z" fill="#E0E0E0"/>
<path d="M49.3856 137.889H30.1201V148.165H49.3856V137.889Z" fill="#E0E0E0"/>
<path d="M50.7371 137.211H28.7686V138.808H50.7371V137.211Z" fill="#E0E0E0"/>
<path d="M200.711 121.775L232.198 131.885V191.965H200.711V121.775Z" fill="#E0E0E0"/>
<path d="M206.737 111.584L226.172 117.829V154.912H206.737V111.584Z" fill="#E0E0E0"/>
<path d="M218.312 106.785H137.461V192.03H218.312V106.785Z" fill="#F5F5F5"/>
<path d="M223.988 103.101H131.795V108.231H223.988V103.101Z" fill="#F5F5F5"/>
<path d="M220.3 130.756H135.474V135.886H220.3V130.756Z" fill="#F5F5F5"/>
<path d="M220.3 157.593H135.474V162.723H220.3V157.593Z" fill="#F5F5F5"/>
<path d="M104.367 75.2798L148.267 92.0918V191.965H104.367V75.2798Z" fill="#EBEBEB"/>
<path d="M112.769 58.3423L139.867 68.7186V130.369H112.769V58.3423Z" fill="#EBEBEB"/>
<path d="M120.49 48.0713L122.457 48.8243V70.7868H120.49V48.0713Z" fill="#EBEBEB"/>
<path d="M95.267 106.479L37.9316 118.793V191.965H95.267V106.479Z" fill="#F0F0F0"/>
<path d="M84.2914 76.334L48.9033 83.9393V146.835H84.2914V76.334Z" fill="#F0F0F0"/>
<path d="M74.2056 57.2832L72.499 58.2169V103.186H74.2056V57.2832Z" fill="#F0F0F0"/>
<path d="M58.0669 63.4478L56.3604 64.3815V109.356H58.0669V63.4478Z" fill="#F0F0F0"/>
<path d="M119.78 130.319H68.1953V191.965H119.78V130.319Z" fill="#F5F5F5"/>
<path d="M113.791 116.9H74.1846V131.167H113.791V116.9Z" fill="#F5F5F5"/>
<path d="M116.569 115.962H71.4072V118.181H116.569V115.962Z" fill="#F5F5F5"/>
<path d="M196.281 97.3174H163.935V191.964H196.281V97.3174Z" fill="#F0F0F0"/>
<path d="M192.522 76.7256H167.687V98.6279H192.522V76.7256Z" fill="#F0F0F0"/>
<path d="M194.266 75.2798H165.948V78.6833H194.266V75.2798Z" fill="#F0F0F0"/>
<path d="M132.5 214.635C189.254 214.635 235.262 212.091 235.262 208.953C235.262 205.814 189.254 203.27 132.5 203.27C75.7463 203.27 29.7383 205.814 29.7383 208.953C29.7383 212.091 75.7463 214.635 132.5 214.635Z" fill="#F5F5F5"/>
<path d="M25.0424 191.965H110.431L110.431 108.924L25.0424 108.924L25.0424 191.965Z" fill="#00B561"/>
<path opacity="0.4" d="M25.0424 191.965H110.431L110.431 108.924L25.0424 108.924L25.0424 191.965Z" fill="white"/>
<path d="M111.135 191.96H24.3372V188.712C24.3372 188.56 24.3687 188.41 24.43 188.27C24.4913 188.13 24.581 188.003 24.6942 187.896C24.8074 187.788 24.9418 187.703 25.0897 187.645C25.2376 187.587 25.3961 187.557 25.5562 187.557H109.922C110.082 187.557 110.24 187.587 110.388 187.645C110.536 187.703 110.67 187.788 110.784 187.896C110.897 188.003 110.987 188.13 111.048 188.27C111.109 188.41 111.141 188.56 111.141 188.712V191.96H111.135Z" fill="#00B561"/>
<path d="M24.3373 126.715H111.135V127.764C111.135 128.07 111.007 128.364 110.778 128.58C110.55 128.797 110.24 128.919 109.916 128.919H25.551C25.2277 128.919 24.9177 128.797 24.6891 128.58C24.4605 128.364 24.332 128.07 24.332 127.764V126.715H24.3373Z" fill="#263238"/>
<path d="M111.135 109.657L24.3372 109.657V108.608C24.3372 108.301 24.4656 108.008 24.6942 107.791C24.9229 107.575 25.2329 107.453 25.5562 107.453L109.922 107.453C110.245 107.453 110.555 107.575 110.784 107.791C111.012 108.008 111.141 108.301 111.141 108.608V109.657H111.135Z" fill="#263238"/>
<path d="M81.487 145.49H53.9854V191.96H81.487V145.49Z" fill="white"/>
<path opacity="0.4" d="M79.8922 133.562H55.5811V139.405H79.8922V133.562Z" fill="#00B561"/>
<path d="M49.9887 139.034H30.543V174.751H49.9887V139.034Z" fill="white"/>
<path opacity="0.3" d="M48.2559 140.675H32.2764V173.115H48.2559V140.675Z" fill="#00B561"/>
<path opacity="0.3" d="M55.9096 168.728H79.5635V148.743H55.9096V168.728Z" fill="#00B561"/>
<path d="M74.1997 166.257H79.4998C79.6002 166.257 79.6997 166.275 79.7927 166.311C79.8856 166.347 79.97 166.4 80.041 166.468C80.112 166.535 80.1682 166.615 80.2063 166.703C80.2444 166.791 80.2637 166.885 80.263 166.98C80.263 167.172 80.1826 167.356 80.0394 167.491C79.8963 167.627 79.7022 167.703 79.4998 167.703H74.1997C73.9973 167.703 73.8032 167.627 73.6601 167.491C73.517 167.356 73.4365 167.172 73.4365 166.98C73.4358 166.885 73.4551 166.791 73.4932 166.703C73.5313 166.615 73.5875 166.535 73.6585 166.468C73.7295 166.4 73.8139 166.347 73.9069 166.311C73.9998 166.275 74.0993 166.257 74.1997 166.257Z" fill="white"/>
<path opacity="0.4" d="M70.5061 148.271L60.0863 189.184H58.2207L68.6405 148.271H70.5061Z" fill="white"/>
<path opacity="0.4" d="M75.9909 148.271L65.5711 189.184H61.9141L72.3339 148.271H75.9909Z" fill="white"/>
<path opacity="0.4" d="M40.593 140.675L33.9786 173.11H31.6572L38.2716 140.675H40.593Z" fill="white"/>
<path opacity="0.4" d="M44.6946 140.675L38.0802 173.11H35.25L41.8697 140.675H44.6946Z" fill="white"/>
<path d="M85.4781 174.751H104.924V139.034H85.4781V174.751Z" fill="white"/>
<path opacity="0.3" d="M87.2168 140.671V173.11H103.196V140.671H87.2168Z" fill="#00B561"/>
<path opacity="0.4" d="M99.5231 140.675L92.9034 173.11H90.582L97.2017 140.675H99.5231Z" fill="white"/>
<path opacity="0.4" d="M103.625 140.675L97.0109 173.11H94.1807L100.795 140.675H103.625Z" fill="white"/>
<path d="M198.788 125.259H113.399V191.965H198.788V125.259Z" fill="#00B561"/>
<path opacity="0.2" d="M198.788 125.259H113.399V191.965H198.788V125.259Z" fill="black"/>
<path d="M113.913 181.001H198.279C198.602 181.001 198.912 181.123 199.141 181.339C199.369 181.556 199.498 181.849 199.498 182.156V191.965H112.694V182.151C112.694 181.999 112.726 181.849 112.787 181.709C112.848 181.569 112.938 181.441 113.051 181.334C113.165 181.227 113.299 181.142 113.447 181.084C113.595 181.026 113.753 180.996 113.913 180.996V181.001Z" fill="#263238"/>
<path d="M130.719 141.81H120.029V144.239H130.719V141.81Z" fill="#00B561"/>
<path d="M195.968 141.81H185.278V144.239H195.968V141.81Z" fill="#00B561"/>
<path d="M136.068 144.239H125.378V146.669H136.068V144.239Z" fill="#00B561"/>
<path d="M166.834 176.327H177.524V173.897H166.834V176.327Z" fill="#00B561"/>
<path d="M161.492 178.752H172.182V176.322H161.492V178.752Z" fill="#00B561"/>
<path d="M149.752 145.489H122.25V191.959H149.752V145.489Z" fill="white"/>
<path d="M192.64 145.489H153.981V174.746H192.64V145.489Z" fill="white"/>
<path opacity="0.3" d="M155.709 147.131V173.109H190.906V147.131H155.709Z" fill="#00B561"/>
<path opacity="0.3" d="M147.828 148.742H124.174V188.716H147.828V148.742Z" fill="#00B561"/>
<path d="M148.528 166.995H123.464V170.459H148.528V166.995Z" fill="white"/>
<path opacity="0.4" d="M138.77 148.271L128.35 189.184H126.484L136.904 148.271H138.77Z" fill="white"/>
<path opacity="0.4" d="M144.256 148.271L133.837 189.184H130.18L140.599 148.271H144.256Z" fill="white"/>
<path opacity="0.4" d="M173.978 147.136L167.363 173.11H165.042L171.656 147.136H173.978Z" fill="white"/>
<path opacity="0.4" d="M185.278 147.136L178.663 173.11H171.365L177.98 147.136H185.278Z" fill="white"/>
<path d="M116.775 128.477H105.502L118.763 117.608H127.089L116.775 128.477Z" fill="#00B561"/>
<path d="M128.048 128.477H116.775L127.089 117.608H135.415L128.048 128.477Z" fill="white"/>
<path d="M139.322 128.477H128.049L135.416 117.608H143.742L139.322 128.477Z" fill="#00B561"/>
<path d="M150.594 128.477H139.321L143.741 117.608H152.068L150.594 128.477Z" fill="white"/>
<path d="M161.868 128.477H150.595L152.068 117.608H160.394L161.868 128.477Z" fill="#00B561"/>
<path d="M173.146 128.477H161.868L160.395 117.608H168.721L173.146 128.477Z" fill="white"/>
<path d="M184.419 128.477H173.146L168.721 117.608H177.047L184.419 128.477Z" fill="#00B561"/>
<path d="M206.965 128.477H195.692L185.373 117.608H193.705L206.965 128.477Z" fill="#00B561"/>
<path d="M195.692 128.477H184.419L177.047 117.608H185.373L195.692 128.477Z" fill="white"/>
<path d="M111.136 138.431C109.642 138.431 108.208 137.869 107.151 136.869C106.093 135.868 105.498 134.511 105.497 133.095V128.477H116.775V133.095C116.774 134.511 116.179 135.868 115.122 136.869C114.064 137.869 112.631 138.431 111.136 138.431Z" fill="#00B561"/>
<path d="M122.431 138.431C120.937 138.431 119.504 137.869 118.447 136.868C117.39 135.868 116.797 134.51 116.797 133.095V128.477H128.049V133.095C128.049 134.508 127.457 135.863 126.404 136.863C125.351 137.863 123.922 138.427 122.431 138.431Z" fill="white"/>
<path d="M133.683 138.431C132.189 138.431 130.756 137.869 129.699 136.868C128.642 135.868 128.049 134.51 128.049 133.095V128.477H139.322V133.095C139.322 133.796 139.176 134.49 138.893 135.138C138.609 135.786 138.194 136.374 137.67 136.87C137.146 137.366 136.525 137.759 135.84 138.026C135.156 138.294 134.423 138.432 133.683 138.431Z" fill="#00B561"/>
<path d="M139.322 128.477H150.595V133.095C150.595 134.512 150.001 135.87 148.943 136.872C147.886 137.874 146.451 138.436 144.956 138.436C143.46 138.436 142.026 137.874 140.968 136.872C139.911 135.87 139.316 134.512 139.316 133.095V128.477H139.322Z" fill="white"/>
<path d="M156.234 138.431C155.494 138.432 154.76 138.294 154.076 138.026C153.392 137.759 152.77 137.366 152.247 136.87C151.723 136.374 151.308 135.786 151.024 135.138C150.741 134.49 150.595 133.796 150.595 133.095V128.477H161.868V133.095C161.868 134.51 161.274 135.868 160.218 136.868C159.161 137.869 157.728 138.431 156.234 138.431Z" fill="#00B561"/>
<path d="M161.867 128.477H173.14V133.095C173.14 133.798 172.993 134.493 172.708 135.142C172.423 135.791 172.005 136.38 171.479 136.876C170.954 137.372 170.33 137.764 169.643 138.031C168.957 138.298 168.222 138.434 167.48 138.431C165.984 138.431 164.55 137.869 163.493 136.867C162.435 135.865 161.841 134.507 161.841 133.09V128.472L161.867 128.477Z" fill="white"/>
<path d="M178.78 138.431C177.286 138.431 175.853 137.869 174.797 136.868C173.74 135.868 173.146 134.51 173.146 133.095V128.477H184.441V133.095C184.441 133.798 184.294 134.494 184.009 135.143C183.725 135.792 183.307 136.381 182.781 136.877C182.255 137.373 181.631 137.766 180.945 138.032C180.258 138.299 179.522 138.435 178.78 138.431Z" fill="#00B561"/>
<path d="M201.326 138.431C199.832 138.431 198.399 137.869 197.343 136.868C196.286 135.868 195.692 134.51 195.692 133.095V128.477H206.965V133.095C206.965 133.796 206.82 134.49 206.536 135.138C206.253 135.786 205.837 136.374 205.313 136.87C204.79 137.366 204.168 137.759 203.484 138.026C202.8 138.294 202.067 138.432 201.326 138.431Z" fill="#00B561"/>
<path d="M184.44 128.477H195.714V133.095C195.714 134.512 195.119 135.87 194.062 136.872C193.004 137.874 191.57 138.436 190.074 138.436C188.58 138.435 187.147 137.872 186.09 136.87C185.034 135.869 184.44 134.511 184.44 133.095V128.477Z" fill="white"/>
<path d="M147.092 168.426C147.976 168.426 148.692 167.747 148.692 166.91C148.692 166.073 147.976 165.394 147.092 165.394C146.208 165.394 145.491 166.073 145.491 166.91C145.491 167.747 146.208 168.426 147.092 168.426Z" fill="#00B561"/>
<path d="M145.143 156.503L128.072 155.048C127.607 155.008 127.196 155.333 127.154 155.774L126.682 160.734C126.64 161.175 126.984 161.564 127.449 161.604L144.521 163.059C144.986 163.099 145.397 162.774 145.439 162.333L145.91 157.373C145.952 156.932 145.609 156.543 145.143 156.503Z" fill="#00B561"/>
<path d="M192.651 168.582L153.658 151.664C153.621 151.647 153.59 151.621 153.567 151.588C153.545 151.556 153.532 151.518 153.531 151.478V149.681C153.532 149.647 153.541 149.613 153.558 149.583C153.576 149.553 153.601 149.528 153.632 149.509C153.662 149.491 153.697 149.48 153.733 149.478C153.769 149.475 153.806 149.481 153.839 149.496L192.831 166.413C192.869 166.429 192.901 166.455 192.924 166.488C192.946 166.521 192.958 166.559 192.958 166.599V168.396C192.958 168.43 192.948 168.464 192.931 168.494C192.913 168.524 192.888 168.549 192.858 168.568C192.827 168.586 192.792 168.597 192.756 168.6C192.72 168.602 192.684 168.596 192.651 168.582Z" fill="#00B561"/>
<path d="M192.666 152.106L153.669 166.443C153.629 166.458 153.594 166.484 153.569 166.518C153.545 166.552 153.531 166.592 153.531 166.634V168.441C153.531 168.474 153.54 168.507 153.557 168.537C153.573 168.566 153.597 168.591 153.627 168.61C153.656 168.629 153.689 168.641 153.725 168.644C153.76 168.648 153.795 168.644 153.828 168.631L192.82 154.294C192.861 154.28 192.896 154.254 192.921 154.22C192.946 154.185 192.959 154.145 192.958 154.104V152.296C192.958 152.264 192.949 152.231 192.932 152.202C192.916 152.173 192.893 152.148 192.864 152.13C192.836 152.111 192.803 152.099 192.768 152.095C192.734 152.091 192.699 152.094 192.666 152.106Z" fill="#00B561"/>
<path d="M224.937 155.249H222.552V184.043H224.937V155.249Z" fill="#263238"/>
<path d="M232.532 176.202H214.952C214.843 176.194 214.733 176.209 214.63 176.246C214.527 176.282 214.434 176.34 214.358 176.415C214.281 176.49 214.223 176.58 214.188 176.678C214.152 176.777 214.14 176.881 214.152 176.985L216.881 191.377C216.924 191.546 217.028 191.696 217.175 191.801C217.322 191.905 217.503 191.958 217.687 191.949H229.803C229.986 191.958 230.166 191.905 230.312 191.8C230.458 191.696 230.561 191.546 230.603 191.377L233.338 176.985C233.35 176.881 233.338 176.776 233.302 176.677C233.266 176.578 233.207 176.488 233.13 176.413C233.053 176.338 232.96 176.28 232.856 176.244C232.753 176.207 232.642 176.193 232.532 176.202Z" fill="#00B561"/>
<path opacity="0.5" d="M232.532 176.202H214.952C214.843 176.194 214.733 176.209 214.63 176.246C214.527 176.282 214.434 176.34 214.358 176.415C214.281 176.49 214.223 176.58 214.188 176.678C214.152 176.777 214.14 176.881 214.152 176.985L216.881 191.377C216.924 191.546 217.028 191.696 217.175 191.801C217.322 191.905 217.503 191.958 217.687 191.949H229.803C229.986 191.958 230.166 191.905 230.312 191.8C230.458 191.696 230.561 191.546 230.603 191.377L233.338 176.985C233.35 176.881 233.338 176.776 233.302 176.677C233.266 176.578 233.207 176.488 233.13 176.413C233.053 176.338 232.96 176.28 232.856 176.244C232.753 176.207 232.642 176.193 232.532 176.202Z" fill="white"/>
<path d="M235.262 152.076C235.263 151.926 235.224 151.779 235.149 151.647C235.074 151.516 234.965 151.404 234.833 151.323C234.756 151.251 234.666 151.194 234.568 151.152C234.49 151.191 234.4 151.199 234.316 151.174C234.233 151.15 234.163 151.095 234.122 151.022C234.082 150.948 234.073 150.863 234.099 150.784C234.125 150.705 234.183 150.639 234.26 150.6C234.23 150.41 234.138 150.234 233.995 150.098C234.071 149.964 234.11 149.815 234.11 149.664C234.11 149.512 234.071 149.363 233.995 149.229C233.905 149.068 233.764 148.936 233.592 148.853C233.289 148.23 232.897 147.648 232.426 147.126C232.559 146.971 232.634 146.779 232.638 146.579C232.641 146.395 232.585 146.215 232.479 146.062C232.372 145.909 232.219 145.79 232.039 145.72C232.101 145.618 232.141 145.505 232.157 145.388C232.172 145.27 232.163 145.152 232.13 145.038C232.097 144.922 232.041 144.814 231.964 144.719C231.887 144.624 231.791 144.545 231.682 144.485C231.573 144.426 231.452 144.387 231.327 144.371C231.202 144.356 231.075 144.364 230.953 144.395C230.84 144.424 230.734 144.474 230.64 144.541L230.582 144.506C230.415 144.437 230.232 144.412 230.052 144.435C229.946 144.325 229.813 144.241 229.665 144.189H229.623C229.702 144.125 229.77 144.048 229.824 143.963C229.954 143.756 229.992 143.509 229.929 143.276C229.867 143.042 229.709 142.842 229.49 142.718C229.297 142.609 229.07 142.568 228.848 142.602C228.625 142.635 228.423 142.743 228.276 142.904L228.186 142.879C228.025 142.85 227.859 142.862 227.704 142.914C227.61 142.809 227.492 142.726 227.359 142.67C227.226 142.615 227.081 142.588 226.936 142.593C226.907 142.405 226.817 142.23 226.679 142.093C226.54 141.956 226.359 141.863 226.162 141.828C225.965 141.794 225.761 141.818 225.58 141.898C225.398 141.979 225.248 142.111 225.149 142.277C225.113 142.336 225.086 142.401 225.07 142.467C224.977 142.42 224.877 142.388 224.773 142.372C224.564 142.341 224.35 142.376 224.164 142.473C224.059 142.301 223.897 142.168 223.703 142.096C223.586 142.051 223.461 142.028 223.334 142.029C223.208 142.03 223.083 142.055 222.967 142.101C222.851 142.148 222.746 142.216 222.657 142.301C222.569 142.386 222.499 142.487 222.452 142.598C222.436 142.636 222.424 142.674 222.415 142.713C222.296 142.599 222.148 142.517 221.985 142.474C221.822 142.432 221.65 142.431 221.487 142.473C221.453 142.56 221.394 142.637 221.317 142.695C221.239 142.753 221.146 142.789 221.048 142.8C220.95 142.81 220.851 142.794 220.762 142.754C220.673 142.714 220.597 142.651 220.544 142.573C219.866 142.735 219.189 142.903 218.514 143.075C218.377 143.23 218.3 143.425 218.297 143.627C218.217 143.617 218.137 143.617 218.058 143.627C217.863 143.664 217.685 143.757 217.548 143.894C217.411 144.03 217.323 144.204 217.295 144.39C217.161 144.375 217.026 144.387 216.897 144.425C216.671 144.5 216.482 144.652 216.367 144.852C216.319 144.82 216.265 144.797 216.208 144.782C216.09 144.741 215.964 144.723 215.838 144.729C215.712 144.735 215.588 144.765 215.475 144.816C215.361 144.867 215.259 144.939 215.175 145.028C215.09 145.117 215.026 145.221 214.984 145.334C214.926 145.493 214.916 145.665 214.954 145.83C214.993 145.994 215.078 146.146 215.201 146.268C215.201 146.268 215.201 146.268 215.201 146.293C215.143 146.433 215.123 146.585 215.143 146.734L215.074 146.78C214.963 146.875 214.876 146.994 214.82 147.126H214.746C214.494 147.101 214.241 147.17 214.043 147.319C213.844 147.469 213.716 147.686 213.686 147.924C213.675 147.996 213.675 148.069 213.686 148.14C213.475 148.266 213.324 148.465 213.266 148.695C213.208 148.925 213.246 149.167 213.373 149.37C213.485 149.553 213.664 149.691 213.876 149.757C213.829 149.884 213.813 150.019 213.829 150.153L213.728 150.213C213.544 150.881 213.367 151.55 213.198 152.221C213.244 152.338 213.312 152.445 213.399 152.538C213.291 152.639 213.207 152.763 213.156 152.899C213.093 153.078 213.091 153.27 213.149 153.45C213.207 153.63 213.322 153.788 213.479 153.903C213.423 153.927 213.371 153.959 213.325 153.998C213.184 154.134 213.093 154.308 213.064 154.496C213.035 154.684 213.07 154.876 213.164 155.044C213.258 155.212 213.406 155.347 213.586 155.43C213.767 155.513 213.971 155.539 214.168 155.504C214.183 155.537 214.201 155.569 214.221 155.6C214.083 155.789 214.027 156.02 214.062 156.247C214.072 156.32 214.093 156.391 214.125 156.458C214.039 156.547 213.972 156.652 213.93 156.766C213.887 156.879 213.869 157 213.876 157.121C213.884 157.24 213.916 157.357 213.971 157.465C214.026 157.572 214.104 157.668 214.198 157.748C214.293 157.827 214.403 157.888 214.522 157.927C214.642 157.966 214.768 157.982 214.894 157.974H215.005C215.071 158.147 215.191 158.297 215.349 158.404C215.507 158.511 215.696 158.569 215.89 158.572C215.878 158.626 215.869 158.682 215.864 158.737C215.857 158.978 215.95 159.213 216.123 159.389C216.297 159.566 216.537 159.671 216.791 159.681H216.903C216.849 159.759 216.808 159.843 216.781 159.932C216.746 160.047 216.735 160.167 216.749 160.285C216.764 160.404 216.802 160.519 216.863 160.623C216.924 160.728 217.007 160.82 217.105 160.894C217.204 160.968 217.317 161.024 217.438 161.057C217.595 161.097 217.76 161.1 217.918 161.065C218.076 161.03 218.223 160.958 218.344 160.856C218.623 160.861 218.898 160.926 219.147 161.046C219.395 161.166 219.612 161.338 219.781 161.549C219.938 161.605 220.108 161.621 220.274 161.595C220.44 161.568 220.595 161.5 220.724 161.398C220.755 161.549 220.824 161.69 220.925 161.81C221.006 161.902 221.104 161.978 221.216 162.034C221.327 162.089 221.449 162.124 221.575 162.135C221.7 162.146 221.827 162.134 221.947 162.099C222.068 162.064 222.18 162.006 222.277 161.93C222.401 161.997 222.539 162.036 222.681 162.047C222.823 162.057 222.965 162.038 223.098 161.99C223.125 162.072 223.164 162.15 223.215 162.221C223.361 162.419 223.585 162.554 223.836 162.597C224.087 162.639 224.346 162.585 224.556 162.447C224.668 162.371 224.761 162.273 224.831 162.161C224.948 162.222 225.077 162.26 225.21 162.271C225.342 162.282 225.476 162.266 225.602 162.225C225.728 162.184 225.844 162.118 225.941 162.032C226.038 161.945 226.115 161.841 226.167 161.724C226.835 161.326 227.624 161.15 228.409 161.222C228.538 161.082 228.618 160.906 228.637 160.72C228.803 160.709 228.964 160.656 229.102 160.568C229.241 160.48 229.352 160.36 229.427 160.218C229.473 160.122 229.5 160.018 229.506 159.912C229.718 159.864 229.906 159.747 230.036 159.581C230.143 159.76 230.312 159.899 230.513 159.977C230.715 160.054 230.938 160.064 231.147 160.006C231.356 159.948 231.538 159.825 231.663 159.656C231.789 159.488 231.85 159.284 231.838 159.079C231.811 158.864 231.706 158.665 231.541 158.516C231.689 158.46 231.818 158.368 231.918 158.25C232.013 158.135 232.077 157.999 232.103 157.854L232.167 157.889C232.277 157.946 232.399 157.982 232.524 157.995C232.649 158.007 232.776 157.996 232.897 157.962C233.017 157.928 233.13 157.872 233.227 157.796C233.325 157.721 233.406 157.628 233.465 157.522C233.371 157.247 233.347 156.954 233.395 156.668C233.443 156.382 233.561 156.111 233.741 155.876C233.736 155.753 233.706 155.633 233.651 155.522C233.596 155.41 233.519 155.311 233.423 155.228C233.423 155.198 233.423 155.168 233.423 155.133C233.496 155.078 233.56 155.014 233.614 154.942C233.696 154.828 233.75 154.696 233.77 154.559C233.791 154.421 233.777 154.281 233.73 154.149C233.795 154.145 233.859 154.133 233.921 154.114C234.299 153.421 234.75 152.767 235.267 152.161L235.262 152.076Z" fill="#00B561"/>
</svg>
