<svg width="273" height="220" viewBox="0 0 273 220" fill="none" xmlns="http://www.w3.org/2000/svg">
<path d="M273 198.351H0V198.502H273V198.351Z" fill="#EBEBEB"/>
<path d="M245.645 208.1H227.562V208.251H245.645V208.1Z" fill="#EBEBEB"/>
<path d="M180.846 209.747H176.102V209.898H180.846V209.747Z" fill="#EBEBEB"/>
<path d="M227.016 202.476H216.538V202.627H227.016V202.476Z" fill="#EBEBEB"/>
<path d="M52.2253 203.495H28.6436V203.646H52.2253V203.495Z" fill="#EBEBEB"/>
<path d="M60.5459 203.495H57.0898V203.646H60.5459V203.495Z" fill="#EBEBEB"/>
<path d="M122.932 206.052H71.7822V206.203H122.932V206.052Z" fill="#EBEBEB"/>
<path d="M129.402 171.331H23.9745C23.1486 171.329 22.357 170.964 21.7735 170.315C21.19 169.667 20.8623 168.788 20.8623 167.871V3.42904C20.8695 2.51787 21.2004 1.64665 21.7831 1.00461C22.3658 0.362568 23.1533 0.00156087 23.9745 0H129.402C130.228 0 131.021 0.364464 131.606 1.01321C132.191 1.66196 132.519 2.54186 132.519 3.45933V167.871C132.519 168.789 132.191 169.669 131.606 170.317C131.021 170.966 130.228 171.331 129.402 171.331ZM23.9745 0.121168C23.1848 0.122773 22.4279 0.471986 21.87 1.09216C21.3121 1.71233 20.9988 2.55278 20.9988 3.42904V167.871C20.9988 168.748 21.3121 169.588 21.87 170.208C22.4279 170.828 23.1848 171.178 23.9745 171.179H129.402C130.192 171.178 130.949 170.829 131.508 170.209C132.067 169.589 132.381 168.748 132.383 167.871V3.42904C132.381 2.55223 132.067 1.71179 131.508 1.09179C130.949 0.471789 130.192 0.122769 129.402 0.121168H23.9745Z" fill="#EBEBEB"/>
<path d="M247.507 171.331H142.075C141.248 171.329 140.456 170.964 139.872 170.316C139.287 169.667 138.958 168.788 138.957 167.871V3.42904C138.966 2.51732 139.298 1.64611 139.881 1.00423C140.465 0.362356 141.253 0.00154385 142.075 0H247.507C248.328 0.00315307 249.114 0.364865 249.695 1.00674C250.277 1.64861 250.607 2.51892 250.614 3.42904V167.871C250.614 168.787 250.287 169.665 249.705 170.313C249.122 170.962 248.332 171.327 247.507 171.331ZM142.075 0.121168C141.284 0.122769 140.527 0.471789 139.968 1.09179C139.41 1.71179 139.095 2.55223 139.094 3.42904V167.871C139.095 168.748 139.41 169.589 139.968 170.209C140.527 170.829 141.284 171.178 142.075 171.179H247.507C248.298 171.178 249.055 170.829 249.614 170.209C250.172 169.589 250.487 168.748 250.488 167.871V3.42904C250.487 2.55223 250.172 1.71179 249.614 1.09179C249.055 0.471789 248.298 0.122769 247.507 0.121168H142.075Z" fill="#EBEBEB"/>
<path d="M36.4674 198.351H110.56L110.56 24.6025H36.4674L36.4674 198.351Z" fill="#E6E6E6"/>
<path d="M34.8238 198.351H108.916L108.916 24.6025H34.8238L34.8238 198.351Z" fill="#F5F5F5"/>
<path d="M105.963 194.667L105.963 28.2861L37.7838 28.2861L37.7838 194.667H105.963Z" fill="#FAFAFA"/>
<path d="M90.259 194.667L72.9836 28.2861H53.4805L70.7559 194.667H90.259Z" fill="white"/>
<path d="M39.0283 194.667L39.0283 28.2861H37.7835L37.7835 194.667H39.0283Z" fill="#E6E6E6"/>
<path d="M36.0462 47.6431L107.692 47.6431V42.6996L36.0462 42.6996V47.6431Z" fill="#F5F5F5"/>
<path d="M149.729 198.351V97.54H119.814V198.351H149.729Z" fill="#F0F0F0"/>
<path d="M148.086 130.031V100.485H121.458V130.031H148.086Z" fill="#F5F5F5"/>
<path d="M148.086 162.231V132.684H121.458V162.231H148.086Z" fill="#F5F5F5"/>
<path d="M148.086 194.431V164.885H121.458V194.431H148.086Z" fill="#F5F5F5"/>
<path d="M140.666 100.096H128.856C128.852 100.499 128.921 100.898 129.058 101.271C129.195 101.644 129.398 101.983 129.655 102.268C129.912 102.553 130.217 102.778 130.553 102.931C130.89 103.083 131.25 103.16 131.613 103.155H137.881C138.245 103.159 138.606 103.082 138.944 102.93C139.281 102.777 139.588 102.553 139.847 102.268C140.106 101.984 140.311 101.646 140.452 101.273C140.592 100.9 140.665 100.5 140.666 100.096Z" fill="#E6E6E6"/>
<path d="M140.666 132.297H128.856C128.856 133.109 129.147 133.888 129.664 134.462C130.181 135.037 130.882 135.361 131.614 135.363H137.882C138.246 135.365 138.608 135.287 138.945 135.134C139.282 134.982 139.589 134.756 139.848 134.471C140.107 134.187 140.312 133.848 140.453 133.475C140.593 133.102 140.666 132.701 140.666 132.297Z" fill="#E6E6E6"/>
<path d="M140.666 164.497H128.856C128.856 165.309 129.147 166.087 129.664 166.662C130.181 167.237 130.882 167.561 131.614 167.562H137.882C138.246 167.565 138.608 167.487 138.945 167.334C139.282 167.181 139.589 166.956 139.848 166.671C140.107 166.386 140.312 166.048 140.453 165.674C140.593 165.301 140.666 164.901 140.666 164.497Z" fill="#E6E6E6"/>
<path d="M164.668 198.351V97.54H149.724V198.351H164.668Z" fill="#F5F5F5"/>
<path d="M229.588 195.873H237.882V119.973H229.588V195.873Z" fill="#F0F0F0"/>
<path d="M157.096 198.351H236.735V195.873H157.096V198.351Z" fill="#F0F0F0"/>
<path d="M229.588 119.974H155.943V195.873H229.588V119.974Z" fill="#FAFAFA"/>
<path d="M170.352 164.327H215.157C217.272 164.327 219.301 163.395 220.797 161.735C222.293 160.075 223.134 157.824 223.134 155.476C223.134 153.129 222.293 150.877 220.797 149.217C219.301 147.558 217.272 146.625 215.157 146.625H170.352C168.236 146.625 166.207 147.558 164.711 149.217C163.215 150.877 162.375 153.129 162.375 155.476C162.375 157.824 163.215 160.075 164.711 161.735C166.207 163.395 168.236 164.327 170.352 164.327ZM215.168 147.219C216.145 147.219 217.113 147.432 218.016 147.847C218.919 148.262 219.739 148.87 220.43 149.637C221.121 150.404 221.669 151.314 222.043 152.316C222.417 153.318 222.61 154.392 222.61 155.476C222.61 156.56 222.417 157.634 222.043 158.636C221.669 159.638 221.121 160.548 220.43 161.315C219.739 162.082 218.919 162.69 218.016 163.105C217.113 163.52 216.145 163.733 215.168 163.733H170.352C168.378 163.733 166.485 162.863 165.09 161.315C163.694 159.766 162.91 157.666 162.91 155.476C162.91 153.286 163.694 151.186 165.09 149.637C166.485 148.089 168.378 147.219 170.352 147.219H215.168Z" fill="#F0F0F0"/>
<path d="M170.352 186.35H215.157C217.272 186.35 219.301 185.417 220.797 183.757C222.293 182.097 223.134 179.846 223.134 177.498C223.134 175.151 222.293 172.899 220.797 171.239C219.301 169.58 217.272 168.647 215.157 168.647H170.352C168.236 168.647 166.207 169.58 164.711 171.239C163.215 172.899 162.375 175.151 162.375 177.498C162.375 179.846 163.215 182.097 164.711 183.757C166.207 185.417 168.236 186.35 170.352 186.35ZM215.157 169.241C216.151 169.211 217.14 169.402 218.066 169.804C218.992 170.205 219.836 170.808 220.549 171.578C221.261 172.347 221.828 173.267 222.214 174.284C222.601 175.3 222.8 176.392 222.8 177.495C222.8 178.598 222.601 179.691 222.214 180.707C221.828 181.723 221.261 182.643 220.549 183.413C219.836 184.182 218.992 184.785 218.066 185.187C217.14 185.588 216.151 185.78 215.157 185.75H170.352C169.358 185.78 168.369 185.588 167.443 185.187C166.517 184.785 165.672 184.182 164.96 183.413C164.247 182.643 163.681 181.723 163.294 180.707C162.908 179.691 162.709 178.598 162.709 177.495C162.709 176.392 162.908 175.3 163.294 174.284C163.681 173.267 164.247 172.347 164.96 171.578C165.672 170.808 166.517 170.205 167.443 169.804C168.369 169.402 169.358 169.211 170.352 169.241H215.157Z" fill="#F0F0F0"/>
<path d="M186.005 153.567H199.524C199.965 153.566 200.388 153.371 200.7 153.024C201.012 152.678 201.188 152.209 201.189 151.72C201.188 151.23 201.012 150.761 200.7 150.415C200.388 150.068 199.965 149.873 199.524 149.872H186.005C185.564 149.873 185.141 150.068 184.829 150.415C184.517 150.761 184.341 151.23 184.34 151.72C184.341 152.209 184.517 152.678 184.829 153.024C185.141 153.371 185.564 153.566 186.005 153.567Z" fill="#EBEBEB"/>
<path d="M170.352 142.305H215.157C217.272 142.305 219.301 141.372 220.797 139.712C222.293 138.052 223.134 135.801 223.134 133.453C223.134 131.106 222.293 128.854 220.797 127.195C219.301 125.535 217.272 124.602 215.157 124.602H170.352C168.236 124.602 166.207 125.535 164.711 127.195C163.215 128.854 162.375 131.106 162.375 133.453C162.375 135.801 163.215 138.052 164.711 139.712C166.207 141.372 168.236 142.305 170.352 142.305ZM215.157 125.196C217.131 125.196 219.023 126.066 220.419 127.614C221.815 129.163 222.599 131.263 222.599 133.453C222.599 135.643 221.815 137.744 220.419 139.292C219.023 140.841 217.131 141.711 215.157 141.711H170.352C168.378 141.711 166.485 140.841 165.09 139.292C163.694 137.744 162.91 135.643 162.91 133.453C162.91 131.263 163.694 129.163 165.09 127.614C166.485 126.066 168.378 125.196 170.352 125.196H215.157Z" fill="#F0F0F0"/>
<path d="M186.005 131.545H199.524C199.965 131.544 200.388 131.348 200.7 131.002C201.012 130.656 201.188 130.187 201.189 129.697C201.182 129.213 201.004 128.75 200.692 128.41C200.381 128.07 199.961 127.88 199.524 127.88H186.005C185.568 127.88 185.149 128.07 184.837 128.41C184.526 128.75 184.347 129.213 184.34 129.697C184.341 130.187 184.517 130.656 184.829 131.002C185.141 131.348 185.564 131.544 186.005 131.545Z" fill="#EBEBEB"/>
<path d="M186.005 175.584H199.524C199.961 175.584 200.381 175.393 200.692 175.053C201.004 174.713 201.182 174.251 201.189 173.766C201.181 173.282 201.002 172.821 200.691 172.481C200.379 172.141 199.961 171.95 199.524 171.949H186.005C185.569 171.95 185.15 172.141 184.839 172.481C184.527 172.821 184.348 173.282 184.34 173.766C184.347 174.251 184.526 174.713 184.837 175.053C185.149 175.393 185.568 175.584 186.005 175.584Z" fill="#EBEBEB"/>
<path d="M154.425 119.974L229.582 119.974V116.115L154.425 116.115V119.974Z" fill="#F0F0F0"/>
<path d="M239.509 116.121H229.588V119.98H239.509V116.121Z" fill="#E6E6E6"/>
<path d="M175.813 55.3682C177.489 56.3012 182.031 55.2955 180.519 58.7064C179.648 60.4931 178.606 62.1708 177.412 63.7106C175.72 66.031 176.042 68.5573 178.04 69.454C178.469 69.6171 178.847 69.911 179.132 70.3022C180.055 71.7683 177.882 73.7312 176.812 75.1973C175.742 76.6635 175.316 78.1054 176.102 79.1959C176.975 80.4076 178.788 79.9532 180.23 80.3167C183.691 81.1951 180.131 86.4962 180.497 89.2164C180.748 91.0824 182.135 91.6035 183.964 91.864C185.477 92.0821 187.491 92.2335 187.573 93.9481C187.65 95.4384 185.903 97.1226 185.444 98.6857C185.226 99.3583 185.144 100.075 185.202 100.787C185.261 101.499 185.459 102.188 185.782 102.805C186.09 103.326 186.491 103.771 186.961 104.11C187.431 104.45 187.959 104.679 188.512 104.78C190.227 105.18 192.82 104.78 192.946 106.913C193.001 107.87 192.4 108.731 192.815 109.603C193.045 109.971 193.344 110.279 193.692 110.506C194.04 110.733 194.428 110.874 194.83 110.918C196.472 111.196 198.144 111.163 199.776 110.821C201.791 110.409 204.767 108.44 203.675 106.543C203.487 106.271 203.252 106.044 202.984 105.873C202.716 105.703 202.42 105.593 202.113 105.55C201.633 105.441 200.224 105.61 200.044 105.247C199.864 104.883 200.35 103.484 200.366 102.981C200.416 101.585 200.217 100.191 199.782 98.8796C199.226 97.1651 198.339 95.606 197.183 94.3116C196.702 93.7724 195.944 93.3786 195.845 92.597C195.747 91.8155 196.189 90.9552 196.681 90.1737C197.45 88.962 198.646 87.823 199.078 86.5386C199.755 84.5151 198.111 83.8729 196.588 83.4125C195.212 82.9945 193.399 82.4613 193.858 80.6075C194.196 79.2686 195.72 78.1841 196.173 76.8634C196.79 75.1125 195.294 75.0459 194.229 74.44C192.837 73.6282 192.487 72.1742 192.99 70.3385C193.825 67.3093 198.832 63.026 196.266 61.0571C195.616 60.5542 195.01 60.3906 194.628 59.6333C194.245 58.876 194.147 57.8158 193.601 57.1009C192.739 55.9438 190.953 55.7499 190.025 54.6776C188.108 52.4723 192.242 48.5647 188.469 47.6317C187.672 47.5179 186.918 47.1684 186.285 46.6199C185.941 46.2625 185.657 44.5358 185.269 44.4147C183.538 43.8815 180.421 47.6074 179.438 48.7525C178.242 50.1338 173.825 54.2535 175.813 55.3682Z" fill="#E0E0E0"/>
<path d="M205.508 106.754C204.482 104.64 199.988 102.513 202.97 100.09C204.577 98.8759 206.307 97.8736 208.124 97.1032C210.734 95.8915 211.662 93.1047 210.341 90.7964C210.037 90.3113 209.849 89.7484 209.795 89.1607C209.685 87.0281 212.552 86.5192 214.201 85.7498C215.85 84.9804 216.931 83.8051 216.751 82.1451C216.565 80.3276 214.752 79.5157 213.655 78.1526C211.023 74.869 216.723 71.8943 217.712 68.853C218.389 66.7689 217.439 65.2967 215.932 63.7518C214.703 62.4856 212.994 60.9468 213.748 59.1293C214.403 57.5541 216.756 57.0331 217.914 55.7487C218.448 55.168 218.872 54.4753 219.163 53.7109C219.453 52.9464 219.604 52.1255 219.606 51.2958C219.58 49.8422 219.064 48.4522 218.159 47.4003C216.838 45.8069 214.337 44.4438 215.271 42.1598C215.686 41.142 216.63 40.6876 216.685 39.4941C216.668 38.9773 216.559 38.4694 216.363 38.0002C216.167 37.531 215.888 37.11 215.544 36.7618C214.265 35.3713 212.771 34.2486 211.132 33.4478C209.156 32.4785 205.579 32.4482 205.629 35.1442C205.69 35.938 206.008 36.6803 206.524 37.2343C206.901 37.6826 208.222 38.4763 208.206 38.9731C208.189 39.4699 207.114 40.5664 206.824 41.0693C206.101 42.4982 205.607 44.0564 205.366 45.6736C205.029 47.8176 205.06 50.0131 205.459 52.144C205.618 53.0225 206.104 53.9615 205.809 54.8218C205.514 55.6821 204.717 56.2637 203.914 56.706C202.653 57.4087 201.042 57.7662 200.043 58.784C198.465 60.3894 199.606 62.1827 200.731 63.7034C201.747 65.0786 203.084 66.8719 201.779 68.4531C200.835 69.5921 198.962 69.6648 197.957 70.6887C196.57 72.0639 197.854 73.1605 198.503 74.5418C199.333 76.3593 198.946 78.0557 197.613 79.5884C195.429 82.1208 188.932 83.0538 190.248 86.8585C190.581 87.8218 191.029 88.4094 191.012 89.4515C190.996 90.4935 190.564 91.6325 190.696 92.7533C190.898 94.5345 192.377 95.9642 192.683 97.703C193.305 101.283 187.769 102.441 190.652 105.991C191.325 106.691 191.825 107.571 192.104 108.547C192.241 109.153 191.651 111.11 191.935 111.504C193.207 113.243 197.755 111.583 199.175 111.08C200.851 110.444 206.737 109.268 205.508 106.754Z" fill="#F5F5F5"/>
<path d="M217.019 101.986C217.019 101.986 216.473 116.12 195.627 116.12C174.78 116.12 174.234 101.986 174.234 101.986H217.019Z" fill="#F0F0F0"/>
<g opacity="0.2">
<path opacity="0.2" d="M196.959 214.73L162.184 143.411L127.409 214.73H196.959Z" fill="#00B561"/>
<path opacity="0.2" d="M196.959 94.0776L162.184 165.391L127.409 94.0776H196.959Z" fill="#00B561"/>
</g>
<path d="M168.555 136.183L163.467 146.616C163.342 146.873 163.157 147.087 162.931 147.237C162.705 147.386 162.447 147.465 162.184 147.465C161.92 147.465 161.662 147.386 161.436 147.237C161.21 147.087 161.025 146.873 160.9 146.616L155.812 136.183C155.353 135.24 155.123 134.181 155.144 133.11C155.165 132.039 155.437 130.992 155.932 130.072C156.427 129.152 157.13 128.391 157.97 127.863C158.81 127.335 159.76 127.058 160.726 127.06H163.669C164.632 127.063 165.578 127.344 166.415 127.874C167.251 128.404 167.95 129.166 168.442 130.085C168.934 131.004 169.203 132.049 169.223 133.118C169.243 134.186 169.013 135.243 168.555 136.183Z" fill="#00B561"/>
<path d="M162.736 196.725L178.542 203.935C178.851 204.079 179.105 204.337 179.263 204.664C179.42 204.992 179.471 205.37 179.407 205.735C179.343 206.099 179.168 206.428 178.911 206.666C178.654 206.905 178.331 207.037 177.996 207.043H146.399C146.065 207.037 145.742 206.905 145.485 206.666C145.228 206.428 145.053 206.099 144.989 205.735C144.925 205.37 144.976 204.992 145.133 204.664C145.291 204.337 145.545 204.079 145.853 203.935L161.616 196.725C161.794 196.643 161.984 196.6 162.176 196.6C162.368 196.6 162.558 196.643 162.736 196.725Z" fill="#00B561"/>
<path d="M162.184 183.009C163.303 183.009 164.21 182.002 164.21 180.761C164.21 179.52 163.303 178.513 162.184 178.513C161.065 178.513 160.158 179.52 160.158 180.761C160.158 182.002 161.065 183.009 162.184 183.009Z" fill="#00B561"/>
<path d="M162.184 158.442C162.76 158.442 163.226 157.924 163.226 157.285C163.226 156.646 162.76 156.128 162.184 156.128C161.608 156.128 161.141 156.646 161.141 157.285C161.141 157.924 161.608 158.442 162.184 158.442Z" fill="#00B561"/>
<path d="M162.184 169.789C162.838 169.789 163.369 169.201 163.369 168.474C163.369 167.748 162.838 167.16 162.184 167.16C161.53 167.16 160.999 167.748 160.999 168.474C160.999 169.201 161.53 169.789 162.184 169.789Z" fill="#00B561"/>
<path d="M196.784 211.21H127.584C126.744 211.214 125.939 211.586 125.346 212.245C124.752 212.905 124.418 213.798 124.417 214.73C124.42 215.661 124.754 216.553 125.348 217.212C125.941 217.87 126.745 218.241 127.584 218.244H196.784C197.623 218.241 198.427 217.87 199.02 217.212C199.613 216.553 199.948 215.661 199.951 214.73C199.949 213.798 199.615 212.905 199.022 212.245C198.428 211.586 197.624 211.214 196.784 211.21Z" fill="#00B561"/>
<path d="M196.784 90.5645H127.584C126.745 90.5676 125.941 90.9389 125.348 91.5972C124.754 92.2554 124.42 93.1473 124.417 94.0783C124.42 95.0092 124.754 95.9011 125.348 96.5594C125.941 97.2177 126.745 97.5889 127.584 97.5921H196.784C197.623 97.5889 198.427 97.2177 199.02 96.5594C199.613 95.9011 199.948 95.0092 199.951 94.0783C199.948 93.1473 199.613 92.2554 199.02 91.5972C198.427 90.9389 197.623 90.5676 196.784 90.5645Z" fill="#00B561"/>
<path d="M106.268 213.404L102.419 212.017L104.81 201.942L108.66 203.329L106.268 213.404Z" fill="#FF8B7B"/>
<path d="M102.359 211.446L106.683 213.003C106.756 213.027 106.818 213.082 106.855 213.155C106.893 213.229 106.904 213.315 106.885 213.397L105.984 217.274C105.926 217.474 105.8 217.64 105.632 217.737C105.464 217.833 105.269 217.852 105.089 217.789C103.593 217.22 102.905 216.862 100.999 216.178C99.8252 215.754 95.9705 214.651 94.3543 214.07C92.7382 213.488 93.3005 211.731 94.0322 211.816C97.3082 212.198 100.257 212.028 101.622 211.471C101.858 211.372 102.117 211.364 102.359 211.446Z" fill="#263238"/>
<path opacity="0.2" d="M108.66 203.335L104.811 201.942L103.577 207.14L107.432 208.527L108.66 203.335Z" fill="black"/>
<path d="M119.181 101.348C119.181 101.348 112.274 136.82 110.652 149.573C108.878 163.537 102.211 205.473 102.211 205.473L109.358 207.666C109.358 207.666 119.263 166.997 122.156 153.42C125.296 138.68 133.622 101.318 133.622 101.318L119.181 101.348Z" fill="#00B561"/>
<path opacity="0.3" d="M127.72 112.98C124.99 119.85 123.642 134.79 124.701 141.666C126.634 132.851 128.96 122.371 130.756 114.307C130.15 111.968 129.146 109.394 127.72 112.98Z" fill="black"/>
<path d="M109.539 207.823L101.884 205.485L102.037 202.025L110.653 205.327L109.539 207.823Z" fill="#263238"/>
<path d="M100.776 211.702C101.132 211.817 101.498 211.89 101.868 211.92C101.886 211.921 101.904 211.917 101.92 211.907C101.936 211.897 101.95 211.883 101.959 211.865C101.968 211.848 101.972 211.828 101.972 211.807C101.971 211.787 101.965 211.767 101.955 211.75C101.857 211.611 101.01 210.393 100.481 210.43C100.42 210.433 100.361 210.454 100.309 210.49C100.257 210.526 100.215 210.576 100.186 210.636C100.131 210.723 100.098 210.826 100.091 210.932C100.083 211.038 100.101 211.145 100.142 211.241C100.297 211.474 100.522 211.637 100.776 211.702ZM101.644 211.702C100.912 211.605 100.41 211.399 100.29 211.138C100.264 211.077 100.255 211.009 100.261 210.942C100.268 210.875 100.291 210.811 100.328 210.757C100.342 210.728 100.362 210.703 100.387 210.685C100.412 210.667 100.44 210.656 100.47 210.654C100.754 210.617 101.289 211.211 101.644 211.684V211.702Z" fill="#263238"/>
<path d="M101.829 211.914H101.873C101.889 211.91 101.903 211.902 101.916 211.89C101.928 211.878 101.938 211.864 101.944 211.847C101.944 211.798 102.408 210.599 102.14 210.029C102.107 209.958 102.059 209.896 102 209.848C101.941 209.801 101.873 209.769 101.802 209.757C101.724 209.731 101.641 209.735 101.566 209.768C101.49 209.801 101.427 209.861 101.387 209.938C101.163 210.375 101.474 211.471 101.785 211.865L101.829 211.914ZM101.829 209.993C101.866 210.005 101.899 210.025 101.929 210.052C101.958 210.079 101.981 210.113 101.998 210.15C102.09 210.638 102.038 211.146 101.851 211.598C101.586 211.145 101.487 210.597 101.572 210.066C101.572 210.011 101.649 209.95 101.785 209.981L101.829 209.993Z" fill="#263238"/>
<path d="M126.531 67.6699C126.323 68.2151 126.149 68.6271 125.958 69.0875C125.766 69.548 125.559 69.972 125.357 70.4082C124.953 71.2867 124.527 72.1409 124.085 72.9951C123.191 74.7104 122.207 76.3653 121.136 77.9508C120.041 79.5905 118.826 81.1284 117.506 82.5491C116.098 84.0861 114.503 85.3955 112.766 86.4385L112.63 86.5173C112.409 86.6439 112.174 86.7376 111.931 86.796C110.687 87.083 109.399 87.0268 108.18 86.6324C107.167 86.296 106.203 85.7981 105.319 85.1542C103.836 84.0475 102.504 82.7089 101.366 81.1799C100.308 79.7856 99.3464 78.3052 98.4884 76.7513C97.641 75.2242 96.8876 73.6353 96.2334 71.9955C96.0649 71.5618 96.043 71.0752 96.1717 70.625C96.3003 70.1748 96.571 69.7912 96.934 69.5446C97.297 69.2979 97.7279 69.2047 98.1478 69.2821C98.5677 69.3595 98.9484 69.6023 99.22 69.966L99.2746 70.0387C100.175 71.2503 101.153 72.5408 102.136 73.7161C103.093 74.8863 104.111 75.9948 105.182 77.036C106.13 77.9888 107.183 78.8032 108.316 79.4594C108.74 79.7011 109.195 79.8687 109.665 79.9562C109.928 80.0104 110.2 79.9853 110.451 79.8834L109.616 80.2409C110.744 79.3967 111.773 78.3995 112.679 77.2723C113.665 76.0437 114.577 74.7444 115.409 73.3829C116.272 71.9895 117.091 70.5294 117.86 69.0269C118.254 68.2818 118.63 67.5245 118.985 66.7551L119.531 65.61C119.7 65.2405 119.886 64.8164 120.017 64.5195L120.05 64.4347C120.448 63.5027 121.16 62.7812 122.032 62.4252C122.904 62.0692 123.868 62.1071 124.715 62.5308C125.563 62.9545 126.226 63.7302 126.564 64.6912C126.901 65.6521 126.886 66.7217 126.52 67.6699H126.531Z" fill="#263238"/>
<path opacity="0.3" d="M117.603 75.897C119.318 70.8442 122.96 70.7594 124.538 72.0983C124.423 72.3346 124.303 72.5709 124.183 72.8072C123.326 74.4612 122.387 76.0611 121.371 77.5994C120.327 79.1822 119.179 80.6767 117.936 82.0706C117.543 82.5008 117.139 82.9249 116.719 83.3368C116.574 80.8166 116.875 78.2894 117.603 75.897Z" fill="black"/>
<path d="M96.0959 72.3103L92.5469 72.4557L93.4314 68.2451C94.6533 68.3124 95.866 68.5153 97.0514 68.851C97.2672 68.9235 97.4646 69.0513 97.6276 69.2243C97.7906 69.3972 97.9146 69.6102 97.9895 69.8462C98.0645 70.0822 98.0883 70.3345 98.0591 70.5826C98.0298 70.8307 97.9484 71.0676 97.8212 71.2743C97.6292 71.5874 97.3723 71.8449 97.0721 72.0252C96.7719 72.2055 96.4371 72.3032 96.0959 72.3103Z" fill="#FF8B7B"/>
<path d="M98.0835 68.7536C97.7352 68.4471 97.3365 68.2187 96.9096 68.0811C96.6148 69.8018 94.7256 72.704 94.7256 72.704H96.2053C96.3956 72.7046 96.5838 72.6588 96.7565 72.5698C96.9291 72.4808 97.0821 72.3508 97.2044 72.189L98.2418 70.8076C98.3555 70.6624 98.4417 70.4934 98.4954 70.3106C98.549 70.1279 98.5691 69.935 98.5543 69.7434C98.5395 69.5518 98.4903 69.3655 98.4094 69.1955C98.3285 69.0255 98.2177 68.8752 98.0835 68.7536Z" fill="#00B561"/>
<path d="M89.8281 70.5166L90.8218 67.5479L93.4208 68.2507L92.5363 72.4554L89.8281 70.5166Z" fill="#FF8B7B"/>
<path d="M134.453 215.367H130.407L130.265 204.964H134.311L134.453 215.367Z" fill="#FF8B7B"/>
<path d="M130.193 214.845H134.742C134.78 214.844 134.818 214.851 134.853 214.865C134.889 214.88 134.922 214.902 134.949 214.931C134.977 214.96 135 214.994 135.016 215.032C135.032 215.071 135.04 215.112 135.042 215.154L135.26 219.147C135.26 219.357 135.186 219.558 135.053 219.708C134.92 219.858 134.74 219.943 134.55 219.946C132.967 219.916 132.214 219.813 130.182 219.813C128.954 219.813 124.843 219.953 123.145 219.953C121.446 219.953 121.507 218.087 122.211 217.917C125.443 217.166 128.326 216.099 129.467 215.124C129.672 214.94 129.929 214.841 130.193 214.845Z" fill="#263238"/>
<path opacity="0.2" d="M134.316 204.97H130.265L130.341 210.332H134.387L134.316 204.97Z" fill="black"/>
<path d="M127.076 101.348C127.076 101.348 125.531 140.37 126.186 153.232C126.907 167.311 128.414 209.035 128.414 209.035H135.829C135.829 209.035 137.696 168.444 138.144 154.51C138.63 139.364 140.83 101.348 140.83 101.348H127.076Z" fill="#00B561"/>
<path d="M136.129 209.035H128.119L127.508 205.727L136.348 206.217L136.129 209.035Z" fill="#263238"/>
<path d="M128.758 215.627C129.126 215.617 129.492 215.564 129.85 215.469C129.867 215.463 129.882 215.452 129.895 215.437C129.907 215.422 129.916 215.404 129.921 215.385C129.923 215.365 129.92 215.346 129.913 215.328C129.907 215.309 129.896 215.294 129.882 215.281C129.751 215.178 128.605 214.312 128.108 214.53C128.053 214.555 128.004 214.594 127.966 214.645C127.928 214.696 127.901 214.756 127.889 214.821C127.865 214.919 127.863 215.023 127.884 215.123C127.905 215.223 127.948 215.315 128.01 215.391C128.224 215.569 128.491 215.653 128.758 215.627ZM129.577 215.318C128.85 215.475 128.321 215.451 128.13 215.245C128.09 215.194 128.064 215.133 128.052 215.067C128.041 215.001 128.045 214.933 128.064 214.869C128.068 214.837 128.08 214.807 128.098 214.781C128.116 214.755 128.14 214.736 128.168 214.724C128.435 214.609 129.107 214.985 129.577 215.318Z" fill="#263238"/>
<path d="M129.817 215.469C129.831 215.474 129.847 215.474 129.861 215.469C129.875 215.461 129.886 215.448 129.895 215.434C129.903 215.419 129.909 215.402 129.91 215.384C129.91 215.33 130.003 214.039 129.593 213.603C129.541 213.547 129.478 213.504 129.409 213.479C129.34 213.454 129.267 213.447 129.195 213.458C129.115 213.461 129.038 213.494 128.977 213.551C128.916 213.608 128.873 213.686 128.856 213.773C128.758 214.264 129.364 215.203 129.768 215.469C129.784 215.475 129.801 215.475 129.817 215.469ZM129.271 213.652C129.309 213.651 129.346 213.658 129.381 213.674C129.416 213.689 129.447 213.713 129.473 213.743C129.699 214.175 129.793 214.676 129.741 215.172C129.391 214.839 128.987 214.124 129.047 213.803C129.047 213.743 129.091 213.67 129.228 213.652H129.271Z" fill="#263238"/>
<path d="M142.855 65.1312C142.916 64.7525 142.907 64.3641 142.829 63.9892C142.751 63.6144 142.606 63.2608 142.402 62.9498C142.198 62.6387 141.94 62.3764 141.642 62.1787C141.345 61.981 141.015 61.8519 140.671 61.7991H140.628C139.323 61.5871 137.685 61.369 136.08 61.2842C133.015 61.0902 129.944 61.0902 126.879 61.2842C125.465 61.4296 124.084 61.6901 122.981 61.9264H122.937C122.248 62.0809 121.609 62.4413 121.091 62.9686C120.572 63.496 120.193 64.1704 119.994 64.9192C118.673 69.8568 117.095 79.9379 119.159 101.342H140.808C140.961 99.1974 140.529 92.2182 140.846 83.3305C141.163 77.2225 141.834 71.1434 142.855 65.1312Z" fill="#263238"/>
<path opacity="0.3" d="M142.648 66.452C142.2 69.3236 141.649 73.2313 141.267 77.357C141.267 77.357 139.29 73.0556 138.93 69.3782C138.569 65.7008 141.414 65.4221 142.648 66.452Z" fill="black"/>
<g opacity="0.2">
<path opacity="0.2" d="M128.13 67.021C128.086 67.0187 128.042 67.0002 128.008 66.9684C127.973 66.9366 127.949 66.8932 127.938 66.8447C127.928 66.7961 127.932 66.7452 127.95 66.6994C127.968 66.6536 127.999 66.6155 128.038 66.5909L134.786 62.7078C134.834 62.6819 134.889 62.6775 134.94 62.6955C134.991 62.7136 135.034 62.7527 135.059 62.8047C135.084 62.8586 135.089 62.9212 135.073 62.9791C135.056 63.0369 135.02 63.0853 134.972 63.1137L128.223 66.9847C128.195 67.0033 128.163 67.0157 128.13 67.021Z" fill="white"/>
<path opacity="0.2" d="M131.221 67.3734C131.194 67.3747 131.168 67.3693 131.143 67.3578C131.119 67.3463 131.097 67.3289 131.079 67.3068L127.377 63.2291C127.341 63.1854 127.32 63.1281 127.32 63.0686C127.32 63.009 127.341 62.9517 127.377 62.908C127.416 62.8662 127.468 62.8428 127.522 62.8428C127.576 62.8428 127.628 62.8662 127.666 62.908L131.363 66.9917C131.401 67.0347 131.422 67.0923 131.422 67.1523C131.422 67.2123 131.401 67.2699 131.363 67.3128C131.344 67.3329 131.322 67.3486 131.297 67.359C131.273 67.3694 131.247 67.3743 131.221 67.3734Z" fill="white"/>
<path opacity="0.2" d="M136.096 61.2778C133.034 61.0838 129.964 61.0838 126.901 61.2778H126.748C126.674 61.5896 126.657 61.9146 126.697 62.234C126.737 62.5533 126.835 62.8605 126.983 63.1376C127.497 64.0463 128.572 64.5551 130.188 64.6521H130.794C135.162 64.6521 136.849 61.7079 136.92 61.5807L137.073 61.3081L136.096 61.2778Z" fill="white"/>
</g>
<path d="M127.338 61.242C130.013 60.5393 130.483 58.7036 130.303 56.6862C130.26 56.1809 130.189 55.6791 130.09 55.1837L133.442 52.0939L135.905 49.8281C135.222 53.1178 134.452 59.1095 136.451 61.3026C136.451 61.3026 134.813 64.3318 130.21 64.0652C126.35 63.8289 127.338 61.242 127.338 61.242Z" fill="#FF8B7B"/>
<path opacity="0.2" d="M130.091 55.1836C130.19 55.679 130.261 56.1808 130.304 56.6861C131.554 56.4075 133.225 54.9292 133.4 53.5115C133.461 53.0421 133.476 52.5667 133.443 52.0938L130.091 55.1836Z" fill="black"/>
<path d="M128.31 39.4189C126.492 40.6305 126.781 43.6595 126.29 45.8282C127.448 45.9554 129.271 43.6716 129.271 43.6716L130.363 40.2004L128.31 39.4189Z" fill="#263238"/>
<path d="M137.98 45.5135C136.817 49.7907 136.342 52.3534 133.874 54.1406C133.081 54.7295 132.157 55.0665 131.203 55.1149C130.249 55.1634 129.302 54.9216 128.463 54.4156C127.624 53.9097 126.926 53.1589 126.444 52.2444C125.962 51.3299 125.714 50.2866 125.728 49.2273C125.728 45.15 127.617 38.8371 131.832 37.9647C132.741 37.7493 133.685 37.8028 134.569 38.1199C135.453 38.4371 136.246 39.0066 136.869 39.7715C137.492 40.5363 137.922 41.4695 138.117 42.4773C138.312 43.4852 138.265 44.5323 137.98 45.5135Z" fill="#FF8B7B"/>
<path d="M134.349 49.1429C137.079 45.629 133.666 43.8963 136.456 41.4548C133.317 41.6184 128.146 41.37 127.223 38.983C126.301 36.596 129.14 33.3608 131.504 33.0579C134.234 32.7065 133.644 36.4567 133.644 36.4567C133.644 36.4567 144.089 35.7357 140.775 40.6975C143.287 40.5279 142.593 45.0353 138.225 48.84C137.128 49.2459 134.349 49.1429 134.349 49.1429Z" fill="#263238"/>
<path d="M140.147 40.7576C140.147 40.7576 142.299 40.0488 142.228 38.1587C143.003 38.7524 143.085 40.5577 140.147 40.7576Z" fill="#263238"/>
<path d="M138.619 49.9783C137.99 50.8397 137.112 51.4327 136.134 51.6566C134.895 51.905 134.605 50.6327 135.222 49.3906C135.768 48.2758 137.095 46.8035 138.209 47.1125C139.323 47.4215 139.41 48.8938 138.619 49.9783Z" fill="#FF8B7B"/>
<path d="M131.761 45.4044C131.684 45.7559 131.455 46.0104 131.242 45.9558C131.029 45.9013 130.925 45.5862 131.002 45.2348C131.078 44.8833 131.307 44.6288 131.515 44.6773C131.722 44.7258 131.837 45.0469 131.761 45.4044Z" fill="#263238"/>
<path d="M128.141 44.5992C128.065 44.9507 127.835 45.2053 127.628 45.1568C127.42 45.1083 127.306 44.7871 127.382 44.4356C127.459 44.0841 127.688 43.8295 127.895 43.878C128.103 43.9265 128.218 44.2477 128.141 44.5992Z" fill="#263238"/>
<path d="M129.254 45.0293C128.638 46.0266 127.903 46.9273 127.07 47.7069C127.256 47.929 127.483 48.1032 127.736 48.2173C127.989 48.3313 128.261 48.3826 128.534 48.3673L129.254 45.0293Z" fill="#FF5652"/>
<path d="M129.648 49.6034C130.026 49.6428 130.407 49.5965 130.768 49.4674C131.13 49.3382 131.464 49.129 131.75 48.8522C131.759 48.8431 131.767 48.8319 131.772 48.8194C131.777 48.8069 131.779 48.7933 131.779 48.7795C131.779 48.7658 131.777 48.7522 131.772 48.7397C131.767 48.7271 131.759 48.7159 131.75 48.7068C131.732 48.6872 131.707 48.6763 131.682 48.6763C131.656 48.6763 131.632 48.6872 131.613 48.7068C131.3 49.0029 130.928 49.2143 130.529 49.3247C130.129 49.435 129.711 49.4413 129.309 49.3429C129.297 49.3403 129.284 49.3404 129.272 49.3433C129.26 49.3462 129.249 49.3518 129.238 49.3597C129.228 49.3676 129.22 49.3777 129.213 49.3894C129.206 49.4011 129.202 49.4141 129.2 49.4277C129.195 49.4558 129.2 49.4849 129.215 49.5087C129.229 49.5325 129.251 49.5491 129.276 49.5549L129.648 49.6034Z" fill="#263238"/>
<path d="M133.159 44.4232C133.189 44.4343 133.222 44.4343 133.252 44.4232C133.275 44.4121 133.296 44.396 133.313 44.3758C133.33 44.3557 133.343 44.3318 133.352 44.3058C133.361 44.2798 133.364 44.2521 133.363 44.2244C133.362 44.1967 133.356 44.1696 133.345 44.1446C133.228 43.8349 133.043 43.5623 132.808 43.3509C132.572 43.1396 132.294 42.9961 131.996 42.9333C131.946 42.9263 131.895 42.9414 131.854 42.9752C131.813 43.0091 131.786 43.0592 131.778 43.115C131.775 43.1429 131.777 43.1711 131.784 43.1981C131.79 43.2252 131.802 43.2504 131.818 43.2724C131.834 43.2943 131.853 43.3126 131.875 43.3261C131.897 43.3397 131.922 43.3482 131.947 43.3512C132.178 43.4054 132.394 43.5207 132.577 43.6872C132.759 43.8538 132.903 44.0668 132.995 44.3081C133.011 44.3414 133.035 44.3694 133.064 44.3896C133.092 44.4098 133.125 44.4214 133.159 44.4232Z" fill="#263238"/>
<path d="M127.245 42.188C127.275 42.1998 127.306 42.2027 127.337 42.1963C127.368 42.1899 127.397 42.1745 127.42 42.1516C127.609 41.9773 127.831 41.8543 128.07 41.7922C128.309 41.7301 128.557 41.7307 128.796 41.7939C128.82 41.8026 128.845 41.8061 128.871 41.804C128.896 41.8018 128.92 41.7942 128.943 41.7816C128.965 41.7689 128.986 41.7514 129.002 41.7301C129.018 41.7088 129.031 41.6841 129.039 41.6575C129.047 41.6308 129.05 41.6027 129.048 41.5747C129.046 41.5467 129.039 41.5194 129.028 41.4943C129.016 41.4693 129.001 41.4469 128.981 41.4286C128.962 41.4103 128.94 41.3964 128.916 41.3877C128.617 41.3057 128.305 41.3019 128.005 41.3766C127.705 41.4513 127.424 41.6025 127.185 41.8181C127.146 41.8528 127.12 41.9035 127.114 41.9592C127.108 42.0149 127.122 42.071 127.153 42.1152C127.175 42.151 127.208 42.1768 127.245 42.188Z" fill="#263238"/>
<path d="M143.053 63.405L143.506 64.0896L143.915 64.7318C144.188 65.162 144.434 65.5921 144.691 66.0223C145.188 66.8886 145.657 67.7671 146.11 68.6516C147.019 70.4199 147.842 72.2399 148.578 74.1042C148.961 75.0251 149.288 75.9823 149.638 76.9213C149.987 77.8604 150.282 78.8358 150.549 79.8173C151.125 81.7707 151.599 83.7591 151.969 85.7727L152.013 86.0029C152.093 86.4095 152.1 86.8297 152.033 87.2393C151.967 87.6489 151.828 88.0399 151.625 88.3899C150.921 89.588 150.087 90.6848 149.141 91.6554C148.167 92.6451 147.062 93.4624 145.865 94.0787C144.682 94.6902 143.417 95.0792 142.119 95.2298C141.484 95.3024 140.845 95.3146 140.208 95.2662C139.891 95.2662 139.575 95.1995 139.258 95.145L138.778 95.042L138.232 94.8906C138.167 94.8733 138.112 94.8286 138.077 94.7663C138.042 94.7039 138.031 94.6288 138.046 94.5573L138.799 91.0435C138.799 91.0132 138.941 91.0071 139.029 90.9829L139.329 90.9162C139.537 90.8678 139.739 90.8133 139.946 90.7527C140.35 90.6311 140.746 90.4772 141.131 90.2922C141.875 89.9533 142.572 89.4984 143.2 88.9412C144.43 87.8184 145.412 86.399 146.072 84.7912L145.728 87.4084C145.259 85.6939 144.762 83.9976 144.161 82.3194C143.561 80.6412 142.905 78.9933 142.19 77.3697C141.475 75.746 140.71 74.1405 139.886 72.5775C139.482 71.7959 139.056 71.0265 138.63 70.2632L137.98 69.1363L137.658 68.591L137.358 68.1064L137.249 67.9246C136.709 67.0706 136.496 66.0135 136.659 64.9858C136.821 63.9582 137.345 63.0441 138.114 62.4448C138.884 61.8455 139.837 61.6099 140.763 61.79C141.689 61.9701 142.513 62.551 143.053 63.405Z" fill="#263238"/>
<path d="M135.834 94.5381L134.66 96.6707L139.754 96.4466C139.754 96.4466 141.092 92.6418 139.268 92.042L138.559 92.254C137.423 92.6068 136.45 93.4227 135.834 94.5381Z" fill="#FF8B7B"/>
<path d="M137.93 91.5512C137.563 91.8265 137.248 92.1784 137.002 92.5872C138.389 93.4233 140.322 96.2708 140.322 96.2708L140.769 94.7077C140.826 94.5061 140.843 94.2931 140.817 94.0837C140.792 93.8743 140.725 93.6737 140.622 93.496L139.776 91.9814C139.683 91.8146 139.561 91.6706 139.417 91.5579C139.272 91.4453 139.109 91.3665 138.936 91.3262C138.764 91.286 138.585 91.2852 138.412 91.3238C138.239 91.3625 138.075 91.4399 137.93 91.5512Z" fill="#00B561"/>
<path d="M135.108 99.9545L139.307 99.5425L139.754 96.4468L134.66 96.6709L135.108 99.9545Z" fill="#FF8B7B"/>
<path d="M83.5714 25.9941L83.293 25.4731C84.0936 24.9466 84.9275 24.485 85.7882 24.0918L85.9957 24.6552C85.1588 25.0342 84.3485 25.4817 83.5714 25.9941Z" fill="#00B561"/>
<path d="M75.5997 36.6934L75.0537 36.4874C76.348 32.5108 78.6898 29.0576 81.775 26.5762L82.0971 27.0669C79.1093 29.4791 76.8453 32.8335 75.5997 36.6934Z" fill="#00B561"/>
<path d="M92.9299 62.2408C102.211 62.2408 109.736 53.892 109.736 43.5931C109.736 33.2942 102.211 24.9453 92.9299 24.9453C83.6483 24.9453 76.124 33.2942 76.124 43.5931C76.124 53.892 83.6483 62.2408 92.9299 62.2408Z" fill="#00B561"/>
<path opacity="0.6" d="M106.967 43.5932C106.966 47.2271 105.82 50.7462 103.727 53.5413C101.634 56.3365 98.7265 58.2318 95.5072 58.8991C92.2879 59.5665 88.9597 58.9639 86.0986 57.1957C83.2375 55.4275 81.0236 52.6049 79.8402 49.2166C78.6567 45.8283 78.5782 42.0875 79.6183 38.6417C80.6583 35.196 82.7514 32.2622 85.5352 30.3481C88.3191 28.434 91.6184 27.6602 94.8622 28.1606C98.106 28.661 101.09 30.4041 103.298 33.0881C103.302 33.086 103.307 33.0848 103.311 33.0848C103.316 33.0848 103.321 33.086 103.325 33.0881C105.679 35.9622 106.978 39.7097 106.967 43.5932Z" fill="white"/>
<path d="M106.968 43.5934C106.968 46.6211 106.172 49.5831 104.679 52.1172C103.186 54.6513 101.059 56.6475 98.5597 57.8617C96.0601 59.0759 93.2957 59.4554 90.6047 58.9539C87.9137 58.4523 85.4128 57.0914 83.4079 55.0376C80.9566 52.0737 79.6338 48.1724 79.7166 44.1507C79.7993 40.1289 81.2811 36.2987 83.8518 33.462C86.4224 30.6253 89.8825 29.0022 93.5075 28.9325C97.1324 28.8628 100.641 30.352 103.299 33.0882C103.303 33.0861 103.308 33.0849 103.312 33.0849C103.317 33.0849 103.322 33.0861 103.326 33.0882C105.68 35.9623 106.979 39.7099 106.968 43.5934Z" fill="white"/>
<path d="M92.9304 44.5022C92.8229 44.5024 92.7163 44.479 92.617 44.4332C92.5176 44.3875 92.4275 44.3203 92.3517 44.2357L85.5048 36.6385C85.4243 36.5553 85.3598 36.455 85.315 36.3435C85.2703 36.2321 85.2462 36.1117 85.2443 35.9897C85.2423 35.8677 85.2626 35.7465 85.3037 35.6333C85.3449 35.5202 85.4062 35.4174 85.484 35.3311C85.5618 35.2448 85.6544 35.1768 85.7564 35.1311C85.8584 35.0854 85.9676 35.0629 86.0776 35.0651C86.1876 35.0672 86.296 35.0939 86.3965 35.1436C86.4969 35.1933 86.5874 35.2649 86.6623 35.3542L92.9304 42.3091L96.5504 38.2925C96.7057 38.1319 96.911 38.0445 97.1232 38.0487C97.3354 38.0528 97.5378 38.1482 97.6878 38.3147C97.8379 38.4812 97.9239 38.7058 97.9276 38.9413C97.9313 39.1767 97.8526 39.4045 97.7079 39.5768L93.5092 44.2357C93.3554 44.4056 93.1474 44.5013 92.9304 44.5022Z" fill="#263238"/>
</svg>
