<svg width="270" height="191" viewBox="0 0 270 191" fill="none" xmlns="http://www.w3.org/2000/svg">
<path d="M269.755 167.223H0V167.35H269.755V167.223Z" fill="#EBEBEB"/>
<path d="M235.049 175.426H224.857V175.553H235.049V175.426Z" fill="#EBEBEB"/>
<path d="M174.003 174.539H158.104V174.666H174.003V174.539Z" fill="#EBEBEB"/>
<path d="M224.318 170.695H198.901V170.822H224.318V170.695Z" fill="#EBEBEB"/>
<path d="M34.2211 171.551H28.3027V171.679H34.2211V171.551Z" fill="#EBEBEB"/>
<path d="M59.826 171.551H39.0225V171.679H59.826V171.551Z" fill="#EBEBEB"/>
<path d="M121.471 173.702H92.2568V173.83H121.471V173.702Z" fill="#EBEBEB"/>
<path d="M127.864 144.485H23.6949C22.8778 144.485 22.0943 144.178 21.5165 143.632C20.9388 143.086 20.6143 142.346 20.6143 141.574V3.1932C20.6214 2.42556 20.9491 1.69165 21.526 1.15122C22.103 0.610788 22.8825 0.307588 23.6949 0.307617H127.864C128.681 0.307617 129.464 0.614319 130.042 1.16025C130.62 1.70618 130.944 2.44663 130.944 3.21869V141.574C130.944 142.346 130.62 143.086 130.042 143.632C129.464 144.178 128.681 144.485 127.864 144.485ZM23.6949 0.409582C22.914 0.410929 22.1656 0.704635 21.6135 1.22637C21.0614 1.74811 20.7506 2.45535 20.7491 3.1932V141.574C20.7506 142.312 21.0614 143.019 21.6135 143.541C22.1656 144.062 22.914 144.356 23.6949 144.357H127.864C128.644 144.356 129.393 144.062 129.945 143.541C130.497 143.019 130.808 142.312 130.809 141.574V3.1932C130.808 2.45535 130.497 1.74811 129.945 1.22637C129.393 0.704635 128.644 0.410929 127.864 0.409582H23.6949Z" fill="#EBEBEB"/>
<path d="M244.566 144.485H140.386C139.57 144.483 138.787 144.176 138.21 143.631C137.632 143.085 137.307 142.345 137.306 141.574V3.1932C137.314 2.42598 137.642 1.69284 138.219 1.15269C138.796 0.612545 139.574 0.308916 140.386 0.307617H244.566C245.376 0.310271 246.153 0.614656 246.728 1.1548C247.302 1.69494 247.628 2.42732 247.636 3.1932V141.574C247.636 142.344 247.312 143.083 246.737 143.629C246.162 144.174 245.381 144.482 244.566 144.485ZM140.386 0.409582C139.605 0.410929 138.857 0.704635 138.305 1.22637C137.753 1.74811 137.442 2.45535 137.441 3.1932V141.574C137.442 142.312 137.753 143.019 138.305 143.541C138.857 144.062 139.605 144.356 140.386 144.357H244.566C245.347 144.356 246.095 144.062 246.647 143.541C247.199 143.019 247.51 142.312 247.511 141.574V3.1932C247.51 2.45535 247.199 1.74811 246.647 1.22637C246.095 0.704635 245.347 0.410929 244.566 0.409582H140.386Z" fill="#EBEBEB"/>
<path d="M235.049 175.426H224.857V175.553H235.049V175.426Z" fill="#EBEBEB"/>
<path d="M174.003 174.539H158.104V174.666H174.003V174.539Z" fill="#EBEBEB"/>
<path d="M224.318 170.695H198.901V170.822H224.318V170.695Z" fill="#EBEBEB"/>
<path d="M34.2211 171.551H28.3027V171.679H34.2211V171.551Z" fill="#EBEBEB"/>
<path d="M59.826 171.551H39.0225V171.679H59.826V171.551Z" fill="#EBEBEB"/>
<path d="M121.471 173.702H92.2568V173.83H121.471V173.702Z" fill="#EBEBEB"/>
<path d="M106.251 15.9185H74.2148V84.7645H106.251V15.9185Z" fill="#E6E6E6"/>
<path d="M108.21 15.9185H76.1738V84.7645H108.21V15.9185Z" fill="#F5F5F5"/>
<path d="M104.697 81.6647V19.0181H79.6855V81.6647H104.697Z" fill="white"/>
<path d="M104.691 81.6647V19.0181H103.213V81.6647H104.691Z" fill="#E6E6E6"/>
<path d="M106.753 63.0615H77.625V67.2217H106.753V63.0615Z" fill="#F5F5F5"/>
<path d="M106.753 24.4832H77.625V28.6433H106.753V24.4832Z" fill="#F5F5F5"/>
<path d="M149.444 15.9185H117.408V84.7645H149.444V15.9185Z" fill="#E6E6E6"/>
<path d="M151.397 15.9185H119.361V84.7645H151.397V15.9185Z" fill="#F5F5F5"/>
<path d="M147.885 81.6647V19.0181H122.873V81.6647H147.885Z" fill="white"/>
<path d="M147.885 81.6647V19.0181H146.407V81.6647H147.885Z" fill="#E6E6E6"/>
<path d="M149.947 63.0615H120.818V67.2217H149.947V63.0615Z" fill="#F5F5F5"/>
<path d="M149.947 24.4832H120.818V28.6433H149.947V24.4832Z" fill="#F5F5F5"/>
<path d="M63.0577 15.9185H31.0215V84.7645H63.0577V15.9185Z" fill="#E6E6E6"/>
<path d="M65.0166 15.9185H32.9805V84.7645H65.0166V15.9185Z" fill="#F5F5F5"/>
<path d="M61.5039 81.6647L61.5039 19.0181H36.4922V81.6647H61.5039Z" fill="white"/>
<path d="M61.499 81.6596L61.499 19.0129H60.0208L60.0208 81.6596H61.499Z" fill="#E6E6E6"/>
<path d="M63.5598 63.0615H34.4316V67.2217H63.5598V63.0615Z" fill="#F5F5F5"/>
<path d="M63.5598 24.4832H34.4316V28.6433H63.5598V24.4832Z" fill="#F5F5F5"/>
<path d="M177.618 98.4531H172.379V167.223H177.618V98.4531Z" fill="#E6E6E6"/>
<path d="M179.021 98.4531H175.935V167.223H179.021V98.4531Z" fill="#F0F0F0"/>
<path d="M105.587 103.607L179.975 103.607V98.448L105.587 98.448V103.607Z" fill="#F0F0F0"/>
<path d="M35.1273 98.4531H29.8887V167.223H35.1273V98.4531Z" fill="#E6E6E6"/>
<path d="M36.1094 98.4531H33.0234V167.223H36.1094V98.4531Z" fill="#F0F0F0"/>
<path d="M28.9551 103.607L103.343 103.607V98.448L28.9551 98.448V103.607Z" fill="#E6E6E6"/>
<path d="M105.14 98.4531H99.9014V167.223H105.14V98.4531Z" fill="#E6E6E6"/>
<path d="M106.543 98.4531H103.457V167.223H106.543V98.4531Z" fill="#F0F0F0"/>
<path d="M91.8086 75.5774H130.653L133.702 97.25H94.8622L91.8086 75.5774Z" fill="#E6E6E6"/>
<path d="M94.8623 97.25L95.0188 98.448H133.864L133.707 97.25H94.8623Z" fill="#E6E6E6"/>
<path d="M93.0059 75.5774H131.845L134.899 97.25H96.0541L93.0059 75.5774Z" fill="#F0F0F0"/>
<path d="M96.9933 96.2611L94.2256 76.5667H130.907L133.68 96.2611H96.9933Z" fill="white"/>
<path d="M106.176 97.25L106.332 98.448H149.11L148.948 97.25H106.176Z" fill="#F0F0F0"/>
<path d="M176.366 79.8394H157.138C153.865 79.8115 150.695 80.9184 148.227 82.9505C145.759 84.9827 144.166 87.7991 143.747 90.8668L140.937 110.939L130.492 110.903H130.459C128.13 110.851 125.869 111.645 124.141 113.122C122.414 114.599 121.352 116.646 121.174 118.841L120.559 125.723C119.546 125.859 118.609 126.305 117.89 126.993C117.172 127.681 116.712 128.573 116.583 129.532H168.166C171.436 129.56 174.603 128.454 177.069 126.424C179.535 124.393 181.127 121.579 181.545 118.514L185.592 89.7095C185.746 88.4752 185.623 87.2241 185.23 86.0379C184.838 84.8516 184.185 83.757 183.314 82.8255C182.443 81.8939 181.374 81.1465 180.177 80.6319C178.98 80.1174 177.681 79.8473 176.366 79.8394ZM131.047 125.652H123.332L123.915 119.32C124.042 117.697 124.824 116.183 126.099 115.09C127.374 113.997 129.045 113.408 130.767 113.447H130.794L140.591 113.477L139.906 118.356C139.629 120.388 138.572 122.254 136.936 123.598C135.3 124.943 133.199 125.674 131.031 125.652H131.047Z" fill="#E0E0E0"/>
<path d="M128.495 129.511H125.819L119.55 167.223H122.226L128.495 129.511Z" fill="#F0F0F0"/>
<path d="M138.541 129.511H135.865L129.591 167.223H132.267L138.541 129.511Z" fill="#F0F0F0"/>
<path d="M162.106 129.511H164.782L171.057 167.223H168.381L162.106 129.511Z" fill="#F0F0F0"/>
<path d="M152.066 129.511H154.742L161.011 167.223H158.336L152.066 129.511Z" fill="#F0F0F0"/>
<path d="M237.174 17.1267H185.009V120.115H237.174V17.1267Z" fill="#E6E6E6"/>
<path d="M240.8 17.1267H185.975V120.115H240.8V17.1267Z" fill="#F0F0F0"/>
<path d="M236.202 115.777V21.4702L190.56 21.4702V115.777H236.202Z" fill="#FAFAFA"/>
<path d="M206.746 115.777L212.4 21.4653H220.029L214.375 115.777H206.746Z" fill="white"/>
<path d="M215.814 115.777L221.469 21.4653H229.097L223.443 115.777H215.814Z" fill="white"/>
<path d="M134.877 190.246C192.649 190.246 239.483 187.662 239.483 184.475C239.483 181.288 192.649 178.704 134.877 178.704C77.1051 178.704 30.2715 181.288 30.2715 184.475C30.2715 187.662 77.1051 190.246 134.877 190.246Z" fill="#F5F5F5"/>
<path d="M129.92 34.2618L121.552 149.731H223.584L232.826 22.1638H143.602L129.92 34.2618Z" fill="#009955"/>
<path opacity="0.8" d="M129.92 34.2618L121.552 149.731H223.584L232.826 22.1638H143.602L129.92 34.2618Z" fill="white"/>
<path d="M215.235 61.1477C222.108 54.8708 222.652 44.8649 216.448 38.7988C210.245 32.7327 199.644 32.9035 192.77 39.1804C185.896 45.4572 185.353 55.4632 191.557 61.5293C197.76 67.5954 208.361 67.4245 215.235 61.1477Z" fill="#009955"/>
<path d="M214.642 60.5684C221.154 54.6222 221.669 45.1436 215.792 39.3975C209.916 33.6513 199.874 33.8134 193.362 39.7596C186.851 45.7058 186.336 55.1843 192.212 60.9305C198.089 66.6767 208.131 66.5146 214.642 60.5684Z" fill="white"/>
<path d="M199.84 55.3683L196.722 55.1746C196.722 55.1746 195.27 62.2305 194.342 62.8219C193.075 63.6529 190.566 65.6616 188.899 66.3906C188.727 66.868 188.691 67.3798 188.796 67.8742C191.386 67.8742 196.177 65.4373 197.002 64.3768C198.896 61.996 199.84 55.3683 199.84 55.3683Z" fill="#FFC3BD"/>
<path d="M201.329 50.943C202.274 52.605 199.333 58.5903 199.333 58.5903L195.33 57.4075C195.445 55.5673 195.896 53.7597 196.663 52.0646C197.655 50.112 200.294 49.1179 201.329 50.943Z" fill="#263238"/>
<path opacity="0.2" d="M198.269 54.002C198.809 55.2051 198.102 58.1111 197.546 59.9515C196.192 57.7593 196.003 55.72 198.269 54.002Z" fill="black"/>
<path d="M198.255 51.2386C197.64 53.3645 196.431 58.9471 197.418 67.7109H207.955C208.198 66.0438 207.89 57.9019 210.367 50.0456C209.111 49.8108 207.841 49.6575 206.563 49.5867C204.935 49.4975 203.303 49.4975 201.675 49.5867C200.98 49.6477 200.292 49.7671 199.62 49.9436C199.293 50.0289 198.995 50.1931 198.756 50.4202C198.516 50.6473 198.344 50.9293 198.255 51.2386Z" fill="#263238"/>
<path opacity="0.2" d="M207.679 51.9829C207.361 53.2779 207.485 56.3725 208.44 59.9515C208.723 56.8692 209.288 53.8158 210.129 50.8256C209.379 50.739 207.982 50.7797 207.679 51.9829Z" fill="black"/>
<path d="M206.347 45.2637C205.894 46.7523 205.559 48.5928 206.563 49.5869C206.563 49.5869 205.78 51.1163 202.862 51.1163C200.191 51.1163 201.675 49.5869 201.675 49.5869C203.466 49.1892 203.579 47.1398 203.385 45.9876L206.347 45.2637Z" fill="#FFC3BD"/>
<path d="M202.855 51.0909C203.128 51.5228 203.273 52.0156 203.276 52.5184C203.276 52.5184 207.053 51.2999 207.053 49.5104C207.053 49.5104 206.562 49.2198 206.254 49.0006C206.265 48.9853 206.012 50.3771 202.855 51.0909Z" fill="white"/>
<path d="M202.753 51.0908C202.414 51.479 202.16 51.9281 202.009 52.4112C201.564 52.0896 201.239 51.6425 201.081 51.1348C200.923 50.627 200.94 50.0848 201.13 49.5868C201.443 49.4681 201.766 49.3727 202.095 49.3013C202.095 49.3013 201.637 50.7084 202.753 51.0908Z" fill="white"/>
<path opacity="0.2" d="M203.395 45.9876C203.551 46.8064 203.463 47.6499 203.142 48.4245C203.42 48.3869 203.69 48.3114 203.945 48.2002C204.981 47.7566 205.537 47.0633 206.147 46.0386C206.206 45.7735 206.282 45.5288 206.357 45.2637L203.395 45.9876Z" fill="black"/>
<path d="M200.833 44.6109C200.913 44.8366 201.042 45.044 201.212 45.2196C201.382 45.3953 201.59 45.5352 201.82 45.6305C202.452 45.8855 202.899 45.3399 202.862 44.7129C202.824 44.0858 202.425 43.3312 201.729 43.3414C201.572 43.3485 201.419 43.3904 201.282 43.4635C201.146 43.5367 201.029 43.6391 200.942 43.7626C200.855 43.8861 200.8 44.0272 200.781 44.1745C200.762 44.3218 200.78 44.4713 200.833 44.6109Z" fill="#FFC3BD"/>
<path opacity="0.2" d="M200.833 44.6109C200.913 44.8366 201.042 45.044 201.212 45.2196C201.382 45.3953 201.59 45.5352 201.82 45.6305C202.452 45.8855 202.899 45.3399 202.862 44.7129C202.824 44.0858 202.425 43.3312 201.729 43.3414C201.572 43.3485 201.419 43.3904 201.282 43.4635C201.146 43.5367 201.029 43.6391 200.942 43.7626C200.855 43.8861 200.8 44.0272 200.781 44.1745C200.762 44.3218 200.78 44.4713 200.833 44.6109Z" fill="black"/>
<path d="M203.654 40.4457C203.449 39.268 201.609 41.3379 202.003 42.4289C202.397 43.52 203.881 41.7712 203.654 40.4457Z" fill="#263238"/>
<path d="M207.593 43.4335C206.919 45.4064 206.628 46.5841 205.306 47.4304C204.906 47.7194 204.426 47.8938 203.925 47.9328C203.423 47.9718 202.92 47.8737 202.475 47.6503C202.031 47.4269 201.664 47.0875 201.418 46.6725C201.171 46.2575 201.057 45.7845 201.087 45.3096C201.141 43.4437 202.236 40.5326 204.469 40.0738C206.703 39.6149 208.251 41.4605 207.593 43.4335Z" fill="#FFC3BD"/>
<path d="M206.978 42.2658C204.702 41.9599 201.432 41.5622 202.619 39.8034C203.747 38.126 208.246 38.4319 206.881 39.1763C208.645 39.2731 210.89 40.0736 209.196 40.6242C210.561 41.5419 210.021 43.9992 207.415 44.8557C206.665 43.8259 206.094 43.3721 206.978 42.2658Z" fill="#263238"/>
<path d="M207.917 45.7839C207.532 46.1565 207.015 46.3817 206.466 46.4161C205.753 46.4517 205.619 45.8094 206.002 45.2536C206.385 44.6979 207.129 44.132 207.755 44.3614C208.381 44.5909 208.397 45.3148 207.917 45.7839Z" fill="#FFC3BD"/>
<path d="M204.318 43.4741C204.275 43.6373 204.151 43.7494 204.037 43.7341C203.924 43.7188 203.875 43.571 203.924 43.4078C203.973 43.2447 204.091 43.1274 204.199 43.1478C204.307 43.1682 204.366 43.311 204.318 43.4741Z" fill="#263238"/>
<path d="M202.424 43.158C202.381 43.3211 202.257 43.4384 202.149 43.418C202.041 43.3976 201.987 43.2548 202.031 43.0917C202.074 42.9286 202.198 42.8164 202.311 42.8317C202.424 42.847 202.473 42.9949 202.424 43.158Z" fill="#263238"/>
<path d="M203.006 43.3413C202.667 43.8044 202.269 44.2257 201.819 44.5955C201.915 44.6937 202.034 44.7696 202.166 44.8174C202.298 44.8651 202.439 44.8834 202.58 44.8708L203.006 43.3413Z" fill="#ED847E"/>
<path d="M202.947 45.4014C202.941 45.4002 202.935 45.3978 202.929 45.3943C202.924 45.3908 202.919 45.3863 202.916 45.381C202.912 45.3758 202.91 45.3699 202.909 45.3638C202.908 45.3577 202.908 45.3514 202.91 45.3453C202.914 45.3328 202.923 45.3221 202.935 45.3147C202.946 45.3074 202.96 45.3038 202.974 45.3046C203.19 45.3404 203.412 45.3302 203.623 45.2746C203.834 45.219 204.029 45.1195 204.194 44.9834C204.198 44.9789 204.204 44.9754 204.21 44.9729C204.216 44.9705 204.222 44.9692 204.229 44.9692C204.235 44.9692 204.242 44.9705 204.248 44.9729C204.254 44.9754 204.259 44.9789 204.264 44.9834C204.274 44.9929 204.279 45.0057 204.279 45.0191C204.279 45.0324 204.274 45.0452 204.264 45.0548C204.087 45.2035 203.876 45.3121 203.648 45.3722C203.42 45.4323 203.18 45.4423 202.947 45.4014Z" fill="#263238"/>
<path d="M205.051 42.9745C205.037 42.9725 205.023 42.9666 205.011 42.9576C205 42.9486 204.991 42.9369 204.986 42.9236C204.942 42.8156 204.869 42.7201 204.775 42.646C204.68 42.572 204.567 42.5219 204.447 42.5004C204.434 42.5 204.421 42.4969 204.41 42.4912C204.398 42.4856 204.388 42.4776 204.381 42.4678C204.373 42.458 204.367 42.4467 204.365 42.4347C204.362 42.4227 204.363 42.4103 204.366 42.3984C204.371 42.3728 204.386 42.3498 204.408 42.3339C204.43 42.3179 204.457 42.31 204.485 42.3118C204.637 42.3329 204.782 42.3909 204.904 42.4803C205.026 42.5696 205.121 42.6872 205.181 42.8216C205.19 42.846 205.189 42.8727 205.178 42.8964C205.167 42.92 205.147 42.9389 205.121 42.949C205.112 42.9577 205.101 42.9645 205.089 42.9689C205.077 42.9733 205.064 42.9752 205.051 42.9745Z" fill="#263238"/>
<path d="M201.777 42.3677C201.765 42.372 201.751 42.372 201.739 42.3677C201.729 42.3592 201.722 42.3489 201.717 42.3375C201.712 42.3261 201.709 42.3139 201.709 42.3015C201.709 42.2891 201.712 42.2768 201.717 42.2655C201.722 42.2541 201.729 42.2438 201.739 42.2352C201.847 42.1151 201.982 42.0193 202.134 41.955C202.286 41.8906 202.452 41.8592 202.618 41.8631C202.631 41.865 202.643 41.8692 202.655 41.8757C202.666 41.8821 202.675 41.8905 202.683 41.9005C202.69 41.9105 202.696 41.9218 202.698 41.9338C202.701 41.9457 202.702 41.9581 202.699 41.9702C202.694 41.9967 202.678 42.0205 202.655 42.0365C202.632 42.0526 202.604 42.0599 202.575 42.0568C202.444 42.0553 202.313 42.0815 202.194 42.1335C202.074 42.1855 201.969 42.2621 201.885 42.3575C201.87 42.3692 201.852 42.3764 201.832 42.3782C201.813 42.38 201.794 42.3764 201.777 42.3677Z" fill="#263238"/>
<path d="M211.294 52.7732L208.44 54.2058C208.44 54.2058 211.196 60.6295 210.727 61.593C210.085 62.9084 209.022 65.799 207.976 67.2316C208.099 67.7091 208.363 68.1439 208.736 68.4858C211.024 67.1806 213.835 62.7707 213.959 61.4962C214.239 58.5851 211.294 52.7732 211.294 52.7732Z" fill="#FFC3BD"/>
<path d="M210.367 50.0457C212.363 50.3771 213.83 57.0965 213.83 57.0965L208.91 58.4271C208.211 56.8819 207.632 55.2904 207.178 53.6654C206.525 51.1775 208.252 49.6838 210.367 50.0457Z" fill="#263238"/>
<path d="M209.011 66.9921L206.978 66.8545L207.852 68.9856C207.852 68.9856 209.643 69.0518 210.064 67.7569L209.011 66.9921Z" fill="#FFC3BD"/>
<path d="M205.219 67.8333L206.12 69.7197L207.852 68.9855L206.978 66.8545L205.219 67.8333Z" fill="#FFC3BD"/>
<path d="M209.805 136.122C216.679 129.845 217.222 119.839 211.018 113.773C204.815 107.707 194.214 107.878 187.34 114.155C180.467 120.432 179.923 130.438 186.127 136.504C192.33 142.57 202.931 142.399 209.805 136.122Z" fill="#009955"/>
<path d="M209.213 135.538C215.724 129.592 216.239 120.113 210.363 114.367C204.486 108.621 194.444 108.783 187.933 114.729C181.421 120.676 180.906 130.154 186.783 135.9C192.659 141.646 202.701 141.484 209.213 135.538Z" fill="white"/>
<path d="M193.058 130.485L190.129 129.583C190.129 129.583 186.94 136.211 185.899 136.608C184.475 137.118 181.583 138.551 179.797 138.892C179.507 139.326 179.34 139.823 179.312 140.335C181.782 140.937 186.978 139.611 188.041 138.75C190.447 136.792 193.058 130.485 193.058 130.485Z" fill="#FFB573"/>
<path d="M195.61 126.443C196.084 128.298 191.747 133.554 191.747 133.554L188.234 131.454C188.813 129.669 189.705 127.989 190.873 126.483C192.318 124.786 195.086 124.408 195.61 126.443Z" fill="#009955"/>
<path opacity="0.3" d="M195.61 126.443C196.084 128.298 191.747 133.554 191.747 133.554L188.234 131.454C188.813 129.669 189.705 127.989 190.873 126.483C192.318 124.786 195.086 124.408 195.61 126.443Z" fill="black"/>
<path opacity="0.2" d="M192.87 128.752C193.199 130.037 192.902 132.091 192.034 133.85C191.262 132.744 190.361 130.108 192.87 128.752Z" fill="black"/>
<path d="M192.822 126.233C192.207 128.359 191.003 133.942 191.985 142.706H202.527C202.77 141.039 202.457 132.897 204.934 125.04C203.678 124.806 202.407 124.652 201.13 124.582C199.502 124.492 197.87 124.492 196.242 124.582C195.547 124.643 194.859 124.762 194.187 124.938C193.86 125.025 193.563 125.189 193.324 125.416C193.084 125.643 192.912 125.925 192.822 126.233Z" fill="#009955"/>
<path opacity="0.3" d="M192.822 126.233C192.207 128.359 191.003 133.942 191.985 142.706H202.527C202.77 141.039 202.457 132.897 204.934 125.04C203.678 124.806 202.407 124.652 201.13 124.582C199.502 124.492 197.87 124.492 196.242 124.582C195.547 124.643 194.859 124.762 194.187 124.938C193.86 125.025 193.563 125.189 193.324 125.416C193.084 125.643 192.912 125.925 192.822 126.233Z" fill="black"/>
<path opacity="0.2" d="M202.284 128.624C201.966 129.919 201.685 132.994 203.007 134.921C203.292 131.838 203.859 128.785 204.701 125.795C203.935 125.724 202.586 127.411 202.284 128.624Z" fill="black"/>
<g opacity="0.95">
<path opacity="0.95" d="M197.294 128.558L196.716 128.798L196.274 128.42C195.712 127.98 195.304 127.39 195.102 126.727C194.901 126.064 194.916 125.359 195.146 124.704C195.503 124.637 195.863 124.588 196.225 124.556C197.853 124.467 199.485 124.467 201.113 124.556C201.491 124.556 201.869 124.602 202.236 124.638L201.869 125.081C200.631 126.542 199.069 127.729 197.294 128.558Z" fill="white"/>
</g>
<path d="M200.918 120.233C200.46 121.721 200.125 123.562 201.129 124.556C199.994 125.883 198.57 126.963 196.953 127.722C196.459 127.358 196.116 126.841 195.986 126.262C195.856 125.682 195.946 125.078 196.241 124.556C198.037 124.158 198.145 122.109 197.951 120.957L200.918 120.233Z" fill="#FFB573"/>
<path opacity="0.2" d="M197.952 120.957C198.107 121.775 198.019 122.619 197.698 123.394C197.978 123.355 198.25 123.28 198.508 123.169C199.538 122.726 200.094 122.032 200.703 121.008C200.768 120.742 200.838 120.498 200.919 120.233L197.952 120.957Z" fill="black"/>
<path d="M195.399 119.606C195.479 119.832 195.609 120.04 195.78 120.216C195.951 120.392 196.16 120.531 196.392 120.625C197.023 120.88 197.471 120.335 197.428 119.708C197.385 119.081 196.991 118.326 196.3 118.336C196.143 118.343 195.99 118.384 195.852 118.457C195.715 118.53 195.598 118.632 195.51 118.756C195.422 118.879 195.367 119.02 195.347 119.168C195.328 119.316 195.346 119.466 195.399 119.606Z" fill="#FFB573"/>
<path opacity="0.2" d="M195.399 119.606C195.479 119.832 195.609 120.04 195.78 120.216C195.951 120.392 196.16 120.531 196.392 120.625C197.023 120.88 197.471 120.335 197.428 119.708C197.385 119.081 196.991 118.326 196.3 118.336C196.143 118.343 195.99 118.384 195.852 118.457C195.715 118.53 195.598 118.632 195.51 118.756C195.422 118.879 195.367 119.02 195.347 119.168C195.328 119.316 195.346 119.466 195.399 119.606Z" fill="black"/>
<path d="M197.897 116.093C197.692 114.762 196.128 116.287 195.95 117.261C195.771 118.234 196.635 119.218 197.223 118.28C197.811 117.342 198 116.812 197.897 116.093Z" fill="#263238"/>
<path d="M202.16 118.402C201.485 120.375 201.194 121.548 199.872 122.399C199.472 122.688 198.993 122.863 198.491 122.902C197.989 122.941 197.486 122.842 197.042 122.619C196.597 122.396 196.23 122.056 195.984 121.641C195.738 121.226 195.623 120.753 195.653 120.278C195.707 118.412 196.802 115.501 199.036 115.043C201.269 114.584 202.856 116.429 202.16 118.402Z" fill="#FFB573"/>
<path d="M201.14 120.467C200.33 119.957 200.185 119.764 200.6 119.305C201.302 118.561 200.26 118.453 200.811 117.531C201.577 116.246 199.133 117.148 199.09 116.215C199.052 115.456 196.932 116.822 196.71 115.945C196.392 114.63 198.431 114.875 198.787 114.232C199.144 113.59 201.237 113.493 201.571 114.431C201.906 115.369 202.958 114.62 203.643 115.762C204.328 116.904 202.909 116.99 203.595 118.102C204.134 118.994 203.093 119.631 202.354 120.34C201.911 120.799 201.642 120.788 201.14 120.467Z" fill="#263238"/>
<path d="M202.619 120.483C202.27 120.887 201.773 121.155 201.227 121.232C200.515 121.324 200.321 120.722 200.655 120.116C200.99 119.509 201.68 118.912 202.328 119.096C202.975 119.28 203.056 119.978 202.619 120.483Z" fill="#FFB573"/>
<path d="M198.885 118.443C198.842 118.607 198.718 118.719 198.61 118.703C198.502 118.688 198.448 118.54 198.491 118.377C198.535 118.214 198.659 118.097 198.772 118.117C198.885 118.137 198.934 118.28 198.885 118.443Z" fill="#263238"/>
<path d="M196.997 118.127C196.949 118.291 196.825 118.408 196.717 118.387C196.609 118.367 196.555 118.224 196.598 118.061C196.641 117.898 196.771 117.786 196.878 117.801C196.986 117.816 197.04 117.964 196.997 118.127Z" fill="#263238"/>
<path d="M197.574 118.311C197.238 118.774 196.841 119.196 196.393 119.565C196.488 119.663 196.607 119.739 196.739 119.787C196.871 119.835 197.013 119.853 197.153 119.84L197.574 118.311Z" fill="#ED893E"/>
<path d="M197.514 120.37C197.508 120.369 197.502 120.367 197.497 120.363C197.491 120.36 197.487 120.355 197.484 120.35C197.481 120.344 197.479 120.338 197.479 120.332C197.478 120.326 197.479 120.32 197.482 120.314C197.485 120.302 197.492 120.291 197.503 120.283C197.514 120.275 197.528 120.272 197.541 120.274C197.757 120.309 197.978 120.299 198.189 120.244C198.4 120.188 198.596 120.089 198.761 119.952C198.765 119.948 198.771 119.945 198.777 119.942C198.783 119.94 198.789 119.939 198.796 119.939C198.802 119.939 198.809 119.94 198.815 119.942C198.821 119.945 198.826 119.948 198.831 119.952C198.835 119.957 198.839 119.962 198.841 119.968C198.844 119.973 198.845 119.979 198.845 119.986C198.845 119.992 198.844 119.998 198.841 120.004C198.839 120.009 198.835 120.014 198.831 120.019C198.654 120.168 198.444 120.278 198.216 120.339C197.987 120.4 197.748 120.411 197.514 120.37Z" fill="#263238"/>
<path d="M199.619 117.944C199.605 117.942 199.591 117.936 199.579 117.927C199.568 117.918 199.559 117.906 199.555 117.893C199.51 117.785 199.437 117.689 199.343 117.615C199.248 117.541 199.136 117.491 199.015 117.47C199.002 117.468 198.99 117.465 198.979 117.459C198.968 117.453 198.959 117.445 198.951 117.435C198.943 117.426 198.938 117.415 198.935 117.403C198.932 117.392 198.932 117.379 198.934 117.368C198.939 117.342 198.954 117.319 198.976 117.303C198.998 117.287 199.025 117.279 199.053 117.281C199.205 117.302 199.35 117.36 199.472 117.449C199.594 117.539 199.689 117.656 199.749 117.791C199.758 117.815 199.757 117.842 199.746 117.866C199.735 117.889 199.715 117.908 199.689 117.918C199.68 117.927 199.669 117.934 199.657 117.938C199.645 117.942 199.632 117.944 199.619 117.944Z" fill="#263238"/>
<path d="M196.322 117.337C196.309 117.34 196.296 117.34 196.284 117.337C196.274 117.328 196.267 117.318 196.262 117.307C196.257 117.295 196.254 117.283 196.254 117.271C196.254 117.258 196.257 117.246 196.262 117.235C196.267 117.223 196.274 117.213 196.284 117.204C196.389 117.083 196.523 116.986 196.675 116.922C196.826 116.857 196.992 116.826 197.158 116.832C197.171 116.834 197.183 116.838 197.194 116.845C197.205 116.851 197.215 116.86 197.222 116.87C197.23 116.88 197.235 116.891 197.238 116.903C197.241 116.915 197.241 116.927 197.239 116.939C197.234 116.965 197.219 116.988 197.197 117.004C197.175 117.02 197.148 117.028 197.12 117.026C196.988 117.024 196.858 117.05 196.738 117.102C196.619 117.154 196.513 117.231 196.43 117.327C196.414 117.337 196.396 117.344 196.377 117.345C196.358 117.347 196.339 117.344 196.322 117.337Z" fill="#263238"/>
<path d="M206.092 127.972L203.092 129.053C203.092 129.053 204.921 135.818 204.328 136.725C203.519 137.964 202.078 140.727 200.854 142.033C200.907 142.524 201.107 142.991 201.431 143.379C203.853 142.359 207.225 138.28 207.522 137.021C208.185 134.141 206.092 127.972 206.092 127.972Z" fill="#FFB573"/>
<path d="M205.553 125.127C207.469 125.703 207.992 132.601 207.992 132.601L202.975 133.335C202.498 131.704 202.149 130.043 201.928 128.364C201.615 125.795 203.492 124.51 205.553 125.127Z" fill="#009955"/>
<path opacity="0.3" d="M205.553 125.127C207.469 125.703 207.992 132.601 207.992 132.601L202.975 133.335C202.498 131.704 202.149 130.043 201.928 128.364C201.615 125.795 203.492 124.51 205.553 125.127Z" fill="black"/>
<path d="M201.889 141.921L199.909 141.533L200.481 143.771C200.481 143.771 202.229 144.057 202.823 142.813L201.889 141.921Z" fill="#FFB573"/>
<path d="M198.055 142.303L198.681 144.296L200.482 143.771L199.911 141.533L198.055 142.303Z" fill="#FFB573"/>
<path d="M162.631 98.6377C169.505 92.3608 170.048 82.3548 163.845 76.2887C157.641 70.2226 147.04 70.3935 140.166 76.6704C133.293 82.9472 132.75 92.9532 138.953 99.0193C145.156 105.085 155.758 104.915 162.631 98.6377Z" fill="#009955"/>
<path d="M162.039 98.0584C168.55 92.1122 169.065 82.6336 163.189 76.8874C157.313 71.1412 147.27 71.3034 140.759 77.2496C134.247 83.1958 133.732 92.6743 139.609 98.4205C145.485 104.167 155.527 104.005 162.039 98.0584Z" fill="white"/>
<path d="M158.028 91.1829C158.109 92.3962 158.174 93.6198 158.222 94.8383L158.379 98.4784L158.406 98.9219L158.444 99.3094C158.487 99.5745 158.519 99.8498 158.579 100.135C158.692 100.696 158.838 101.267 159.01 101.838C159.334 102.985 159.728 104.142 160.089 105.284L158.972 105.794C158.297 104.714 157.7 103.592 157.187 102.435C156.938 101.848 156.706 101.252 156.507 100.625C156.4 100.307 156.312 99.9832 156.242 99.6561L156.151 99.1463L156.097 98.6772C155.811 96.2097 155.622 93.7778 155.52 91.3256L158.028 91.1829Z" fill="#FF8B7B"/>
<path d="M157.435 88.5062C158.417 88.7458 158.838 92.6509 158.838 92.6509L154.84 95.1337C154.84 95.1337 153.593 90.5097 154.441 89.4697C155.288 88.4297 155.994 88.1595 157.435 88.5062Z" fill="#009955"/>
<path opacity="0.2" d="M157.278 89.3833L157.764 93.314L156.14 94.3132L157.278 89.3833Z" fill="black"/>
<path d="M160.121 105.019L161.2 107.186L159.074 107.242C159.074 107.242 158.454 105.713 159.112 104.933L160.121 105.019Z" fill="#FFB573"/>
<path d="M146.476 78.4526C144.788 78.682 141.254 86.309 147.016 89.8675C152.778 93.4261 157.029 89.3832 157.029 89.3832C157.029 89.3832 153.522 85.4474 154.029 82.8779C154.537 80.3084 156.727 77.071 152.238 75.9901C149.077 75.2509 144.825 75.9646 146.476 78.4526Z" fill="#263238"/>
<path d="M161.298 108.257L159.496 108.114L159.097 107.242L161.228 107.186L161.298 108.257Z" fill="#FFB573"/>
<path d="M157.433 88.5062C157.433 88.5062 158.561 88.8937 155.275 102.394H145.375C145.818 98.5904 145.99 96.2453 144.631 88.4399C146.03 88.1745 147.447 88.0041 148.871 87.9301C150.366 87.8306 151.866 87.8306 153.36 87.9301C155.275 88.0882 157.433 88.5062 157.433 88.5062Z" fill="#009955"/>
<path opacity="0.2" d="M145.225 91.5344C146.105 91.7434 146.844 92.6662 146.644 94.369C146.526 95.1531 146.187 95.8926 145.662 96.5103C145.603 95.2 145.447 93.6808 145.166 91.7383L145.225 91.5344Z" fill="black"/>
<path d="M152.622 90.9127C152.622 90.9127 150.912 92.177 150.815 93.5178C149.536 92.5849 147.901 90.046 147.831 88.4197C147.831 88.2845 147.888 88.1548 147.989 88.0592C148.09 87.9636 148.227 87.9099 148.371 87.9099C148.492 87.9012 148.613 87.8859 148.732 87.864C148.782 87.8537 148.834 87.8543 148.883 87.8658C148.933 87.8773 148.979 87.8993 149.018 87.9303L152.622 90.9127Z" fill="#FAFAFA"/>
<path d="M152.622 90.9127C153.077 91.1806 153.457 91.5478 153.73 91.9834C154.003 92.4191 154.162 92.9103 154.192 93.4159C155.627 92.4727 155.136 89.6535 154.473 88.2719C154.421 88.1644 154.341 88.0715 154.239 88.0026C154.138 87.9337 154.019 87.8912 153.895 87.8793C153.701 87.8793 153.55 87.8334 153.448 87.813C153.41 87.807 153.372 87.8148 153.341 87.8347C153.31 87.8547 153.288 87.8853 153.28 87.9201L152.622 90.9127Z" fill="#FAFAFA"/>
<path d="M149.66 83.1426C149.843 84.5089 149.946 87.0122 148.872 87.9197C149.879 89.1612 151.158 90.1821 152.622 90.9124C154.737 89.3829 153.361 87.9197 153.361 87.9197C151.775 87.5577 151.899 86.431 152.255 85.3705L149.66 83.1426Z" fill="#FF8B7B"/>
<path opacity="0.2" d="M150.718 84.0503L152.255 85.3657C152.168 85.6115 152.103 85.8639 152.061 86.1202C151.451 86.0336 150.523 85.539 150.442 84.9068C150.462 84.6049 150.556 84.3115 150.718 84.0503Z" fill="black"/>
<path d="M147.399 80.9508C147.906 83.1481 148.074 84.0862 149.466 84.9783C149.932 85.2906 150.477 85.4807 151.047 85.5292C151.616 85.5778 152.188 85.483 152.706 85.2547C153.224 85.0263 153.669 84.6724 153.995 84.2289C154.322 83.7855 154.518 83.2684 154.564 82.7301C154.753 80.6246 153.89 77.3873 151.408 76.9896C150.845 76.9066 150.269 76.9534 149.73 77.1261C149.19 77.2987 148.703 77.5921 148.309 77.9811C147.915 78.3702 147.627 78.8434 147.468 79.3605C147.31 79.8776 147.286 80.4232 147.399 80.9508Z" fill="#FF8B7B"/>
<path d="M148.063 82.9286C149.558 81.5827 149.612 79.9156 149.234 79.3956C150.518 79.2937 153.842 78.5289 153.307 77.3564C152.773 76.1838 147.599 75.5517 146.887 78.5493C145.172 79.9054 146.267 82.6227 148.063 82.9286Z" fill="#263238"/>
<path d="M151.305 80.7518C151.337 80.9353 151.461 81.0577 151.591 81.0322C151.72 81.0067 151.796 80.8385 151.764 80.66C151.731 80.4816 151.607 80.3491 151.483 80.3796C151.359 80.4102 151.278 80.5734 151.305 80.7518Z" fill="#263238"/>
<path d="M153.506 80.2981C153.533 80.4817 153.663 80.604 153.787 80.5786C153.911 80.5531 153.997 80.3848 153.965 80.2013C153.933 80.0177 153.809 79.8953 153.684 79.9208C153.612 79.9531 153.554 80.0089 153.521 80.0782C153.489 80.1475 153.483 80.2255 153.506 80.2981Z" fill="#263238"/>
<path d="M153.625 79.9466L154.073 79.7222C154.073 79.7222 153.889 80.1098 153.625 79.9466Z" fill="#263238"/>
<path d="M152.881 80.7671C153.121 81.1452 153.417 81.4886 153.76 81.7869C153.674 81.8731 153.569 81.9413 153.453 81.9869C153.337 82.0326 153.212 82.0548 153.086 82.052L152.881 80.7671Z" fill="#FF5652"/>
<path d="M152.142 82.9696C152.239 82.9645 152.337 82.9526 152.433 82.9339C152.448 82.9303 152.461 82.9215 152.47 82.9094C152.479 82.8972 152.483 82.8823 152.481 82.8676C152.481 82.8605 152.479 82.8535 152.475 82.8473C152.471 82.8411 152.466 82.8358 152.46 82.8319C152.454 82.8279 152.446 82.8254 152.439 82.8245C152.431 82.8236 152.424 82.8244 152.417 82.8268C152.183 82.8842 151.938 82.8868 151.703 82.8344C151.468 82.782 151.25 82.6761 151.068 82.526C151.057 82.5164 151.042 82.511 151.027 82.511C151.012 82.511 150.998 82.5164 150.987 82.526C150.981 82.5308 150.977 82.5367 150.974 82.5433C150.97 82.5499 150.969 82.557 150.969 82.5643C150.969 82.5715 150.97 82.5787 150.974 82.5852C150.977 82.5918 150.981 82.5977 150.987 82.6025C151.141 82.7369 151.324 82.839 151.523 82.9022C151.722 82.9655 151.933 82.9884 152.142 82.9696Z" fill="#263238"/>
<path d="M147.087 83.1429C147.205 83.3238 147.362 83.4794 147.548 83.5997C147.734 83.7199 147.944 83.8022 148.166 83.8413C148.77 83.9484 149.056 83.4182 148.878 82.9033C148.7 82.3884 148.209 81.8277 147.61 81.9551C147.479 81.9821 147.358 82.0386 147.255 82.1195C147.153 82.2005 147.072 82.3036 147.021 82.4202C146.969 82.5368 146.949 82.6634 146.96 82.7892C146.972 82.915 147.015 83.0363 147.087 83.1429Z" fill="#FF8B7B"/>
<path d="M150.275 80.3494C150.3 80.3468 150.323 80.3371 150.341 80.3215C150.36 80.306 150.372 80.2855 150.378 80.2627C150.519 79.918 150.798 79.6396 151.155 79.4878C151.169 79.4822 151.183 79.4739 151.194 79.4634C151.205 79.4529 151.214 79.4404 151.22 79.4267C151.226 79.4129 151.229 79.3981 151.229 79.3832C151.229 79.3683 151.226 79.3536 151.22 79.3399C151.214 79.3273 151.205 79.316 151.195 79.3066C151.184 79.2972 151.172 79.2899 151.158 79.2852C151.145 79.2804 151.13 79.2783 151.116 79.2789C151.101 79.2796 151.087 79.283 151.074 79.2889C150.862 79.3783 150.671 79.5069 150.513 79.6672C150.354 79.8274 150.231 80.0161 150.151 80.2219C150.147 80.2357 150.146 80.2501 150.149 80.2642C150.151 80.2783 150.156 80.2918 150.164 80.3038C150.173 80.3158 150.183 80.3261 150.196 80.3339C150.209 80.3418 150.223 80.3471 150.238 80.3494C150.243 80.3521 150.25 80.3535 150.256 80.3535C150.263 80.3535 150.269 80.3521 150.275 80.3494Z" fill="#263238"/>
<path d="M154.04 78.8503C154.061 78.8504 154.08 78.8457 154.098 78.8369C154.116 78.828 154.131 78.8151 154.143 78.7994C154.163 78.7786 154.175 78.7513 154.175 78.7229C154.175 78.6945 154.163 78.6672 154.143 78.6464C153.993 78.5489 153.821 78.4865 153.641 78.4644C153.461 78.4422 153.278 78.4609 153.107 78.5189C153.079 78.5303 153.056 78.5511 153.043 78.5775C153.03 78.6039 153.028 78.6339 153.037 78.6617C153.042 78.6753 153.05 78.6878 153.061 78.6983C153.072 78.7088 153.084 78.7172 153.098 78.7229C153.113 78.7287 153.128 78.7316 153.143 78.7316C153.159 78.7316 153.174 78.7286 153.188 78.7229C153.323 78.6762 153.467 78.6615 153.609 78.6802C153.751 78.6989 153.887 78.7503 154.003 78.83L154.04 78.8503Z" fill="#263238"/>
<path d="M151.43 80.4001L151.878 80.1758C151.878 80.1758 151.689 80.5683 151.43 80.4001Z" fill="#263238"/>
<path d="M145.268 101.848L144.955 102.684C144.912 102.751 144.993 102.817 145.106 102.817H155.281C155.373 102.817 155.449 102.776 155.459 102.72L155.605 101.884C155.605 101.828 155.546 101.777 155.443 101.777H145.435C145.403 101.774 145.371 101.78 145.342 101.792C145.313 101.805 145.287 101.824 145.268 101.848Z" fill="#009955"/>
<path opacity="0.2" d="M145.268 101.848L144.955 102.684C144.912 102.751 144.993 102.817 145.106 102.817H155.281C155.373 102.817 155.449 102.776 155.459 102.72L155.605 101.884C155.605 101.828 155.546 101.777 155.443 101.777H145.435C145.403 101.774 145.371 101.78 145.342 101.792C145.313 101.805 145.287 101.824 145.268 101.848Z" fill="white"/>
<path d="M146.568 102.904H146.299C146.245 102.904 146.207 102.878 146.212 102.847L146.417 101.762C146.417 101.731 146.471 101.706 146.525 101.706H146.795C146.849 101.706 146.887 101.731 146.881 101.762L146.676 102.847C146.671 102.878 146.622 102.904 146.568 102.904Z" fill="#009955"/>
<path opacity="0.4" d="M146.568 102.904H146.299C146.245 102.904 146.207 102.878 146.212 102.847L146.417 101.762C146.417 101.731 146.471 101.706 146.525 101.706H146.795C146.849 101.706 146.887 101.731 146.881 101.762L146.676 102.847C146.671 102.878 146.622 102.904 146.568 102.904Z" fill="black"/>
<path d="M154.521 102.904H154.251C154.197 102.904 154.159 102.878 154.165 102.847L154.37 101.762C154.37 101.731 154.424 101.706 154.477 101.706H154.747C154.801 101.706 154.839 101.731 154.834 101.762L154.629 102.847C154.623 102.878 154.575 102.904 154.521 102.904Z" fill="#009955"/>
<path opacity="0.4" d="M154.521 102.904H154.251C154.197 102.904 154.159 102.878 154.165 102.847L154.37 101.762C154.37 101.731 154.424 101.706 154.477 101.706H154.747C154.801 101.706 154.839 101.731 154.834 101.762L154.629 102.847C154.623 102.878 154.575 102.904 154.521 102.904Z" fill="black"/>
<path d="M150.561 102.904H150.291C150.237 102.904 150.199 102.878 150.205 102.847L150.41 101.762C150.41 101.731 150.464 101.706 150.518 101.706H150.787C150.841 101.706 150.879 101.731 150.874 101.762L150.669 102.847C150.663 102.878 150.615 102.904 150.561 102.904Z" fill="#009955"/>
<path opacity="0.4" d="M150.561 102.904H150.291C150.237 102.904 150.199 102.878 150.205 102.847L150.41 101.762C150.41 101.731 150.464 101.706 150.518 101.706H150.787C150.841 101.706 150.879 101.731 150.874 101.762L150.669 102.847C150.663 102.878 150.615 102.904 150.561 102.904Z" fill="black"/>
<path d="M151.181 104.26L153.657 103.24L152.81 105.488C152.81 105.488 151.262 105.82 150.652 105.096L151.181 104.26Z" fill="#FFB573"/>
<path d="M145.732 91.5652C145.452 93.0946 145.133 94.67 144.81 96.2198C144.653 96.9948 144.475 97.7493 144.303 98.5395L144.049 99.6968L143.936 100.207C143.922 100.243 143.922 100.282 143.936 100.319C144.024 100.534 144.164 100.726 144.346 100.88C144.596 101.111 144.871 101.318 145.166 101.496C145.827 101.895 146.517 102.247 147.232 102.552C147.96 102.873 148.716 103.169 149.482 103.439C150.248 103.709 151.03 103.949 151.802 104.214L151.521 105.351C149.828 105.089 148.162 104.689 146.541 104.158C145.701 103.885 144.886 103.544 144.108 103.138C143.686 102.916 143.287 102.656 142.916 102.363C142.443 102.011 142.072 101.551 141.837 101.027C141.706 100.703 141.654 100.354 141.686 100.008C141.713 99.7886 141.724 99.7427 141.74 99.6356L141.788 99.3399L141.977 98.1724C142.112 97.3924 142.231 96.6124 142.376 95.8324C142.652 94.2774 142.916 92.7225 143.256 91.1726L145.732 91.5652Z" fill="#FF8B7B"/>
<path d="M144.631 88.4451C143.623 88.7306 142.198 91.9526 142.198 91.9526L145.435 95.3225C145.435 95.3225 147.464 91.8558 147.14 90.6475C146.816 89.4393 145.786 88.1188 144.631 88.4451Z" fill="#009955"/>
<path d="M155.611 103.714L154.796 105.565L152.811 105.494L153.658 103.245L155.611 103.714Z" fill="#FFB573"/>
<path opacity="0.3" d="M138.827 48.6637H177.499C177.859 48.6584 178.204 48.5264 178.467 48.2935C178.729 48.0606 178.89 47.7436 178.918 47.4045C178.933 47.2433 178.911 47.081 178.855 46.9281C178.799 46.7753 178.709 46.6352 178.592 46.5171C178.476 46.3989 178.334 46.3052 178.176 46.242C178.018 46.1788 177.849 46.1476 177.677 46.1503H139.011C138.651 46.1554 138.306 46.2865 138.043 46.5182C137.78 46.75 137.617 47.0658 137.586 47.4045C137.572 47.5659 137.594 47.7284 137.65 47.8815C137.706 48.0346 137.795 48.175 137.912 48.2936C138.029 48.4121 138.171 48.5063 138.328 48.5701C138.486 48.6338 138.656 48.6657 138.827 48.6637Z" fill="#009955"/>
<path opacity="0.3" d="M149.509 54.1904H177.083C177.443 54.1841 177.788 54.0519 178.051 53.8193C178.314 53.5867 178.477 53.2703 178.508 52.9311C178.522 52.7699 178.5 52.6076 178.444 52.4548C178.388 52.3019 178.299 52.1619 178.182 52.0437C178.065 51.9255 177.923 51.8318 177.765 51.7686C177.608 51.7055 177.438 51.6742 177.267 51.6769H149.692C149.333 51.682 148.988 51.8131 148.725 52.0449C148.461 52.2766 148.299 52.5924 148.268 52.9311C148.254 53.0926 148.275 53.2551 148.331 53.4082C148.387 53.5613 148.477 53.7017 148.594 53.8202C148.71 53.9388 148.852 54.033 149.01 54.0967C149.167 54.1605 149.337 54.1924 149.509 54.1904Z" fill="#009955"/>
<path d="M155.952 43.1321H177.888C178.248 43.128 178.593 42.9971 178.855 42.7651C179.118 42.533 179.279 42.2166 179.307 41.8779C179.321 41.7169 179.3 41.5548 179.244 41.4021C179.188 41.2493 179.1 41.1092 178.983 40.9907C178.867 40.8723 178.726 40.778 178.569 40.7139C178.412 40.6498 178.243 40.6174 178.072 40.6187H156.135C155.775 40.624 155.43 40.756 155.168 40.9889C154.905 41.2218 154.744 41.5388 154.716 41.8779C154.702 42.0387 154.723 42.2005 154.779 42.353C154.835 42.5055 154.924 42.6453 155.04 42.7634C155.157 42.8815 155.298 42.9753 155.455 43.0388C155.612 43.1023 155.781 43.134 155.952 43.1321Z" fill="white"/>
<path opacity="0.3" d="M156 129.41H171.646C171.817 129.407 171.987 129.438 172.144 129.501C172.302 129.564 172.444 129.658 172.561 129.776C172.678 129.895 172.767 130.035 172.823 130.187C172.879 130.34 172.901 130.503 172.887 130.664C172.858 131.004 172.696 131.321 172.433 131.555C172.169 131.788 171.823 131.919 171.462 131.923H155.816C155.645 131.925 155.475 131.893 155.317 131.829C155.16 131.766 155.018 131.671 154.901 131.553C154.784 131.434 154.695 131.294 154.639 131.141C154.583 130.988 154.561 130.825 154.576 130.664C154.605 130.325 154.767 130.008 155.031 129.776C155.294 129.544 155.64 129.414 156 129.41Z" fill="#009955"/>
<path opacity="0.3" d="M134.813 129.41H150.459C150.63 129.407 150.8 129.438 150.958 129.501C151.115 129.564 151.257 129.658 151.374 129.776C151.491 129.895 151.581 130.035 151.637 130.187C151.693 130.34 151.714 130.503 151.7 130.664C151.669 131.003 151.507 131.319 151.244 131.552C150.981 131.784 150.636 131.917 150.276 131.923H134.63C134.458 131.925 134.288 131.893 134.131 131.829C133.973 131.766 133.831 131.671 133.715 131.553C133.598 131.434 133.508 131.294 133.452 131.141C133.396 130.988 133.375 130.825 133.389 130.664C133.417 130.324 133.579 130.007 133.843 129.775C134.107 129.543 134.453 129.412 134.813 129.41Z" fill="#009955"/>
<path opacity="0.3" d="M144.46 123.883H172.034C172.205 123.881 172.375 123.912 172.533 123.975C172.69 124.038 172.832 124.132 172.949 124.25C173.066 124.368 173.156 124.508 173.212 124.661C173.268 124.814 173.289 124.976 173.275 125.137C173.247 125.477 173.086 125.794 172.823 126.027C172.561 126.259 172.216 126.391 171.856 126.397H144.276C144.105 126.399 143.935 126.367 143.778 126.303C143.621 126.239 143.479 126.145 143.363 126.026C143.246 125.908 143.158 125.767 143.102 125.614C143.047 125.461 143.026 125.299 143.041 125.137C143.069 124.799 143.23 124.482 143.493 124.25C143.755 124.018 144.1 123.887 144.46 123.883Z" fill="#009955"/>
<path d="M140.813 118.351H172.428C172.599 118.349 172.769 118.381 172.927 118.445C173.084 118.509 173.225 118.603 173.342 118.722C173.458 118.84 173.547 118.981 173.602 119.134C173.658 119.287 173.679 119.449 173.664 119.611C173.635 119.949 173.474 120.266 173.212 120.498C172.949 120.73 172.604 120.861 172.245 120.865H140.646C140.474 120.868 140.304 120.836 140.147 120.773C139.989 120.71 139.847 120.616 139.73 120.498C139.614 120.38 139.524 120.24 139.468 120.087C139.412 119.934 139.39 119.772 139.405 119.611C139.433 119.273 139.592 118.958 139.852 118.725C140.112 118.492 140.455 118.359 140.813 118.351Z" fill="white"/>
<path opacity="0.3" d="M206.525 91.9222H177.715C177.355 91.9275 177.01 92.0595 176.748 92.2924C176.486 92.5253 176.324 92.8423 176.296 93.1814C176.282 93.3422 176.303 93.5041 176.359 93.6565C176.415 93.809 176.504 93.9488 176.62 94.0669C176.737 94.185 176.878 94.2788 177.035 94.3423C177.192 94.4058 177.361 94.4376 177.532 94.4356H206.342C206.701 94.4315 207.046 94.3006 207.309 94.0686C207.571 93.8365 207.732 93.5201 207.761 93.1814C207.776 93.0203 207.755 92.8579 207.699 92.7048C207.644 92.5517 207.555 92.4112 207.439 92.2926C207.322 92.1739 207.181 92.0796 207.023 92.0158C206.866 91.9521 206.696 91.9202 206.525 91.9222Z" fill="#009955"/>
<path opacity="0.3" d="M191.71 86.3958H178.115C177.755 86.4011 177.41 86.5331 177.147 86.766C176.885 86.9989 176.724 87.316 176.696 87.6551C176.681 87.8163 176.703 87.9786 176.759 88.1314C176.815 88.2843 176.905 88.4243 177.022 88.5425C177.138 88.6607 177.28 88.7544 177.438 88.8176C177.596 88.8807 177.765 88.912 177.937 88.9093H191.527C191.887 88.9042 192.231 88.7731 192.495 88.5413C192.758 88.3096 192.921 87.9938 192.951 87.6551C192.966 87.4936 192.944 87.3312 192.888 87.178C192.832 87.0249 192.742 86.8846 192.626 86.766C192.509 86.6474 192.367 86.5532 192.209 86.4895C192.052 86.4258 191.882 86.3939 191.71 86.3958Z" fill="#009955"/>
<path d="M199.668 80.8593H178.519C178.16 80.8644 177.815 80.9955 177.552 81.2272C177.289 81.459 177.126 81.7748 177.095 82.1135C177.081 82.2749 177.102 82.4374 177.158 82.5905C177.215 82.7436 177.304 82.884 177.421 83.0026C177.538 83.1211 177.679 83.2153 177.837 83.2791C177.995 83.3428 178.165 83.3747 178.336 83.3727H199.49C199.85 83.3686 200.196 83.237 200.459 83.0038C200.721 82.7707 200.882 82.453 200.909 82.1135C200.923 81.9522 200.902 81.79 200.846 81.6371C200.79 81.4843 200.7 81.3442 200.583 81.226C200.466 81.1079 200.325 81.0142 200.167 80.951C200.009 80.8878 199.839 80.8566 199.668 80.8593Z" fill="white"/>
<path opacity="0.3" d="M216.775 86.3958H197.461C197.101 86.4022 196.756 86.5344 196.493 86.7669C196.23 86.9995 196.067 87.3159 196.037 87.6551C196.022 87.8163 196.044 87.9786 196.1 88.1314C196.156 88.2843 196.245 88.4243 196.362 88.5425C196.479 88.6607 196.621 88.7544 196.779 88.8176C196.936 88.8807 197.106 88.912 197.277 88.9093H216.592C216.952 88.9042 217.296 88.7731 217.56 88.5413C217.823 88.3096 217.986 87.9938 218.016 87.6551C218.031 87.4936 218.009 87.3312 217.953 87.178C217.897 87.0249 217.807 86.8846 217.691 86.766C217.574 86.6474 217.432 86.5532 217.274 86.4895C217.117 86.4258 216.947 86.3939 216.775 86.3958Z" fill="#009955"/>
<path opacity="0.3" d="M129.92 34.2615H144.368L143.602 22.1636L129.92 34.2615Z" fill="#009955"/>
<path d="M129.92 34.2615L145.388 32.5129L143.602 22.1636L129.92 34.2615Z" fill="#009955"/>
<path d="M71.6364 70.1025C71.1778 71.1221 70.6707 72.2539 70.2229 73.3449C69.7751 74.4359 69.3165 75.5525 68.9011 76.6588C68.0562 78.8227 67.3624 81.0367 66.824 83.2864C66.7485 83.5617 66.7107 83.8319 66.6567 84.1022L66.5812 84.51L66.5219 84.8312C66.4685 85.2848 66.4576 85.7421 66.4895 86.1975C66.5825 87.3116 66.7428 88.4197 66.9697 89.5164C67.4336 91.8055 68.0487 94.1762 68.6583 96.501L65.9176 97.5971C64.556 95.3968 63.4076 93.0847 62.4863 90.689C61.9937 89.4296 61.6129 88.1336 61.348 86.8144C61.19 86.0557 61.1194 85.2831 61.1375 84.51V84.1786C61.1375 84.0716 61.1375 84.0053 61.1375 83.9135L61.1915 83.4037C61.2293 83.0723 61.2508 82.7307 61.3102 82.3841C61.7101 79.813 62.34 77.2786 63.1931 74.8081C63.6139 73.5896 64.0455 72.3865 64.5473 71.2088C65.049 70.0311 65.5346 68.8738 66.1658 67.6655L71.6364 70.1025Z" fill="#7F3E3B"/>
<path d="M68.5657 95.8684L70.6698 97.8058L66.0785 99.8452C66.0785 99.8452 64.9671 98.0098 65.7333 96.3477L68.5657 95.8684Z" fill="#7F3E3B"/>
<path d="M72.3644 100.697L68.4907 102.195L66.0791 99.8248L70.6703 97.8059L72.3644 100.697Z" fill="#7F3E3B"/>
<path d="M172.533 89.5431C178.595 75.7144 171.646 59.8606 157.012 54.1325C142.378 48.4045 125.601 54.9714 119.539 68.8001C113.477 82.6288 120.427 98.4826 135.061 104.211C149.695 109.939 166.472 103.372 172.533 89.5431Z" fill="#009955"/>
<path d="M146.034 104.847C161.039 104.847 173.204 93.3517 173.204 79.1721C173.204 64.9924 161.039 53.4976 146.034 53.4976C131.029 53.4976 118.864 64.9924 118.864 79.1721C118.864 93.3517 131.029 104.847 146.034 104.847Z" fill="white"/>
<path d="M157.829 85.0808C158.132 87.1813 158.369 89.2919 158.633 91.3975L159.367 97.6835L159.464 98.438L159.577 99.1161L159.734 99.8196L159.923 100.538C160.203 101.502 160.522 102.481 160.878 103.46C161.568 105.423 162.378 107.39 163.171 109.348L161.315 110.296C160.041 108.484 158.892 106.598 157.873 104.648C157.371 103.659 156.891 102.654 156.481 101.589L156.179 100.783L155.909 99.942C155.828 99.6514 155.758 99.3506 155.682 99.0549L155.515 98.2392C155.1 96.1082 154.76 94.0077 154.436 91.8971C154.112 89.7864 153.826 87.6758 153.589 85.5549L157.829 85.0808Z" fill="#FF8B7B"/>
<path d="M156.485 80.6403C158.206 81.0533 159.409 87.7471 159.409 87.7471L152.833 91.9735C152.833 91.9735 150.135 84.0408 151.446 82.2564C152.827 80.3956 153.977 80.0387 156.485 80.6403Z" fill="#009955"/>
<path opacity="0.2" d="M156.334 82.1343L157.655 88.8792L154.99 90.5872L156.334 82.1343Z" fill="black"/>
<path d="M163.148 108.951L165.307 112.662L161.659 112.754C161.659 112.754 160.408 110.113 161.444 108.798L163.148 108.951Z" fill="#FFB573"/>
<path d="M136.449 63.398C133.589 63.7906 128.469 76.8675 138.801 82.97C149.133 89.0725 155.92 82.139 155.92 82.139C155.92 82.139 149.418 75.3839 149.985 70.979C150.551 66.5742 153.891 61.0223 146.057 59.1716C140.506 57.8614 133.314 59.1258 136.449 63.398Z" fill="#263238"/>
<path d="M165.571 114.503L162.458 114.258L161.67 112.754L165.317 112.662L165.571 114.503Z" fill="#FFB573"/>
<path d="M156.485 80.6403C156.485 80.6403 158.476 81.3031 154.494 104.449H137.537C137.823 97.9283 137.829 93.9109 134.532 80.5281C136.905 80.0626 139.31 79.7627 141.729 79.6308C144.292 79.4548 146.865 79.4548 149.428 79.6308C152.735 79.9163 156.485 80.6403 156.485 80.6403Z" fill="#009955"/>
<path opacity="0.2" d="M135.957 85.8252C137.495 86.1872 138.914 87.7676 138.741 90.6839C138.648 92.0093 138.157 93.2823 137.328 94.3546C137.058 92.1114 136.599 89.5112 135.882 86.1974L135.957 85.8252Z" fill="black"/>
<path d="M148.539 84.7595C148.539 84.7595 145.76 86.9212 145.76 89.2205C143.451 87.6247 140.338 83.2708 140.009 80.4872C139.999 80.3749 140.013 80.2618 140.05 80.1547C140.087 80.0476 140.147 79.9487 140.225 79.8639C140.304 79.7791 140.4 79.7103 140.507 79.6614C140.615 79.6126 140.732 79.5848 140.851 79.5797C141.058 79.569 141.263 79.5434 141.466 79.5033C141.553 79.4858 141.642 79.4873 141.728 79.5077C141.814 79.528 141.894 79.5666 141.962 79.6205L148.539 84.7595Z" fill="#FAFAFA"/>
<path d="M148.538 84.7595C149.348 85.2149 150.038 85.8368 150.559 86.5791C151.079 87.3214 151.415 88.165 151.543 89.0471C153.879 87.431 152.687 82.5979 151.387 80.2323C151.285 80.0482 151.136 79.8905 150.955 79.7732C150.773 79.6558 150.564 79.5824 150.345 79.5594C150 79.5186 149.741 79.4778 149.569 79.4421C149.537 79.4363 149.505 79.4366 149.474 79.4431C149.443 79.4496 149.413 79.4621 149.387 79.4798C149.362 79.4975 149.34 79.52 149.324 79.546C149.308 79.572 149.297 79.6008 149.293 79.6308L148.538 84.7595Z" fill="#FAFAFA"/>
<path d="M142.496 71.438C142.981 73.7781 143.467 78.0656 141.729 79.6308C143.611 81.7556 145.927 83.4999 148.538 84.7595C151.975 82.1696 149.428 79.6308 149.428 79.6308C146.666 79.0088 146.731 77.0817 147.222 75.2514L142.496 71.438Z" fill="#FF8B7B"/>
<path opacity="0.2" d="M144.421 72.9929L147.216 75.2514C147.098 75.6742 147.019 76.1057 146.978 76.5413C145.926 76.3985 144.281 75.5471 144.038 74.4612C144.036 73.9494 144.167 73.445 144.421 72.9929Z" fill="black"/>
<path d="M138.342 67.6805C139.485 71.443 139.884 73.054 142.388 74.5886C146.164 76.8878 150.788 74.7364 150.853 70.7241C150.912 67.1146 149.029 61.5474 144.724 60.8795C143.774 60.7237 142.798 60.7999 141.889 61.1008C140.979 61.4017 140.166 61.9173 139.526 62.5987C138.887 63.2801 138.442 64.1047 138.235 64.9941C138.028 65.8835 138.064 66.8083 138.342 67.6805Z" fill="#FF8B7B"/>
<path d="M139.733 71.0707C142.134 68.7562 142.016 65.9012 141.303 65.0091C143.494 64.8357 149.099 63.5255 148.036 61.5219C146.974 59.5184 138.029 58.4274 137.176 63.5612C134.398 65.8808 136.61 70.5456 139.733 71.0707Z" fill="#263238"/>
<path d="M145.016 67.3391C145.091 67.6501 145.323 67.8489 145.555 67.8183C145.787 67.7877 145.884 67.4869 145.814 67.1759C145.744 66.8649 145.506 66.6661 145.274 66.6967C145.042 66.7273 144.945 67.0281 145.016 67.3391Z" fill="#263238"/>
<path d="M148.732 66.5847C148.808 66.8957 149.04 67.0946 149.272 67.064C149.504 67.0334 149.601 66.7326 149.525 66.4216C149.45 66.1106 149.218 65.9118 148.986 65.9373C148.754 65.9627 148.662 66.2483 148.732 66.5847Z" fill="#263238"/>
<path d="M148.906 65.9525L149.645 65.5701C149.645 65.5701 149.37 66.238 148.906 65.9525Z" fill="#263238"/>
<path d="M147.719 67.3594C148.172 68.0042 148.717 68.5874 149.337 69.0928C149.197 69.2412 149.023 69.3587 148.829 69.4371C148.635 69.5155 148.426 69.5528 148.215 69.5466L147.719 67.3594Z" fill="#FF5652"/>
<path d="M146.747 71.1423C146.914 71.1317 147.08 71.1095 147.243 71.076C147.269 71.07 147.291 71.055 147.305 71.0341C147.319 71.0133 147.324 70.9881 147.319 70.9639C147.312 70.9399 147.297 70.9192 147.275 70.9059C147.252 70.8926 147.226 70.8878 147.2 70.8925C146.793 70.9859 146.369 70.9885 145.96 70.9C145.552 70.8115 145.171 70.6344 144.848 70.3827C144.829 70.3658 144.804 70.3564 144.778 70.3564C144.752 70.3564 144.727 70.3658 144.708 70.3827C144.698 70.3912 144.691 70.4015 144.686 70.4129C144.68 70.4243 144.678 70.4366 144.678 70.4489C144.678 70.4613 144.68 70.4736 144.686 70.485C144.691 70.4964 144.698 70.5067 144.708 70.5152C144.986 70.7427 145.31 70.9153 145.66 71.023C146.011 71.1307 146.38 71.1712 146.747 71.1423Z" fill="#263238"/>
<path d="M138.078 71.4329C138.3 71.7429 138.586 72.0084 138.917 72.214C139.249 72.4196 139.62 72.5613 140.009 72.6309C141.056 72.8145 141.482 71.9121 141.088 71.0251C140.754 70.2298 139.81 69.1796 138.801 69.3937C138.583 69.4488 138.383 69.554 138.219 69.6999C138.055 69.8458 137.931 70.0279 137.86 70.2298C137.788 70.4318 137.771 70.6473 137.809 70.8573C137.847 71.0672 137.939 71.265 138.078 71.4329Z" fill="#FF8B7B"/>
<path d="M143.197 66.6557C143.238 66.651 143.276 66.6341 143.306 66.6076C143.336 66.581 143.357 66.5461 143.364 66.5079C143.462 66.2167 143.622 65.9477 143.834 65.7179C144.047 65.488 144.308 65.3021 144.6 65.1721C144.624 65.1622 144.646 65.1478 144.664 65.1297C144.682 65.1116 144.696 65.0903 144.705 65.0669C144.714 65.0435 144.718 65.0187 144.717 64.9938C144.715 64.9689 144.709 64.9446 144.697 64.9223C144.686 64.8999 144.67 64.8798 144.651 64.8632C144.632 64.8466 144.609 64.8339 144.584 64.8258C144.56 64.8177 144.533 64.8144 144.507 64.8161C144.481 64.8178 144.456 64.8244 144.433 64.8356C144.082 64.9892 143.771 65.212 143.52 65.4891C143.268 65.7662 143.083 66.091 142.976 66.4416C142.971 66.4654 142.972 66.4898 142.977 66.5134C142.982 66.5371 142.993 66.5595 143.007 66.5794C143.022 66.5993 143.04 66.6163 143.062 66.6294C143.083 66.6425 143.107 66.6514 143.132 66.6557C143.154 66.6609 143.176 66.6609 143.197 66.6557Z" fill="#263238"/>
<path d="M149.445 64.0711C149.489 64.0759 149.534 64.0661 149.572 64.0433C149.609 64.0205 149.637 63.9862 149.651 63.946C149.665 63.9059 149.664 63.8624 149.648 63.823C149.632 63.7836 149.602 63.7505 149.563 63.7295C149.306 63.5594 149.008 63.4507 148.696 63.4125C148.384 63.3743 148.067 63.4079 147.772 63.5103C147.725 63.5304 147.687 63.5673 147.668 63.613C147.649 63.6587 147.65 63.7097 147.67 63.755C147.68 63.7777 147.694 63.7982 147.713 63.8154C147.731 63.8326 147.753 63.8461 147.778 63.8552C147.802 63.8642 147.827 63.8686 147.853 63.868C147.879 63.8674 147.905 63.862 147.929 63.8519C148.164 63.7743 148.415 63.7509 148.662 63.7837C148.909 63.8165 149.144 63.9046 149.348 64.0405C149.376 64.0604 149.41 64.0711 149.445 64.0711Z" fill="#263238"/>
<path d="M145.183 66.7325L145.922 66.3501C145.922 66.3501 145.668 67.018 145.183 66.7325Z" fill="#263238"/>
<path d="M137.285 103.511L136.848 104.943C136.794 105.055 136.929 105.168 137.128 105.168H154.576C154.727 105.168 154.857 105.096 154.868 105.01L155.019 103.572C155.019 103.475 154.895 103.389 154.727 103.389H137.576C137.52 103.382 137.464 103.39 137.412 103.411C137.361 103.433 137.317 103.467 137.285 103.511Z" fill="#009955"/>
<path opacity="0.2" d="M137.285 103.511L136.848 104.943C136.794 105.055 136.929 105.168 137.128 105.168H154.576C154.727 105.168 154.857 105.096 154.868 105.01L155.019 103.572C155.019 103.475 154.895 103.389 154.727 103.389H137.576C137.52 103.382 137.464 103.39 137.412 103.411C137.361 103.433 137.317 103.467 137.285 103.511Z" fill="white"/>
<path d="M139.647 105.331H139.194C139.102 105.331 139.032 105.285 139.037 105.229L139.253 103.368C139.253 103.312 139.34 103.266 139.431 103.266H139.89C139.982 103.266 140.052 103.312 140.046 103.368L139.83 105.229C139.82 105.28 139.733 105.331 139.647 105.331Z" fill="#009955"/>
<path opacity="0.4" d="M139.647 105.331H139.194C139.102 105.331 139.032 105.285 139.037 105.229L139.253 103.368C139.253 103.312 139.34 103.266 139.431 103.266H139.89C139.982 103.266 140.052 103.312 140.046 103.368L139.83 105.229C139.82 105.28 139.733 105.331 139.647 105.331Z" fill="black"/>
<path d="M153.286 105.331H152.822C152.73 105.331 152.66 105.285 152.671 105.229L152.887 103.368C152.887 103.312 152.973 103.266 153.065 103.266H153.523C153.615 103.266 153.685 103.312 153.68 103.368L153.464 105.229C153.45 105.262 153.425 105.29 153.393 105.308C153.361 105.326 153.323 105.334 153.286 105.331Z" fill="#009955"/>
<path opacity="0.4" d="M153.286 105.331H152.822C152.73 105.331 152.66 105.285 152.671 105.229L152.887 103.368C152.887 103.312 152.973 103.266 153.065 103.266H153.523C153.615 103.266 153.685 103.312 153.68 103.368L153.464 105.229C153.45 105.262 153.425 105.29 153.393 105.308C153.361 105.326 153.323 105.334 153.286 105.331Z" fill="black"/>
<path d="M146.494 105.331H146.036C145.944 105.331 145.874 105.285 145.879 105.229L146.095 103.368C146.095 103.312 146.181 103.266 146.273 103.266H146.748C146.84 103.266 146.91 103.312 146.904 103.368L146.688 105.229C146.667 105.28 146.586 105.331 146.494 105.331Z" fill="#009955"/>
<path opacity="0.4" d="M146.494 105.331H146.036C145.944 105.331 145.874 105.285 145.879 105.229L146.095 103.368C146.095 103.312 146.181 103.266 146.273 103.266H146.748C146.84 103.266 146.91 103.312 146.904 103.368L146.688 105.229C146.667 105.28 146.586 105.331 146.494 105.331Z" fill="black"/>
<path d="M147.724 107.651L151.84 105.907L150.67 109.767C150.67 109.767 148.053 110.327 146.92 109.089L147.724 107.651Z" fill="#FFB573"/>
<path d="M136.799 85.7335C136.659 87.0896 136.481 88.4457 136.324 89.8121L135.785 93.8906C135.612 95.2416 135.385 96.5927 135.191 97.9692L134.884 100.008L134.787 100.651C134.793 100.751 134.822 100.848 134.873 100.936C135.108 101.326 135.417 101.672 135.785 101.956C136.265 102.331 136.773 102.671 137.306 102.976C138.47 103.645 139.679 104.241 140.926 104.76C142.199 105.306 143.51 105.78 144.843 106.254C146.176 106.728 147.541 107.161 148.862 107.574L148.388 109.522C145.466 109.077 142.588 108.405 139.782 107.513C138.331 107.064 136.92 106.505 135.564 105.841C134.837 105.484 134.144 105.069 133.492 104.602C132.709 104.063 132.049 103.382 131.55 102.598C131.255 102.085 131.072 101.522 131.01 100.941C131.01 100.783 130.983 100.625 131.01 100.467C131.037 100.309 131.01 100.11 131.037 100.059L131.086 99.5496L131.269 97.5104C131.404 96.1542 131.506 94.793 131.663 93.4318L132.1 89.3532C132.272 87.9971 132.418 86.641 132.607 85.2747L136.799 85.7335Z" fill="#FF8B7B"/>
<path d="M134.533 80.5283C132.833 81.0382 130.794 86.5442 130.794 86.5442L136.729 92.3256C136.729 92.3256 139.777 86.3811 139.059 84.3061C138.331 82.1445 136.497 79.9675 134.533 80.5283Z" fill="#009955"/>
<path d="M155.25 106.708L154.085 109.889L150.67 109.767L151.841 105.907L155.25 106.708Z" fill="#FFB573"/>
<path opacity="0.2" d="M120.052 85.7842C118.668 80.9289 118.839 75.7947 120.542 71.031C122.246 66.2672 125.406 62.0878 129.623 59.0212C133.84 55.9547 138.925 54.1387 144.235 53.8029C149.544 53.4671 154.84 54.6265 159.452 57.1347C164.064 59.6428 167.785 63.387 170.145 67.8937C172.506 72.4004 173.399 77.4673 172.712 82.4537C172.024 87.44 169.788 92.1218 166.285 95.9071C162.782 99.6924 158.17 102.411 153.032 103.72C149.621 104.588 146.061 104.814 142.557 104.383C139.053 103.951 135.674 102.872 132.611 101.207C129.549 99.5414 126.863 97.3222 124.708 94.6759C122.553 92.0297 120.971 89.0083 120.052 85.7842Z" fill="#009955"/>
<path opacity="0.2" d="M165.532 61.6494L143.374 104.474C145.275 104.658 147.191 104.642 149.088 104.428L169.012 65.937C168.019 64.3937 166.852 62.9561 165.532 61.6494ZM172.006 72.5494L171.86 72.0395L155.95 102.792C162.086 100.49 167.113 96.1363 170.073 90.5601C173.034 84.9838 173.722 78.5737 172.006 72.5494ZM139.026 54.619C134.329 55.8153 130.064 58.1921 126.683 61.4965C123.302 64.801 120.932 68.9096 119.825 73.3854C118.718 77.8612 118.916 82.5368 120.397 86.9149C121.878 91.2931 124.587 95.2101 128.236 98.2494L151.062 54.1856C147.067 53.4644 142.951 53.6126 139.026 54.619Z" fill="white"/>
<path d="M115.757 76.4089L115.218 76.3579C115.304 75.4861 115.439 74.6092 115.612 73.7527L116.151 73.8496C115.995 74.6908 115.849 75.5524 115.757 76.4089ZM116.804 71.2342L116.264 71.0915C116.975 68.8205 117.971 66.6381 119.232 64.5913L119.701 64.8462C118.469 66.8585 117.496 69.0032 116.804 71.2342Z" fill="#009955"/>
<path d="M174.078 72.0243C172.584 66.7829 169.478 62.078 165.154 58.5044C160.83 54.9308 155.482 52.649 149.786 51.9475C144.089 51.246 138.301 52.1562 133.152 54.5632C128.003 56.9702 123.725 60.7658 120.859 65.4701C117.992 70.1744 116.667 75.5762 117.049 80.9925C117.431 86.4088 119.504 91.5964 123.006 95.8994C126.508 100.202 131.282 103.428 136.723 105.167C142.165 106.907 148.03 107.083 153.577 105.672C157.262 104.736 160.715 103.122 163.739 100.924C166.764 98.7262 169.301 95.9866 171.205 92.8619C173.108 89.7372 174.342 86.2887 174.835 82.7133C175.328 79.1379 175.071 75.5058 174.078 72.0243ZM120.052 85.7895C118.668 80.9341 118.838 75.8 120.542 71.0362C122.246 66.2724 125.406 62.093 129.623 59.0265C133.84 55.9599 138.925 54.1439 144.234 53.8081C149.544 53.4723 154.839 54.6318 159.451 57.1399C164.063 59.6481 167.785 63.3922 170.145 67.899C172.505 72.4057 173.398 77.4726 172.711 82.4589C172.024 87.4452 169.788 92.1271 166.285 95.9124C162.782 99.6977 158.17 102.416 153.032 103.725C149.62 104.594 146.06 104.819 142.556 104.387C139.052 103.956 135.672 102.876 132.609 101.21C129.547 99.5443 126.861 97.3245 124.707 94.6777C122.552 92.0309 120.97 89.0089 120.052 85.7844V85.7895Z" fill="#009955"/>
<path d="M120.483 89.9901C120.483 91.1576 120.165 91.3106 119.825 91.3462L118.849 91.591L116.89 92.1008L112.973 93.0796L105.123 94.9813C99.8829 96.2252 94.6353 97.4369 89.3805 98.6163L73.616 102.185L65.7445 103.99C63.1225 104.607 60.4897 105.178 57.8946 105.891C57.6314 105.964 57.3556 105.988 57.0828 105.96C56.8101 105.932 56.5459 105.854 56.3051 105.73C56.0644 105.605 55.8519 105.438 55.6799 105.236C55.5078 105.034 55.3795 104.802 55.3023 104.553C55.225 104.304 55.2004 104.044 55.2298 103.786C55.2592 103.528 55.342 103.279 55.4735 103.051C55.605 102.824 55.7826 102.623 55.9962 102.46C56.2099 102.298 56.4553 102.176 56.7185 102.103H56.8048C59.4322 101.492 62.0111 100.732 64.6007 100.023L72.3697 97.8465L87.8914 93.4314C93.0671 91.9529 98.2482 90.5067 103.435 89.0928L111.231 86.9771L115.137 85.9574L117.09 85.4476L118.066 85.1927C118.379 85.0652 118.724 85.0499 119.361 86.0543C120.109 87.2444 120.498 88.6058 120.483 89.9901Z" fill="#009955"/>
<path d="M86.5371 51.9527C86.5371 52.2536 86.7044 52.4983 86.9148 52.4983C87.1252 52.4983 87.2924 52.2536 87.2924 51.9527C87.2924 51.6519 87.1252 51.4021 86.9148 51.4021C86.7044 51.4021 86.5371 51.6468 86.5371 51.9527Z" fill="#263238"/>
<path d="M86.6773 52.4983C87.0564 53.4218 87.5684 54.2916 88.1987 55.0832C87.9804 55.2307 87.7307 55.3313 87.4669 55.378C87.2032 55.4247 86.9318 55.4163 86.6719 55.3534L86.6773 52.4983Z" fill="#630F0F"/>
<path d="M85.4042 50.2705C85.3651 50.2695 85.3272 50.2569 85.2959 50.2346C85.2646 50.2124 85.2414 50.1814 85.2296 50.1461C85.2177 50.1108 85.2178 50.0729 85.2297 50.0377C85.2417 50.0024 85.265 49.9715 85.2963 49.9493C85.5347 49.7805 85.812 49.6675 86.1056 49.6197C86.3991 49.5718 86.7005 49.5904 86.985 49.674C87.0313 49.6911 87.0686 49.7248 87.0888 49.7678C87.109 49.8107 87.1105 49.8595 87.0929 49.9034C87.0748 49.9472 87.0391 49.9825 86.9937 50.0016C86.9482 50.0207 86.8966 50.0221 86.8501 50.0054C86.6237 49.9418 86.3846 49.9294 86.1521 49.9692C85.9197 50.0091 85.7005 50.1 85.5121 50.2348C85.4817 50.2583 85.4435 50.2709 85.4042 50.2705Z" fill="#263238"/>
<path d="M76.2432 53.9053C76.5292 56.8571 76.5669 62.2255 74.3604 63.9844C74.3604 63.9844 74.8621 66.9975 80.2248 67.4665C86.1217 67.9763 83.3324 64.7695 83.3324 64.7695C80.1871 63.7142 80.5054 61.3181 81.2877 59.1156L76.2432 53.9053Z" fill="#7F3E3B"/>
<path d="M67.6162 174.824C67.1522 175.008 66.0894 174.564 65.7495 174.376C65.734 174.368 65.7214 174.356 65.7136 174.342C65.7058 174.327 65.7033 174.31 65.7063 174.294C65.7077 174.277 65.7146 174.26 65.7262 174.246C65.7377 174.233 65.7534 174.223 65.7711 174.218C65.825 174.218 67.0875 173.82 67.6 174.1C67.6563 174.129 67.7053 174.169 67.7436 174.217C67.7818 174.266 67.8083 174.322 67.8212 174.381C67.8482 174.452 67.8507 174.529 67.8284 174.601C67.8061 174.674 67.7601 174.737 67.6971 174.784C67.672 174.8 67.6448 174.814 67.6162 174.824ZM66.0462 174.314C66.5857 174.569 67.3572 174.784 67.5838 174.631C67.5838 174.631 67.6755 174.569 67.6378 174.406C67.6299 174.372 67.6142 174.339 67.5919 174.311C67.5695 174.283 67.541 174.26 67.5083 174.243C67.023 174.135 66.5147 174.163 66.0462 174.325V174.314Z" fill="#009955"/>
<path d="M66.0949 174.304C66.0061 174.34 65.914 174.367 65.8198 174.386C65.8036 174.391 65.786 174.392 65.7695 174.387C65.753 174.383 65.7385 174.373 65.728 174.36C65.72 174.346 65.7158 174.331 65.7158 174.315C65.7158 174.299 65.72 174.283 65.728 174.269C65.728 174.228 66.1651 173.219 66.7154 173.004C66.7807 172.977 66.8515 172.962 66.9231 172.962C66.9947 172.962 67.0655 172.977 67.1308 173.004C67.1987 173.022 67.2577 173.062 67.2973 173.117C67.3368 173.172 67.3543 173.239 67.3466 173.305C67.2927 173.647 66.5967 174.106 66.0949 174.304ZM65.9654 174.162C66.451 173.988 67.1146 173.54 67.147 173.29C67.147 173.264 67.147 173.213 67.0391 173.162C66.997 173.143 66.9509 173.134 66.9042 173.134C66.8575 173.134 66.8114 173.143 66.7693 173.162C66.4186 173.305 66.1057 173.871 65.9654 174.157V174.162Z" fill="#009955"/>
<path d="M92.1264 180.841C91.7195 180.839 91.3134 180.805 90.9125 180.739C90.8939 180.735 90.8768 180.726 90.8634 180.714C90.85 180.701 90.8408 180.685 90.837 180.667C90.8327 180.649 90.8352 180.63 90.8441 180.613C90.8529 180.597 90.8676 180.583 90.8855 180.575C90.9449 180.54 92.326 179.795 92.9896 179.964C93.1139 179.994 93.2206 180.069 93.2864 180.173C93.3286 180.229 93.3513 180.297 93.3513 180.366C93.3513 180.436 93.3286 180.503 93.2864 180.56C93.1299 180.785 92.639 180.841 92.1264 180.841ZM91.2146 180.606C91.9538 180.703 92.9573 180.698 93.1407 180.458C93.1407 180.428 93.1893 180.372 93.1407 180.259C93.121 180.228 93.0944 180.201 93.0628 180.18C93.0312 180.159 92.9952 180.144 92.9573 180.137C92.5311 180.03 91.7164 180.372 91.2146 180.606Z" fill="#009955"/>
<path d="M90.9284 180.738C90.9107 180.743 90.8921 180.743 90.8744 180.738C90.8609 180.729 90.8503 180.717 90.8436 180.703C90.837 180.688 90.8346 180.672 90.8367 180.657C90.8367 180.616 90.95 179.607 91.4517 179.214C91.5261 179.156 91.6122 179.112 91.7049 179.085C91.7976 179.059 91.895 179.051 91.9912 179.061C92.2448 179.087 92.3203 179.209 92.3365 179.311C92.412 179.734 91.4625 180.545 90.9877 180.749L90.9284 180.738ZM91.8995 179.209C91.779 179.212 91.6632 179.254 91.5704 179.326C91.2709 179.65 91.0827 180.052 91.0309 180.478C91.5219 180.203 92.1639 179.566 92.1099 179.311C92.1099 179.311 92.1099 179.229 91.9265 179.214L91.8995 179.209Z" fill="#009955"/>
<path d="M86.5752 180.652H90.5352L90.9291 171.979H86.969L86.5752 180.652Z" fill="#7F3E3B"/>
<path d="M61.3262 173.494L65.2214 174.187L69.6077 166.137L65.7124 165.449L61.3262 173.494Z" fill="#7F3E3B"/>
<path d="M65.6471 173.805L61.385 172.592C61.31 172.571 61.2296 172.574 61.1571 172.602C61.0845 172.63 61.0241 172.68 60.9858 172.745L59.2162 175.722C59.1739 175.795 59.1497 175.876 59.1453 175.959C59.1408 176.042 59.1563 176.124 59.1906 176.201C59.2248 176.277 59.277 176.346 59.3431 176.4C59.4092 176.455 59.4875 176.495 59.5723 176.517C61.0667 176.915 61.8166 177.027 63.6887 177.573C64.8433 177.899 67.8753 179.102 69.4723 179.546C71.0692 179.989 71.7436 178.567 71.134 178.246C68.404 176.813 66.8772 175.263 66.192 174.203C66.0695 174.01 65.875 173.868 65.6471 173.805Z" fill="#263238"/>
<path d="M90.5083 180.219H86.1922C86.1139 180.218 86.0379 180.243 85.9769 180.29C85.916 180.336 85.8739 180.401 85.8577 180.473L85.0754 183.803C85.0557 183.883 85.0556 183.966 85.075 184.046C85.0944 184.126 85.1329 184.201 85.1875 184.264C85.2422 184.328 85.3115 184.38 85.3902 184.414C85.4689 184.449 85.555 184.467 85.6419 184.465C87.2065 184.465 89.4616 184.358 91.4255 184.358C93.7184 184.358 95.6984 184.475 98.3905 184.475C100.009 184.475 100.468 182.921 99.7879 182.778C96.6857 182.141 94.1554 182.069 91.474 180.509C91.1872 180.329 90.8526 180.228 90.5083 180.219Z" fill="#263238"/>
<path d="M66.8986 64.9378C63.4565 66.4673 62.043 76.9491 62.043 76.9491L69.9468 79.8806C71.1733 77.0428 72.1653 74.1196 72.9141 71.1372C74.0471 66.4061 70.4324 63.3472 66.8986 64.9378Z" fill="#009955"/>
<path opacity="0.3" d="M66.8986 64.9378C63.4565 66.4673 62.043 76.9491 62.043 76.9491L69.9468 79.8806C71.1733 77.0428 72.1653 74.1196 72.9141 71.1372C74.0471 66.4061 70.4324 63.3472 66.8986 64.9378Z" fill="black"/>
<path opacity="0.2" d="M72.0409 68.0118C72.3103 67.8882 72.5923 67.7908 72.8826 67.7212C73.1979 68.839 73.209 70.014 72.9149 71.137C72.1661 74.1194 71.1741 77.0426 69.9476 79.8804L67.3418 78.9168C67.822 76.1791 69.2948 69.2557 72.0409 68.0118Z" fill="black"/>
<path d="M89.8391 64.8561C89.8391 64.8561 94.058 69.3578 90.0711 97.2296H68.8737C68.728 94.1706 70.7728 79.1514 67.6328 64.6623C69.9777 64.2362 72.3493 63.9535 74.7328 63.816C77.7336 63.6528 80.7418 63.6528 83.7426 63.816C85.8004 64.012 87.8387 64.3597 89.8391 64.8561Z" fill="#009955"/>
<path opacity="0.3" d="M89.8391 64.8561C89.8391 64.8561 94.058 69.3578 90.0711 97.2296H68.8737C68.728 94.1706 70.7728 79.1514 67.6328 64.6623C69.9777 64.2362 72.3493 63.9535 74.7328 63.816C77.7336 63.6528 80.7418 63.6528 83.7426 63.816C85.8004 64.012 87.8387 64.3597 89.8391 64.8561Z" fill="black"/>
<path opacity="0.2" d="M85.5718 70.8313C86.5321 68.1088 88.8413 67.237 91.1935 68.8532C91.6683 71.494 92.0028 75.751 91.6198 82.501L87.4817 82.4653C87.4817 82.4653 84.1637 74.8843 85.5718 70.8313Z" fill="black"/>
<path d="M92.2881 68.9705C92.4931 70.1379 92.7197 71.4125 92.9733 72.6259C93.2269 73.8392 93.5128 75.073 93.815 76.2762C94.3736 78.643 95.1332 80.9634 96.0863 83.2148C96.3291 83.7247 96.5773 84.2651 96.8524 84.7443L97.2031 85.3459C97.2914 85.4814 97.3945 85.6078 97.5106 85.7231C98.314 86.4434 99.2224 87.0511 100.208 87.5279C102.538 88.6725 104.939 89.6804 107.4 90.546L106.812 93.2991C103.91 93.1092 101.047 92.5572 98.2983 91.6575C97.56 91.4147 96.8391 91.1269 96.1402 90.7959C95.3749 90.4268 94.6517 89.9844 93.9822 89.4754C93.5884 89.1694 93.227 88.8279 92.9032 88.4558L92.6442 88.1346L92.477 87.895C92.3637 87.7369 92.2504 87.5789 92.1479 87.4208C91.727 86.7836 91.3548 86.1463 91.0095 85.5039C89.7464 83.0075 88.7453 80.4 88.0206 77.719C87.6591 76.4087 87.3246 75.1036 87.0549 73.7832C86.7851 72.4627 86.5154 71.1729 86.3535 69.7658L92.2881 68.9705Z" fill="#7F3E3B"/>
<path d="M84.5413 67.6042C83.4245 71.0252 87.9564 81.2216 87.9564 81.2216L97.5004 78.9529C96.9161 75.73 95.9328 72.5832 94.5708 69.5773C91.474 63.2147 85.8847 63.4798 84.5413 67.6042Z" fill="#009955"/>
<path opacity="0.3" d="M84.5413 67.6042C83.4245 71.0252 87.9564 81.2216 87.9564 81.2216L97.5004 78.9529C96.9161 75.73 95.9328 72.5832 94.5708 69.5773C91.474 63.2147 85.8847 63.4798 84.5413 67.6042Z" fill="black"/>
<path d="M107.459 90.5463L111.554 92.2848L107.583 95.3794C107.583 95.3794 105.835 94.839 105.549 92.1267L104.939 89.8733L106.736 90.3066C106.984 90.3658 107.226 90.446 107.459 90.5463Z" fill="#7F3E3B"/>
<path d="M113.729 94.1607L109.742 96.4089L107.584 95.3587L111.549 92.2642L113.729 94.1607Z" fill="#7F3E3B"/>
<path d="M85.5436 63.4846C83.8334 62.1183 79.6792 61.1344 75.0286 60.8896C72.3688 60.752 69.6335 61.1649 68.4951 61.6442C67.3567 62.1234 68.7055 65.5851 70.1946 65.6616C69.4069 66.8342 70.5506 69.0978 72.2609 69.5413C71.9911 71.499 77.2136 71.6826 80.3535 70.1021C82.8892 68.8429 87.5938 65.1212 85.5436 63.4846Z" fill="#263238"/>
<path opacity="0.2" d="M90.9287 171.979L90.7291 176.451H86.7637L86.9633 171.979H90.9287Z" fill="black"/>
<path opacity="0.2" d="M65.7068 165.449L69.6075 166.142L67.3469 170.287L63.4463 169.594L65.7068 165.449Z" fill="black"/>
<path d="M75.8763 51.2898C76.1136 55.0013 76.0489 57.1833 78.0343 59.0901C81.0124 61.9552 85.8626 60.2626 86.8013 56.541C87.6484 53.2067 87.1143 47.7007 83.2729 46.2171C82.4259 45.886 81.5032 45.7656 80.5929 45.8674C79.6826 45.9692 78.8151 46.2898 78.0732 46.7986C77.3313 47.3073 76.7399 47.9873 76.3553 48.7736C75.9706 49.5599 75.8057 50.4262 75.8763 51.2898Z" fill="#7F3E3B"/>
<path d="M83.2239 53.3599C84.7076 51.9426 87.1462 48.8531 86.2938 46.5334C85.0367 43.1023 81.2871 44.2647 81.8859 44.9479C79.7279 43.602 75.3686 43.5357 76.2804 45.3404C72.3582 45.8503 72.0399 47.3542 73.1297 47.9201C70.335 50.4386 70.4699 53.0438 72.5902 52.8501C70.9716 54.3795 73.9497 57.4079 77.2785 58.8506C78.4115 56.0466 84.4756 55.5368 83.2239 53.3599Z" fill="#263238"/>
<path d="M81.5037 54.7006C81.479 54.7074 81.4528 54.7074 81.4282 54.7006C81.4136 54.6909 81.4012 54.6786 81.3916 54.6644C81.3821 54.6502 81.3756 54.6343 81.3726 54.6177C81.3696 54.6012 81.3701 54.5842 81.3741 54.5678C81.3781 54.5514 81.3854 54.5358 81.3958 54.5222C82.2482 53.3394 83.0791 52.3911 83.8128 51.555C85.2155 49.9542 86.2298 48.7969 86.3161 47.2267C86.3363 46.5833 86.1433 45.9501 85.7641 45.4154C85.385 44.8807 84.8386 44.4712 84.2012 44.2442C83.1978 43.816 82.1187 43.7905 81.6925 44.1881C81.4659 44.3972 81.4443 44.698 81.6278 45.116C81.6357 45.1309 81.6401 45.1472 81.6408 45.1639C81.6415 45.1805 81.6384 45.1971 81.6317 45.2126C81.6251 45.228 81.6151 45.2419 81.6023 45.2534C81.5895 45.2649 81.5743 45.2737 81.5576 45.2792C81.5414 45.2859 81.5238 45.2895 81.506 45.2899C81.4883 45.2902 81.4706 45.2872 81.454 45.281C81.4375 45.2749 81.4224 45.2657 81.4096 45.254C81.3968 45.2423 81.3866 45.2283 81.3796 45.2129C81.2605 45.0255 81.2083 44.8069 81.2306 44.5894C81.253 44.3718 81.3487 44.1668 81.5037 44.0046C82.0108 43.5356 83.1924 43.5356 84.3145 44.0046C85.0014 44.2509 85.5895 44.6938 85.9968 45.2716C86.4041 45.8493 86.61 46.5329 86.5859 47.2267C86.4941 48.8836 85.4583 50.0663 84.0232 51.7029C83.2895 52.539 82.464 53.4821 81.617 54.6598C81.6028 54.6745 81.5851 54.6858 81.5655 54.6929C81.5458 54.7 81.5246 54.7026 81.5037 54.7006Z" fill="#263238"/>
<path d="M81.6974 52.9418C81.7692 53.8623 82.1598 54.7348 82.8089 55.4246C83.6721 56.3219 84.5785 55.7611 84.7295 54.6701C84.8644 53.681 84.5839 52.0241 83.5264 51.5296C82.469 51.035 81.6273 51.8304 81.6974 52.9418Z" fill="#7F3E3B"/>
<path d="M82.5445 97.23C82.5445 97.23 83.8825 122.476 81.2766 133.172C77.1494 150.109 69.2563 169.752 69.2563 169.752L61.9082 168.442C61.9082 168.442 68.0964 148.773 69.4614 134.671C70.6645 122.007 68.8841 107.462 68.8841 97.23H82.5445Z" fill="#263238"/>
<path opacity="0.2" d="M80.5656 104.709C81.1051 103.725 82.1571 106.656 82.8909 110.419C82.8909 115.609 82.7938 121.513 82.3136 126.514C78.6449 120.116 79.4272 106.748 80.5656 104.709Z" fill="black"/>
<path d="M71.0591 167.621C71.0915 167.621 69.9099 170.027 69.9099 170.027L61.4072 168.462L62.3352 166.04L71.0591 167.621Z" fill="#2C6BDB"/>
<path d="M90.0978 97.23C90.0978 97.23 96.0324 121.135 96.464 132.561C96.9334 145.372 92.2019 175.584 92.2019 175.584H85.4904C85.4904 175.584 84.6649 145.138 84.3628 133.468C84.0391 120.748 76.1406 97.23 76.1406 97.23H90.0978Z" fill="#263238"/>
<path d="M93.4965 173.056C93.5289 173.056 93.1189 175.691 93.1189 175.691H84.9507L84.7295 173.341L93.4965 173.056Z" fill="#2C6BDB"/>
</svg>
