<svg width="197" height="193" viewBox="0 0 197 193" fill="none" xmlns="http://www.w3.org/2000/svg">
<path d="M149.046 158.446C149.027 158.405 149.003 158.367 148.974 158.332C148.956 158.307 148.937 158.283 148.916 158.261C148.897 158.23 148.873 158.201 148.845 158.177L148.77 158.106C148.681 158.028 148.584 157.96 148.48 157.903L52.077 102.597C51.5812 102.35 51.034 102.221 50.4791 102.221C49.9243 102.221 49.3771 102.35 48.8812 102.597L1.59431 129.708L1.40292 129.827L1.3406 129.881C1.23518 129.963 1.14486 130.064 1.07355 130.177C1.02923 130.238 0.996091 130.307 0.975627 130.38C0.973095 130.413 0.973095 130.445 0.975627 130.477C0.969062 130.53 0.969062 130.584 0.975627 130.637C0.973428 130.673 0.973428 130.71 0.975627 130.747C0.983908 130.789 0.994307 130.83 1.00678 130.871C1.0204 130.912 1.03676 130.952 1.05574 130.99C1.18816 131.224 1.38609 131.415 1.62547 131.539L98.0153 186.849C98.3104 187.009 98.6312 187.116 98.9634 187.167C99.178 187.204 99.3954 187.224 99.6132 187.225C99.828 187.225 100.042 187.207 100.254 187.172C100.325 187.163 100.395 187.15 100.463 187.132C100.661 187.088 100.854 187.023 101.038 186.937C101.1 186.911 101.153 186.88 101.211 186.849L148.48 159.733C149.108 159.384 149.277 158.889 149.046 158.446ZM138.661 156.483L135.639 158.221L95.3626 181.304C95.2584 181.365 95.1498 181.418 95.0376 181.463C94.709 181.599 94.3565 181.668 94.0006 181.668C93.6446 181.668 93.2922 181.599 92.9635 181.463C92.8514 181.418 92.7428 181.365 92.6386 181.304L16.1667 137.442L12.4635 135.324C12.334 135.251 12.2169 135.159 12.1164 135.05C11.7336 134.634 11.8538 134.103 12.4635 133.75L55.7446 108.925C56.2377 108.592 56.8272 108.429 57.4226 108.46C57.5651 108.478 57.7044 108.515 57.8366 108.571C57.9107 108.599 57.9822 108.633 58.0502 108.673L138.661 154.909C138.8 154.989 138.915 155.104 138.995 155.242C139.075 155.38 139.117 155.537 139.117 155.696C139.117 155.855 139.075 156.012 138.995 156.15C138.915 156.288 138.8 156.403 138.661 156.483Z" fill="#455A64"/>
<path d="M1.4065 129.832C0.994671 130.143 0.655684 130.54 0.412879 130.994C0.170075 131.448 0.0292172 131.949 0 132.463V134.559C0.0290375 135.11 0.188917 135.648 0.466601 136.126C0.744286 136.605 1.13191 137.012 1.59789 137.314L98.0011 192.615C98.3641 192.813 98.764 192.935 99.1762 192.973C99.3186 192.973 99.4566 192.995 99.6213 193V187.225C99.4037 187.22 99.1867 187.203 98.9714 187.171C98.6373 187.118 98.3151 187.007 98.0189 186.844L1.59344 131.538C0.778918 131.074 0.712154 130.336 1.4065 129.832Z" fill="#37474F"/>
<path d="M123.509 169.709C122.622 169.273 121.646 169.046 120.656 169.046C119.667 169.046 118.69 169.273 117.803 169.709C117.457 169.891 117.163 170.157 116.949 170.483C116.437 171.368 117.394 172.031 117.803 172.279C118.69 172.715 119.667 172.942 120.656 172.942C121.646 172.942 122.622 172.715 123.509 172.279C123.853 172.093 124.147 171.828 124.364 171.505C124.876 170.62 123.932 169.957 123.509 169.709Z" fill="#00B561"/>
<path d="M29.0957 118.639C29.1859 118.605 29.2636 118.545 29.3184 118.466C29.3732 118.387 29.4025 118.293 29.4025 118.197C29.4025 118.101 29.3732 118.007 29.3184 117.929C29.2636 117.85 29.1859 117.789 29.0957 117.755C28.8536 117.633 28.586 117.569 28.3145 117.569C28.0431 117.569 27.7755 117.633 27.5334 117.755C27.4432 117.789 27.3655 117.85 27.3107 117.929C27.2559 118.007 27.2266 118.101 27.2266 118.197C27.2266 118.293 27.2559 118.387 27.3107 118.466C27.3655 118.545 27.4432 118.605 27.5334 118.639C27.7755 118.761 28.0431 118.825 28.3145 118.825C28.586 118.825 28.8536 118.761 29.0957 118.639Z" fill="#263238"/>
<path d="M26.6437 122.885C26.7189 122.848 26.7824 122.792 26.8268 122.721C26.8712 122.651 26.8948 122.57 26.8948 122.487C26.8948 122.403 26.8712 122.322 26.8268 122.252C26.7824 122.181 26.7189 122.125 26.6437 122.089C26.4281 121.982 26.1904 121.926 25.9493 121.926C25.7083 121.926 25.4706 121.982 25.255 122.089C25.1797 122.125 25.1163 122.181 25.0719 122.252C25.0275 122.322 25.0039 122.403 25.0039 122.487C25.0039 122.57 25.0275 122.651 25.0719 122.721C25.1163 122.792 25.1797 122.848 25.255 122.885C25.47 122.994 25.7079 123.05 25.9493 123.05C26.1907 123.05 26.4287 122.994 26.6437 122.885Z" fill="#263238"/>
<path d="M28.989 121.571L36.7515 117.118C37.1966 116.875 37.1966 116.49 36.796 116.26C36.5626 116.149 36.3058 116.093 36.0468 116.099C35.7877 116.104 35.5335 116.17 35.305 116.291L27.5425 120.74C27.1196 120.988 27.0974 121.368 27.498 121.598C27.7311 121.71 27.9876 121.766 28.2467 121.762C28.5058 121.757 28.7601 121.692 28.989 121.571Z" fill="#263238"/>
<path d="M148.694 158.044C149.352 158.553 149.281 159.274 148.48 159.734L101.206 186.849C100.715 187.11 100.165 187.239 99.6084 187.225V192.996C100.164 193.007 100.712 192.876 101.202 192.616L148.475 165.504C148.941 165.204 149.329 164.798 149.607 164.32C149.884 163.842 150.044 163.305 150.073 162.754V160.653C150.044 160.146 149.906 159.65 149.668 159.2C149.43 158.75 149.098 158.356 148.694 158.044Z" fill="#263238"/>
<path d="M24.1424 146.096C24.3779 146.243 24.5754 146.443 24.7192 146.679C24.8629 146.916 24.9489 147.182 24.9703 147.458C24.9801 147.551 24.9637 147.645 24.9228 147.729C24.8819 147.814 24.8182 147.885 24.7388 147.935C24.6409 147.993 24.267 148.214 24.1602 148.271C24.0634 148.312 23.9577 148.328 23.8532 148.316C23.7487 148.305 23.649 148.266 23.5637 148.205L12.8147 142.014C12.58 141.867 12.3834 141.667 12.2404 141.43C12.0974 141.194 12.0121 140.927 11.9913 140.652C11.9834 140.563 11.9985 140.473 12.0351 140.391C12.0717 140.309 12.1286 140.238 12.2005 140.183L12.7969 139.839C12.8936 139.798 12.9994 139.782 13.1039 139.794C13.2084 139.805 13.3081 139.844 13.3933 139.905L24.1424 146.096Z" fill="#455A64"/>
<path d="M23.5627 146.419L12.8137 140.255C12.3686 139.994 11.9902 140.18 11.9902 140.67C12.0111 140.946 12.0964 141.212 12.2394 141.448C12.3823 141.685 12.579 141.885 12.8137 142.032L23.5627 148.223C24.0078 148.484 24.3906 148.298 24.3906 147.807C24.3734 147.527 24.2893 147.255 24.1453 147.014C24.0014 146.773 23.8017 146.569 23.5627 146.419Z" fill="#263238"/>
<path d="M9.75164 137.839C9.98769 137.987 10.1856 138.187 10.3294 138.425C10.4732 138.662 10.5589 138.93 10.5795 139.206C10.5883 139.298 10.5719 139.392 10.532 139.476C10.492 139.56 10.43 139.631 10.3525 139.683C10.2501 139.737 9.87627 139.962 9.77389 140.02C9.67679 140.06 9.57082 140.075 9.46631 140.062C9.36179 140.05 9.26228 140.011 9.17747 139.949L4.10783 137.044C3.87318 136.896 3.67651 136.696 3.53354 136.46C3.39056 136.223 3.30524 135.957 3.2844 135.682C3.27435 135.592 3.28843 135.501 3.32519 135.419C3.36194 135.337 3.42006 135.266 3.4936 135.213C3.59152 135.146 3.9832 134.925 4.09003 134.868C4.18647 134.826 4.29248 134.809 4.39725 134.821C4.50202 134.833 4.60181 134.872 4.68645 134.934L9.75164 137.839Z" fill="#455A64"/>
<path d="M9.17724 138.172L4.10761 135.267C3.66251 135.006 3.28418 135.191 3.28418 135.682C3.30502 135.957 3.39034 136.224 3.53331 136.46C3.67629 136.697 3.87296 136.897 4.10761 137.044L9.17724 139.949C9.62234 140.21 10.0007 140.025 10.0007 139.534C9.97983 139.259 9.89451 138.992 9.75153 138.756C9.60856 138.519 9.41189 138.319 9.17724 138.172Z" fill="#263238"/>
<path d="M138.66 156.462L135.638 158.195L95.3614 181.282C95.2562 181.342 95.1477 181.395 95.0364 181.442C94.7078 181.577 94.3553 181.647 93.9994 181.647C93.6434 181.647 93.291 181.577 92.9623 181.442C92.851 181.395 92.7425 181.342 92.6374 181.282L16.1655 137.42L12.4668 135.298C12.3366 135.228 12.2192 135.137 12.1196 135.028C11.7368 134.613 11.857 134.077 12.4668 133.724L55.7479 108.903C56.2437 108.578 56.833 108.422 57.4259 108.461C57.5684 108.478 57.7077 108.516 57.8398 108.571C57.9139 108.599 57.9854 108.633 58.0535 108.673L138.66 154.91C138.794 154.991 138.904 155.105 138.98 155.241C139.057 155.377 139.097 155.53 139.097 155.686C139.097 155.841 139.057 155.994 138.98 156.13C138.904 156.266 138.794 156.38 138.66 156.462Z" fill="#00B561"/>
<path opacity="0.8" d="M138.66 156.462L135.638 158.195L95.3614 181.282C95.2562 181.342 95.1477 181.395 95.0364 181.442C94.7078 181.577 94.3553 181.647 93.9994 181.647C93.6434 181.647 93.291 181.577 92.9623 181.442C92.851 181.395 92.7425 181.342 92.6374 181.282L16.1655 137.42L12.4668 135.298C12.3366 135.228 12.2192 135.137 12.1196 135.028C11.7368 134.613 11.857 134.077 12.4668 133.724L55.7479 108.903C56.2437 108.578 56.833 108.422 57.4259 108.461C57.5684 108.478 57.7077 108.516 57.8398 108.571C57.9139 108.599 57.9854 108.633 58.0535 108.673L138.66 154.91C138.794 154.991 138.904 155.105 138.98 155.241C139.057 155.377 139.097 155.53 139.097 155.686C139.097 155.841 139.057 155.994 138.98 156.13C138.904 156.266 138.794 156.38 138.66 156.462Z" fill="white"/>
<path d="M21.6048 132.052C21.583 132.048 21.5619 132.04 21.5424 132.03L21.3332 131.906L20.8214 132.202C20.8082 132.211 20.7927 132.216 20.7769 132.216C20.761 132.216 20.7455 132.211 20.7324 132.202L20.6567 132.162L20.6211 132.136C20.6202 132.126 20.6202 132.115 20.6211 132.105L20.4074 131.358C20.4059 131.347 20.4059 131.337 20.4074 131.327C20.4139 131.316 20.4231 131.307 20.4342 131.3L20.5054 131.26C20.5272 131.254 20.5503 131.254 20.5721 131.26C20.5957 131.263 20.6185 131.27 20.6389 131.282L21.3778 131.725L21.4935 131.663C21.5121 131.656 21.5327 131.656 21.5513 131.663C21.5752 131.664 21.5982 131.672 21.6181 131.685L21.6671 131.711C21.6893 131.711 21.7027 131.738 21.7027 131.747C21.7027 131.756 21.7027 131.769 21.6715 131.782L21.5602 131.848L21.7739 131.968C21.7891 131.976 21.8015 131.988 21.8095 132.003C21.8095 132.003 21.8095 132.025 21.7739 132.039L21.6893 132.092C21.6579 132.087 21.6285 132.073 21.6048 132.052ZM21.1597 131.787L20.6344 131.481L20.7902 131.999L21.1597 131.787Z" fill="#455A64"/>
<path d="M22.0851 131.627C21.8589 131.614 21.6392 131.547 21.4441 131.433C21.2349 131.309 21.1192 131.19 21.1059 131.066C21.0925 130.942 21.1771 130.827 21.3551 130.721C21.4293 130.681 21.5067 130.647 21.5866 130.619C21.6634 130.596 21.7424 130.579 21.8225 130.571C21.8225 130.571 21.8492 130.571 21.8581 130.571C21.867 130.571 21.8581 130.571 21.8581 130.571L21.9026 130.655H21.8714C21.754 130.667 21.6404 130.703 21.5376 130.761C21.4174 130.832 21.3596 130.911 21.3685 131C21.3774 131.088 21.4664 131.172 21.6311 131.265C21.7655 131.35 21.9178 131.403 22.0762 131.42C22.2144 131.426 22.3517 131.394 22.4723 131.327L22.588 131.247C22.6141 131.226 22.6366 131.2 22.6548 131.172L22.3076 130.973L22.094 131.092C22.074 131.1 22.0517 131.1 22.0317 131.092C22.0094 131.09 21.9879 131.083 21.9694 131.07L21.9204 131.044C21.9204 131.044 21.8848 131.017 21.8848 131.008C21.8848 131 21.8848 130.986 21.9159 130.973L22.2542 130.779C22.2776 130.773 22.302 130.773 22.3254 130.779C22.3529 130.779 22.3794 130.789 22.4011 130.805L22.8952 131.088C22.9093 131.093 22.9217 131.103 22.9308 131.115C22.9308 131.115 22.9308 131.115 22.9308 131.141C22.8729 131.271 22.7682 131.375 22.637 131.433C22.4748 131.547 22.2837 131.615 22.0851 131.627Z" fill="#455A64"/>
<path d="M26.3186 129.107C26.4834 129.205 26.4834 129.355 26.3186 129.448C26.2273 129.496 26.1256 129.521 26.0224 129.521C25.9191 129.521 25.8174 129.496 25.7261 129.448C25.5613 129.355 25.5613 129.205 25.7261 129.107C25.8181 129.061 25.9195 129.038 26.0224 129.038C26.1252 129.038 26.2267 129.061 26.3186 129.107Z" fill="#455A64"/>
<path d="M25.2411 128.828C24.9428 129.001 24.8494 129.249 24.9651 129.465C24.9864 129.491 25.014 129.51 25.0452 129.522C25.0765 129.534 25.1102 129.537 25.1431 129.532C25.2411 129.532 25.3123 129.465 25.2811 129.412C25.1966 129.257 25.2811 129.085 25.4725 128.97C25.7118 128.846 25.9867 128.807 26.2514 128.859C26.3493 128.859 26.4473 128.859 26.4606 128.78C26.4606 128.731 26.4206 128.691 26.3449 128.674C25.9698 128.606 25.5828 128.661 25.2411 128.828Z" fill="#455A64"/>
<path d="M24.7646 128.559C24.3195 128.811 24.1593 129.169 24.2884 129.501C24.2884 129.55 24.3818 129.581 24.4664 129.576C24.5643 129.576 24.6266 129.514 24.6044 129.461C24.502 129.192 24.6311 128.9 24.9916 128.692C25.403 128.483 25.8691 128.404 26.3269 128.466C26.4248 128.466 26.5183 128.466 26.5272 128.387C26.5272 128.338 26.4782 128.294 26.3937 128.285C25.8352 128.205 25.2656 128.301 24.7646 128.559Z" fill="#455A64"/>
<path d="M33.5197 124.349C33.5036 124.353 33.4867 124.353 33.4707 124.349C33.4707 124.349 33.4707 124.349 33.4707 124.318L33.5597 123.876C33.5597 123.876 33.5597 123.854 33.5597 123.845L33.5864 123.818L33.7422 123.73C33.7582 123.725 33.7752 123.725 33.7912 123.73C33.8086 123.725 33.8272 123.725 33.8446 123.73L35.1176 124.46C35.1199 124.464 35.1211 124.468 35.1211 124.473C35.1211 124.478 35.1199 124.482 35.1176 124.486C35.1203 124.491 35.1217 124.496 35.1217 124.502C35.1217 124.507 35.1203 124.512 35.1176 124.517L34.9573 124.61C34.9398 124.615 34.9214 124.615 34.9039 124.61C34.8865 124.615 34.8679 124.615 34.8505 124.61L33.8802 124.053L33.8268 124.309C33.8268 124.309 33.8268 124.309 33.8001 124.336C33.7811 124.341 33.7612 124.341 33.7422 124.336L33.5197 124.349Z" fill="#455A64"/>
<path d="M34.5165 123.778C34.4991 123.783 34.4805 123.783 34.4631 123.778C34.461 123.773 34.46 123.768 34.46 123.763C34.46 123.757 34.461 123.752 34.4631 123.747L34.5566 123.305C34.5547 123.295 34.5547 123.284 34.5566 123.274L34.5788 123.248L34.7346 123.159C34.752 123.154 34.7706 123.154 34.788 123.159C34.8056 123.155 34.8239 123.155 34.8414 123.159L36.11 123.889C36.11 123.889 36.11 123.889 36.11 123.92C36.1119 123.924 36.113 123.928 36.113 123.933C36.113 123.938 36.1119 123.942 36.11 123.946L35.9497 124.039C35.9323 124.044 35.9137 124.044 35.8963 124.039H35.8429L34.8726 123.482L34.8147 123.769C34.8077 123.781 34.7967 123.791 34.7836 123.796C34.7661 123.801 34.7476 123.801 34.7302 123.796L34.5165 123.778Z" fill="#455A64"/>
<path d="M35.7634 122.982C35.781 122.978 35.7992 122.978 35.8168 122.982C35.8343 122.977 35.8528 122.977 35.8703 122.982L36.0663 123.093C36.0686 123.097 36.0699 123.102 36.0699 123.106C36.0699 123.111 36.0686 123.116 36.0663 123.12C36.0686 123.124 36.0699 123.13 36.0699 123.135C36.0699 123.14 36.0686 123.146 36.0663 123.151L35.8836 123.257H35.8302C35.8128 123.262 35.7942 123.262 35.7767 123.257L35.5807 123.146C35.5784 123.141 35.5771 123.136 35.5771 123.131C35.5771 123.125 35.5784 123.12 35.5807 123.115C35.5787 123.11 35.5776 123.105 35.5776 123.1C35.5776 123.094 35.5787 123.089 35.5807 123.084L35.7634 122.982ZM36.4538 123.376C36.4703 123.368 36.4887 123.363 36.5073 123.363C36.5259 123.363 36.5442 123.368 36.5607 123.376L36.7523 123.487C36.7523 123.487 36.7745 123.487 36.7745 123.518C36.7734 123.525 36.7708 123.531 36.7669 123.536C36.7631 123.541 36.7581 123.546 36.7523 123.549L36.5696 123.651C36.5532 123.66 36.5349 123.664 36.5162 123.664C36.4975 123.664 36.4791 123.66 36.4627 123.651L36.2712 123.54C36.2712 123.54 36.2489 123.54 36.2489 123.509C36.2495 123.503 36.252 123.497 36.256 123.493C36.2599 123.488 36.2652 123.484 36.2712 123.483L36.4538 123.376Z" fill="#455A64"/>
<path d="M37.8017 122.982C37.7852 122.991 37.7669 122.995 37.7483 122.995C37.7297 122.995 37.7114 122.991 37.6949 122.982L37.459 122.85L36.8492 123.199H36.7958C36.7783 123.204 36.7598 123.204 36.7424 123.199L36.6044 123.119C36.5821 123.119 36.5732 123.097 36.5688 123.084C36.5643 123.07 36.5643 123.054 36.5688 123.04L36.4174 122.266C36.4135 122.252 36.4144 122.237 36.4201 122.223C36.4257 122.21 36.4357 122.198 36.4486 122.191L36.5999 122.103H36.6533H36.7023L37.4901 122.545L37.6592 122.447H37.7127H37.7661L37.9041 122.531C37.91 122.533 37.9153 122.537 37.9193 122.541C37.9232 122.546 37.9257 122.552 37.9263 122.558C37.9263 122.558 37.9263 122.58 37.9041 122.589L37.7349 122.686L37.9753 122.823C37.9753 122.823 37.9975 122.823 37.9753 122.854C37.9776 122.859 37.9789 122.864 37.9789 122.87C37.9789 122.875 37.9776 122.88 37.9753 122.885L37.8017 122.982ZM37.2097 122.708L36.7913 122.465L36.8759 122.907L37.2097 122.708Z" fill="#455A64"/>
<path d="M37.2675 121.753C37.2637 121.743 37.2637 121.732 37.2675 121.722C37.2675 121.722 37.2675 121.722 37.2675 121.692L38.0063 121.249C38.0227 121.24 38.0411 121.236 38.0597 121.236C38.0784 121.236 38.0968 121.24 38.1131 121.249L38.2511 121.329C38.2511 121.329 38.2734 121.329 38.2734 121.36C38.2734 121.391 38.2734 121.382 38.2511 121.391L37.6992 121.705L37.9307 121.864C37.9529 121.835 37.98 121.809 38.0108 121.789L38.0909 121.736C38.1655 121.694 38.2446 121.662 38.3268 121.638C38.4075 121.613 38.4913 121.598 38.576 121.594C38.6588 121.583 38.7426 121.583 38.8253 121.594C38.9078 121.612 38.9872 121.642 39.0612 121.683C39.1313 121.717 39.1912 121.769 39.2348 121.833C39.2654 121.875 39.2782 121.928 39.2704 121.979C39.2627 122.033 39.2359 122.084 39.1947 122.12C39.1407 122.171 39.0809 122.216 39.0167 122.253C38.9331 122.3 38.8452 122.338 38.7541 122.368C38.6741 122.39 38.5921 122.405 38.5093 122.412C38.4353 122.419 38.3608 122.419 38.2867 122.412C38.2234 122.4 38.1621 122.379 38.1042 122.35C38.1042 122.35 38.082 122.35 38.082 122.319C38.082 122.288 38.082 122.297 38.1042 122.288L38.2645 122.196H38.3134H38.3668C38.4031 122.207 38.4404 122.214 38.4781 122.218H38.5849L38.6829 122.187L38.7719 122.142C38.8476 122.098 38.8876 122.054 38.8921 122.001C38.8965 121.948 38.8654 121.908 38.7941 121.868C38.7292 121.832 38.6546 121.817 38.5805 121.824C38.4946 121.826 38.4105 121.848 38.3357 121.89C38.306 121.907 38.2777 121.927 38.2511 121.948C38.2377 121.961 38.2257 121.976 38.2155 121.992C38.2179 122.004 38.2179 122.016 38.2155 122.028C38.2069 122.041 38.1945 122.052 38.1799 122.058L37.9974 122.165H37.944H37.895L37.2675 121.753Z" fill="#455A64"/>
<path d="M16.1129 135.382L15.7031 135.147L16.2466 134.833L16.6564 135.068L16.1129 135.382Z" fill="#455A64"/>
<path d="M16.9313 134.913L16.1123 134.444L16.6553 134.13L17.4743 134.599L16.9313 134.913Z" fill="#455A64"/>
<path d="M17.7509 134.444L16.5225 133.736L17.0655 133.427L18.2984 134.13L17.7509 134.444Z" fill="#455A64"/>
<path d="M18.5686 133.976L16.9307 133.034L17.4781 132.72L19.1116 133.662L18.5686 133.976Z" fill="#455A64"/>
<path d="M55.592 111.211C55.4827 111.198 55.372 111.215 55.2715 111.259L53.2286 112.427C53.095 112.502 53.1306 112.644 53.3042 112.745L54.052 113.187C54.1632 113.248 54.2861 113.284 54.4125 113.294C54.4657 113.3 54.5195 113.3 54.5727 113.294C54.6285 113.289 54.6828 113.274 54.733 113.249L56.776 112.082C56.905 112.002 56.8739 111.865 56.6959 111.763L55.9525 111.321C55.8417 111.259 55.7188 111.222 55.592 111.211ZM54.3903 113.201C54.3363 113.195 54.2845 113.177 54.2389 113.148L53.4912 112.705C53.3621 112.63 53.3354 112.52 53.4333 112.462L55.4763 111.295C55.5025 111.281 55.5312 111.272 55.5609 111.268H55.6098C55.6652 111.274 55.7185 111.292 55.7656 111.321L56.5089 111.763C56.638 111.839 56.6647 111.949 56.5712 112.002L54.5282 113.174C54.4852 113.194 54.4378 113.203 54.3903 113.201Z" fill="#455A64"/>
<path d="M53.9506 112.334L54.8414 112.839L54.5207 113.025C54.4844 113.036 54.4457 113.036 54.4094 113.025L53.7546 112.649C53.661 112.596 53.6387 112.511 53.71 112.467L53.9506 112.334Z" fill="#455A64"/>
<path d="M54.1006 112.251L54.4837 112.03L55.3656 112.534L54.9781 112.755L54.1006 112.251Z" fill="#455A64"/>
<path d="M54.6348 111.945L55.0134 111.724L55.8998 112.233L55.5167 112.454L54.6348 111.945Z" fill="#455A64"/>
<path d="M55.6052 111.454L56.2422 111.821C56.358 111.888 56.3357 111.985 56.1754 112.073L56.0462 112.149L55.1553 111.64L55.4626 111.467C55.4843 111.456 55.508 111.448 55.5325 111.446C55.557 111.444 55.5817 111.446 55.6052 111.454Z" fill="#455A64"/>
<path d="M56.0331 111.273C56.1676 111.26 56.3025 111.296 56.4117 111.375L56.5498 111.455C56.7013 111.543 56.7859 111.641 56.728 111.676L56.6345 111.738L55.9307 111.335L56.0331 111.273Z" fill="#455A64"/>
<path d="M50.3887 114.624L51.9732 113.258L52.81 114.439L51.7151 114.143L50.3887 114.624Z" fill="#455A64"/>
<path d="M84.123 172.089V172.478C84.1409 172.814 84.2385 173.141 84.4079 173.432C84.5773 173.724 84.8137 173.971 85.0978 174.154L92.7357 178.532C93.0376 178.684 93.3716 178.764 93.7104 178.764C94.0492 178.764 94.3832 178.684 94.6852 178.532L132.327 156.93C132.611 156.746 132.847 156.498 133.016 156.206C133.186 155.914 133.284 155.587 133.302 155.25V154.865C133.284 154.529 133.186 154.201 133.016 153.91C132.847 153.618 132.611 153.369 132.327 153.185L124.689 148.807C124.387 148.655 124.053 148.575 123.714 148.575C123.376 148.575 123.042 148.655 122.74 148.807L85.0978 170.413C84.8145 170.597 84.5786 170.844 84.4093 171.135C84.24 171.427 84.1419 171.753 84.123 172.089Z" fill="#00B561"/>
<path opacity="0.15" d="M132.439 153.272C132.844 153.578 132.799 154.024 132.31 154.303L94.6681 175.908C94.3677 176.065 94.0328 176.146 93.6934 176.143V178.761C94.0343 178.769 94.3716 178.69 94.6726 178.531L132.31 156.929C132.593 156.744 132.829 156.496 132.998 156.204C133.167 155.912 133.265 155.585 133.285 155.249V154.864C133.268 154.554 133.183 154.251 133.037 153.976C132.891 153.702 132.687 153.461 132.439 153.272Z" fill="black"/>
<path opacity="0.3" d="M84.9334 170.515C84.6913 170.705 84.4923 170.943 84.3496 171.214C84.2069 171.485 84.1237 171.784 84.1055 172.089V172.479C84.1234 172.815 84.2216 173.142 84.3918 173.434C84.562 173.725 84.7995 173.972 85.0847 174.155L92.7181 178.532C93.0173 178.692 93.3533 178.771 93.6929 178.762V176.144C93.3534 176.148 93.0183 176.068 92.7181 175.91L85.0802 171.532C84.5951 171.258 84.5684 170.825 84.9334 170.515Z" fill="black"/>
<path d="M96.234 167.756C96.2935 167.721 96.361 167.703 96.4299 167.703C96.4883 167.704 96.5465 167.712 96.6035 167.725L100.609 168.839L100.698 168.87C100.71 168.876 100.72 168.884 100.727 168.895C100.734 168.906 100.738 168.919 100.738 168.932C100.738 168.932 100.738 168.972 100.698 168.989L100.102 169.33C100.05 169.362 99.9899 169.381 99.9283 169.383C99.8857 169.391 99.8419 169.391 99.7993 169.383L99.274 169.232L98.0189 169.953L98.2815 170.254C98.2999 170.275 98.3095 170.301 98.3082 170.329C98.3082 170.36 98.277 170.391 98.2147 170.426L97.6183 170.767C97.5876 170.785 97.5519 170.795 97.5159 170.793C97.4785 170.795 97.4415 170.785 97.4091 170.767C97.3885 170.755 97.3715 170.739 97.3601 170.718L95.4106 168.419C95.389 168.391 95.3766 168.357 95.375 168.322C95.375 168.282 95.4062 168.246 95.4685 168.211L96.234 167.756ZM97.5337 169.378L98.2993 168.936L96.7815 168.494L97.5337 169.378Z" fill="#455A64"/>
<path d="M99.2563 166.021C99.4745 165.896 99.7079 165.8 99.9506 165.734C100.191 165.671 100.437 165.634 100.685 165.623C100.929 165.614 101.173 165.636 101.411 165.689C101.639 165.737 101.861 165.814 102.069 165.919L102.252 166.021L102.412 166.114L102.568 166.202L102.737 166.304C102.901 166.4 103.042 166.53 103.151 166.684C103.232 166.804 103.273 166.947 103.267 167.091C103.247 167.247 103.182 167.393 103.08 167.511C102.941 167.672 102.773 167.805 102.586 167.905L101.313 168.635C101.274 168.657 101.229 168.668 101.184 168.666C101.14 168.668 101.096 168.657 101.059 168.635L98.0056 166.888C97.97 166.866 97.9521 166.844 97.9521 166.813C97.953 166.797 97.9585 166.782 97.9681 166.769C97.9776 166.757 97.9906 166.747 98.0056 166.742L99.2563 166.021ZM101.175 166.41C100.99 166.314 100.783 166.269 100.575 166.279C100.367 166.289 100.165 166.354 99.9907 166.468L99.51 166.746L101.29 167.777L101.793 167.485C102.189 167.259 102.216 167.043 101.869 166.817L101.686 166.707L101.517 166.609L101.353 166.516L101.175 166.41Z" fill="#455A64"/>
<path d="M102.67 164.062C102.889 163.938 103.122 163.841 103.365 163.775C103.606 163.712 103.854 163.675 104.104 163.664C104.346 163.657 104.588 163.68 104.825 163.731C105.054 163.777 105.275 163.854 105.483 163.961L105.67 164.062L105.826 164.155L105.982 164.244L106.155 164.345C106.317 164.443 106.456 164.572 106.565 164.726C106.648 164.844 106.689 164.988 106.681 165.132C106.666 165.288 106.602 165.435 106.498 165.553C106.358 165.712 106.191 165.845 106.004 165.946L104.727 166.676C104.689 166.698 104.646 166.709 104.602 166.707C104.557 166.709 104.512 166.698 104.473 166.676L101.42 164.929C101.405 164.922 101.393 164.911 101.383 164.898C101.374 164.885 101.368 164.87 101.366 164.854C101.368 164.838 101.373 164.823 101.383 164.811C101.392 164.798 101.405 164.789 101.42 164.783L102.67 164.062ZM104.589 164.451C104.404 164.355 104.197 164.31 103.989 164.32C103.781 164.33 103.579 164.396 103.405 164.509L102.924 164.788L104.704 165.818L105.212 165.526C105.608 165.3 105.63 165.084 105.288 164.858L105.105 164.748C105.047 164.717 104.989 164.686 104.936 164.65L104.767 164.558L104.589 164.451Z" fill="#455A64"/>
<path d="M108.025 161.012C108.063 160.99 108.106 160.979 108.15 160.981C108.195 160.978 108.24 160.989 108.279 161.012L108.782 161.299C108.796 161.305 108.808 161.315 108.817 161.327C108.825 161.34 108.83 161.355 108.831 161.37C108.83 161.386 108.826 161.401 108.817 161.415C108.808 161.428 108.796 161.439 108.782 161.445L107.949 161.896L110.371 163.285C110.406 163.285 110.424 163.329 110.424 163.36C110.423 163.376 110.417 163.391 110.407 163.403C110.398 163.416 110.385 163.425 110.371 163.431L109.752 163.785C109.714 163.807 109.671 163.818 109.627 163.816C109.582 163.818 109.537 163.807 109.498 163.785L107.077 162.396L106.245 162.874C106.205 162.894 106.16 162.904 106.116 162.905C106.072 162.905 106.029 162.894 105.991 162.874L105.488 162.586C105.452 162.564 105.435 162.542 105.435 162.511C105.436 162.495 105.442 162.481 105.451 162.468C105.461 162.456 105.473 162.446 105.488 162.44L108.025 161.012Z" fill="#455A64"/>
<path d="M109.645 161.48C109.496 161.388 109.365 161.268 109.263 161.126C109.178 161.011 109.135 160.871 109.142 160.728C109.161 160.574 109.225 160.428 109.325 160.308C109.47 160.143 109.643 160.003 109.837 159.897C110.062 159.769 110.303 159.671 110.553 159.605C110.792 159.542 111.037 159.507 111.283 159.499C111.517 159.493 111.75 159.517 111.978 159.57C112.191 159.616 112.397 159.689 112.592 159.786L113.037 160.025L113.442 160.268C113.592 160.36 113.722 160.48 113.825 160.622C113.91 160.737 113.952 160.878 113.945 161.02C113.936 161.184 113.872 161.34 113.762 161.462C113.62 161.629 113.446 161.767 113.251 161.869C113.026 162.001 112.785 162.102 112.534 162.17C112.295 162.232 112.051 162.266 111.804 162.272C111.571 162.278 111.337 162.254 111.11 162.201C110.897 162.154 110.69 162.082 110.495 161.984C110.358 161.914 110.22 161.834 110.05 161.75L109.645 161.48ZM112.534 160.759L112.356 160.644L112.151 160.521L111.933 160.401L111.742 160.304C111.657 160.26 111.567 160.228 111.475 160.207C111.381 160.184 111.286 160.172 111.19 160.171C111.089 160.172 110.989 160.185 110.892 160.211C110.788 160.238 110.688 160.279 110.593 160.33C110.512 160.373 110.441 160.432 110.384 160.503C110.343 160.551 110.32 160.612 110.317 160.675C110.318 160.735 110.339 160.792 110.375 160.839C110.422 160.899 110.479 160.95 110.544 160.989C110.598 161.03 110.655 161.067 110.714 161.1C110.78 161.14 110.847 161.184 110.923 161.224L111.136 161.343C111.201 161.38 111.268 161.414 111.337 161.445C111.51 161.53 111.7 161.575 111.893 161.577C112.102 161.58 112.308 161.523 112.485 161.414C112.681 161.303 112.77 161.193 112.761 161.078C112.75 161.011 112.724 160.948 112.685 160.892C112.645 160.837 112.594 160.792 112.534 160.759Z" fill="#455A64"/>
<path d="M114.928 158.474L115.093 158.575L115.315 158.703L115.542 158.836L115.725 158.929C115.804 158.97 115.887 159.001 115.974 159.022C116.065 159.048 116.159 159.063 116.254 159.066C116.355 159.065 116.455 159.053 116.553 159.031C116.664 159.004 116.771 158.961 116.869 158.902C116.953 158.859 117.028 158.801 117.091 158.73C117.129 158.686 117.156 158.635 117.171 158.58C117.185 158.538 117.185 158.493 117.171 158.451C117.152 158.414 117.128 158.38 117.1 158.35C117.076 158.323 117.058 158.291 117.047 158.257C117.047 158.257 117.073 158.208 117.127 158.177L117.745 157.824C117.778 157.809 117.812 157.801 117.848 157.801C117.883 157.801 117.918 157.809 117.95 157.824C118.091 157.899 118.209 158.012 118.288 158.151C118.354 158.27 118.374 158.407 118.346 158.54C118.308 158.692 118.233 158.833 118.128 158.951C117.989 159.107 117.823 159.237 117.639 159.336C117.417 159.463 117.179 159.559 116.931 159.623C116.693 159.688 116.448 159.724 116.201 159.729C115.966 159.735 115.731 159.712 115.502 159.659C115.29 159.615 115.084 159.542 114.892 159.442C114.754 159.376 114.616 159.296 114.447 159.212C114.278 159.128 114.162 159.044 114.033 158.96C113.882 158.873 113.752 158.756 113.651 158.615C113.569 158.497 113.529 158.356 113.535 158.213C113.55 158.058 113.612 157.911 113.713 157.793C113.854 157.626 114.026 157.488 114.22 157.386C114.432 157.265 114.657 157.172 114.892 157.107C115.125 157.041 115.363 156.999 115.604 156.979C115.832 156.964 116.061 156.976 116.285 157.014C116.485 157.045 116.678 157.109 116.855 157.205C116.868 157.21 116.878 157.219 116.886 157.229C116.894 157.24 116.899 157.253 116.9 157.266C116.899 157.279 116.895 157.292 116.887 157.302C116.879 157.313 116.868 157.32 116.855 157.324L116.237 157.682C116.195 157.709 116.148 157.724 116.099 157.726C116.046 157.72 115.994 157.71 115.943 157.695C115.885 157.676 115.825 157.663 115.765 157.656C115.691 157.646 115.616 157.646 115.542 157.656C115.454 157.663 115.366 157.678 115.28 157.7C115.174 157.731 115.072 157.776 114.977 157.832C114.89 157.876 114.814 157.937 114.754 158.014C114.715 158.061 114.693 158.12 114.692 158.182C114.697 158.242 114.722 158.3 114.763 158.345C114.814 158.393 114.869 158.436 114.928 158.474Z" fill="#455A64"/>
<path d="M117.919 155.316C117.978 155.282 118.046 155.263 118.115 155.263C118.173 155.265 118.231 155.272 118.288 155.285L122.294 156.4L122.383 156.431C122.415 156.431 122.428 156.466 122.428 156.493C122.428 156.519 122.428 156.532 122.383 156.55L121.791 156.89C121.737 156.922 121.676 156.941 121.613 156.944C121.572 156.949 121.53 156.949 121.489 156.944L120.963 156.793L119.704 157.514L119.966 157.815C119.985 157.835 119.994 157.862 119.993 157.89C119.993 157.921 119.962 157.952 119.9 157.987L119.303 158.332C119.271 158.347 119.236 158.354 119.201 158.354C119.166 158.354 119.131 158.347 119.099 158.332C119.077 158.319 119.058 158.301 119.045 158.279L117.1 155.98C117.077 155.953 117.064 155.918 117.064 155.882C117.064 155.842 117.091 155.807 117.153 155.767L117.919 155.316ZM119.219 156.939L119.984 156.497L118.467 156.055L119.219 156.939Z" fill="#455A64"/>
<path d="M120.972 153.565C121.17 153.452 121.379 153.359 121.595 153.286C121.794 153.219 122 153.176 122.209 153.158C122.412 153.144 122.616 153.159 122.815 153.202C123.015 153.246 123.207 153.321 123.384 153.423C123.579 153.517 123.735 153.673 123.83 153.866C123.86 153.938 123.871 154.017 123.861 154.094C123.851 154.172 123.82 154.246 123.772 154.308L125.481 154.617C125.504 154.62 125.527 154.627 125.548 154.64C125.579 154.64 125.592 154.675 125.592 154.701C125.592 154.728 125.592 154.741 125.548 154.759L124.907 155.126C124.855 155.162 124.792 155.181 124.729 155.179H124.582L123.046 154.9L122.601 155.148L123.611 155.727C123.647 155.727 123.665 155.772 123.665 155.803C123.663 155.818 123.658 155.833 123.648 155.846C123.639 155.858 123.626 155.868 123.611 155.873L122.993 156.227C122.955 156.249 122.912 156.26 122.868 156.258C122.823 156.261 122.778 156.25 122.739 156.227L119.686 154.48C119.671 154.474 119.659 154.463 119.65 154.45C119.642 154.436 119.637 154.421 119.637 154.405C119.637 154.389 119.642 154.374 119.651 154.361C119.66 154.348 119.672 154.337 119.686 154.33L120.972 153.565ZM121.862 154.693L122.401 154.379C122.506 154.329 122.595 154.248 122.654 154.149C122.69 154.069 122.654 153.989 122.512 153.914C122.391 153.841 122.247 153.813 122.107 153.835C121.964 153.855 121.826 153.903 121.702 153.976L121.168 154.286L121.862 154.693Z" fill="#455A64"/>
<path d="M125.245 151.115C125.285 151.095 125.329 151.084 125.374 151.084C125.419 151.084 125.463 151.095 125.503 151.115L126.002 151.403C126.016 151.408 126.029 151.418 126.039 151.43C126.048 151.443 126.054 151.458 126.055 151.473C126.055 151.504 126.055 151.526 126.002 151.549L125.17 152.026L127.595 153.415C127.61 153.421 127.622 153.432 127.631 153.445C127.639 153.458 127.644 153.474 127.644 153.49C127.644 153.505 127.639 153.52 127.63 153.532C127.622 153.545 127.609 153.555 127.595 153.561L126.977 153.919C126.936 153.936 126.892 153.945 126.848 153.945C126.803 153.945 126.759 153.936 126.718 153.919L124.297 152.526L123.465 153.003C123.426 153.023 123.384 153.034 123.34 153.034C123.295 153.035 123.251 153.024 123.211 153.003L122.708 152.716C122.694 152.709 122.683 152.698 122.674 152.685C122.665 152.671 122.66 152.656 122.659 152.641C122.66 152.626 122.665 152.611 122.674 152.599C122.682 152.586 122.694 152.576 122.708 152.57L125.245 151.115Z" fill="#455A64"/>
<path d="M90.354 170.298C89.1567 170.984 89.1567 172.094 90.354 172.775C91.0236 173.113 91.764 173.289 92.515 173.289C93.266 173.289 94.0064 173.113 94.6759 172.775C95.8688 172.094 95.8688 170.984 94.6759 170.298C94.0064 169.96 93.266 169.784 92.515 169.784C91.764 169.784 91.0236 169.96 90.354 170.298ZM93.9148 171.108L93.1136 171.55L93.9148 171.992C93.9479 172.002 93.9769 172.022 93.9975 172.05C94.0181 172.077 94.0293 172.11 94.0293 172.145C94.0293 172.179 94.0181 172.212 93.9975 172.24C93.9769 172.267 93.9479 172.287 93.9148 172.297C93.8328 172.339 93.742 172.36 93.65 172.36C93.5579 172.36 93.4672 172.339 93.3851 172.297L92.5795 171.855L91.7784 172.297C91.6963 172.339 91.6056 172.36 91.5135 172.36C91.4215 172.36 91.3307 172.339 91.2487 172.297C91.2156 172.287 91.1866 172.267 91.166 172.24C91.1454 172.212 91.1342 172.179 91.1342 172.145C91.1342 172.11 91.1454 172.077 91.166 172.05C91.1866 172.022 91.2156 172.002 91.2487 171.992L92.0499 171.55L91.2487 171.108C91.2156 171.098 91.1866 171.078 91.166 171.05C91.1454 171.023 91.1342 170.989 91.1342 170.955C91.1342 170.921 91.1454 170.887 91.166 170.86C91.1866 170.832 91.2156 170.812 91.2487 170.802C91.3307 170.761 91.4215 170.739 91.5135 170.739C91.6056 170.739 91.6963 170.761 91.7784 170.802L92.5795 171.245L93.3851 170.802C93.4672 170.761 93.5579 170.739 93.65 170.739C93.742 170.739 93.8328 170.761 93.9148 170.802C93.9573 170.807 93.9962 170.828 94.0229 170.862C94.0496 170.895 94.062 170.937 94.0572 170.979C94.0525 171.022 94.0311 171.06 93.9977 171.087C93.9643 171.113 93.9217 171.126 93.8792 171.121L93.9148 171.108Z" fill="#455A64"/>
<path d="M66.6738 48.3944L91.7683 34.0008L89.6764 4.01074L66.6738 17.206V48.3944Z" fill="#00B561"/>
<path opacity="0.6" d="M66.6738 48.3944L91.7683 34.0008L89.6764 4.01074L66.6738 17.206V48.3944Z" fill="white"/>
<path d="M66.6733 17.2058V14.8047L60.3975 13.6063L83.4 0.411133L85.492 4.01062H89.6758L66.6733 17.2058Z" fill="#00B561"/>
<path opacity="0.3" d="M66.6733 17.2058V14.8047L60.3975 13.6063L83.4 0.411133L85.492 4.01062H89.6758L66.6733 17.2058Z" fill="white"/>
<path d="M83.4004 0.411133V7.61028L85.4923 6.4119V4.01071L83.4004 0.411133Z" fill="#00B561"/>
<path opacity="0.1" d="M83.4004 0.411133V7.61028L85.4923 6.4119V4.01071L83.4004 0.411133Z" fill="black"/>
<path d="M89.6761 4.01074H85.4922V6.41213L89.6761 4.01074Z" fill="#00B561"/>
<path opacity="0.2" d="M89.6761 4.01074H85.4922V6.41213L89.6761 4.01074Z" fill="black"/>
<path d="M60.3976 13.6069L58.3057 43.5966L66.6735 48.3945V17.2064V14.8053L60.3976 13.6069Z" fill="#00B561"/>
<path opacity="0.1" d="M60.3976 13.6069L58.3057 43.5966L66.6735 48.3945V17.2064V14.8053L60.3976 13.6069Z" fill="black"/>
<path d="M66.6741 14.8047L62.4902 45.9929L66.6741 48.394V14.8047Z" fill="#00B561"/>
<path opacity="0.2" d="M66.6741 14.8047L62.4902 45.9929L66.6741 48.394V14.8047Z" fill="black"/>
<path d="M66.6735 48.3948L62.8367 43.3936L58.3057 43.597L66.6735 48.3948Z" fill="#00B561"/>
<path d="M67.1807 13.2882C67.1807 13.695 67.4655 13.8631 67.8216 13.6597C68.009 13.5377 68.165 13.3737 68.2771 13.1809C68.3892 12.9882 68.4542 12.772 68.467 12.5497C68.467 12.1429 68.1777 11.9749 67.8216 12.1783C67.6348 12.3005 67.4794 12.4646 67.3681 12.6574C67.2568 12.8502 67.1926 13.0663 67.1807 13.2882Z" fill="#37474F"/>
<path d="M75.7402 8.49049C75.7402 8.89736 76.0295 9.06541 76.3856 8.85756C76.5732 8.73675 76.7294 8.57365 76.8416 8.38153C76.9537 8.18941 77.0186 7.97369 77.031 7.75193C77.031 7.34506 76.7417 7.17701 76.3856 7.38044C76.198 7.50221 76.0418 7.66613 75.9296 7.85896C75.8175 8.05179 75.7526 8.26813 75.7402 8.49049Z" fill="#37474F"/>
<path d="M67.822 12.8239C67.7657 12.8228 67.7121 12.8 67.6722 12.7605C67.6324 12.7209 67.6095 12.6676 67.6084 12.6116V7.37159C67.6084 5.08543 69.5757 2.1006 71.997 0.712096C73.3323 -0.0617495 74.6231 -0.212096 75.5088 0.296431C76.2165 0.698831 76.6038 1.48594 76.6038 2.50742V7.81379C76.6026 7.87049 76.5791 7.92447 76.5383 7.96415C76.4976 8.00383 76.4428 8.02606 76.3857 8.02604C76.329 8.02604 76.2747 8.00368 76.2346 7.96387C76.1945 7.92407 76.172 7.87008 76.172 7.81379V2.50742C76.172 1.62302 75.8649 0.986259 75.2818 0.659033C74.5341 0.216835 73.408 0.380448 72.2018 1.0747C69.9006 2.40129 68.0268 5.21367 68.0268 7.36275V12.6116C68.0258 12.6661 68.0041 12.7182 67.9662 12.7575C67.9283 12.7969 67.8768 12.8206 67.822 12.8239Z" fill="#37474F"/>
<path d="M73.541 16.8878C73.541 17.2946 73.8303 17.4582 74.1864 17.2548C74.374 17.134 74.5302 16.9709 74.6423 16.7788C74.7545 16.5867 74.8194 16.371 74.8318 16.1493C74.8318 15.7425 74.5425 15.5745 74.1864 15.7779C73.9987 15.8996 73.8425 16.0635 73.7304 16.2563C73.6183 16.4491 73.5534 16.6654 73.541 16.8878Z" fill="#455A64"/>
<path d="M82.1143 12.0899C82.1143 12.4967 82.4036 12.6604 82.7597 12.4569C82.9472 12.3361 83.1034 12.173 83.2156 11.9809C83.3277 11.7888 83.3927 11.5731 83.405 11.3513C83.405 10.9401 83.1157 10.7764 82.7597 10.9799C82.5715 11.1011 82.4149 11.2649 82.3027 11.4578C82.1906 11.6508 82.126 11.8674 82.1143 12.0899Z" fill="#455A64"/>
<path d="M74.1955 16.4229C74.1404 16.4218 74.0878 16.3995 74.0489 16.3608C74.0099 16.322 73.9875 16.2698 73.9863 16.2151V10.9662C73.9863 8.68442 75.9536 5.69958 78.375 4.33319C79.7102 3.55935 81.001 3.409 81.8868 3.91752C82.59 4.31992 82.9772 5.10704 82.9772 6.12852V11.4349C82.9778 11.4631 82.9727 11.4912 82.9623 11.5175C82.9518 11.5437 82.9362 11.5677 82.9163 11.5878C82.8964 11.608 82.8726 11.6241 82.8464 11.635C82.8202 11.6459 82.792 11.6516 82.7636 11.6516C82.735 11.6516 82.7066 11.646 82.6801 11.6351C82.6537 11.6242 82.6296 11.6082 82.6094 11.5881C82.5891 11.568 82.5731 11.5441 82.5621 11.5178C82.5511 11.4915 82.5455 11.4633 82.5455 11.4349V6.12852C82.5455 5.24412 82.2428 4.61178 81.6553 4.28455C80.9075 3.84235 79.7859 4.00596 78.5753 4.70022C76.2741 6.02681 74.4047 8.83919 74.4047 10.9838V16.2151C74.4025 16.2695 74.3798 16.3211 74.341 16.3596C74.3022 16.3981 74.2503 16.4207 74.1955 16.4229Z" fill="#455A64"/>
<path d="M82.7696 56.4204L79.8764 58.1052L79.8853 49.3983L78.1317 48.3945L70.1912 52.9492L70.1778 63.6901L65.5488 66.2947L75.9106 72.9719L84.5232 57.4242L82.7696 56.4204Z" fill="#37474F"/>
<path d="M71.9451 53.9521L71.9317 64.6931L67.3027 67.3021L75.9109 72.9711L84.5234 57.4234L79.8722 60.1385L79.8856 49.3975L71.9451 53.9521Z" fill="#455A64"/>
<path d="M70.1911 52.9482L71.9447 53.952L71.9314 64.6929L70.1777 63.6891L70.1911 52.9482Z" fill="#263238"/>
<path d="M99.9504 138.97C99.9011 137.936 99.6069 136.929 99.0918 136.03C98.5767 135.131 97.8552 134.366 96.9861 133.796C96.1226 133.292 95.3437 133.27 94.7918 133.628L92.7666 134.76L97.0173 142.043L99.0246 140.911C99.5855 140.606 99.9415 139.938 99.9504 138.97Z" fill="#37474F"/>
<path d="M94.8809 134.982C95.7488 135.553 96.4694 136.319 96.9843 137.217C97.4993 138.116 97.7942 139.123 97.8453 140.156C97.8453 142.057 96.4833 142.809 94.8364 141.858C93.9685 141.287 93.248 140.521 92.733 139.623C92.2181 138.724 91.9231 137.717 91.8721 136.684C91.8854 134.783 93.2341 134.022 94.8809 134.982Z" fill="#455A64"/>
<path d="M93.8477 137.834C93.8477 137.091 94.2928 136.751 94.8669 137.078C95.1751 137.299 95.4263 137.59 95.6003 137.925C95.7744 138.261 95.8662 138.633 95.8684 139.011C95.8684 139.754 95.4233 140.09 94.8491 139.767C94.5423 139.544 94.292 139.254 94.1181 138.918C93.9442 138.583 93.8516 138.212 93.8477 137.834Z" fill="#263238"/>
<path opacity="0.15" d="M97.8443 140.156C97.8342 139.473 97.6953 138.798 97.4348 138.166L92.2939 135.199C92.0037 135.639 91.8576 136.158 91.8755 136.684C91.8755 136.707 91.8755 136.729 91.8755 136.755L97.8398 140.195C97.8398 140.195 97.8443 140.169 97.8443 140.156Z" fill="black"/>
<path d="M78.6388 155.15C77.5511 155.232 76.4604 155.037 75.4697 154.584L47.4287 138.528C45.7328 137.679 43.8278 135.477 43.7077 133.39L42.8486 113.53L44.4109 113.442L45.2744 133.306C45.3545 134.721 46.8456 136.498 48.1275 137.135L76.1907 153.196C76.9449 153.508 77.7607 153.646 78.5766 153.6C79.3924 153.553 80.1868 153.322 80.8998 152.926L99.5939 142.216C100.039 141.924 100.302 141.575 100.284 141.278C100.266 140.982 99.9855 140.69 99.5093 140.451L69.4698 123.126C67.7784 122.282 65.8823 120.075 65.7621 117.988L65.3438 106.973L66.906 106.889L67.3244 117.899C67.4045 119.323 68.8956 121.096 70.173 121.733L100.213 139.063C101.214 139.563 101.793 140.319 101.846 141.19C101.899 142.061 101.401 142.906 100.453 143.516L81.7589 154.226C80.8149 154.793 79.741 155.111 78.6388 155.15Z" fill="#455A64"/>
<path d="M73.5999 154.704C73.5505 153.671 73.2564 152.664 72.7412 151.765C72.2261 150.866 71.5047 150.1 70.6355 149.53C69.772 149.026 68.9931 149 68.4456 149.362L66.416 150.494L70.6667 157.777L72.6741 156.645C73.226 156.34 73.5999 155.673 73.5999 154.704Z" fill="#37474F"/>
<path d="M68.522 150.715C69.3917 151.286 70.1135 152.052 70.6287 152.952C71.1438 153.852 71.4377 154.86 71.4863 155.894C71.4863 157.791 70.1288 158.547 68.4775 157.592C67.6096 157.021 66.8894 156.255 66.3751 155.356C65.8609 154.457 65.5671 153.451 65.5176 152.418C65.5309 150.521 66.8751 149.747 68.522 150.715Z" fill="#455A64"/>
<path d="M67.4893 153.568C67.4893 152.825 67.9344 152.484 68.5085 152.812C68.8172 153.032 69.0688 153.322 69.2429 153.658C69.417 153.994 69.5085 154.366 69.51 154.744C69.51 155.482 69.0649 155.823 68.4952 155.496C68.1871 155.275 67.9355 154.986 67.7608 154.651C67.586 154.316 67.493 153.945 67.4893 153.568Z" fill="#263238"/>
<path d="M52.8683 142.83C52.8212 141.797 52.5294 140.79 52.0166 139.89C51.5038 138.991 50.7846 138.224 49.9173 137.652C49.0494 137.148 48.2749 137.122 47.723 137.48L45.6934 138.607L49.9307 145.899L51.9425 144.767C52.5033 144.466 52.8594 143.799 52.8683 142.83Z" fill="#37474F"/>
<path d="M47.8067 138.838C48.6719 139.408 49.3902 140.172 49.9036 141.068C50.417 141.965 50.7111 142.969 50.7621 143.999C50.7621 145.896 49.3957 146.652 47.7488 145.692C46.8816 145.121 46.1623 144.354 45.6496 143.454C45.1368 142.554 44.845 141.547 44.7979 140.514C44.8112 138.63 46.1598 137.874 47.8067 138.838Z" fill="#455A64"/>
<path d="M46.7695 141.681C46.7695 140.943 47.2146 140.603 47.7888 140.93C48.0964 141.151 48.3473 141.442 48.5212 141.777C48.6952 142.113 48.7873 142.485 48.7902 142.862C48.7902 143.605 48.3452 143.941 47.7665 143.618C47.4602 143.395 47.2105 143.103 47.0374 142.767C46.8644 142.431 46.7726 142.059 46.7695 141.681Z" fill="#263238"/>
<path d="M39.4969 89.4657C39.2313 88.4542 39.2801 87.3865 39.6368 86.4031C39.9935 85.4196 40.6414 84.5664 41.4954 83.9558L60.1494 73.4798C61.8452 72.3743 63.7101 73.1437 64.2976 75.0674L65.5929 79.2374L64.311 79.9803L62.9178 75.7661C62.8611 75.5407 62.749 75.3329 62.5914 75.1613C62.4338 74.9897 62.2358 74.8597 62.0151 74.7829C61.7945 74.7062 61.5581 74.6852 61.3272 74.7217C61.0963 74.7582 60.8781 74.8512 60.6924 74.9922L42.528 85.1851C41.9839 85.5814 41.5698 86.1287 41.3378 86.7581C41.1057 87.3875 41.0661 88.0711 41.2239 88.7228L42.3188 92.7248L40.7921 93.6092L39.4969 89.4657Z" fill="#455A64"/>
<path d="M68.3391 109.56L43.2803 123.936L79.9027 144.94L104.962 130.564L68.3391 109.56Z" fill="#00B561"/>
<path opacity="0.5" d="M68.3391 109.56L43.2803 123.936L79.9027 144.94L104.962 130.564L68.3391 109.56Z" fill="black"/>
<path d="M40.792 93.6368L65.5927 79.2432L68.3389 109.56L43.2801 123.936L40.792 93.6368Z" fill="#00B561"/>
<path opacity="0.35" d="M40.792 93.6368L65.5927 79.2432L68.3389 109.56L43.2801 123.936L40.792 93.6368Z" fill="black"/>
<path d="M65.5889 79.2432L68.3351 109.56L104.958 130.565L110.744 105.134L65.5889 79.2432ZM78.3943 108.393C77.8654 108.556 77.2932 108.505 76.8017 108.252C76.3102 107.998 75.9389 107.563 75.7682 107.04L69.7149 91.4346C69.5817 91.1886 69.503 90.9171 69.4838 90.6385C69.4646 90.3598 69.5055 90.0803 69.6038 89.8186C69.702 89.5569 69.8554 89.319 70.0535 89.1208C70.2517 88.9227 70.4901 88.7688 70.7529 88.6695C71.0157 88.5703 71.2968 88.5278 71.5774 88.5451C71.858 88.5623 72.1317 88.6388 72.3802 88.7695C72.6286 88.9002 72.8462 89.0821 73.0183 89.303C73.1903 89.5239 73.313 89.7787 73.378 90.0505L79.4313 105.656C79.6543 106.155 79.671 106.722 79.4779 107.234C79.2848 107.746 78.8973 108.162 78.3987 108.393H78.3943ZM89.8288 113.735C89.3005 113.9 88.7278 113.851 88.2357 113.598C87.7437 113.346 87.3723 112.91 87.2027 112.386L81.1672 96.7807C81.0343 96.5354 80.9555 96.2648 80.936 95.9869C80.9165 95.7089 80.9568 95.4301 81.0542 95.1688C81.1515 94.9075 81.3037 94.6698 81.5007 94.4715C81.6976 94.2732 81.9348 94.1188 82.1964 94.0185C82.458 93.9183 82.7382 93.8745 83.0181 93.8901C83.2981 93.9057 83.5716 93.9803 83.8203 94.109C84.069 94.2377 84.2873 94.4175 84.4607 94.6364C84.6341 94.8554 84.7586 95.1085 84.8259 95.379L90.8792 110.984C91.1066 111.487 91.1242 112.059 90.9281 112.574C90.7321 113.09 90.3384 113.507 89.8332 113.735H89.8288ZM101.263 119.081C100.738 119.247 100.168 119.201 99.6761 118.953C99.1846 118.705 98.8113 118.274 98.6372 117.754L92.5884 102.149C92.4589 101.904 92.3829 101.635 92.3655 101.36C92.3482 101.084 92.3897 100.807 92.4874 100.549C92.5852 100.29 92.7369 100.055 92.9326 99.8585C93.1284 99.6622 93.3638 99.5092 93.6232 99.4097C93.8827 99.3101 94.1605 99.2663 94.4382 99.2809C94.716 99.2956 94.9875 99.3685 95.2348 99.4949C95.4822 99.6212 95.6999 99.7981 95.8736 100.014C96.0473 100.23 96.173 100.48 96.2426 100.747L102.296 116.352C102.518 116.85 102.534 117.415 102.342 117.925C102.15 118.435 101.764 118.85 101.268 119.081H101.263Z" fill="#00B561"/>
<path opacity="0.23" d="M65.5889 79.2432L68.3351 109.56L104.958 130.565L110.744 105.134L65.5889 79.2432ZM78.3943 108.393C77.8654 108.556 77.2932 108.505 76.8017 108.252C76.3102 107.998 75.9389 107.563 75.7682 107.04L69.7149 91.4346C69.5817 91.1886 69.503 90.9171 69.4838 90.6385C69.4646 90.3598 69.5055 90.0803 69.6038 89.8186C69.702 89.5569 69.8554 89.319 70.0535 89.1208C70.2517 88.9227 70.4901 88.7688 70.7529 88.6695C71.0157 88.5703 71.2968 88.5278 71.5774 88.5451C71.858 88.5623 72.1317 88.6388 72.3802 88.7695C72.6286 88.9002 72.8462 89.0821 73.0183 89.303C73.1903 89.5239 73.313 89.7787 73.378 90.0505L79.4313 105.656C79.6543 106.155 79.671 106.722 79.4779 107.234C79.2848 107.746 78.8973 108.162 78.3987 108.393H78.3943ZM89.8288 113.735C89.3005 113.9 88.7278 113.851 88.2357 113.598C87.7437 113.346 87.3723 112.91 87.2027 112.386L81.1672 96.7807C81.0343 96.5354 80.9555 96.2648 80.936 95.9869C80.9165 95.7089 80.9568 95.4301 81.0542 95.1688C81.1515 94.9075 81.3037 94.6698 81.5007 94.4715C81.6976 94.2732 81.9348 94.1188 82.1964 94.0185C82.458 93.9183 82.7382 93.8745 83.0181 93.8901C83.2981 93.9057 83.5716 93.9803 83.8203 94.109C84.069 94.2377 84.2873 94.4175 84.4607 94.6364C84.6341 94.8554 84.7586 95.1085 84.8259 95.379L90.8792 110.984C91.1066 111.487 91.1242 112.059 90.9281 112.574C90.7321 113.09 90.3384 113.507 89.8332 113.735H89.8288ZM101.263 119.081C100.738 119.247 100.168 119.201 99.6761 118.953C99.1846 118.705 98.8113 118.274 98.6372 117.754L92.5884 102.149C92.4589 101.904 92.3829 101.635 92.3655 101.36C92.3482 101.084 92.3897 100.807 92.4874 100.549C92.5852 100.29 92.7369 100.055 92.9326 99.8585C93.1284 99.6622 93.3638 99.5092 93.6232 99.4097C93.8827 99.3101 94.1605 99.2663 94.4382 99.2809C94.716 99.2956 94.9875 99.3685 95.2348 99.4949C95.4822 99.6212 95.6999 99.7981 95.8736 100.014C96.0473 100.23 96.173 100.48 96.2426 100.747L102.296 116.352C102.518 116.85 102.534 117.415 102.342 117.925C102.15 118.435 101.764 118.85 101.268 119.081H101.263Z" fill="black"/>
<path d="M40.792 93.6362L43.2801 123.936L79.9025 144.94L85.6888 119.514L40.792 93.6362ZM55.2487 123.462C54.7198 123.625 54.1476 123.575 53.6561 123.321C53.1646 123.068 52.7933 122.633 52.6226 122.109L46.5738 106.504C46.4434 106.259 46.3668 105.99 46.349 105.714C46.3311 105.437 46.3724 105.16 46.4702 104.901C46.5679 104.642 46.7199 104.406 46.9161 104.209C47.1123 104.012 47.3483 103.859 47.6084 103.76C47.8685 103.66 48.1469 103.617 48.4252 103.632C48.7035 103.647 48.9754 103.721 49.223 103.848C49.4705 103.976 49.6881 104.154 49.8613 104.371C50.0346 104.587 50.1595 104.838 50.228 105.107L56.2813 120.707C56.5098 121.209 56.5294 121.78 56.336 122.296C56.1426 122.812 55.7518 123.231 55.2487 123.462ZM66.6832 128.804C66.1549 128.97 65.5822 128.921 65.0901 128.668C64.5981 128.415 64.2267 127.979 64.0571 127.455L58.0216 111.85C57.8888 111.605 57.81 111.334 57.7905 111.056C57.771 110.778 57.8112 110.5 57.9086 110.238C58.0059 109.977 58.1581 109.739 58.3551 109.541C58.552 109.343 58.7892 109.188 59.0508 109.088C59.3125 108.988 59.5926 108.944 59.8726 108.96C60.1526 108.975 60.426 109.05 60.6747 109.179C60.9234 109.307 61.1417 109.487 61.3151 109.706C61.4885 109.925 61.613 110.178 61.6803 110.449L67.7292 126.054C67.9566 126.556 67.9742 127.128 67.7781 127.644C67.5821 128.159 67.1883 128.576 66.6832 128.804ZM78.1177 134.15C77.59 134.316 77.0179 134.266 76.5266 134.014C76.0352 133.761 75.6647 133.325 75.4961 132.802L69.4428 117.196C69.3099 116.951 69.2311 116.68 69.2116 116.403C69.1921 116.125 69.2324 115.846 69.3297 115.585C69.4271 115.323 69.5793 115.086 69.7762 114.887C69.9732 114.689 70.2103 114.534 70.472 114.434C70.7336 114.334 71.0137 114.29 71.2937 114.306C71.5737 114.321 71.8471 114.396 72.0958 114.525C72.3446 114.653 72.5629 114.833 72.7362 115.052C72.9096 115.271 73.0341 115.524 73.1015 115.795L79.1503 131.4C79.3786 131.901 79.3981 132.471 79.2047 132.986C79.0112 133.502 78.6205 133.92 78.1177 134.15Z" fill="#00B561"/>
<g opacity="0.15">
<path opacity="0.15" d="M40.792 93.6362L43.2801 123.936L79.9025 144.94L85.6888 119.514L40.792 93.6362ZM55.2487 123.462C54.7198 123.625 54.1476 123.575 53.6561 123.321C53.1646 123.068 52.7933 122.633 52.6226 122.109L46.5738 106.504C46.4434 106.259 46.3668 105.99 46.349 105.714C46.3311 105.437 46.3724 105.16 46.4702 104.901C46.5679 104.642 46.7199 104.406 46.9161 104.209C47.1123 104.012 47.3483 103.859 47.6084 103.76C47.8685 103.66 48.1469 103.617 48.4252 103.632C48.7035 103.647 48.9754 103.721 49.223 103.848C49.4705 103.976 49.6881 104.154 49.8613 104.371C50.0346 104.587 50.1595 104.838 50.228 105.107L56.2813 120.707C56.5098 121.209 56.5294 121.78 56.336 122.296C56.1426 122.812 55.7518 123.231 55.2487 123.462ZM66.6832 128.804C66.1549 128.97 65.5822 128.921 65.0901 128.668C64.5981 128.415 64.2267 127.979 64.0571 127.455L58.0216 111.85C57.8888 111.605 57.81 111.334 57.7905 111.056C57.771 110.778 57.8112 110.5 57.9086 110.238C58.0059 109.977 58.1581 109.739 58.3551 109.541C58.552 109.343 58.7892 109.188 59.0508 109.088C59.3125 108.988 59.5926 108.944 59.8726 108.96C60.1526 108.975 60.426 109.05 60.6747 109.179C60.9234 109.307 61.1417 109.487 61.3151 109.706C61.4885 109.925 61.613 110.178 61.6803 110.449L67.7292 126.054C67.9566 126.556 67.9742 127.128 67.7781 127.644C67.5821 128.159 67.1883 128.576 66.6832 128.804ZM78.1177 134.15C77.59 134.316 77.0179 134.266 76.5266 134.014C76.0352 133.761 75.6647 133.325 75.4961 132.802L69.4428 117.196C69.3099 116.951 69.2311 116.68 69.2116 116.403C69.1921 116.125 69.2324 115.846 69.3297 115.585C69.4271 115.323 69.5793 115.086 69.7762 114.887C69.9732 114.689 70.2103 114.534 70.472 114.434C70.7336 114.334 71.0137 114.29 71.2937 114.306C71.5737 114.321 71.8471 114.396 72.0958 114.525C72.3446 114.653 72.5629 114.833 72.7362 115.052C72.9096 115.271 73.0341 115.524 73.1015 115.795L79.1503 131.4C79.3786 131.901 79.3981 132.471 79.2047 132.986C79.0112 133.502 78.6205 133.92 78.1177 134.15Z" fill="black"/>
</g>
<path d="M85.6841 119.514L110.743 105.138L104.961 130.569L79.9023 144.94L85.6841 119.514Z" fill="#00B561"/>
<path opacity="0.4" d="M85.6841 119.514L110.743 105.138L104.961 130.569L79.9023 144.94L85.6841 119.514Z" fill="black"/>
<path d="M166.792 83.2321C165.497 86.0003 163.28 90.5815 162.065 93.1198L157.312 87.5568H153.306C153.306 87.5568 158.113 97.7275 160.979 100.107C161.203 100.316 161.468 100.477 161.758 100.581C162.047 100.685 162.354 100.729 162.661 100.711C162.969 100.693 163.269 100.613 163.543 100.475C163.818 100.338 164.062 100.146 164.259 99.912C165.427 98.5089 166.502 97.0317 167.478 95.49C169.747 92.0054 170.762 90.5019 170.762 90.5019L173.62 78.5624C171.136 78.3767 168.59 79.3893 166.792 83.2321Z" fill="#FFA8A7"/>
<path d="M174.097 78.5497C172.57 78.4922 170.91 78.302 169.454 79.5667C168.062 80.7741 166.974 82.2885 166.276 83.9887C165.293 86.2881 163.771 89.2022 163.771 89.2022C164.553 90.3331 165.515 91.3306 166.619 92.156C167.615 92.9206 168.795 93.413 170.042 93.5843L174.097 78.5497Z" fill="#00B561"/>
<path opacity="0.45" d="M174.097 78.5497C172.57 78.4922 170.91 78.302 169.454 79.5667C168.062 80.7741 166.974 82.2885 166.276 83.9887C165.293 86.2881 163.771 89.2022 163.771 89.2022C164.553 90.3331 165.515 91.3306 166.619 92.156C167.615 92.9206 168.795 93.413 170.042 93.5843L174.097 78.5497Z" fill="black"/>
<path d="M162.065 93.1205C162.601 93.7445 163.091 94.4066 163.53 95.1013C163.53 95.1013 163.018 93.2266 162.324 92.5854L162.065 93.1205Z" fill="#F28F8F"/>
<path d="M152.117 80.1682L152.495 79.7747C152.554 79.7279 152.622 79.6954 152.696 79.6801C152.769 79.6647 152.846 79.6668 152.918 79.6862L157.52 80.4645C157.754 80.5165 157.973 80.6181 158.162 80.7624C158.352 80.9067 158.508 81.0902 158.62 81.3003L162.759 90.2372C162.806 90.3089 162.831 90.3926 162.831 90.4781C162.831 90.5637 162.806 90.6474 162.759 90.7191L162.367 91.126C162.307 91.1767 162.234 91.2114 162.156 91.2269C162.079 91.2423 161.998 91.238 161.922 91.2144L157.338 90.4406C157.104 90.3878 156.885 90.2854 156.695 90.1404C156.506 89.9953 156.35 89.8111 156.238 89.6004L152.099 80.6635C151.997 80.4424 151.997 80.2655 152.117 80.1682Z" fill="#455A64"/>
<path d="M162.368 90.6393L158.229 81.698C158.117 81.4883 157.961 81.3051 157.771 81.1608C157.581 81.0166 157.362 80.9147 157.129 80.8622L152.527 80.0928C152.082 80.022 151.904 80.2785 152.082 80.6721L156.221 89.609C156.332 89.8197 156.488 90.0039 156.678 90.1489C156.868 90.294 157.087 90.3964 157.321 90.4492L161.923 91.223C162.35 91.2893 162.551 91.0284 162.368 90.6393Z" fill="#263238"/>
<path d="M157.646 81.0701C157.896 81.2243 158.099 81.4429 158.234 81.7024L162.373 90.6349C162.418 90.7052 162.441 90.7864 162.441 90.8693C162.441 90.9522 162.418 91.0334 162.373 91.1037L162.743 90.7234C162.789 90.6521 162.813 90.5693 162.813 90.4846C162.813 90.3999 162.789 90.3171 162.743 90.2458L158.603 81.3089C158.479 81.0653 158.292 80.8592 158.06 80.7119L157.646 81.0701Z" fill="#37474F"/>
<path d="M154.294 89.0078C152.389 86.8367 152.443 84.1172 153.319 83.3301L153.898 84.5859C153.898 84.5859 156.813 85.2315 158.216 85.1254C159.618 85.0192 160.761 84.6832 161.144 84.9573C161.959 85.5278 162.195 87.951 159.862 88.8354C157.882 89.5827 154.294 89.0078 154.294 89.0078Z" fill="#FFA8A7"/>
<path d="M187.787 160.356C186.554 161.015 185.054 160.962 183.594 160.356L182.984 152.432L187.787 153.055V160.356Z" fill="#FFA8A7"/>
<path d="M173.068 155.62C172.031 157.853 170.152 157.234 168.038 155.806L168.412 147.847H173.508L173.068 155.62Z" fill="#FFA8A7"/>
<path d="M178.806 167.856C178.68 168.258 178.699 168.691 178.859 169.081C179.019 169.328 179.936 170.111 181.601 170.226C183.19 170.341 184.61 170.129 185.54 169.541C186.47 168.952 186.924 168.302 187.013 167.405C187.102 166.507 187.013 165.636 187.432 164.942C187.85 164.248 188.464 163.584 188.602 163.239C188.767 162.64 188.767 162.008 188.602 161.409L178.806 167.856Z" fill="#263238"/>
<path d="M183.154 160.006C183.129 160.346 183.065 160.681 182.962 161.006C182.717 161.702 182.39 162.367 181.988 162.987C181.786 163.31 181.565 163.62 181.324 163.915C180.844 164.481 180.247 164.946 179.74 165.494C179.195 166.007 178.848 166.691 178.756 167.431C178.69 168.669 180.043 169.089 181.084 169.275C182.21 169.47 183.366 169.412 184.467 169.107C185.045 168.956 185.567 168.643 185.971 168.206C186.375 167.768 186.644 167.225 186.746 166.639C186.804 166.295 186.781 165.941 186.826 165.596C186.965 164.806 187.296 164.062 187.792 163.429C188.082 163.065 188.332 162.671 188.535 162.253C188.86 161.483 188.602 160.621 188.393 159.86C188.215 159.201 188.01 158.454 187.778 158.534C187.793 158.669 187.773 158.806 187.72 158.932C187.644 159.054 187.583 159.184 187.538 159.321C187.491 159.496 187.428 159.666 187.351 159.829C187.235 160.085 187.04 160.297 186.795 160.435C186.795 159.993 186.764 159.502 186.75 159.033C186.762 158.888 186.724 158.744 186.643 158.622C186.533 158.522 186.392 158.461 186.243 158.45C185.369 158.241 184.468 158.168 183.572 158.233C183.505 158.23 183.438 158.243 183.376 158.27C183.315 158.297 183.26 158.337 183.216 158.388C183.162 158.483 183.14 158.593 183.154 158.702C183.178 159.136 183.178 159.572 183.154 160.006Z" fill="#37474F"/>
<path d="M181.818 163.226C182.263 162.881 183.323 162.876 183.892 162.938C184.47 162.988 185.025 163.181 185.508 163.5C185.579 163.551 185.665 163.575 185.753 163.569C185.84 163.562 185.922 163.525 185.984 163.464C186.02 163.429 186.048 163.387 186.065 163.34C186.083 163.293 186.091 163.243 186.087 163.193C186.084 163.143 186.07 163.095 186.046 163.051C186.022 163.007 185.989 162.968 185.949 162.938C185.418 162.548 184.787 162.315 184.128 162.266C182.731 162.169 182.321 162.407 182.321 162.407C182.321 162.407 181.689 162.832 181.818 163.226Z" fill="#F5F5F5"/>
<path d="M180.759 164.513C181.346 164.172 182.486 164.221 183.055 164.278C183.623 164.338 184.164 164.544 184.627 164.875C184.698 164.927 184.785 164.951 184.872 164.944C184.96 164.936 185.042 164.898 185.103 164.835C185.14 164.801 185.169 164.759 185.188 164.712C185.206 164.665 185.214 164.614 185.211 164.564C185.207 164.514 185.193 164.465 185.168 164.42C185.143 164.376 185.109 164.338 185.067 164.309C184.528 163.902 183.885 163.653 183.211 163.588C181.814 163.491 181.431 163.774 181.431 163.774C181.27 163.839 181.127 163.939 181.01 164.067C180.894 164.195 180.808 164.347 180.759 164.513Z" fill="#F5F5F5"/>
<path d="M184.694 160.957C184.105 160.851 183.499 160.901 182.936 161.103C182.691 161.24 182.526 161.624 182.687 161.722C183.181 161.526 183.716 161.453 184.244 161.509C184.769 161.562 185.281 161.702 185.758 161.925C185.878 161.978 186.02 162.049 186.145 162.12C186.184 162.14 186.226 162.152 186.269 162.155C186.312 162.159 186.356 162.154 186.397 162.141C186.439 162.128 186.477 162.107 186.51 162.079C186.543 162.051 186.57 162.017 186.59 161.978C186.624 161.909 186.631 161.83 186.609 161.756C186.586 161.682 186.537 161.619 186.47 161.58C185.929 161.249 185.324 161.037 184.694 160.957Z" fill="#F5F5F5"/>
<path d="M159.688 160.714C159.567 161.076 159.59 161.47 159.75 161.816C159.906 162.138 161.602 163.089 163.89 162.934C165.585 162.818 167.217 162.251 168.617 161.294C169.507 160.719 170.397 160.613 171.528 160.546C172.658 160.48 174.149 159.923 174.394 159.397C174.524 158.926 174.511 158.428 174.358 157.964L159.688 160.714Z" fill="#263238"/>
<path d="M168.88 153.727L168.288 153.498C168.183 153.445 168.063 153.432 167.949 153.462C167.803 153.515 167.745 153.688 167.705 153.838C167.652 154.174 167.568 154.504 167.455 154.824C167.287 155.086 167.069 155.312 166.814 155.492C166.248 155.945 165.634 156.338 164.985 156.664C164.237 157.062 163.507 157.371 162.733 157.716C161.958 158.061 160.904 158.282 160.289 158.698C159.399 159.299 159.275 160.807 160.289 161.404C161.18 161.917 163.49 162.474 165.924 161.789C167.26 161.417 168.719 160.02 170.46 159.874C171.568 159.79 173.66 159.481 174.372 158.645C174.635 158.273 174.283 157.102 173.998 156.089C173.682 154.979 173.553 153.25 173.193 153.347C173.166 153.714 172.845 153.931 172.65 154.232C172.497 154.517 172.364 154.812 172.254 155.116C172.143 155.421 171.941 155.685 171.675 155.872C171.542 155.962 171.382 156.006 171.222 155.997C171.061 155.989 170.907 155.928 170.785 155.824C170.46 155.487 170.651 154.899 170.415 154.497C170.223 154.243 169.948 154.063 169.636 153.988L168.88 153.727Z" fill="#37474F"/>
<path d="M166.018 156.079C166.098 155.928 166.215 155.8 166.358 155.705C166.501 155.61 166.665 155.552 166.837 155.535C167.34 155.443 168.23 155.81 168.782 156.265C168.835 156.307 168.876 156.362 168.903 156.423C168.929 156.485 168.94 156.553 168.934 156.62C168.928 156.687 168.905 156.752 168.867 156.808C168.83 156.864 168.779 156.91 168.719 156.942C168.645 156.983 168.559 156.999 168.475 156.99C168.39 156.98 168.311 156.945 168.248 156.889C167.639 156.341 166.839 156.05 166.018 156.079Z" fill="#F5F5F5"/>
<path d="M164.46 156.947C164.57 156.793 164.715 156.668 164.884 156.582C165.053 156.495 165.24 156.451 165.43 156.452C166.205 156.487 166.95 156.764 167.558 157.243C167.608 157.284 167.648 157.336 167.674 157.396C167.699 157.455 167.71 157.52 167.705 157.584C167.699 157.649 167.678 157.711 167.644 157.766C167.609 157.82 167.561 157.865 167.504 157.898C167.434 157.936 167.354 157.952 167.274 157.944C167.194 157.935 167.119 157.902 167.059 157.849C166.722 157.514 166.314 157.259 165.864 157.102C165.413 156.946 164.934 156.893 164.46 156.947Z" fill="#F5F5F5"/>
<path d="M162.733 157.729C162.86 157.589 163.015 157.477 163.188 157.401C163.362 157.324 163.55 157.286 163.739 157.287C164.487 157.332 165.201 157.612 165.778 158.088C165.828 158.128 165.868 158.181 165.894 158.24C165.919 158.3 165.93 158.364 165.925 158.429C165.919 158.493 165.899 158.556 165.864 158.61C165.829 158.665 165.781 158.71 165.724 158.742C165.654 158.779 165.573 158.794 165.494 158.784C165.414 158.775 165.339 158.742 165.279 158.689C164.96 158.343 164.563 158.076 164.121 157.91C163.679 157.743 163.204 157.681 162.733 157.729Z" fill="#F5F5F5"/>
<path d="M187.16 100.708C187.445 109.379 187.422 130.335 187.422 130.335C187.516 131.414 187.956 133.629 188.313 137.945C188.784 143.566 187.765 155.916 187.765 155.916C187.047 156.227 186.272 156.39 185.489 156.394C184.705 156.399 183.929 156.245 183.207 155.943C183.207 155.943 180.483 138.356 179.638 132.802C178.877 127.938 177.385 116.954 177.385 116.954L175.663 131.211C175.899 133.585 175.841 135.979 175.489 138.339C175.089 140.895 173.308 151.401 173.308 151.401C171.639 151.819 169.885 151.753 168.252 151.211C168.252 151.211 168.087 133.006 168.039 130.64C167.99 127.938 169.245 98.5674 169.245 98.5674L187.16 100.708Z" fill="#37474F"/>
<path d="M177.367 116.954L176.076 109.848C176.076 109.848 172.516 109.538 170.521 107.557C170.521 107.557 170.873 109.498 175.373 110.652L176.659 117.843L175.645 131.197L177.367 116.954Z" fill="#263238"/>
<path d="M169.686 85.2266C170.069 82.4496 170.438 78.7174 174.769 78.5449L180.359 78.8102C181.735 79.1684 187.085 79.7964 187.085 79.7964L187.187 91.842C187.187 91.842 187.525 100.527 187.423 105.174C183.417 107.695 174.716 108.513 169.245 104.387C169.081 100.553 169.303 87.9771 169.686 85.2266Z" fill="#FAFAFA"/>
<path d="M170.402 64.2577C170.026 64.9155 169.791 65.6432 169.712 66.3953C169.632 67.1474 169.71 67.9077 169.94 68.6286C170.17 69.3496 170.547 70.0157 171.047 70.5852C171.548 71.1548 172.162 71.6156 172.85 71.9388L171.844 72.6286L181.894 73.513L181.765 75.9186C182.214 75.7973 182.598 75.5091 182.838 75.1138C183.198 74.4726 184.173 70.537 184.173 70.537C185.117 68.3878 185.58 66.1768 184.903 65.4428C184.638 65.1517 184.288 64.9507 183.902 64.8679L185.237 64.2002C185.178 64.0686 185.094 63.9502 184.988 63.8519C184.883 63.7537 184.758 63.6777 184.622 63.6285C184.486 63.5794 184.342 63.5581 184.197 63.5659C184.053 63.5737 183.911 63.6104 183.781 63.6739C183.668 63.7313 183.566 63.8075 183.479 63.8995C183.513 63.7541 183.535 63.6062 183.545 63.4573C183.59 63.0187 183.485 62.5779 183.247 62.2058C183.055 61.9558 182.815 61.7468 182.54 61.5912C181.409 60.8881 180.069 60.6271 178.81 60.1849C178.097 59.9329 177.408 59.6233 176.704 59.3403C176.247 59.1133 175.735 59.0212 175.227 59.075C174.97 59.1173 174.742 59.2589 174.591 59.4687C174.44 59.6785 174.379 59.9393 174.421 60.1938C174.145 59.9445 173.801 59.7817 173.432 59.7258C173.063 59.67 172.685 59.7235 172.347 59.8798C172.028 60.0114 171.758 60.2392 171.576 60.5312C171.394 60.8231 171.308 61.1645 171.332 61.5071C170.876 61.3945 170.395 61.4413 169.97 61.6398C169.76 61.7404 169.584 61.901 169.466 62.101C169.348 62.301 169.293 62.5315 169.307 62.763C169.482 63.3743 169.87 63.904 170.402 64.2577Z" fill="#37474F"/>
<path d="M177.479 65.6641C178.405 65.5536 179.322 65.4032 180.239 65.2617C180.279 65.2498 180.322 65.2464 180.364 65.2517C180.406 65.257 180.447 65.271 180.483 65.2927C180.523 65.3291 180.549 65.3772 180.559 65.4298C181.164 67.1986 181.147 69.0779 181.627 70.86C181.672 71.0236 181.774 71.3022 181.97 71.3022C182.326 71.342 182.571 71.028 182.722 70.7539L183.065 70.1392C183.136 70.0244 183.221 69.9189 183.319 69.8252C183.764 69.4317 185.023 68.9408 185.615 70.294C186.207 71.6471 184.939 73.469 183.915 73.752C182.135 74.2428 181.917 73.1152 181.917 73.1152L181.578 79.3945C180.012 81.0218 174.862 80.4557 175.881 79.0407L175.948 77.1304C175.163 77.2303 174.369 77.2451 173.58 77.1746C172.298 76.9358 171.524 75.9011 171.177 74.5214C170.62 72.275 170.682 69.529 171.119 66.1196C171.172 65.7155 171.278 65.3201 171.435 64.9434C173.237 65.9427 175.432 65.9074 177.479 65.6641Z" fill="#FFA8A7"/>
<path d="M175.948 77.1519C175.948 77.1519 178.846 76.6699 179.869 76.1703C180.471 75.8818 180.97 75.4194 181.302 74.8438C181.131 75.4232 180.845 75.9629 180.461 76.4312C179.696 77.342 175.926 77.908 175.926 77.908L175.948 77.1519Z" fill="#F28F8F"/>
<path d="M176.362 70.0694C176.363 70.1901 176.4 70.3079 176.468 70.4081C176.536 70.5083 176.631 70.5864 176.744 70.6328C176.856 70.6792 176.979 70.6917 177.099 70.6689C177.218 70.646 177.328 70.5888 177.415 70.5044C177.501 70.4199 177.561 70.3119 177.587 70.1939C177.612 70.0758 177.602 69.953 177.558 69.8405C177.514 69.7281 177.437 69.6311 177.338 69.5616C177.238 69.4921 177.121 69.4532 176.999 69.4497C176.832 69.4485 176.672 69.513 176.552 69.6291C176.433 69.7452 176.365 69.9035 176.362 70.0694Z" fill="#263238"/>
<path d="M177.221 67.5116L178.516 68.0643C178.587 67.8891 178.587 67.6935 178.517 67.5181C178.446 67.3427 178.311 67.201 178.138 67.1225C178.052 67.0861 177.96 67.0674 177.867 67.0674C177.773 67.0674 177.681 67.0861 177.595 67.1225C177.51 67.1588 177.432 67.2121 177.368 67.2789C177.304 67.3458 177.253 67.425 177.221 67.5116Z" fill="#263238"/>
<path d="M177.11 73.4067L175.08 74.0921C175.119 74.2267 175.185 74.3521 175.274 74.4609C175.363 74.5696 175.473 74.6595 175.598 74.7251C175.722 74.7907 175.859 74.8307 175.999 74.8427C176.14 74.8547 176.281 74.8385 176.415 74.7951C176.69 74.6985 176.916 74.4996 177.045 74.2405C177.175 73.9814 177.198 73.6824 177.11 73.4067Z" fill="#B16668"/>
<path d="M176.42 74.7874C176.593 74.7279 176.748 74.6262 176.871 74.4916C176.994 74.3571 177.081 74.1939 177.124 74.0172C176.988 73.9532 176.839 73.9241 176.689 73.9326C176.54 73.9411 176.395 73.987 176.268 74.066C176.141 74.145 176.036 74.2545 175.963 74.3845C175.89 74.5145 175.851 74.6607 175.85 74.8095C176.038 74.8575 176.236 74.8498 176.42 74.7874Z" fill="#F28F8F"/>
<path d="M171.217 68.03L172.508 67.5391C172.478 67.4538 172.43 67.3755 172.368 67.3092C172.306 67.2428 172.231 67.1898 172.148 67.1533C172.064 67.1169 171.974 67.0978 171.883 67.0972C171.792 67.0966 171.702 67.1145 171.618 67.1499C171.451 67.218 171.316 67.3471 171.242 67.5108C171.167 67.6744 171.158 67.8602 171.217 68.03Z" fill="#263238"/>
<path d="M171.671 70.0686C171.672 70.1902 171.709 70.3088 171.777 70.4096C171.845 70.5105 171.942 70.5892 172.055 70.6358C172.168 70.6825 172.292 70.6952 172.412 70.6722C172.533 70.6492 172.643 70.5916 172.731 70.5065C172.818 70.4215 172.879 70.3128 172.904 70.1939C172.93 70.0751 172.92 69.9514 172.875 69.8382C172.831 69.725 172.753 69.6274 172.653 69.5574C172.553 69.4875 172.435 69.4483 172.312 69.4448C172.144 69.4437 171.982 69.5086 171.862 69.6254C171.742 69.7423 171.673 69.9016 171.671 70.0686Z" fill="#263238"/>
<path d="M174.698 69.8779L174.604 73.2743L172.699 72.726L174.48 69.8514C174.553 69.8444 174.628 69.8535 174.698 69.8779Z" fill="#F28F8F"/>
<path d="M169.004 88.68C169.151 85.1646 169.449 82.0471 170.749 80.4066C172.049 78.766 172.774 78.4432 175.899 78.4918V78.7041C175.721 78.7151 175.548 78.7667 175.394 78.8549C175.239 78.9431 175.107 79.0655 175.009 79.2126C173.928 80.8428 173.116 82.6342 172.605 84.519C171.715 87.9372 171.541 95.5739 171.492 99.6819C171.443 103.79 171.492 107.106 171.492 107.106C171.492 107.106 169.4 106.62 168.755 105.581C168.755 105.581 168.853 92.1999 169.004 88.68Z" fill="#00B561"/>
<path opacity="0.35" d="M169.004 88.68C169.151 85.1646 169.449 82.0471 170.749 80.4066C172.049 78.766 172.774 78.4432 175.899 78.4918V78.7041C175.721 78.7151 175.548 78.7667 175.394 78.8549C175.239 78.9431 175.107 79.0655 175.009 79.2126C173.928 80.8428 173.116 82.6342 172.605 84.519C171.715 87.9372 171.541 95.5739 171.492 99.6819C171.443 103.79 171.492 107.106 171.492 107.106C171.492 107.106 169.4 106.62 168.755 105.581C168.755 105.581 168.853 92.1999 169.004 88.68Z" fill="black"/>
<path d="M179.807 83.0824C180.252 81.2075 181.173 79.987 181.587 79.0186L185.495 79.5669C186.933 80.2258 188.802 81.7779 188.664 83.3699L187.64 94.8938L187.925 105.807C185.7 109.252 179.023 108.615 179.023 108.615C179.023 108.615 178.832 103.707 179.045 94.226C179.179 88.9107 179.241 85.4703 179.807 83.0824Z" fill="#00B561"/>
<path opacity="0.35" d="M179.807 83.0824C180.252 81.2075 181.173 79.987 181.587 79.0186L185.495 79.5669C186.933 80.2258 188.802 81.7779 188.664 83.3699L187.64 94.8938L187.925 105.807C185.7 109.252 179.023 108.615 179.023 108.615C179.023 108.615 178.832 103.707 179.045 94.226C179.179 88.9107 179.241 85.4703 179.807 83.0824Z" fill="black"/>
<path d="M179.625 84.0065C179.883 82.8037 180.021 80.5662 180.235 80.1151C180.448 79.6641 181.61 78.7885 181.655 78.165V77.7715C182.022 77.8421 182.362 78.0154 182.634 78.2712C182.999 78.594 184.076 79.3413 184.076 79.3413C183.969 80.0837 183.692 80.7918 183.266 81.4108C182.625 82.3261 181.735 82.9231 181.597 82.6976C181.459 82.472 181.481 82.1271 181.245 81.5965C180.951 80.9288 180.88 80.6458 180.569 81.3046C180.337 81.8309 179.625 84.0065 179.625 84.0065Z" fill="#37474F"/>
<path d="M172.961 83.3473C172.645 84.3643 173.477 79.8364 174.02 79.0405C174.564 78.2446 175.943 77.9307 175.943 77.9307L175.885 78.9079C175.522 78.9934 175.205 79.2112 174.995 79.5181C174.152 80.7007 173.468 81.988 172.961 83.3473Z" fill="#37474F"/>
<path d="M179.482 84.958C182.472 85.2617 185.444 85.7235 188.384 86.3415L188.353 86.6686C185.405 86.0472 182.426 85.5838 179.429 85.2807C179.46 85.1834 179.469 85.0729 179.482 84.958Z" fill="#00B561"/>
<path d="M169.281 84.8952C170.255 84.7802 171.364 84.6786 172.579 84.6211L172.499 84.9526C171.297 85.0101 170.202 85.1118 169.245 85.2267C169.254 85.1162 169.267 85.0013 169.281 84.8952Z" fill="#00B561"/>
<path d="M195.955 95.1015C191.78 84.5683 190.868 81.2916 187.921 80.0667C187.145 79.7702 186.326 79.5971 185.496 79.5537C184.77 80.8803 183.715 85.9745 187.196 89.5209C187.196 89.5209 189.724 95.7117 190.997 98.6391C190.957 101.584 191.171 104.038 190.267 108.018C190.083 108.556 189.731 109.021 189.261 109.345C188.202 109.924 188.024 110.579 187.24 111.326C186.631 111.91 186.096 112.047 186.185 112.241C186.323 112.456 186.53 112.619 186.772 112.704C187.014 112.789 187.277 112.791 187.521 112.71C188.094 112.477 188.644 112.191 189.163 111.856C189.265 111.976 188.273 113.546 187.245 114.691C185.718 116.376 185.349 117.592 188.398 117.711C190.307 117.786 192.368 116.23 193.663 112.449C193.917 111.702 194.184 110.623 194.455 109.57C194.651 109.128 196.049 102.026 196.343 99.8419C196.734 97.1445 196.636 96.8128 195.955 95.1015Z" fill="#FFA8A7"/>
<path d="M184.975 79.5669C186.245 79.3871 187.541 79.6132 188.674 80.2125C190.325 81.2031 190.899 82.0698 192.889 86.6776C194.878 91.2853 195.27 92.1741 195.27 92.1741C195.27 92.1741 194.38 94.8008 189.065 95.1015L186.684 89.7066C186.684 89.7066 184.708 87.2613 184.525 84.241C184.343 81.2208 184.975 79.5669 184.975 79.5669Z" fill="#00B561"/>
<path opacity="0.45" d="M184.975 79.5669C186.245 79.3871 187.541 79.6132 188.674 80.2125C190.325 81.2031 190.899 82.0698 192.889 86.6776C194.878 91.2853 195.27 92.1741 195.27 92.1741C195.27 92.1741 194.38 94.8008 189.065 95.1015L186.684 89.7066C186.684 89.7066 184.708 87.2613 184.525 84.241C184.343 81.2208 184.975 79.5669 184.975 79.5669Z" fill="black"/>
</svg>
