<svg width="246" height="171" viewBox="0 0 246 171" fill="none" xmlns="http://www.w3.org/2000/svg">
<path d="M246 153.031H0V153.147H246V153.031Z" fill="#E6E6E6"/>
<path d="M206.536 158.642H189.611V158.759H206.536V158.642Z" fill="#E6E6E6"/>
<path d="M130.818 158.856H125.76V158.973H130.818V158.856Z" fill="#E6E6E6"/>
<path d="M184.47 156.987H174.945V157.103H184.47V156.987Z" fill="#E6E6E6"/>
<path d="M48.2752 157.261H35.6406V157.378H48.2752V157.261Z" fill="#E6E6E6"/>
<path d="M35.1482 158.912H26.5186V159.028H35.1482V158.912Z" fill="#E6E6E6"/>
<path d="M112.235 156.085H66.1445V156.201H112.235V156.085Z" fill="#E6E6E6"/>
<path d="M116.604 132.295H21.6042C20.86 132.294 20.1467 132.014 19.6209 131.516C19.0951 131.018 18.7998 130.344 18.7998 129.64V3.44592C18.8063 2.74669 19.1044 2.07811 19.6295 1.5854C20.1546 1.09269 20.8642 0.815651 21.6042 0.814453H116.604C117.35 0.814453 118.064 1.09415 118.591 1.592C119.118 2.08986 119.414 2.76509 119.414 3.46917V129.64C119.414 130.344 119.118 131.02 118.591 131.517C118.064 132.015 117.35 132.295 116.604 132.295ZM21.6042 0.907438C20.8926 0.90867 20.2106 1.17666 19.7079 1.65258C19.2052 2.12851 18.9228 2.77348 18.9228 3.44592V129.64C18.9228 130.313 19.2052 130.958 19.7079 131.434C20.2106 131.91 20.8926 132.178 21.6042 132.179H116.604C117.317 132.178 117.999 131.91 118.503 131.434C119.006 130.958 119.289 130.313 119.291 129.64V3.44592C119.289 2.77305 119.006 2.12809 118.503 1.6523C117.999 1.17651 117.317 0.908667 116.604 0.907438H21.6042Z" fill="#E6E6E6"/>
<path d="M223.028 132.295H128.023C127.279 132.294 126.565 132.014 126.038 131.516C125.512 131.018 125.215 130.344 125.214 129.64V3.44592C125.222 2.74627 125.521 2.07769 126.047 1.58511C126.573 1.09253 127.283 0.815638 128.023 0.814453H223.028C223.768 0.816873 224.476 1.09445 225 1.58703C225.524 2.07961 225.821 2.74749 225.828 3.44592V129.64C225.828 130.343 225.533 131.017 225.009 131.514C224.484 132.012 223.772 132.293 223.028 132.295ZM128.023 0.907438C127.311 0.908667 126.629 1.17651 126.125 1.6523C125.622 2.12809 125.338 2.77305 125.337 3.44592V129.64C125.338 130.313 125.622 130.958 126.125 131.434C126.629 131.91 127.311 132.178 128.023 132.179H223.028C223.74 132.178 224.423 131.91 224.926 131.434C225.43 130.958 225.713 130.313 225.715 129.64V3.44592C225.713 2.77305 225.43 2.12809 224.926 1.6523C224.423 1.17651 223.74 0.908667 223.028 0.907438H128.023Z" fill="#E6E6E6"/>
<path d="M141.347 95.5103L142.444 94.9663L143.536 95.5103V153.031H141.347V95.5103Z" fill="#F0F0F0"/>
<path d="M153.991 95.5103L155.088 94.9663L156.181 95.5103V153.031H153.991V95.5103Z" fill="#F0F0F0"/>
<path d="M166.636 95.5103L167.733 94.9663L168.825 95.5103V153.031H166.636V95.5103Z" fill="#F0F0F0"/>
<path d="M179.28 95.5103L180.377 94.9663L181.47 95.5103V153.031H179.28V95.5103Z" fill="#F0F0F0"/>
<path d="M191.929 95.5103L193.021 94.9663L194.118 95.5103V153.031H191.929V95.5103Z" fill="#F0F0F0"/>
<path d="M204.573 95.5103L205.665 94.9663L206.763 95.5103V153.031H204.573V95.5103Z" fill="#F0F0F0"/>
<path d="M217.218 95.5103L218.31 94.9663L219.407 95.5103V153.031H217.218V95.5103Z" fill="#F0F0F0"/>
<path d="M142.444 104.739L218.311 104.739V102.879L142.444 102.879V104.739Z" fill="#F0F0F0"/>
<path d="M142.444 143.792H218.311V141.933H142.444V143.792Z" fill="#F0F0F0"/>
<path d="M114.331 20.6946H60.3291V133.56H114.331V20.6946Z" fill="#EBEBEB"/>
<path d="M114.336 20.6946H62.8926V133.56H114.336V20.6946Z" fill="#FAFAFA"/>
<path d="M111.63 130.998V23.2563L65.6033 23.2563V130.998H111.63Z" fill="#FAFAFA"/>
<path d="M107.787 41.7741V30.0068L69.4357 30.0068V41.7741H107.787Z" fill="#EBEBEB"/>
<path d="M107.787 124.298V98.5603H69.4357V124.298H107.787Z" fill="#EBEBEB"/>
<path d="M69.4354 95.2405H86.7637V45.0054H69.4354V95.2405Z" fill="#EBEBEB"/>
<path d="M90.4589 95.2405H107.787V45.0054H90.4589V95.2405Z" fill="#EBEBEB"/>
<path d="M111.625 130.998V23.2563H110.921V130.998H111.625Z" fill="#F0F0F0"/>
<path d="M107.787 72.4591C107.787 72.8904 107.651 73.312 107.398 73.6705C107.144 74.0291 106.784 74.3086 106.362 74.4737C105.941 74.6387 105.477 74.6819 105.029 74.5977C104.582 74.5136 104.17 74.3059 103.848 74.001C103.525 73.696 103.305 73.3075 103.216 72.8845C103.127 72.4615 103.173 72.0231 103.348 71.6246C103.522 71.2262 103.818 70.8857 104.197 70.6461C104.577 70.4064 105.023 70.2786 105.479 70.2786C106.091 70.2798 106.677 70.5099 107.11 70.9186C107.542 71.3273 107.786 71.8812 107.787 72.4591Z" fill="#E0E0E0"/>
<path d="M108.692 72.0084C108.693 72.441 108.558 72.8641 108.305 73.2242C108.051 73.5842 107.69 73.865 107.267 74.031C106.844 74.197 106.379 74.2406 105.93 74.1565C105.481 74.0723 105.068 73.8641 104.745 73.5582C104.421 73.2523 104.201 72.8625 104.112 72.4382C104.023 72.0139 104.069 71.5742 104.244 71.1747C104.42 70.7752 104.717 70.434 105.098 70.1942C105.479 69.9545 105.927 69.827 106.385 69.8279C106.997 69.8279 107.584 70.0576 108.016 70.4665C108.449 70.8755 108.692 71.4301 108.692 72.0084Z" fill="#FAFAFA"/>
<path d="M70.6316 133.56H60.3291V143.295H70.6316V133.56Z" fill="#EBEBEB"/>
<path d="M70.6317 143.291H124.658V133.555H70.6317V143.291Z" fill="#FAFAFA"/>
<path d="M80.9341 143.295H60.3291V153.031H80.9341V143.295Z" fill="#EBEBEB"/>
<path d="M80.9344 153.031H134.961V143.295H80.9344V153.031Z" fill="#FAFAFA"/>
<path d="M155.102 20.6946H130.817V80.9301H155.102V20.6946Z" fill="#E0E0E0"/>
<path d="M156.584 20.6946H132.299V80.9301H156.584V20.6946Z" fill="#F5F5F5"/>
<path d="M153.922 78.0987V23.5166H134.965V78.0987H153.922Z" fill="white"/>
<path d="M153.922 78.1036V23.5215H152.8V78.1036H153.922Z" fill="#E0E0E0"/>
<path d="M155.481 61.1384H133.4V64.9321H155.481V61.1384Z" fill="#F5F5F5"/>
<path d="M187.846 20.6946H163.561V80.9301H187.846V20.6946Z" fill="#E0E0E0"/>
<path d="M189.326 20.6946H165.041V80.9301H189.326V20.6946Z" fill="#F5F5F5"/>
<path d="M186.665 78.0988V23.5166H167.708V78.0988H186.665Z" fill="white"/>
<path d="M186.665 78.1036V23.5215H185.543V78.1036H186.665Z" fill="#E0E0E0"/>
<path d="M188.225 61.1384H166.144V64.9321H188.225V61.1384Z" fill="#F5F5F5"/>
<path d="M220.583 20.6946H196.298V80.9301H220.583V20.6946Z" fill="#E0E0E0"/>
<path d="M222.069 20.6946H197.784V80.9301H222.069V20.6946Z" fill="#F5F5F5"/>
<path d="M219.407 78.1037V23.5215H200.45V78.1037H219.407Z" fill="white"/>
<path d="M219.402 78.1036V23.5215H218.281V78.1036H219.402Z" fill="#E0E0E0"/>
<path d="M220.967 61.1384H198.886V64.9321H220.967V61.1384Z" fill="#F5F5F5"/>
<path d="M50.8037 20.6946H26.5186V80.9301H50.8037V20.6946Z" fill="#E0E0E0"/>
<path d="M52.29 20.6946H28.0049V80.9301H52.29V20.6946Z" fill="#F5F5F5"/>
<path d="M49.6279 78.1036V23.5215H30.6711L30.6711 78.1036H49.6279Z" fill="white"/>
<path d="M49.623 78.1036V23.5215H48.5013V78.1036H49.623Z" fill="#E0E0E0"/>
<path d="M51.1874 61.1384H29.1064V64.9321H51.1874V61.1384Z" fill="#F5F5F5"/>
<path d="M60.334 9.88037V15.9244H64.452L60.334 9.88037Z" fill="#EBEBEB"/>
<path d="M114.336 9.88037H60.334L64.452 15.9244H118.454L114.336 9.88037Z" fill="#FAFAFA"/>
<path d="M125.396 160.311L166.37 161.994L160.461 35.5024L119.482 33.8193L125.396 160.311Z" fill="#009955"/>
<path opacity="0.6" d="M125.396 160.311L166.37 161.994L160.461 35.5024L119.482 33.8193L125.396 160.311Z" fill="#D4D4D4" fill-opacity="0.4"/>
<path d="M84.8308 167.411L125.396 160.311L119.482 33.8193L78.917 40.9187L84.8308 167.411Z" fill="#009955"/>
<path d="M43.8523 165.728L84.831 167.411L78.9172 40.9189L37.9385 39.2358L43.8523 165.728Z" fill="#009955"/>
<path opacity="0.6" d="M43.8523 165.728L84.831 167.411L78.9172 40.9189L37.9385 39.2358L43.8523 165.728Z" fill="#73F3BA" fill-opacity="0.4"/>
<path d="M57.1136 37.6865L57.0938 38.1184L65.2729 38.4545L65.2928 38.0226L57.1136 37.6865Z" fill="#009955"/>
<path d="M38.6719 94.9628L38.2148 94.9819L38.3538 97.9545L38.8109 97.9355L38.6719 94.9628Z" fill="#009955"/>
<path d="M38.9229 100.128L38.4658 100.147L38.7786 106.836L39.2357 106.816L38.9229 100.128Z" fill="#009955"/>
<path opacity="0.6" d="M61.5594 81.5718C67.6162 81.5718 72.5261 76.932 72.5261 71.2086C72.5261 65.4852 67.6162 60.8455 61.5594 60.8455C55.5027 60.8455 50.5928 65.4852 50.5928 71.2086C50.5928 76.932 55.5027 81.5718 61.5594 81.5718Z" fill="#009955"/>
<path opacity="0.2" d="M116.846 122.489C119.696 119.517 119.456 114.924 116.311 112.231C113.166 109.538 108.306 109.764 105.456 112.736C102.606 115.708 102.846 120.301 105.991 122.994C109.136 125.687 113.996 125.461 116.846 122.489Z" fill="#042315"/>
<path d="M163.093 121.434L137.14 108.677L147.108 80.4744L158.08 88.9593L161.878 84.575L122.296 53.9644L95.3938 37.9385L92.1958 42.7272L107.517 51.8537L78.8036 77.1223L41.4805 103.214L45.0426 107.747L56.2159 99.9361L69.5884 164.733L75.4678 163.649L61.5541 96.2214L70.8332 89.7125L80.0484 95.7565L121.672 107.412L129.75 111.392L121.18 128.115L109.224 159.056L114.852 160.999L126.715 130.314L135.079 114.009L160.333 126.441L163.093 121.434ZM82.656 90.5958L75.9057 86.1744L82.4788 81.5809L82.6117 81.4833L112.737 54.9826L118.764 58.5765L142.124 76.6388L131.743 106.013L123.93 102.168L82.656 90.5958Z" fill="#009955"/>
<path opacity="0.1" d="M61.5594 81.5718C67.6162 81.5718 72.5261 76.932 72.5261 71.2086C72.5261 65.4852 67.6162 60.8455 61.5594 60.8455C55.5027 60.8455 50.5928 65.4852 50.5928 71.2086C50.5928 76.932 55.5027 81.5718 61.5594 81.5718Z" fill="black"/>
<path opacity="0.7" d="M163.093 121.434L137.14 108.677L147.108 80.4744L158.08 88.9593L161.878 84.575L122.296 53.9644L95.3938 37.9385L92.1958 42.7272L107.517 51.8537L78.8036 77.1223L41.4805 103.214L45.0426 107.747L56.2159 99.9361L69.5884 164.733L75.4678 163.649L61.5541 96.2214L70.8332 89.7125L80.0484 95.7565L121.672 107.412L129.75 111.392L121.18 128.115L109.224 159.056L114.852 160.999L126.715 130.314L135.079 114.009L160.333 126.441L163.093 121.434ZM82.656 90.5958L75.9057 86.1744L82.4788 81.5809L82.6117 81.4833L112.737 54.9826L118.764 58.5765L142.124 76.6388L131.743 106.013L123.93 102.168L82.656 90.5958Z" fill="#CCCCCC"/>
<path d="M161.15 35.6838L119.423 33.9729L78.8531 41.0676L37.1709 39.3567L43.1585 167.495L84.89 169.21L125.46 162.111L167.147 163.826L161.15 35.6838ZM125.726 156.462L125.047 156.434L124.378 156.555L84.4816 163.529L48.9051 162.064L43.4439 45.2752L78.5924 46.7165L79.2763 46.7444L79.9454 46.6281L119.842 39.6543L155.408 41.1141L160.884 157.898L125.726 156.462Z" fill="#009955"/>
<path opacity="0.7" d="M161.15 35.6838L119.423 33.9729L78.8531 41.0676L37.1709 39.3567L43.1585 167.495L84.89 169.21L125.46 162.111L167.147 163.826L161.15 35.6838ZM125.726 156.462L125.047 156.434L124.378 156.555L84.4816 163.529L48.9051 162.064L43.4439 45.2752L78.5924 46.7165L79.2763 46.7444L79.9454 46.6281L119.842 39.6543L155.408 41.1141L160.884 157.898L125.726 156.462Z" fill="black"/>
<path opacity="0.7" d="M57.1136 37.6865L57.0938 38.1184L65.2729 38.4545L65.2928 38.0226L57.1136 37.6865Z" fill="black"/>
<path opacity="0.7" d="M38.6719 94.9628L38.2148 94.9819L38.3538 97.9545L38.8109 97.9355L38.6719 94.9628Z" fill="black"/>
<path opacity="0.7" d="M38.9229 100.128L38.4658 100.147L38.7786 106.836L39.2357 106.816L38.9229 100.128Z" fill="black"/>
<path d="M182.311 61.4127C178.641 58.4724 173.955 56.9102 169.146 57.0236C164.336 57.137 159.738 58.9179 156.228 62.0274C152.719 65.1369 150.541 69.3576 150.112 73.8859C149.682 78.4142 151.03 82.9336 153.898 86.5836L153.632 93.432L160.737 92.0372C165.02 94.1052 169.958 94.6128 174.612 93.4634C179.265 92.314 183.309 89.5878 185.974 85.8038C188.638 82.0198 189.737 77.4421 189.062 72.9419C188.387 68.4418 185.984 64.3334 182.311 61.3987V61.4127Z" fill="#FF1010"/>
<path d="M170.886 89.5022C179.034 88.853 185.081 82.0856 184.394 74.3867C183.707 66.6878 176.546 60.9729 168.398 61.6221C160.251 62.2713 154.203 69.0388 154.89 76.7377C155.577 84.4365 162.739 90.1514 170.886 89.5022Z" fill="#FF0010"/>
<path opacity="0.3" d="M170.886 89.5022C179.034 88.853 185.081 82.0856 184.394 74.3867C183.707 66.6878 176.546 60.9729 168.398 61.6221C160.251 62.2713 154.203 69.0388 154.89 76.7377C155.577 84.4365 162.739 90.1514 170.886 89.5022Z" fill="black"/>
<path d="M178.094 166.323H174.483L174.124 158.415H177.735L178.094 166.323Z" fill="#E4897B"/>
<path d="M196.658 63.2817C196.972 63.8675 197.233 64.3883 197.484 64.9462C197.735 65.5041 197.976 66.048 198.227 66.6013C198.719 67.7125 199.132 68.8422 199.516 69.9906C199.9 71.139 200.259 72.3152 200.535 73.5055C200.687 74.0959 200.795 74.7096 200.923 75.3187C201.051 75.9277 201.125 76.5461 201.179 77.1784L201.228 77.6433V77.7642V77.9408C201.243 78.1188 201.243 78.2975 201.228 78.4755C201.17 79.1387 200.939 79.7778 200.554 80.3352C200.005 81.0952 199.271 81.7201 198.414 82.1577C197.177 82.7932 195.852 83.2626 194.478 83.5525C191.989 84.1042 189.443 84.3926 186.886 84.4126L186.542 81.8695C188.805 81.3125 191.034 80.6389 193.218 79.8517C194.18 79.5033 195.095 79.0492 195.944 78.4987C196.274 78.2709 196.495 77.9966 196.436 77.9873C196.373 78.0579 196.335 78.1459 196.328 78.2384C196.326 78.2725 196.326 78.3066 196.328 78.3407C196.328 78.3407 196.328 78.3686 196.328 78.3407V78.2942V78.1965L196.249 77.8153C195.808 75.7115 195.186 73.645 194.389 71.6364C193.996 70.6043 193.568 69.5768 193.13 68.554C192.692 67.5312 192.21 66.4944 191.767 65.5552L196.658 63.2817Z" fill="#E4897B"/>
<path d="M196.018 60.7896C199.157 62.1844 200.938 71.5293 200.938 71.5293L193.278 74.4165C192.16 71.8287 191.255 69.1629 190.572 66.4431C189.519 62.1379 192.815 59.3484 196.018 60.7896Z" fill="#009955"/>
<path opacity="0.7" d="M196.018 60.7896C199.157 62.1844 200.938 71.5293 200.938 71.5293L193.278 74.4165C192.16 71.8287 191.255 69.1629 190.572 66.4431C189.519 62.1379 192.815 59.3484 196.018 60.7896Z" fill="white"/>
<path d="M205.234 166.323H201.617L199.128 158.415H202.744L205.234 166.323Z" fill="#E4897B"/>
<path d="M174.124 158.415L174.306 162.492H177.922L177.74 158.415H174.124Z" fill="#CE6F64"/>
<path d="M202.744 158.415H199.128L200.412 162.492H204.028L202.744 158.415Z" fill="#CE6F64"/>
<path d="M181.76 90.2473C181.76 90.2473 178.764 114.256 181.012 124.019C183.472 134.713 198.985 161.706 198.985 161.706H205.607C205.607 161.706 193.263 135.591 191.856 124.977C190.331 113.47 194.237 99.5737 194.237 90.2427L181.76 90.2473Z" fill="#009955"/>
<path opacity="0.6" d="M181.76 90.2473C181.76 90.2473 178.764 114.256 181.012 124.019C183.472 134.713 198.985 161.706 198.985 161.706H205.607C205.607 161.706 193.263 135.591 191.856 124.977C190.331 113.47 194.237 99.5737 194.237 90.2427L181.76 90.2473Z" fill="black"/>
<path d="M187.26 81.7112L184.736 80.8557L184.815 85.2214C184.815 85.2214 186.857 85.3469 187.988 84.0916L187.26 81.7112Z" fill="#E4897B"/>
<path d="M181.549 80.6978L181.795 84.3009L184.816 85.2168L184.737 80.8558L181.549 80.6978Z" fill="#E4897B"/>
<path d="M177.677 50.5613C177.736 50.831 177.633 51.0774 177.446 51.1146C177.259 51.1518 177.062 50.9611 177.003 50.6915C176.944 50.4218 177.047 50.1708 177.234 50.1382C177.421 50.1057 177.613 50.2777 177.677 50.5613Z" fill="#263238"/>
<path d="M177.657 51.0588C177.491 51.9497 177.196 52.8148 176.781 53.6299C177.003 53.7273 177.245 53.7777 177.49 53.7777C177.734 53.7777 177.976 53.7273 178.198 53.6299L177.657 51.0588Z" fill="#DE5753"/>
<path d="M176.938 48.8922C176.91 48.8915 176.882 48.8844 176.857 48.8714C176.832 48.8585 176.811 48.8401 176.795 48.8178C176.783 48.8 176.774 48.7799 176.77 48.7588C176.766 48.7377 176.767 48.7161 176.772 48.6953C176.777 48.6744 176.786 48.6547 176.8 48.6374C176.813 48.6201 176.83 48.6056 176.849 48.5946C177.087 48.4699 177.352 48.401 177.624 48.3937C177.895 48.3864 178.165 48.441 178.409 48.5528C178.45 48.571 178.482 48.6036 178.497 48.6436C178.513 48.6836 178.511 48.7278 178.493 48.7667C178.484 48.7862 178.471 48.8038 178.454 48.8184C178.438 48.833 178.419 48.8444 178.397 48.8518C178.376 48.8591 178.354 48.8624 178.331 48.8614C178.309 48.8603 178.287 48.855 178.266 48.8457C178.074 48.7563 177.861 48.7118 177.646 48.7158C177.431 48.7199 177.221 48.7724 177.032 48.869C177.003 48.8838 176.971 48.8917 176.938 48.8922Z" fill="#263238"/>
<path d="M188.082 51.0264C187.561 53.523 187.044 58.1024 188.894 59.7715C188.894 59.7715 188.171 62.3053 183.261 62.3053C177.849 62.3053 180.678 59.7715 180.678 59.7715C183.63 59.102 183.551 57.0378 183.034 55.0944L188.082 51.0264Z" fill="#E4897B"/>
<path d="M179.61 60.2456L180.211 59.2274C180.211 59.2274 189.559 57.6142 189.819 59.4087C189.844 59.7876 189.803 60.1678 189.696 60.5338L179.61 60.2456Z" fill="#009955"/>
<path d="M200.102 166.499C199.948 166.518 199.791 166.508 199.642 166.469C199.492 166.43 199.352 166.363 199.231 166.272C199.187 166.217 199.163 166.15 199.163 166.081C199.163 166.012 199.187 165.945 199.231 165.891C199.258 165.843 199.296 165.801 199.341 165.768C199.387 165.735 199.44 165.712 199.496 165.7C200.028 165.579 201.022 166.23 201.066 166.258C201.08 166.266 201.091 166.279 201.098 166.293C201.104 166.308 201.106 166.324 201.103 166.339C201.1 166.355 201.092 166.369 201.08 166.38C201.068 166.391 201.053 166.399 201.036 166.402C200.729 166.465 200.416 166.497 200.102 166.499ZM199.649 165.849C199.613 165.844 199.577 165.844 199.541 165.849C199.508 165.855 199.477 165.868 199.45 165.886C199.423 165.905 199.4 165.928 199.383 165.956C199.305 166.09 199.354 166.146 199.383 166.165C199.536 166.355 200.274 166.36 200.815 166.276C200.464 166.058 200.065 165.917 199.649 165.863V165.849Z" fill="#009955"/>
<path d="M201.022 166.406C201.009 166.411 200.995 166.411 200.983 166.406C200.609 166.216 199.886 165.477 199.959 165.086C199.973 165.027 200.008 164.973 200.058 164.935C200.108 164.897 200.171 164.877 200.235 164.877C200.3 164.87 200.365 164.876 200.428 164.894C200.49 164.911 200.548 164.94 200.599 164.979C201.017 165.305 201.091 166.29 201.091 166.332C201.093 166.347 201.09 166.362 201.083 166.375C201.076 166.388 201.065 166.399 201.052 166.406C201.042 166.408 201.032 166.408 201.022 166.406ZM200.294 165.012H200.245C200.132 165.012 200.122 165.072 200.117 165.095C200.072 165.319 200.535 165.886 200.904 166.151C200.879 165.762 200.732 165.39 200.481 165.081C200.427 165.043 200.361 165.022 200.294 165.021V165.012Z" fill="#009955"/>
<path d="M173.032 166.5C172.565 166.5 172.117 166.439 171.969 166.239C171.931 166.188 171.91 166.126 171.91 166.063C171.91 165.999 171.931 165.938 171.969 165.886C171.999 165.84 172.038 165.799 172.085 165.767C172.131 165.735 172.184 165.712 172.24 165.7C172.845 165.542 174.105 166.225 174.159 166.253C174.175 166.261 174.187 166.273 174.195 166.288C174.203 166.303 174.206 166.32 174.203 166.337C174.2 166.353 174.192 166.368 174.18 166.38C174.167 166.392 174.151 166.399 174.134 166.402C173.77 166.464 173.402 166.497 173.032 166.5ZM172.456 165.835C172.402 165.83 172.348 165.83 172.294 165.835C172.259 165.842 172.225 165.856 172.195 165.876C172.166 165.896 172.141 165.922 172.122 165.951C172.063 166.049 172.087 166.1 172.122 166.128C172.289 166.351 173.204 166.356 173.878 166.263C173.438 166.035 172.955 165.89 172.456 165.835Z" fill="#009955"/>
<path d="M174.125 166.407H174.085C173.652 166.221 172.787 165.477 172.855 165.096C172.855 165.007 172.939 164.891 173.17 164.872C173.258 164.861 173.348 164.867 173.432 164.891C173.517 164.915 173.596 164.956 173.662 165.012C174.12 165.365 174.218 166.286 174.223 166.323C174.225 166.337 174.222 166.351 174.216 166.364C174.21 166.377 174.201 166.389 174.189 166.397C174.169 166.407 174.147 166.41 174.125 166.407ZM173.239 165.012H173.185C173.033 165.012 173.023 165.086 173.018 165.105C172.978 165.337 173.564 165.914 174.002 166.17C173.955 165.779 173.783 165.411 173.51 165.114C173.431 165.058 173.337 165.026 173.239 165.021V165.012Z" fill="#009955"/>
<path d="M200.289 166.327H205.165C205.245 166.325 205.325 166.347 205.392 166.39C205.458 166.434 205.508 166.497 205.534 166.569L206.385 169.698C206.399 169.781 206.393 169.865 206.367 169.945C206.341 170.025 206.295 170.098 206.234 170.158C206.173 170.219 206.098 170.265 206.015 170.293C205.932 170.321 205.843 170.331 205.755 170.321C204.058 170.321 203.231 170.219 201.096 170.219C199.782 170.219 197.071 170.331 195.261 170.331C193.45 170.331 193.204 168.871 193.947 168.736C197.283 168.141 198.537 167.341 199.605 166.546C199.801 166.404 200.042 166.327 200.289 166.327Z" fill="#263238"/>
<path d="M174.508 165.928H178.444C178.515 165.927 178.585 165.95 178.64 165.993C178.696 166.035 178.734 166.094 178.749 166.16L179.467 169.196C179.485 169.27 179.485 169.346 179.467 169.42C179.449 169.493 179.414 169.562 179.364 169.621C179.313 169.679 179.25 169.726 179.177 169.758C179.105 169.79 179.026 169.806 178.946 169.805C177.519 169.782 175.463 169.703 173.677 169.703C171.581 169.703 169.775 169.81 167.32 169.81C165.844 169.81 165.426 168.392 166.046 168.266C168.875 167.68 171.182 167.62 173.627 166.193C173.889 166.028 174.194 165.936 174.508 165.928Z" fill="#263238"/>
<path d="M179.31 65.7271C177.603 67.6193 175.866 69.4465 174.095 71.3062C172.324 73.1659 170.513 74.9326 168.658 76.7133L167.281 78.0244L167.069 78.2196C166.951 78.3298 166.826 78.4338 166.695 78.5311C166.454 78.7085 166.195 78.8641 165.923 78.9961C165.457 79.2273 164.961 79.3993 164.447 79.5075C162.893 79.8037 161.295 79.8226 159.734 79.5633C157.006 79.1434 154.348 78.3885 151.827 77.3177L152.634 74.8675C155.094 75.2506 157.58 75.4712 160.073 75.5277C160.642 75.5307 161.21 75.5043 161.775 75.4487C162.244 75.4089 162.705 75.3136 163.148 75.1651C163.276 75.1194 163.396 75.0585 163.507 74.9837C163.532 74.9605 163.547 74.9465 163.542 74.9373L163.591 74.8861L163.67 74.7978L164.939 73.403L170.036 67.8239C171.743 65.9642 173.48 64.1045 175.202 62.2913L179.31 65.7271Z" fill="#E4897B"/>
<path opacity="0.2" d="M192.835 66.9359L190.552 66.4709C191.235 69.1908 192.139 71.8566 193.258 74.4445L196.421 73.2496C195.772 71.6456 194.129 69.2884 192.835 66.9359Z" fill="#009955"/>
<path d="M173.431 68.512C173.327 70.3067 173.308 72.4965 173.431 75.1653L176.791 67.4194L173.431 68.512Z" fill="#009955"/>
<path d="M153.121 75.1095L150.371 72.6128L148.855 76.7972C148.855 76.7972 149.908 78.0339 152.452 77.3876L153.121 75.1095Z" fill="#E4897B"/>
<path d="M148.284 71.7478L147.217 75.4069L148.855 76.8064L150.37 72.6126L148.284 71.7478Z" fill="#E4897B"/>
<path d="M187.089 48.1625C187.581 51.5239 188.048 53.4626 186.636 55.5037C184.516 58.5722 179.861 57.8748 178.316 54.7226C176.929 51.8865 176.348 46.87 179.517 44.8987C180.21 44.4604 181.01 44.1969 181.842 44.1333C182.673 44.0696 183.507 44.2079 184.266 44.5349C185.025 44.862 185.683 45.367 186.177 46.0019C186.671 46.6368 186.985 47.3806 187.089 48.1625Z" fill="#E4897B"/>
<path d="M191.005 46.3771C191.054 44.2059 189.411 42.6251 188.574 42.8576C187.59 38.9662 180.555 40.9421 180.555 40.9421C180.555 40.9421 182.193 38.7337 179.015 38.7244C175.837 38.7151 176.727 41.1188 176.727 41.1188C176.727 41.1188 174.793 39.3288 173.534 41.2675C172.274 43.2063 175.01 43.8804 175.01 43.8804C175.01 43.8804 172.727 43.3829 172.427 46.205C172.127 49.0271 176.191 46.7769 176.191 46.7769C176.88 47.9764 177.691 48.2135 178.479 48.1159C178.895 48.071 179.315 48.1648 179.666 48.3812C180.018 48.5977 180.278 48.9231 180.402 49.3014C181.539 52.5559 183.713 55.4896 186.956 54.5923C189.549 53.867 190.931 49.5525 191.005 46.3771Z" fill="#263238"/>
<path d="M182.532 49.5989C182.641 50.436 182.456 51.2836 182.006 52.0119C181.401 52.9417 180.491 52.6116 180.146 51.6585C179.836 50.7984 179.777 49.2735 180.638 48.6505C181.499 48.0275 182.39 48.5947 182.532 49.5989Z" fill="#E4897B"/>
<path opacity="0.3" d="M183.571 98.4998C182.971 96.8353 181.854 98.5556 180.693 101.331C180.284 106.836 179.984 113.419 180.319 118.673C181.662 112.196 184.894 102.168 183.571 98.4998Z" fill="black"/>
<path d="M174.906 90.2473C174.906 90.2473 167.034 111.685 167.418 122.104C167.826 132.937 172.963 161.702 172.963 161.702H179.088C179.088 161.702 178.183 133.569 178.453 122.927C178.754 111.327 187.615 90.2473 187.615 90.2473H174.906Z" fill="#009955"/>
<path opacity="0.6" d="M174.906 90.2473C174.906 90.2473 167.034 111.685 167.418 122.104C167.826 132.937 172.963 161.702 172.963 161.702H179.088C179.088 161.702 178.183 133.569 178.453 122.927C178.754 111.327 187.615 90.2473 187.615 90.2473H174.906Z" fill="black"/>
<path d="M197.209 159.507C197.18 159.507 198.612 161.799 198.612 161.799H206.06L205.327 159.507H197.209Z" fill="#009955"/>
<path d="M171.782 159.4C171.752 159.4 172.126 161.799 172.126 161.799H179.58L179.782 159.656L171.782 159.4Z" fill="#009955"/>
<path d="M175.118 60.7245C175.118 60.7245 171.271 64.8344 174.907 90.2472H194.237C194.37 87.4576 192.505 73.7656 195.369 60.5525C193.231 60.1612 191.068 59.9034 188.894 59.7807C186.158 59.6271 183.414 59.6271 180.678 59.7807C178.802 59.9591 176.943 60.2746 175.118 60.7245Z" fill="#009955"/>
<path opacity="0.7" d="M175.118 60.7245C175.118 60.7245 171.271 64.8344 174.907 90.2472H194.237C194.37 87.4576 192.505 73.7656 195.369 60.5525C193.231 60.1612 191.068 59.9034 188.894 59.7807C186.158 59.6271 183.414 59.6271 180.678 59.7807C178.802 59.9591 176.943 60.2746 175.118 60.7245Z" fill="white"/>
<path d="M178.97 63.7467C178.926 67.0012 172.161 74.9653 172.161 74.9653L165.598 70.2742C165.598 70.2742 167.684 65.7924 171.01 62.961C175.246 59.3299 179.019 59.925 178.97 63.7467Z" fill="#009955"/>
<path opacity="0.7" d="M178.97 63.7467C178.926 67.0012 172.161 74.9653 172.161 74.9653L165.598 70.2742C165.598 70.2742 167.684 65.7924 171.01 62.961C175.246 59.3299 179.019 59.925 178.97 63.7467Z" fill="white"/>
</svg>
