<svg width="216" height="216" viewBox="0 0 216 216" fill="none" xmlns="http://www.w3.org/2000/svg">
<path d="M113.366 50.4661C113.844 50.2967 114.306 50.0857 114.748 49.8354C115.364 49.456 115.897 48.9576 116.318 48.3694C116.739 47.7811 117.038 47.1149 117.197 46.4096C117.3 45.9257 117.341 45.4307 117.318 44.9365C117.267 44.3913 117.159 43.8529 116.999 43.3294C116.701 42.2106 116.377 40.9923 116.027 39.692L113.668 30.8187L110.817 20.0619C110.562 19.0942 110.303 18.1136 110.035 17.1114C109.823 16.1098 109.331 15.1887 108.618 14.4546C107.881 13.705 106.936 13.1946 105.905 12.9901C104.834 12.8056 103.733 12.9054 102.712 13.2795L74.4121 20.7358C73.2014 21.0587 72.1459 21.8032 71.4356 22.8354C70.7312 23.8517 70.4168 25.0879 70.55 26.3173C70.6392 26.9301 70.775 27.5352 70.9561 28.1274C71.1159 28.7365 71.2714 29.3413 71.4313 29.9418C71.7481 31.1456 72.0605 32.3394 72.3687 33.523C73.6085 38.275 74.8009 42.824 75.9413 47.1786C76.5173 49.3558 77.0703 51.4755 77.6002 53.5376C77.7792 54.5496 78.215 55.4986 78.866 56.2938C79.5083 57.0478 80.3518 57.6037 81.2981 57.8965C83.1903 58.5618 85.0695 57.6589 86.8623 57.2701L92.0463 55.9266L107.646 51.9003L111.892 50.8246L112.998 50.5568C113.249 50.4963 113.378 50.479 113.378 50.479C113.378 50.479 113.257 50.5266 113.011 50.5957L111.914 50.9067L107.685 52.0558L92.1327 56.2117L86.9487 57.5811L84.2012 58.3026C83.1922 58.5587 82.1318 58.5277 81.1395 58.2132C80.1471 57.8987 79.2625 57.3132 78.5852 56.5227C77.8942 55.6895 77.4286 54.6929 77.233 53.6283C76.6887 51.572 76.13 49.4538 75.5569 47.2736C74.4121 42.9234 73.2068 38.3614 71.9626 33.6267C71.6516 32.443 71.3377 31.2493 71.0209 30.0454C70.8596 29.4464 70.6997 28.8416 70.5413 28.231C70.3494 27.6196 70.205 26.9942 70.1093 26.3605C69.9659 25.0323 70.3048 23.6969 71.0641 22.5978C71.833 21.4684 72.9833 20.654 74.3041 20.3038L102.609 12.8907C103.687 12.5057 104.846 12.4074 105.974 12.6056C107.075 12.8355 108.082 13.3908 108.864 14.1997C109.618 14.9828 110.137 15.9616 110.363 17.025C110.622 18.0229 110.881 19.0078 111.132 19.9755C112.139 23.8635 113.076 27.4491 113.931 30.7453C114.787 34.0414 115.556 37.0136 116.234 39.6315C116.571 40.9419 116.885 42.1573 117.176 43.2776C117.338 43.8159 117.448 44.3685 117.504 44.9278C117.523 45.439 117.473 45.9504 117.357 46.4485C117.186 47.1679 116.871 47.8451 116.431 48.4392C115.99 49.0332 115.434 49.5317 114.795 49.9045C114.467 50.0989 114.116 50.2526 113.75 50.3624C113.495 50.4402 113.366 50.4661 113.366 50.4661Z" fill="#E0E0E0"/>
<path d="M101.987 39.407C101.902 39.4451 101.813 39.4755 101.723 39.4977L100.963 39.7137L98.1288 40.4956L88.6248 43.0531H88.547L88.5125 42.9796L87.8558 41.472L83.255 30.4473L83.3242 30.4776L80.784 31.1256L80.1058 31.2897L79.8682 31.3372C79.9418 31.3041 80.0185 31.2781 80.0971 31.2595L80.7667 31.0651L83.2982 30.3652H83.3501V30.4128L88.0114 41.4158L88.6507 42.9408L88.5427 42.8846L98.0813 40.3876L100.928 39.6619L101.697 39.4761C101.792 39.4452 101.888 39.4221 101.987 39.407Z" fill="#E0E0E0"/>
<path d="M87.458 40.2879C87.458 40.2879 87.4796 40.2879 87.5228 40.262L87.7172 40.2015L88.4819 39.9855L91.3417 39.1992L101.226 36.5424L101.161 36.6375C101.014 34.9095 100.854 33.013 100.686 31.0604C100.604 30.0581 100.517 29.0732 100.44 28.1314L100.556 28.2135L88.8923 31.272L85.4362 32.162L84.5031 32.3952L84.2612 32.4471C84.205 32.4471 84.1791 32.4471 84.1748 32.4471L84.2569 32.4212L84.4945 32.3477L85.4233 32.0842L88.8793 31.1424L100.543 28.0234L100.647 27.9932V28.1012C100.725 29.0429 100.807 30.0279 100.893 31.0301C101.057 32.9828 101.213 34.8663 101.36 36.6116V36.685H101.286L91.3849 39.277L88.5121 40.0114L87.7388 40.2015L87.5401 40.249L87.458 40.2879Z" fill="#E0E0E0"/>
<path d="M92.8798 45.71C92.8798 45.71 92.8323 45.5977 92.72 45.4119C92.5624 45.1537 92.324 44.9548 92.0418 44.846C91.8376 44.7677 91.6172 44.7409 91.4002 44.768C91.1832 44.7951 90.9762 44.8753 90.7976 45.0015C90.6635 45.1158 90.5542 45.2562 90.4762 45.4141C90.3983 45.5721 90.3533 45.7443 90.3441 45.9202C90.335 46.0961 90.3617 46.2721 90.4228 46.4373C90.484 46.6025 90.5781 46.7536 90.6995 46.8812C90.821 47.0088 90.9672 47.1103 91.1291 47.1795C91.2911 47.2487 91.4655 47.2842 91.6417 47.2837C91.8178 47.2833 91.9921 47.2469 92.1537 47.1769C92.3153 47.1069 92.461 47.0046 92.5818 46.8764C92.772 46.6426 92.8798 46.3526 92.8885 46.0513C92.8885 45.8353 92.8626 45.7143 92.8885 45.71C92.9439 45.8151 92.9721 45.9324 92.9706 46.0513C92.9879 46.3767 92.89 46.6979 92.6941 46.9584C92.5455 47.1573 92.3482 47.3147 92.1213 47.4153C91.8943 47.5159 91.6453 47.5564 91.3981 47.533C91.0962 47.5075 90.8097 47.3894 90.5776 47.1947C90.3455 47 90.1793 46.7384 90.1017 46.4456C90.0241 46.1528 90.039 45.8431 90.1442 45.5591C90.2495 45.2751 90.44 45.0305 90.6896 44.8589C90.8908 44.7198 91.1242 44.6345 91.3677 44.6111C91.6112 44.5877 91.8566 44.6269 92.0806 44.725C92.3795 44.8561 92.6237 45.0866 92.7718 45.3773C92.8347 45.4776 92.8719 45.5919 92.8798 45.71Z" fill="#E0E0E0"/>
<path d="M101.52 43.4248C101.52 43.4248 101.473 43.3081 101.36 43.1267C101.201 42.8696 100.963 42.671 100.682 42.5608C100.459 42.4754 100.217 42.4533 99.9821 42.4968C99.7474 42.5403 99.5293 42.6478 99.3518 42.8075C99.1743 42.9671 99.0444 43.1727 98.9763 43.4015C98.9082 43.6303 98.9047 43.8735 98.966 44.1042C99.0274 44.3349 99.1512 44.5441 99.324 44.7089C99.4967 44.8736 99.7116 44.9875 99.945 45.0379C100.178 45.0882 100.421 45.0732 100.646 44.9944C100.872 44.9155 101.071 44.776 101.222 44.5912C101.412 44.3557 101.52 44.0643 101.529 43.7617C101.529 43.5501 101.503 43.4291 101.529 43.4248C101.585 43.5281 101.613 43.6442 101.611 43.7617C101.629 44.0874 101.531 44.4089 101.334 44.6689C101.188 44.8645 100.994 45.0198 100.771 45.1203C100.548 45.2208 100.304 45.2631 100.06 45.2435C99.7585 45.2178 99.4725 45.0995 99.2411 44.9047C99.0097 44.7099 98.8443 44.4482 98.7676 44.1556C98.6909 43.8631 98.7067 43.5539 98.8128 43.2707C98.9188 42.9874 99.11 42.7439 99.3601 42.5737C99.5621 42.4347 99.7962 42.3494 100.04 42.3259C100.285 42.3025 100.531 42.3417 100.755 42.4398C101.055 42.5697 101.3 42.8005 101.447 43.0921C101.498 43.1954 101.523 43.3096 101.52 43.4248Z" fill="#E0E0E0"/>
<path d="M180.005 205.481C170.307 200.729 166.574 189.661 165.352 179.401C165.149 177.673 164.682 175.945 165.265 174.303C165.849 172.662 167.577 171.37 169.214 171.854C170.57 172.256 171.348 173.642 172.238 174.748C173.434 176.226 175.023 177.337 176.821 177.954C177.992 178.347 179.387 178.485 180.368 177.729C181.716 176.692 181.573 174.636 181.306 172.943L179.789 163.477C179.517 161.784 179.245 160.056 179.526 158.367C179.807 156.678 180.74 155.006 182.282 154.306C183.824 153.606 185.963 154.228 186.554 155.835C186.805 156.501 186.775 157.239 186.93 157.935C187.086 158.63 187.531 159.36 188.226 159.456C188.922 159.551 189.522 158.963 189.954 158.388C191.44 156.41 192.287 154.025 193.06 151.662C193.834 149.299 194.564 146.889 195.864 144.78C197.164 142.672 199.13 140.854 201.536 140.34C203.942 139.825 206.759 140.931 207.74 143.217C208.72 145.502 207.722 148.15 206.495 150.336C204.688 153.551 202.426 156.487 199.778 159.054C199.303 159.516 198.784 160.013 198.676 160.674C198.482 161.857 199.726 162.834 200.897 163.015C202.227 163.244 203.575 162.903 204.923 162.851C206.271 162.799 207.787 163.166 208.478 164.341C209.442 165.966 208.271 168.005 207.027 169.413C204.536 172.228 201.579 174.593 198.287 176.407C197.108 177.051 195.86 177.656 194.987 178.684C194.114 179.712 193.747 181.332 194.555 182.434C195.363 183.535 196.961 183.678 198.231 183.233C199.501 182.788 200.56 181.902 201.731 181.241C203.925 180.001 206.958 179.699 208.759 181.483C209.943 182.658 210.31 184.486 210.055 186.14C209.8 187.795 209.005 189.302 208.128 190.719C205.07 195.674 200.836 199.934 195.721 202.638C190.607 205.343 185.677 206.621 180.01 205.481" fill="#F5F5F5"/>
<path d="M181.655 198.677C182.494 192.854 183.667 187.085 185.167 181.397C185.556 179.882 185.941 178.387 186.321 176.913C186.701 175.444 187.081 173.988 187.539 172.593C188.426 169.901 189.46 167.261 190.637 164.683C191.742 162.216 192.883 159.931 193.963 157.771C195.043 155.611 196.101 153.649 197.138 151.887C198.756 149.097 200.593 146.44 202.633 143.942C203.35 143.078 203.929 142.391 204.331 141.946L204.789 141.441C204.838 141.381 204.893 141.326 204.953 141.277C204.911 141.342 204.865 141.404 204.815 141.463L204.383 141.99C204.003 142.448 203.437 143.126 202.733 144.024C200.735 146.545 198.93 149.212 197.333 152.003C196.313 153.766 195.276 155.749 194.201 157.892C193.125 160.034 192.002 162.345 190.904 164.804C189.74 167.376 188.716 170.009 187.837 172.692C187.384 174.087 187.012 175.53 186.628 177.012C186.243 178.494 185.867 179.98 185.478 181.492C183.981 187.167 182.801 192.922 181.945 198.729" fill="#E0E0E0"/>
<path d="M187.626 172.566C187.511 172.344 187.418 172.111 187.349 171.871C187.189 171.413 186.978 170.748 186.731 169.922C186.23 168.272 185.621 165.97 184.956 163.442C184.291 160.915 183.66 158.613 183.124 156.962C182.865 156.142 182.649 155.481 182.493 155.023C182.399 154.792 182.329 154.551 182.286 154.306C182.419 154.518 182.528 154.744 182.61 154.98C182.8 155.412 183.042 156.077 183.336 156.889C183.915 158.518 184.593 160.803 185.258 163.347C185.924 165.892 186.494 168.125 186.943 169.862C187.15 170.644 187.328 171.305 187.47 171.832C187.55 172.07 187.602 172.316 187.626 172.566Z" fill="#E0E0E0"/>
<path d="M208.789 165.145C208.509 165.25 208.22 165.329 207.925 165.382C207.377 165.516 206.578 165.71 205.597 165.978C203.636 166.501 200.949 167.317 198.024 168.346C195.099 169.374 192.499 170.432 190.637 171.249C189.704 171.646 188.956 171.992 188.438 172.225C188.175 172.363 187.9 172.477 187.617 172.566C187.858 172.399 188.114 172.255 188.382 172.134C188.887 171.862 189.622 171.486 190.542 171.059C192.386 170.195 194.987 169.102 197.916 168.065C200.416 167.172 202.959 166.408 205.537 165.775C206.526 165.533 207.334 165.373 207.895 165.278C208.188 165.206 208.488 165.161 208.789 165.145Z" fill="#E0E0E0"/>
<path d="M181.872 198.236C181.797 198.165 181.733 198.083 181.681 197.994L181.185 197.264C180.753 196.625 180.169 195.687 179.457 194.521C178.022 192.188 176.139 188.905 174.113 185.246C172.087 181.587 170.225 178.291 168.855 175.928L167.184 173.137C167.006 172.834 166.86 172.584 166.752 172.377C166.693 172.29 166.646 172.195 166.613 172.096C166.685 172.171 166.749 172.253 166.803 172.342C166.937 172.541 167.101 172.774 167.296 173.072C167.728 173.707 168.315 174.645 169.024 175.811C170.458 178.148 172.337 181.427 174.368 185.09C176.398 188.754 178.256 192.045 179.625 194.404L181.271 197.195L181.703 197.96C181.771 198.044 181.827 198.137 181.872 198.236Z" fill="#E0E0E0"/>
<path d="M209.377 184.464C209.297 184.532 209.207 184.587 209.11 184.628L208.31 185.038L205.364 186.52C202.88 187.773 199.463 189.544 195.692 191.497C191.92 193.449 188.486 195.195 185.972 196.396C184.714 196.996 183.695 197.471 182.982 197.787L182.157 198.145C182.064 198.192 181.965 198.227 181.863 198.249C181.945 198.183 182.035 198.128 182.131 198.085L182.93 197.674L185.872 196.193C188.361 194.944 191.778 193.169 195.549 191.216C199.32 189.263 202.755 187.518 205.265 186.317C206.522 185.717 207.546 185.241 208.258 184.926L209.079 184.572C209.173 184.523 209.274 184.486 209.377 184.464Z" fill="#E0E0E0"/>
<path d="M14.0268 49.1139C14.0268 49.1139 9.20999 50.2846 13.0332 60.7131C16.8564 71.1416 19.7378 76.4249 19.7378 76.4249C19.7378 76.4249 20.3513 78.8139 18.3857 78.9349C16.4201 79.0558 12.2815 77.8721 11.141 80.1142C9.95735 82.4427 11.4521 84.9569 14.7958 87.4064C18.1394 89.8558 25.2674 95.4934 25.9197 96.0075C26.5721 96.5216 27.1034 97.6534 25.7815 97.9515C24.4596 98.2496 14.8303 98.0897 15.029 102.66C15.2278 107.231 25.6562 112.532 26.7837 113.132C27.9113 113.732 28.1359 114.268 27.9631 114.908C27.7903 115.547 24.5546 115.188 21.8158 115.253C19.0769 115.318 15.9103 115.879 16.2473 118.51C16.5842 121.141 22.3989 127.28 37.9164 130.719L45.2085 131.842L49.9605 126.135C59.3479 113.313 59.6676 104.859 58.1685 102.66C56.6695 100.461 53.9393 102.133 51.8354 103.892C49.7316 105.65 47.5413 108.052 46.9884 107.689C46.4354 107.326 46.2497 106.773 46.6989 105.576C47.1482 104.38 51.4985 93.5149 48.63 89.9465C45.7615 86.3782 38.6335 92.8539 37.4412 93.5062C36.2489 94.1585 35.9119 92.9273 36.0545 92.1325C36.197 91.3376 37.8343 82.3865 38.7329 78.3387C39.6314 74.2909 39.0871 71.4267 36.6636 70.4504C34.3265 69.5129 31.9937 73.1417 30.4385 74.3384C28.8833 75.535 27.7687 73.3448 27.7687 73.3448C27.7687 73.3448 26.4468 67.4739 22.4378 57.1145C18.4289 46.7552 13.9318 49.1398 13.9318 49.1398" fill="#EBEBEB"/>
<path d="M45.3816 133.609C42.4656 125.993 37.5106 112.363 33.1949 100.686C28.8792 89.009 24.9653 78.4466 22.0882 70.8132C20.6496 67.0073 19.4962 63.9012 18.6711 61.7801C18.2736 60.7174 17.9583 59.8922 17.7466 59.322C17.6429 59.0455 17.5651 58.8338 17.509 58.6783C17.4528 58.5228 17.4355 58.458 17.4355 58.458C17.4355 58.458 17.4701 58.5271 17.5306 58.6697L17.7898 59.3047L18.7575 61.7455C19.5912 63.8666 20.7835 66.9295 22.2394 70.757C25.1554 78.3732 29.0952 88.9313 33.4109 100.608C37.7266 112.285 42.6557 125.919 45.5328 133.553" fill="#E0E0E0"/>
<path d="M16.874 82.0063C17.0449 82.0583 17.2099 82.1278 17.3665 82.2137C17.6775 82.3563 18.1225 82.5766 18.6625 82.8531C19.7511 83.4103 21.2545 84.2225 22.8702 85.1427L27.026 87.5187L28.2875 88.2315C28.441 88.3078 28.5859 88.4005 28.7195 88.508C28.5478 88.4622 28.3823 88.3955 28.227 88.3092C27.9159 88.1667 27.471 87.9464 26.931 87.6612C25.8423 87.091 24.3649 86.2659 22.7406 85.3414L18.5761 82.9956L17.3103 82.2915C17.1529 82.2162 17.0062 82.1203 16.874 82.0063Z" fill="#E0E0E0"/>
<path d="M29.3062 88.1021C29.25 88.0719 30.7836 84.9312 32.7276 81.0821C34.6716 77.233 36.3003 74.1399 36.3564 74.1701C36.4126 74.2004 34.879 77.341 32.935 81.1901C30.991 85.0392 29.3753 88.128 29.3062 88.1021Z" fill="#E0E0E0"/>
<path d="M35.126 106.332C35.2241 106.174 35.3417 106.029 35.4759 105.9L36.4868 104.82C37.3508 103.904 38.5129 102.66 39.7527 101.192C40.9925 99.7227 42.0812 98.4008 42.8545 97.4201L43.7746 96.2581C43.8799 96.1094 44 95.9719 44.1332 95.8477C44.0546 96.0113 43.959 96.1662 43.8481 96.3099C43.6493 96.5993 43.3599 97.0141 42.9841 97.5195C42.241 98.5261 41.1783 99.8912 39.9298 101.343C38.6813 102.794 37.489 104.047 36.6034 104.933C36.1714 105.365 35.7999 105.728 35.5407 105.965C35.4149 106.101 35.276 106.224 35.126 106.332Z" fill="#E0E0E0"/>
<path d="M22.6621 103.295C22.8314 103.297 22.9999 103.32 23.1632 103.365L24.5067 103.637C25.6343 103.874 27.1938 104.22 28.9131 104.617C30.6325 105.015 32.1877 105.382 33.3066 105.663L34.6328 106.004C34.798 106.038 34.9588 106.09 35.1123 106.16C34.9444 106.158 34.7774 106.135 34.6155 106.09L33.2634 105.84C32.1315 105.602 30.572 105.257 28.8527 104.859C27.1333 104.462 25.5824 104.095 24.4592 103.814L23.133 103.473C22.9694 103.433 22.8113 103.373 22.6621 103.295Z" fill="#E0E0E0"/>
<path d="M25.7559 120.04C25.9697 120.055 26.182 120.086 26.3909 120.135L28.1189 120.476C29.5704 120.774 31.5749 121.202 33.7781 121.69C35.9813 122.178 37.9858 122.627 39.4243 122.964L41.1523 123.396C41.3646 123.438 41.5728 123.499 41.7744 123.578C41.5586 123.568 41.3443 123.537 41.1351 123.483L39.4071 123.141C37.9555 122.843 35.9511 122.416 33.7479 121.927C31.5447 121.439 29.5229 120.96 28.08 120.636L26.352 120.204C26.1482 120.17 25.9484 120.115 25.7559 120.04Z" fill="#E0E0E0"/>
<path d="M41.3896 123.371C41.5162 123.177 41.6609 122.997 41.8216 122.831L43.0529 121.414C44.094 120.213 45.5196 118.554 47.0488 116.662C48.5781 114.77 49.9173 113.05 50.8764 111.789L52.0168 110.294C52.1453 110.105 52.2899 109.927 52.4488 109.763C52.3451 109.967 52.2236 110.162 52.086 110.346C51.8354 110.717 51.4682 111.244 51.0016 111.888C50.0728 113.184 48.7509 114.912 47.2216 116.809C45.6924 118.705 44.2408 120.334 43.1695 121.509C42.6338 122.092 42.1932 122.563 41.8735 122.878C41.7246 123.054 41.5629 123.219 41.3896 123.371Z" fill="#E0E0E0"/>
<path d="M200.941 206.272C200.941 206.336 159.326 206.384 108.004 206.384C56.6828 206.384 15.0596 206.336 15.0596 206.272C15.0596 206.207 56.6655 206.159 108.004 206.159C159.343 206.159 200.941 206.211 200.941 206.272Z" fill="#263238"/>
<path d="M180.837 28.3316H168.309C167.487 28.3531 166.706 28.6999 166.139 29.296C165.572 29.8921 165.265 30.6887 165.285 31.5111V33.7834C165.305 34.6058 164.997 35.4024 164.43 35.9985C163.863 36.5946 163.083 36.9414 162.261 36.9629H137.831C137.006 36.9425 136.222 36.5962 135.651 35.9995C135.081 35.4029 134.769 34.6046 134.786 33.7791V31.4852C134.802 30.6638 134.494 29.8691 133.927 29.2737C133.361 28.6784 132.583 28.3305 131.762 28.3057H127.355H116.387C113.77 28.3057 111.261 29.3445 109.41 31.1938C107.559 33.0432 106.518 35.5517 106.516 38.1682L106.485 196.354C106.485 198.969 107.524 201.477 109.372 203.326C111.221 205.175 113.729 206.215 116.344 206.216L180.858 206.255C182.154 206.256 183.437 206.002 184.634 205.507C185.831 205.012 186.919 204.286 187.835 203.371C188.751 202.455 189.478 201.368 189.974 200.171C190.47 198.975 190.725 197.692 190.725 196.397L190.756 38.2071C190.757 36.9061 190.502 35.6176 190.003 34.4159C189.505 33.2141 188.774 32.1228 187.852 31.2049C186.93 30.287 185.835 29.5605 184.631 29.0674C183.427 28.5742 182.138 28.3242 180.837 28.3316Z" fill="white"/>
<path d="M180.835 28.3306C180.835 28.3306 180.948 28.3306 181.172 28.3306C181.506 28.33 181.84 28.3545 182.17 28.404C183.482 28.5693 184.744 29.011 185.872 29.7C186.709 30.1908 187.466 30.8054 188.119 31.523C188.917 32.3843 189.554 33.3823 189.998 34.4693C190.511 35.741 190.762 37.103 190.737 38.4739C190.737 39.9298 190.737 41.4979 190.737 43.1222C190.737 56.2637 190.758 75.276 190.771 98.7638C190.784 122.252 190.771 150.232 190.771 181.276V196.059C190.795 197.08 190.668 198.099 190.395 199.083C190.12 200.07 189.695 201.008 189.134 201.865C188.563 202.718 187.872 203.485 187.082 204.142C185.46 205.455 183.467 206.229 181.384 206.353C179.319 206.414 177.263 206.353 175.189 206.379H162.644H136.866H117.025C114.74 206.496 112.48 205.86 110.592 204.569C108.724 203.26 107.354 201.356 106.704 199.169C106.396 198.085 106.258 196.96 106.294 195.834V192.508C106.294 188.084 106.294 183.688 106.294 179.319C106.294 170.592 106.294 161.999 106.294 153.537C106.294 136.633 106.294 120.329 106.294 104.795C106.294 89.2598 106.294 74.5027 106.294 60.6874C106.294 53.7754 106.294 47.1139 106.294 40.703C106.294 39.8995 106.294 39.1003 106.294 38.3098C106.294 37.9123 106.328 37.5106 106.35 37.1131C106.371 36.7157 106.449 36.3226 106.549 35.9381C106.905 34.4009 107.616 32.9686 108.626 31.7563C109.607 30.5902 110.841 29.6634 112.234 29.0465C113.628 28.4296 115.143 28.1389 116.666 28.1966H125.263H131.423C132.113 28.1599 132.795 28.3495 133.367 28.7366C133.923 29.1278 134.344 29.6817 134.572 30.3221C134.762 30.953 134.829 31.6142 134.771 32.2704V33.264C134.761 33.5782 134.772 33.8928 134.801 34.2058C134.894 34.8226 135.169 35.3975 135.592 35.856C135.985 36.3167 136.512 36.6429 137.1 36.7891C137.389 36.8586 137.687 36.8891 137.985 36.8798H142.456H155.46H161.192C161.646 36.8798 162.108 36.8798 162.536 36.8798C162.964 36.8262 163.376 36.6787 163.741 36.4478C164.092 36.2253 164.395 35.9348 164.633 35.5936C164.87 35.2524 165.037 34.8672 165.123 34.4606C165.195 34.0645 165.221 33.6616 165.201 33.2597C165.201 32.8622 165.201 32.4691 165.201 32.0803C165.184 31.6965 165.201 31.3119 165.253 30.9312C165.315 30.5611 165.441 30.2045 165.625 29.8771C165.974 29.2576 166.524 28.776 167.184 28.512C167.817 28.3124 168.484 28.2419 169.145 28.3046H175.543H179.474H180.818H179.474H175.543H169.145C168.515 28.3046 167.849 28.2398 167.219 28.5163C166.569 28.777 166.03 29.2549 165.694 29.8685C165.519 30.1893 165.398 30.5366 165.335 30.8966C165.289 31.272 165.273 31.6505 165.288 32.0285C165.288 32.4173 165.288 32.8104 165.288 33.2078C165.304 33.617 165.278 34.0267 165.21 34.4304C165.121 34.8514 164.949 35.2505 164.705 35.6043C164.46 35.9581 164.147 36.2596 163.784 36.491C163.402 36.7265 162.973 36.8741 162.527 36.923C162.069 36.9619 161.629 36.923 161.171 36.923H137.985C137.673 36.9353 137.36 36.9048 137.056 36.8323C136.436 36.6802 135.879 36.3354 135.467 35.8474C135.042 35.3604 134.77 34.7595 134.685 34.1194C134.658 33.8351 134.648 33.5495 134.654 33.264V32.2877C134.708 31.6518 134.642 31.0115 134.46 30.3998C134.245 29.7936 133.847 29.2696 133.32 28.9008C132.776 28.5357 132.129 28.3568 131.475 28.391H116.718C115.224 28.3348 113.737 28.6208 112.37 29.2273C111.004 29.8337 109.794 30.7446 108.834 31.8902C107.847 33.0781 107.154 34.4808 106.808 35.9856C106.708 36.3614 106.678 36.7502 106.609 37.1347C106.54 37.5192 106.562 37.9123 106.557 38.3098V40.703C106.557 47.1139 106.557 53.7754 106.557 60.6874C106.557 74.5114 106.557 89.2642 106.557 104.795V153.537C106.557 161.987 106.557 170.581 106.557 179.319V195.834C106.52 196.934 106.654 198.033 106.955 199.092C107.593 201.22 108.933 203.07 110.756 204.34C112.598 205.589 114.799 206.196 117.02 206.068H123.682H136.862H162.639H175.202C177.271 206.068 179.345 206.103 181.384 206.042C183.412 205.92 185.35 205.164 186.926 203.882C187.697 203.244 188.37 202.498 188.927 201.666C189.472 200.833 189.885 199.921 190.154 198.962C190.418 198.006 190.541 197.016 190.521 196.024C190.521 195.022 190.521 194.028 190.521 193.031C190.521 189.056 190.521 185.126 190.521 181.241C190.521 150.185 190.551 122.208 190.564 98.7293C190.577 75.2501 190.607 56.2291 190.62 43.0877C190.62 41.4461 190.62 39.8952 190.62 38.4394C190.648 37.0796 190.403 35.7281 189.899 34.465C189.461 33.3857 188.833 32.3937 188.045 31.536C186.504 29.8377 184.416 28.7339 182.144 28.417C181.815 28.366 181.483 28.3357 181.151 28.3262C180.948 28.3435 180.835 28.3306 180.835 28.3306Z" fill="#263238"/>
<path d="M122.424 44.3059C122.424 44.3448 120.791 44.3967 118.782 44.4096C116.774 44.4226 115.141 44.4096 115.141 44.3664C115.141 44.3232 116.769 44.2757 118.782 44.2584C120.795 44.2411 122.424 44.2627 122.424 44.3059Z" fill="#263238"/>
<path d="M122.437 46.1677C122.437 46.2109 120.809 46.2585 118.8 46.2757C116.791 46.293 115.158 46.2757 115.158 46.2282C115.158 46.1807 116.787 46.1375 118.796 46.1202C120.804 46.1029 122.437 46.1245 122.437 46.1677Z" fill="#263238"/>
<path d="M122.454 48.0296C122.454 48.0728 120.826 48.1203 118.813 48.1376C116.8 48.1548 115.171 48.1376 115.171 48.09C115.171 48.0425 116.8 47.9993 118.813 47.982C120.826 47.9648 122.454 47.9864 122.454 48.0296Z" fill="#263238"/>
<path d="M146.336 166.277H113.914V198.698H146.336V166.277Z" fill="#F5F5F5"/>
<path d="M142.508 184.827C139.868 181.142 134.265 178.619 129.712 179.297C126.023 179.846 122.757 181.561 120.968 185.224C120.848 185.463 120.788 185.728 120.792 185.995C120.796 186.263 120.865 186.525 120.992 186.761C121.119 186.996 121.301 187.197 121.523 187.347C121.744 187.497 121.999 187.591 122.264 187.622C128.411 188.356 134.625 188.335 140.767 187.562C141.713 187.441 142.841 187.177 142.905 186.006C142.911 185.579 142.771 185.163 142.508 184.827Z" fill="#009955"/>
<g opacity="0.5">
<path opacity="0.5" d="M142.508 184.827C139.869 181.142 134.266 178.619 129.712 179.297C126.023 179.846 122.757 181.561 120.969 185.224" fill="white"/>
</g>
<path d="M127.933 184.641C127.911 184.641 127.721 184.472 127.47 184.127C127.136 183.67 126.898 183.15 126.771 182.598C126.663 182.049 126.616 181.489 126.632 180.93C126.613 180.7 126.632 180.467 126.688 180.243C126.76 180.463 126.795 180.694 126.792 180.926C126.821 181.469 126.886 182.011 126.987 182.546C127.115 183.072 127.322 183.576 127.6 184.04C127.736 184.226 127.848 184.427 127.933 184.641Z" fill="#F5F5F5"/>
<path d="M131.842 184.464C131.778 184.464 131.873 183.419 131.734 182.148C131.596 180.878 131.302 179.88 131.359 179.859C131.994 181.307 132.163 182.916 131.842 184.464Z" fill="#F5F5F5"/>
<path d="M135.886 183.863C135.821 183.837 136.128 183.142 136.201 182.226C136.275 181.31 136.106 180.571 136.171 180.554C136.388 181.089 136.476 181.668 136.426 182.243C136.376 182.818 136.191 183.373 135.886 183.863Z" fill="#F5F5F5"/>
<g opacity="0.3">
<path opacity="0.3" d="M131.125 179.47L131.16 179.536L131.125 179.47Z" fill="black"/>
</g>
<path d="M146.711 61.4692H113.914V110.635H146.711V61.4692Z" fill="#F5F5F5"/>
<path d="M146.711 114.342H113.914V163.508H146.711V114.342Z" fill="#F5F5F5"/>
<path d="M182.632 105.058H149.835V150.962H182.632V105.058Z" fill="#F5F5F5"/>
<path d="M182.365 154.189H149.567V198.694H182.365V154.189Z" fill="#F5F5F5"/>
<path d="M182.632 61.4692H149.835V102.077H182.632V61.4692Z" fill="#F5F5F5"/>
<path d="M135.466 76.1701V89.7997C135.466 90.3958 134.987 91.0136 134.105 91.4801C132.924 92.0347 131.63 92.304 130.325 92.2664H130.304C127.085 92.2664 125.163 90.9963 125.163 89.7997V76.1442C125.163 74.8136 126.144 73.4269 127.129 72.0531C127.79 71.1373 127.949 69.8197 127.993 69.0291C127.993 68.9384 127.993 68.8563 127.993 68.7786H127.902C127.713 68.7929 127.526 68.7319 127.382 68.6088C127.238 68.4858 127.148 68.3107 127.133 68.1219V67.5474C127.147 67.3574 127.236 67.1809 127.38 67.0562C127.524 66.9316 127.712 66.869 127.902 66.8821H132.736C132.88 66.878 133.021 66.9132 133.146 66.9841C133.271 67.0549 133.374 67.1586 133.445 67.2838C133.484 67.366 133.505 67.4561 133.505 67.5474V68.1219C133.488 68.3103 133.399 68.4847 133.255 68.6075C133.111 68.7303 132.925 68.7917 132.736 68.7786H132.624C132.624 68.8563 132.624 68.9384 132.624 69.0291C132.654 69.8067 132.814 71.1243 133.488 72.0531C134.473 73.4269 135.449 74.8136 135.453 76.1442L135.466 76.1701Z" fill="#FAFAFA"/>
<path d="M135.467 76.1703V76.0321C135.455 75.8958 135.437 75.7603 135.411 75.626C135.295 75.1107 135.103 74.6156 134.841 74.1572C134.419 73.428 133.953 72.7254 133.445 72.0534C132.851 71.0714 132.551 69.9393 132.581 68.7918V68.714H132.624C132.795 68.7398 132.968 68.7015 133.112 68.6065C133.256 68.5115 133.359 68.3667 133.402 68.1999C133.402 68.0271 133.402 67.8154 133.402 67.621C133.412 67.5319 133.4 67.4415 133.366 67.3584C133.332 67.2753 133.278 67.2022 133.208 67.1458C133.06 67.0272 132.874 66.9673 132.685 66.9774H130.737H127.955C127.846 66.9678 127.737 66.9813 127.634 67.017C127.531 67.0528 127.437 67.1099 127.358 67.1847C127.287 67.26 127.239 67.3546 127.22 67.4569C127.213 67.5749 127.213 67.6931 127.22 67.8111C127.22 67.9321 127.22 68.0746 127.22 68.174C127.234 68.2794 127.281 68.3778 127.354 68.4548C127.435 68.5359 127.532 68.5978 127.64 68.636C127.748 68.6741 127.863 68.6875 127.976 68.6751H128.075V68.7831C128.07 69.3407 128.01 69.8965 127.894 70.442C127.782 71.0146 127.56 71.5603 127.242 72.049C126.515 72.9732 125.915 73.9901 125.458 75.073C125.36 75.3525 125.296 75.6425 125.267 75.937C125.267 76.2265 125.267 76.5462 125.267 76.8529V78.7278C125.267 79.995 125.267 81.2794 125.267 82.5812C125.267 84.8708 125.267 87.1086 125.267 89.2686C125.254 89.5283 125.266 89.7887 125.302 90.0462C125.365 90.2878 125.488 90.5093 125.661 90.6898C126.012 91.0635 126.439 91.358 126.913 91.5538C127.847 91.9283 128.841 92.1317 129.847 92.1543C130.804 92.2042 131.764 92.1184 132.698 91.8994C133.579 91.7252 134.388 91.292 135.022 90.6553C135.158 90.4988 135.261 90.3167 135.324 90.1196C135.373 89.919 135.39 89.7121 135.376 89.5062V88.2534C135.376 87.4326 135.376 86.6463 135.376 85.8946C135.376 82.9009 135.402 80.4774 135.411 78.7839C135.411 77.9545 135.411 77.3065 135.411 76.8486C135.411 76.3906 135.432 76.1746 135.432 76.1746C135.455 76.3985 135.464 76.6236 135.458 76.8486C135.458 77.3065 135.458 77.9545 135.48 78.7839C135.48 80.4774 135.48 82.9009 135.515 85.8946C135.515 86.6463 135.515 87.4326 135.515 88.2534V89.5062C135.531 89.7293 135.514 89.9536 135.463 90.1714C135.392 90.3937 135.278 90.5994 135.126 90.7763C134.469 91.443 133.625 91.8949 132.707 92.0723C131.755 92.3011 130.776 92.3927 129.799 92.3444C128.762 92.3242 127.738 92.1163 126.775 91.731C126.272 91.5292 125.818 91.2212 125.445 90.8281C125.249 90.6196 125.108 90.3658 125.034 90.0894C124.992 89.815 124.978 89.5372 124.991 89.2599C124.991 87.0999 124.991 84.8622 124.991 82.5726C124.991 81.2679 124.991 79.9834 124.991 78.7191V76.8442C124.991 76.5289 124.991 76.2351 124.991 75.9111C125.019 75.5988 125.086 75.2912 125.19 74.9953C125.655 73.8941 126.266 72.8609 127.008 71.9238C127.565 70.9711 127.843 69.8816 127.812 68.7788L127.916 68.8825C127.774 68.8945 127.631 68.8748 127.498 68.8247C127.365 68.7746 127.245 68.6955 127.147 68.593C127.046 68.4857 126.981 68.3499 126.961 68.2042C126.961 68.053 126.961 67.945 126.961 67.8154C126.953 67.6874 126.953 67.559 126.961 67.431C126.986 67.289 127.054 67.158 127.155 67.0551C127.252 66.961 127.367 66.8884 127.494 66.8422C127.62 66.796 127.755 66.7773 127.89 66.7873H130.672H132.62C132.848 66.7806 133.07 66.8557 133.247 66.999C133.333 67.0722 133.4 67.1648 133.444 67.2691C133.487 67.3735 133.506 67.4867 133.497 67.5994C133.497 67.8025 133.497 67.9839 133.497 68.1999C133.45 68.4029 133.328 68.5809 133.156 68.6992C132.985 68.8174 132.775 68.8673 132.568 68.8393L132.642 68.7658C132.6 69.8873 132.882 70.9969 133.454 71.9626C133.956 72.6449 134.414 73.3576 134.828 74.0967C135.086 74.5642 135.267 75.0704 135.363 75.5958C135.385 75.7315 135.398 75.8686 135.402 76.0062C135.434 76.0562 135.456 76.1119 135.467 76.1703Z" fill="#263238"/>
<path d="M132.369 68.7612C130.933 68.9122 129.485 68.9122 128.049 68.7612C129.485 68.6102 130.933 68.6102 132.369 68.7612Z" fill="#263238"/>
<path d="M135.035 77.9889C134.803 77.8758 134.547 77.8225 134.29 77.8338C134.033 77.8452 133.782 77.9207 133.562 78.0537C133.12 78.3222 132.643 78.5272 132.145 78.6628C131.536 78.7191 130.927 78.5668 130.417 78.2308C129.908 77.8986 129.372 77.6096 128.814 77.3668C128.261 77.1786 127.666 77.1497 127.096 77.2833C126.527 77.417 126.007 77.7079 125.596 78.1228V89.7868C125.596 89.7868 126.239 91.7783 130.758 91.4673C135.277 91.1563 134.918 89.1604 134.918 89.1604L135.035 77.9889Z" fill="#009955"/>
<path d="M169.954 170.748V184.265C169.954 184.862 169.478 185.471 168.597 185.937C167.425 186.491 166.139 186.759 164.843 186.719C161.642 186.719 159.732 185.453 159.732 184.265V170.765C159.732 170.765 159.732 170.765 159.732 170.735C159.732 169.413 160.709 168.035 161.685 166.674C162.346 165.763 162.502 164.45 162.549 163.681C162.549 163.59 162.549 163.508 162.549 163.434H162.432C162.244 163.448 162.058 163.386 161.915 163.263C161.772 163.14 161.683 162.966 161.668 162.778V162.208C161.682 162.019 161.771 161.844 161.914 161.721C162.058 161.598 162.244 161.537 162.432 161.551H167.236C167.379 161.546 167.52 161.581 167.644 161.651C167.768 161.721 167.871 161.824 167.94 161.948C167.978 162.029 167.998 162.118 167.997 162.208V162.778C167.982 162.965 167.894 163.14 167.752 163.263C167.609 163.386 167.424 163.447 167.236 163.434H167.146C167.146 163.508 167.146 163.59 167.146 163.681C167.176 164.45 167.331 165.763 167.988 166.674C168.969 168.035 169.936 169.413 169.945 170.735C169.958 170.731 169.954 170.74 169.954 170.748Z" fill="#FAFAFA"/>
<path d="M169.954 170.748C169.956 170.702 169.956 170.656 169.954 170.61C169.944 170.473 169.927 170.338 169.902 170.204C169.786 169.693 169.595 169.202 169.336 168.748C168.917 168.022 168.453 167.323 167.945 166.657C167.353 165.682 167.053 164.557 167.081 163.417V163.335H167.154C167.323 163.36 167.496 163.322 167.638 163.227C167.78 163.131 167.882 162.987 167.923 162.821C167.923 162.652 167.923 162.441 167.923 162.246C167.931 162.158 167.918 162.069 167.884 161.987C167.85 161.905 167.797 161.832 167.729 161.775C167.582 161.659 167.398 161.599 167.21 161.607H165.275H162.51C162.402 161.597 162.294 161.611 162.192 161.647C162.09 161.682 161.997 161.739 161.918 161.814C161.846 161.889 161.798 161.984 161.78 162.086C161.773 162.203 161.773 162.32 161.78 162.436C161.78 162.553 161.78 162.695 161.78 162.795C161.794 162.9 161.841 162.999 161.914 163.076C161.994 163.155 162.09 163.216 162.196 163.253C162.302 163.291 162.416 163.304 162.527 163.292H162.631V163.4C162.626 163.953 162.565 164.504 162.45 165.045C162.339 165.614 162.119 166.155 161.802 166.64C161.078 167.563 160.482 168.581 160.031 169.664C159.932 169.942 159.869 170.233 159.845 170.528C159.845 170.813 159.845 171.132 159.845 171.435C159.845 172.048 159.845 172.67 159.845 173.301V177.12C159.845 179.397 159.845 181.621 159.845 183.768C159.832 184.025 159.843 184.283 159.879 184.537C159.943 184.779 160.066 185 160.238 185.181C160.587 185.553 161.011 185.847 161.482 186.045C162.405 186.408 163.385 186.604 164.376 186.624C165.328 186.674 166.283 186.588 167.21 186.369C168.086 186.199 168.89 185.768 169.517 185.133C169.653 184.979 169.756 184.798 169.82 184.602C169.866 184.403 169.882 184.197 169.867 183.993C169.867 183.561 169.867 183.155 169.867 182.749C169.867 181.932 169.867 181.155 169.867 180.407C169.867 177.431 169.893 175.02 169.902 173.34C169.902 172.515 169.902 171.871 169.923 171.422C169.945 170.973 169.923 170.752 169.923 170.752C169.949 170.974 169.958 171.198 169.949 171.422C169.949 171.854 169.949 172.515 169.949 173.34C169.949 175.02 169.971 177.431 169.988 180.407C169.988 181.155 169.988 181.932 169.988 182.749C169.988 183.155 169.988 183.57 169.988 183.993C170.005 184.215 169.986 184.438 169.932 184.654C169.862 184.874 169.749 185.079 169.599 185.254C168.948 185.919 168.111 186.371 167.197 186.55C166.252 186.779 165.279 186.871 164.307 186.823C163.282 186.801 162.27 186.595 161.318 186.213C160.841 186.008 160.411 185.707 160.056 185.328C159.863 185.12 159.723 184.868 159.65 184.593C159.609 184.322 159.594 184.047 159.607 183.773V171.426C159.607 171.115 159.607 170.821 159.607 170.502C159.636 170.189 159.703 169.882 159.806 169.586C160.268 168.494 160.875 167.469 161.612 166.54C162.162 165.593 162.439 164.512 162.411 163.417L162.51 163.516C162.37 163.528 162.23 163.508 162.098 163.459C161.967 163.41 161.848 163.332 161.75 163.231C161.649 163.125 161.585 162.988 161.568 162.842C161.568 162.695 161.568 162.587 161.568 162.458C161.56 162.33 161.56 162.201 161.568 162.073C161.596 161.933 161.663 161.804 161.763 161.702C161.859 161.608 161.973 161.536 162.099 161.49C162.225 161.444 162.359 161.425 162.493 161.434H165.258H167.193C167.419 161.426 167.641 161.502 167.815 161.646C167.901 161.718 167.968 161.81 168.012 161.914C168.055 162.017 168.074 162.13 168.066 162.242C168.066 162.445 168.066 162.626 168.066 162.838C168.013 163.037 167.891 163.211 167.722 163.329C167.552 163.446 167.346 163.499 167.141 163.477L167.215 163.404C167.175 164.516 167.453 165.616 168.018 166.575C168.52 167.251 168.976 167.959 169.383 168.696C169.641 169.161 169.822 169.664 169.919 170.186C169.942 170.32 169.954 170.456 169.954 170.592C169.967 170.7 169.962 170.748 169.954 170.748Z" fill="#263238"/>
<path d="M166.877 163.382C165.456 163.532 164.022 163.532 162.601 163.382C164.022 163.233 165.456 163.233 166.877 163.382Z" fill="#263238"/>
<path d="M169.526 172.554C169.296 172.44 169.042 172.386 168.786 172.397C168.53 172.407 168.281 172.482 168.061 172.614C167.624 172.882 167.151 173.087 166.657 173.224C166.049 173.278 165.44 173.126 164.929 172.792C164.424 172.458 163.89 172.169 163.335 171.928C162.786 171.741 162.195 171.714 161.63 171.847C161.066 171.981 160.55 172.271 160.143 172.684V184.287C160.143 184.287 160.778 186.27 165.266 185.959C169.755 185.648 169.405 183.665 169.405 183.665L169.526 172.554Z" fill="#009955"/>
<g opacity="0.5">
<path opacity="0.5" d="M169.526 172.554C169.296 172.44 169.042 172.386 168.786 172.397C168.53 172.407 168.281 172.482 168.061 172.614C167.624 172.882 167.151 173.087 166.657 173.224C166.049 173.278 165.44 173.126 164.929 172.792C164.424 172.458 163.89 172.169 163.335 171.928C162.786 171.741 162.195 171.714 161.63 171.847C161.066 171.981 160.55 172.271 160.143 172.684V184.287C160.143 184.287 160.778 186.27 165.266 185.959C169.755 185.648 169.405 183.665 169.405 183.665L169.526 172.554Z" fill="white"/>
</g>
<path d="M176.986 121.625C176.838 121.565 176.678 121.543 176.519 121.561C176.361 121.579 176.209 121.637 176.079 121.729C176.014 121.772 175.945 121.824 175.88 121.876C173.687 123.497 171.021 124.352 168.294 124.308C162.985 124.308 158.587 121.332 157.801 117.443V116.709C157.808 116.636 157.799 116.561 157.775 116.492C157.752 116.422 157.714 116.357 157.664 116.303C157.614 116.248 157.554 116.205 157.486 116.175C157.419 116.145 157.346 116.13 157.272 116.13C157.198 116.13 157.125 116.145 157.058 116.175C156.99 116.205 156.929 116.248 156.88 116.303C156.83 116.357 156.792 116.422 156.768 116.492C156.745 116.561 156.736 116.636 156.743 116.709V118.765C156.746 118.814 156.756 118.862 156.773 118.908C156.408 119.715 156.215 120.589 156.207 121.474C156.207 125.963 160.959 129.609 166.839 129.609C171.768 129.609 175.911 127.047 177.12 123.561C177.135 123.545 177.144 123.526 177.146 123.504C177.286 123.226 177.364 122.921 177.375 122.61C177.407 122.426 177.388 122.237 177.319 122.063C177.251 121.889 177.135 121.738 176.986 121.625Z" fill="#009955"/>
<g opacity="0.3">
<path opacity="0.3" d="M157.403 119.448C157.403 119.448 162.41 130.965 175.979 122.904C175.979 122.904 172.484 126.533 167.927 127.414C163.797 128.205 157.68 125.876 157.403 119.448Z" fill="black"/>
</g>
<path d="M177.358 122.204C177.276 122.403 176.952 122.459 176.636 122.325C176.321 122.191 176.131 121.919 176.204 121.72C176.278 121.522 176.61 121.47 176.926 121.604C177.241 121.738 177.444 122.005 177.358 122.204Z" fill="#263238"/>
<path d="M182.416 47.9517C182.381 47.958 182.344 47.958 182.308 47.9517H182.002H180.865L177.051 47.9863H177.021V47.956C176.99 47.753 176.96 47.524 176.926 47.3253C176.662 45.4763 176.429 43.8261 176.273 42.7461H176.295H174.999C174.969 42.7498 174.938 42.7498 174.908 42.7461H174.999H175.271H176.286H176.308V42.7677C176.468 43.8434 176.714 45.4936 176.99 47.3383C177.021 47.5543 177.051 47.7703 177.081 47.969L177.047 47.9387H180.861H182.412L182.416 47.9517Z" fill="#263238"/>
<path d="M176.887 46.8719C176.887 46.8719 176.887 46.8719 176.917 46.8719H176.995H177.302H178.451L182.408 46.833L182.373 46.8632C182.486 46.1936 182.611 45.4722 182.736 44.7292C182.801 44.3447 182.866 43.9645 182.931 43.606L182.965 43.6492H178.3H176.446C176.425 43.6492 176.416 43.6492 176.416 43.6492H176.546H176.917H178.3L182.965 43.6103H183.008V43.6535L182.818 44.7724C182.689 45.5197 182.563 46.2412 182.451 46.9324V46.9583H182.421H178.464H176.9L176.887 46.8719Z" fill="#263238"/>
<path d="M178.416 49.4295C178.416 49.4295 178.416 49.382 178.386 49.2999C178.353 49.1878 178.283 49.0903 178.187 49.0234C178.118 48.9748 178.039 48.9435 177.955 48.9322C177.872 48.9209 177.787 48.93 177.708 48.9586C177.612 48.9948 177.529 49.0595 177.47 49.144C177.412 49.2285 177.38 49.3289 177.38 49.4317C177.38 49.5344 177.412 49.6348 177.47 49.7193C177.529 49.8038 177.612 49.8685 177.708 49.9047C177.787 49.9351 177.873 49.9446 177.956 49.9325C178.04 49.9204 178.12 49.8871 178.187 49.8356C178.281 49.7672 178.349 49.6701 178.382 49.5591C178.408 49.477 178.408 49.4295 178.412 49.4295C178.423 49.4734 178.423 49.5195 178.412 49.5634C178.385 49.6876 178.316 49.7989 178.218 49.8788C178.143 49.9365 178.056 49.975 177.963 49.9909C177.871 50.0067 177.775 49.9994 177.686 49.9695C177.574 49.9314 177.477 49.8592 177.408 49.7632C177.34 49.6671 177.303 49.5519 177.303 49.4338C177.303 49.3157 177.34 49.2005 177.408 49.1044C177.477 49.0084 177.574 48.9362 177.686 48.8981C177.776 48.8665 177.871 48.8578 177.965 48.8729C178.059 48.888 178.147 48.9264 178.222 48.9845C178.321 49.0621 178.39 49.1722 178.416 49.2956C178.429 49.3394 178.429 49.3857 178.416 49.4295Z" fill="#263238"/>
<path d="M181.873 49.408C181.873 49.408 181.873 49.3604 181.842 49.2827C181.81 49.1702 181.74 49.0724 181.644 49.0062C181.575 48.9565 181.496 48.9246 181.412 48.9133C181.328 48.902 181.243 48.9116 181.164 48.9414C181.093 48.9641 181.027 49.0025 180.972 49.0537C180.917 49.1049 180.875 49.1676 180.847 49.2374C180.82 49.3072 180.808 49.3822 180.813 49.457C180.818 49.5318 180.84 49.6046 180.876 49.67C180.913 49.7354 180.964 49.7919 181.025 49.8353C181.086 49.8787 181.156 49.9079 181.23 49.9209C181.304 49.9338 181.38 49.9302 181.452 49.9102C181.524 49.8903 181.591 49.8545 181.648 49.8054C181.742 49.7347 181.811 49.6366 181.847 49.5246C181.868 49.4425 181.868 49.395 181.873 49.395C181.884 49.4389 181.884 49.485 181.873 49.5289C181.848 49.6529 181.781 49.7644 181.682 49.8443C181.6 49.9093 181.501 49.9501 181.396 49.9619C181.292 49.9738 181.186 49.9563 181.091 49.9115C180.996 49.8666 180.915 49.7961 180.858 49.708C180.801 49.6198 180.769 49.5174 180.767 49.4123C180.766 49.2946 180.802 49.1797 180.87 49.0832C180.937 48.9866 181.032 48.913 181.142 48.8723C181.231 48.8406 181.326 48.832 181.419 48.8471C181.512 48.8622 181.6 48.9006 181.674 48.9587C181.775 49.0344 181.845 49.1454 181.868 49.2697C181.883 49.3144 181.884 49.3624 181.873 49.408Z" fill="#263238"/>
<path d="M182.991 44.5284C183.816 44.3502 184.341 43.5365 184.163 42.7109C183.985 41.8853 183.171 41.3605 182.345 41.5387C181.52 41.7169 180.995 42.5306 181.173 43.3562C181.351 44.1818 182.165 44.7066 182.991 44.5284Z" fill="#009955"/>
<path d="M182.857 42.4526V43.6147H182.585V42.6686H182.352V42.4526H182.857Z" fill="white"/>
<path d="M170.865 183.855H126.209C122.897 183.855 120.213 186.54 120.213 189.851V192.728C120.213 196.04 122.897 198.724 126.209 198.724H170.865C174.176 198.724 176.861 196.04 176.861 192.728V189.851C176.861 186.54 174.176 183.855 170.865 183.855Z" fill="#009955"/>
<g opacity="0.3">
<path opacity="0.3" d="M170.865 183.855H126.209C122.897 183.855 120.213 186.54 120.213 189.851V192.728C120.213 196.04 122.897 198.724 126.209 198.724H170.865C174.176 198.724 176.861 196.04 176.861 192.728V189.851C176.861 186.54 174.176 183.855 170.865 183.855Z" fill="black"/>
</g>
<path d="M168.666 183.855H124.01C120.698 183.855 118.014 186.54 118.014 189.851V192.728C118.014 196.04 120.698 198.724 124.01 198.724H168.666C171.977 198.724 174.662 196.04 174.662 192.728V189.851C174.662 186.54 171.977 183.855 168.666 183.855Z" fill="#009955"/>
<path d="M144.633 190.473C144.633 191.233 144.08 191.696 143.169 191.696H142.305V192.763H141.804V189.246H143.177C144.08 189.246 144.633 189.708 144.633 190.473ZM144.132 190.473C144.132 189.968 143.795 189.682 143.152 189.682H142.288V191.259H143.152C143.795 191.259 144.132 190.974 144.132 190.473Z" fill="white"/>
<path d="M147.438 191.881H145.585L145.2 192.745H144.682L146.276 189.229H146.773L148.367 192.745H147.84L147.438 191.881ZM147.261 191.48L146.505 189.752L145.744 191.48H147.261Z" fill="white"/>
<path d="M150.007 191.544V192.763H149.511V191.536L148.115 189.246H148.651L149.774 191.099L150.906 189.246H151.403L150.007 191.544Z" fill="white"/>
<path d="M131.406 131.073C131.534 130.245 131.497 129.399 131.297 128.585C131.097 127.771 130.738 127.005 130.24 126.33C129.743 125.656 129.117 125.086 128.398 124.655C127.68 124.223 126.883 123.938 126.054 123.816C125.962 123.78 125.862 123.772 125.766 123.794C125.67 123.815 125.583 123.865 125.516 123.937C125.448 124.008 125.404 124.098 125.388 124.195C125.372 124.292 125.386 124.392 125.427 124.481C125.578 126.096 126.238 127.622 127.31 128.839C128.383 130.056 129.814 130.902 131.398 131.255" fill="#455A64"/>
<path d="M122.502 142.802C124.105 146.106 126.39 148.331 129.263 148.439C129.833 148.439 130.265 148.085 130.81 148.05C131.128 148.123 131.435 148.239 131.721 148.396C131.873 148.46 132.036 148.497 132.201 148.504C135.147 148.344 137.661 146.271 139.355 142.802C141.709 137.942 140.983 132.723 137.73 131.138C137.302 130.924 136.855 130.751 136.396 130.619C135.87 130.472 135.325 130.408 134.78 130.429C133.511 130.51 132.263 130.791 131.082 131.263L130.922 131.323C128.278 130.153 126.17 130.148 124.118 131.138C120.865 132.723 120.144 137.942 122.502 142.802Z" fill="#009955"/>
<path d="M122.559 137.882C122.406 137.577 122.315 137.245 122.291 136.905C122.194 136.083 122.293 135.25 122.58 134.474C122.867 133.698 123.333 133 123.941 132.438C124.178 132.194 124.463 132.001 124.779 131.873C124.801 131.903 124.477 132.114 124.049 132.551C123.498 133.121 123.071 133.799 122.795 134.543C122.519 135.286 122.401 136.079 122.446 136.871C122.489 137.497 122.597 137.869 122.559 137.882Z" fill="#FAFAFA"/>
<path d="M123.155 140.188C123.094 140.188 122.991 139.972 122.922 139.679C122.853 139.385 122.848 139.13 122.922 139.113C122.995 139.095 123.086 139.329 123.155 139.627C123.224 139.925 123.215 140.175 123.155 140.188Z" fill="#FAFAFA"/>
<path d="M138.132 123.12C138.132 123.163 137.518 123.397 136.603 123.945C136.069 124.269 135.559 124.631 135.078 125.03C134.502 125.528 133.97 126.074 133.488 126.663C133.001 127.257 132.568 127.893 132.192 128.563C131.896 129.112 131.642 129.683 131.432 130.27C131.073 131.281 130.969 131.937 130.926 131.929C130.923 131.772 130.94 131.615 130.978 131.462C131.001 131.28 131.037 131.099 131.086 130.922C131.139 130.686 131.204 130.452 131.28 130.222C131.471 129.615 131.715 129.027 132.01 128.464C132.737 127.081 133.737 125.86 134.948 124.874C135.438 124.476 135.961 124.12 136.512 123.811C136.723 123.69 136.941 123.58 137.164 123.483C137.328 123.401 137.497 123.329 137.67 123.267C137.818 123.2 137.973 123.151 138.132 123.12Z" fill="#263238"/>
<path d="M178.139 77.911C175.5 74.2304 169.897 71.7075 165.344 72.3857C161.654 72.9344 158.388 74.6494 156.6 78.3128C156.481 78.552 156.421 78.8163 156.426 79.0834C156.431 79.3505 156.499 79.6125 156.626 79.8475C156.753 80.0825 156.935 80.2835 157.156 80.4337C157.377 80.5839 157.631 80.6787 157.896 80.7104C164.043 81.4441 170.256 81.4238 176.398 80.6499C177.349 80.5289 178.472 80.2654 178.537 79.0947C178.543 78.6664 178.403 78.2489 178.139 77.911Z" fill="#009955"/>
<path d="M163.564 77.7297C163.542 77.7297 163.352 77.5612 163.102 77.2156C162.768 76.7582 162.53 76.238 162.402 75.6864C162.294 75.1374 162.247 74.5781 162.264 74.0188C162.247 73.7869 162.266 73.5539 162.32 73.3276C162.393 73.5476 162.428 73.7784 162.423 74.0102C162.454 74.5554 162.521 75.098 162.622 75.6345C162.747 76.162 162.954 76.6664 163.236 77.1292C163.37 77.3145 163.481 77.5163 163.564 77.7297Z" fill="#263238"/>
<path d="M167.478 77.5485C167.409 77.5485 167.504 76.503 167.37 75.233C167.236 73.9629 166.938 72.965 166.994 72.9434C167.344 73.65 167.546 74.42 167.59 75.207C167.709 75.9872 167.671 76.7832 167.478 77.5485Z" fill="#263238"/>
<path d="M171.504 76.9522C171.444 76.9263 171.746 76.2264 171.819 75.3106C171.893 74.3947 171.724 73.656 171.789 73.6431C172.006 74.178 172.094 74.7567 172.044 75.3319C171.995 75.9071 171.81 76.4623 171.504 76.9522Z" fill="#263238"/>
<g opacity="0.3">
<path opacity="0.3" d="M166.752 72.5762L166.787 72.6416L166.752 72.5762Z" fill="black"/>
</g>
<g opacity="0.3">
<path opacity="0.3" d="M166.791 72.6235C166.387 73.3627 166.233 74.2122 166.349 75.0462C166.466 75.8802 166.848 76.6545 167.439 77.2546C167.821 75.6847 167.589 74.0282 166.791 72.6235Z" fill="black"/>
</g>
<g opacity="0.3">
<path opacity="0.3" d="M163.032 77.0815C162.613 76.3215 162.363 75.4802 162.298 74.6148C162.302 74.2327 162.247 73.8523 162.134 73.4873C161.679 74.0525 161.456 74.7685 161.507 75.4918C161.569 76.2517 161.925 76.9573 162.501 77.4574C162.587 77.5377 162.69 77.5969 162.803 77.6302C162.86 77.6441 162.92 77.6403 162.975 77.6195C163.03 77.5987 163.077 77.5617 163.11 77.5135C163.188 77.3796 163.11 77.2155 163.032 77.0815Z" fill="black"/>
</g>
<g opacity="0.3">
<path opacity="0.3" d="M171.871 73.9845C171.856 73.8335 171.812 73.6869 171.742 73.5525C171.705 73.4872 171.651 73.4337 171.585 73.3985C171.519 73.3633 171.445 73.3477 171.37 73.3538C171.167 73.3884 171.068 73.6173 171.007 73.8161C170.667 74.6685 170.564 75.5969 170.709 76.5031C170.757 76.7061 170.891 76.9351 171.102 76.9351C171.314 76.9351 171.37 76.7623 171.444 76.6197C171.858 75.8076 172.008 74.8861 171.871 73.9845Z" fill="black"/>
</g>
<path d="M121.6 101.645V102.051H121.302V101.649C120.982 101.641 120.673 101.536 120.416 101.347L120.576 100.984C120.788 101.14 121.039 101.234 121.302 101.256V100.535C120.9 100.436 120.468 100.306 120.468 99.8005C120.468 99.4333 120.736 99.1093 121.302 99.0575V98.6255H121.6V99.0272C121.859 99.0398 122.111 99.1155 122.334 99.2476L122.183 99.6148C122.004 99.5098 121.806 99.4436 121.6 99.4204V100.15C122.001 100.245 122.438 100.375 122.438 100.876C122.438 101.269 122.166 101.585 121.6 101.645ZM121.302 100.094V99.4506C121.047 99.4895 120.934 99.6234 120.934 99.7789C120.934 99.9344 121.09 100.034 121.302 100.094ZM121.976 100.932C121.976 100.755 121.816 100.669 121.6 100.608V101.248C121.863 101.209 121.976 101.088 121.976 100.932Z" fill="#263238"/>
<path d="M124.602 99.0835V101.615H124.131V99.4766H123.596V99.0835H124.602Z" fill="#263238"/>
<path d="M125.682 101.339C125.676 101.448 125.648 101.555 125.6 101.654L125.414 102.164H125.12L125.267 101.606C125.215 101.585 125.17 101.548 125.14 101.5C125.11 101.451 125.096 101.395 125.099 101.339C125.094 101.297 125.098 101.255 125.11 101.216C125.122 101.176 125.143 101.139 125.171 101.108C125.198 101.077 125.232 101.052 125.27 101.035C125.308 101.018 125.349 101.009 125.39 101.009C125.432 101.009 125.473 101.018 125.511 101.035C125.549 101.052 125.583 101.077 125.61 101.108C125.638 101.139 125.659 101.176 125.671 101.216C125.683 101.255 125.687 101.297 125.682 101.339Z" fill="#263238"/>
<path d="M127.829 100.837C127.829 101.269 127.509 101.654 126.826 101.654C126.486 101.659 126.154 101.556 125.876 101.36L126.075 100.993C126.289 101.158 126.552 101.246 126.822 101.243C127.155 101.243 127.358 101.097 127.358 100.855C127.358 100.613 127.198 100.462 126.675 100.462H126.066L126.196 99.0835H127.682V99.4766H126.576L126.52 100.064H126.762C127.531 100.064 127.829 100.388 127.829 100.837Z" fill="#263238"/>
<path d="M128.101 100.349C128.101 99.5155 128.559 99.0532 129.159 99.0532C129.759 99.0532 130.217 99.5241 130.217 100.349C130.217 101.174 129.764 101.645 129.159 101.645C128.554 101.645 128.101 101.183 128.101 100.349ZM129.746 100.349C129.746 99.7358 129.505 99.455 129.159 99.455C128.813 99.455 128.576 99.7358 128.576 100.349C128.576 100.963 128.813 101.243 129.159 101.243C129.505 101.243 129.746 100.958 129.746 100.349Z" fill="#263238"/>
<path d="M140.689 104.842C140.689 104.907 136.045 104.955 130.321 104.955C124.597 104.955 119.953 104.907 119.953 104.842C119.953 104.778 124.597 104.73 130.321 104.73C136.045 104.73 140.689 104.782 140.689 104.842Z" fill="#263238"/>
<path d="M129.6 106.531C129.6 106.596 127.44 106.644 124.783 106.644C122.126 106.644 119.962 106.596 119.962 106.531C119.962 106.466 122.122 106.419 124.783 106.419C127.444 106.419 129.6 106.471 129.6 106.531Z" fill="#263238"/>
<path d="M157.961 91.2862V91.6923H157.68V91.2905C157.37 91.2774 157.069 91.1738 156.816 90.9925L156.976 90.6253C157.187 90.7851 157.439 90.8811 157.702 90.9017V90.176C157.3 90.081 156.868 89.947 156.868 89.4459C156.868 89.0787 157.136 88.7547 157.702 88.6986V88.2925H158V88.6942C158.26 88.7034 158.513 88.7792 158.734 88.9146L158.583 89.2774C158.405 89.1725 158.206 89.1062 158 89.083V89.8131C158.402 89.9125 158.838 90.0377 158.838 90.5432C158.799 90.9104 158.544 91.2301 157.961 91.2862ZM157.663 89.7397V89.096C157.404 89.1349 157.296 89.2645 157.296 89.4243C157.296 89.5842 157.451 89.6792 157.68 89.7397H157.663ZM158.337 90.5734C158.337 90.3963 158.177 90.3142 157.961 90.2537V90.8931C158.225 90.8542 158.337 90.7203 158.337 90.5734Z" fill="#263238"/>
<path d="M161.923 90.8624V91.2598H160.052V90.9444L161.059 89.9897C161.305 89.7521 161.348 89.6052 161.348 89.4627C161.348 89.2337 161.188 89.0998 160.877 89.0998C160.765 89.0939 160.652 89.1146 160.55 89.1604C160.447 89.2062 160.356 89.2758 160.285 89.3633L159.957 89.1084C160.072 88.9664 160.219 88.8532 160.385 88.7782C160.552 88.7032 160.734 88.6683 160.916 88.6764C161.469 88.6764 161.823 88.9529 161.823 89.4022C161.818 89.5598 161.777 89.7141 161.702 89.8528C161.627 89.9915 161.52 90.1109 161.391 90.2014L160.713 90.8494L161.923 90.8624Z" fill="#263238"/>
<path d="M162.807 90.9837C162.801 91.0918 162.773 91.1974 162.725 91.2948L162.54 91.8045H162.246L162.393 91.2516C162.34 91.2302 162.295 91.193 162.264 91.145C162.233 91.0971 162.218 91.0407 162.22 90.9837C162.22 90.9058 162.251 90.8311 162.306 90.776C162.361 90.7209 162.436 90.6899 162.514 90.6899C162.592 90.6899 162.666 90.7209 162.721 90.776C162.777 90.8311 162.807 90.9058 162.807 90.9837Z" fill="#263238"/>
<path d="M164.985 90.8626V91.26H163.115V90.9446L164.121 89.9899C164.367 89.7523 164.411 89.6054 164.411 89.4629C164.411 89.2339 164.251 89.1 163.94 89.1C163.827 89.0941 163.715 89.1148 163.612 89.1606C163.509 89.2064 163.419 89.276 163.348 89.3635L163.02 89.1086C163.135 88.966 163.282 88.8525 163.45 88.7774C163.617 88.7023 163.8 88.6678 163.983 88.6766C164.532 88.6766 164.886 88.9531 164.886 89.4024C164.881 89.56 164.839 89.7143 164.764 89.853C164.689 89.9917 164.583 90.1111 164.454 90.2016L163.776 90.8496L164.985 90.8626Z" fill="#263238"/>
<path d="M167.098 90.4823C167.098 90.9143 166.778 91.2945 166.096 91.2945C165.756 91.3017 165.422 91.1986 165.146 91.0007L165.344 90.6379C165.557 90.8006 165.819 90.8873 166.087 90.8841C166.424 90.8841 166.623 90.7372 166.623 90.4996C166.623 90.262 166.467 90.1022 165.945 90.1022H165.331L165.465 88.7241H166.951V89.1216H165.863L165.806 89.7048H166.048C166.8 89.7048 167.098 90.0331 167.098 90.4823Z" fill="#263238"/>
<path d="M177.051 94.4868C177.051 94.5473 172.407 94.5992 166.683 94.5992C160.959 94.5992 156.315 94.5473 156.315 94.4868C156.315 94.4264 160.964 94.3745 166.683 94.3745C172.403 94.3745 177.051 94.4264 177.051 94.4868Z" fill="#263238"/>
<path d="M165.97 96.1763C165.97 96.2368 163.81 96.2886 161.149 96.2886C158.488 96.2886 156.332 96.2368 156.332 96.1763C156.332 96.1158 158.492 96.064 161.149 96.064C163.806 96.064 165.97 96.1158 165.97 96.1763Z" fill="#263238"/>
<path d="M120.77 154.224V154.63H120.472V154.224C120.153 154.215 119.844 154.11 119.586 153.922L119.75 153.559C119.96 153.717 120.21 153.811 120.472 153.831V153.11C120.07 153.01 119.642 152.881 119.642 152.379C119.642 152.008 119.91 151.688 120.472 151.632V151.222H120.77V151.632C121.029 151.645 121.281 151.72 121.504 151.852L121.357 152.22C121.177 152.115 120.977 152.049 120.77 152.025V152.755C121.171 152.855 121.608 152.98 121.608 153.481C121.608 153.844 121.34 154.164 120.77 154.224ZM120.472 152.673V152.03C120.217 152.073 120.109 152.202 120.109 152.362C120.109 152.522 120.264 152.608 120.472 152.669V152.673ZM121.145 153.511C121.145 153.334 120.986 153.252 120.77 153.187V153.831C121.033 153.792 121.145 153.662 121.145 153.507V153.511Z" fill="#263238"/>
<path d="M122.896 152.928C122.896 152.094 123.353 151.632 123.954 151.632C124.554 151.632 125.012 152.098 125.012 152.928C125.012 153.757 124.559 154.224 123.954 154.224C123.349 154.224 122.896 153.757 122.896 152.928ZM124.541 152.928C124.541 152.319 124.3 152.034 123.954 152.034C123.608 152.034 123.371 152.319 123.371 152.928C123.371 153.537 123.608 153.822 123.954 153.822C124.3 153.822 124.541 153.537 124.541 152.928Z" fill="#263238"/>
<path d="M125.868 153.917C125.861 154.025 125.833 154.131 125.786 154.228L125.6 154.738H125.31L125.453 154.185C125.401 154.163 125.357 154.125 125.327 154.077C125.297 154.029 125.282 153.974 125.284 153.917C125.279 153.876 125.283 153.834 125.295 153.794C125.308 153.755 125.328 153.718 125.356 153.687C125.384 153.656 125.417 153.631 125.455 153.614C125.493 153.597 125.534 153.588 125.576 153.588C125.618 153.588 125.659 153.597 125.697 153.614C125.734 153.631 125.768 153.656 125.796 153.687C125.823 153.718 125.844 153.755 125.856 153.794C125.869 153.834 125.873 153.876 125.868 153.917Z" fill="#263238"/>
<path d="M128.014 153.412C128.014 153.844 127.694 154.228 127.012 154.228C126.672 154.235 126.338 154.132 126.062 153.934L126.26 153.567C126.473 153.731 126.735 153.82 127.003 153.818C127.34 153.818 127.539 153.671 127.539 153.429C127.539 153.187 127.383 153.036 126.861 153.036H126.247L126.381 151.658H127.872V152.064H126.783L126.727 152.651H126.969C127.716 152.638 128.014 152.962 128.014 153.412Z" fill="#263238"/>
<path d="M128.304 152.928C128.304 152.094 128.762 151.632 129.362 151.632C129.963 151.632 130.421 152.098 130.421 152.928C130.421 153.757 129.967 154.224 129.362 154.224C128.757 154.224 128.304 153.757 128.304 152.928ZM129.95 152.928C129.95 152.319 129.708 152.034 129.362 152.034C129.017 152.034 128.779 152.319 128.779 152.928C128.779 153.537 129.017 153.822 129.362 153.822C129.708 153.822 129.932 153.537 129.932 152.928H129.95Z" fill="#263238"/>
<path d="M139.864 157.421C139.864 157.481 135.216 157.533 129.496 157.533C123.776 157.533 119.128 157.481 119.128 157.421C119.128 157.36 123.772 157.309 129.496 157.309C135.22 157.309 139.864 157.356 139.864 157.421Z" fill="#263238"/>
<path d="M128.779 159.11C128.779 159.17 126.619 159.222 123.962 159.222C121.306 159.222 119.146 159.17 119.146 159.11C119.146 159.049 121.306 158.998 123.962 158.998C126.619 158.998 128.779 159.045 128.779 159.11Z" fill="#263238"/>
<path d="M156.276 140.512V140.918H155.983V140.517C155.662 140.508 155.352 140.403 155.093 140.214L155.257 139.851C155.468 140.01 155.72 140.104 155.983 140.123V139.402C155.581 139.303 155.149 139.173 155.149 138.672C155.149 138.3 155.417 137.981 155.983 137.925V137.514H156.276V137.916C156.536 137.929 156.788 138.004 157.011 138.136L156.864 138.503C156.684 138.398 156.484 138.332 156.276 138.309V139.039C156.678 139.138 157.115 139.264 157.115 139.765C157.115 140.136 156.847 140.456 156.276 140.512ZM155.983 138.961V138.318C155.723 138.361 155.615 138.49 155.615 138.65C155.615 138.81 155.771 138.901 155.983 138.961ZM156.652 139.799C156.652 139.622 156.492 139.54 156.276 139.475V140.119C156.54 140.076 156.652 139.968 156.652 139.799Z" fill="#263238"/>
<path d="M159.278 137.951V140.482H158.807V138.344H158.271V137.951H159.278Z" fill="#263238"/>
<path d="M160.363 140.21C160.356 140.318 160.328 140.423 160.281 140.521L160.095 141.031H159.802L159.944 140.478C159.892 140.455 159.849 140.417 159.818 140.37C159.788 140.322 159.773 140.266 159.776 140.21C159.776 140.132 159.807 140.057 159.862 140.002C159.917 139.947 159.991 139.916 160.069 139.916C160.147 139.916 160.222 139.947 160.277 140.002C160.332 140.057 160.363 140.132 160.363 140.21Z" fill="#263238"/>
<path d="M160.622 139.216C160.622 138.383 161.08 137.92 161.68 137.92C162.281 137.92 162.739 138.387 162.739 139.216C162.739 140.046 162.307 140.512 161.68 140.512C161.054 140.512 160.622 140.05 160.622 139.216ZM162.268 139.216C162.268 138.607 162.026 138.322 161.68 138.322C161.335 138.322 161.097 138.607 161.097 139.216C161.097 139.826 161.335 140.111 161.68 140.111C162.026 140.111 162.268 139.83 162.268 139.216Z" fill="#263238"/>
<path d="M163.059 139.216C163.059 138.383 163.517 137.92 164.117 137.92C164.717 137.92 165.175 138.387 165.175 139.216C165.175 140.046 164.722 140.512 164.117 140.512C163.512 140.512 163.059 140.05 163.059 139.216ZM164.705 139.216C164.705 138.607 164.463 138.322 164.117 138.322C163.771 138.322 163.534 138.607 163.534 139.216C163.534 139.826 163.771 140.111 164.117 140.111C164.463 140.111 164.705 139.83 164.705 139.216Z" fill="#263238"/>
<path d="M175.392 143.713C175.392 143.774 170.744 143.826 165.024 143.826C159.305 143.826 154.656 143.774 154.656 143.713C154.656 143.653 159.3 143.597 165.024 143.597C170.748 143.597 175.392 143.649 175.392 143.713Z" fill="#263238"/>
<path d="M164.285 145.402C164.285 145.463 162.125 145.515 159.468 145.515C156.811 145.515 154.651 145.463 154.651 145.402C154.651 145.342 156.811 145.286 159.468 145.286C162.125 145.286 164.285 145.337 164.285 145.402Z" fill="#263238"/>
<path d="M159.737 46.8848C159.737 46.9453 154.73 46.9971 148.557 46.9971C142.383 46.9971 137.372 46.9453 137.372 46.8848C137.372 46.8243 142.379 46.7725 148.557 46.7725C154.734 46.7725 159.737 46.82 159.737 46.8848Z" fill="#009955"/>
<path d="M14.0833 181.029C13.415 181.057 12.7751 181.307 12.266 181.741C11.757 182.175 11.4081 182.767 11.2753 183.423C10.9946 184.476 10.7739 185.545 10.6143 186.624C10.6143 186.624 8.07851 188.905 10.6143 189.514C13.1502 190.123 14.0703 186.706 14.0703 186.706L14.4591 181.012L14.0833 181.029Z" fill="#FFBE9D"/>
<path d="M39.4766 137.376C39.4766 137.376 47.3994 110.769 48.2073 109.624C49.5378 107.728 62.3639 102.025 62.3639 102.025L65.8199 95.0097L87.1218 91.584L92.4052 98.3837L107.253 109.296L106.216 146.932L105.663 173.21L108.476 206.016L41.0404 205.891L44.0903 198.979L47.2914 139.311L39.4766 137.376Z" fill="#009955"/>
<path d="M48.613 133.786C48.5933 133.716 48.5846 133.643 48.587 133.57C48.587 133.401 48.587 133.198 48.5525 132.952C48.5525 132.416 48.5049 131.656 48.4877 130.684C48.4531 128.766 48.4531 126.118 48.5352 123.193C48.6173 120.269 48.7728 117.625 48.9197 115.711C48.9888 114.756 49.0579 113.983 49.1141 113.452L49.1789 112.838C49.1854 112.767 49.1984 112.696 49.2178 112.626C49.23 112.698 49.23 112.771 49.2178 112.842C49.2178 113.007 49.2178 113.21 49.1918 113.456C49.1616 114.026 49.1184 114.791 49.0666 115.724C48.9629 117.638 48.8333 120.277 48.7512 123.202C48.6691 126.126 48.6432 128.766 48.6389 130.684C48.6389 131.617 48.6389 132.382 48.6389 132.952C48.6389 133.198 48.6389 133.384 48.6389 133.57C48.6406 133.643 48.6318 133.715 48.613 133.786Z" fill="#263238"/>
<g opacity="0.3">
<path opacity="0.3" d="M63.889 126.144C63.8727 125.846 63.9596 125.551 64.1353 125.31C64.4311 124.947 64.8366 124.691 65.2908 124.579C65.7449 124.466 66.2233 124.505 66.6538 124.688C67.7813 125.228 68.3429 126.524 68.5719 127.755C68.8181 129.103 68.7836 130.494 69.0385 131.842C69.2933 133.19 69.9025 134.563 71.0905 135.259C72.5549 136.123 74.4773 135.734 76.0153 136.46C78.3049 137.536 78.8362 140.512 78.9529 143.043C79.1689 147.834 78.9529 152.63 78.7541 157.42L77.4322 188.015L76.2269 203.364L70.0234 205.999L61.8154 152.064L63.889 126.144Z" fill="black"/>
</g>
<path d="M65.664 121.772C65.6174 121.812 65.563 121.841 65.5042 121.858C65.3354 121.919 65.1544 121.937 64.9771 121.91C64.6525 121.853 64.3498 121.708 64.1016 121.491C63.8534 121.274 63.6692 120.993 63.5688 120.679C63.4355 120.249 63.3929 119.796 63.4435 119.349C63.5007 118.848 63.5844 118.35 63.6941 117.858C63.9014 116.813 64.1261 115.672 64.368 114.476C64.8518 112.078 65.3011 109.909 65.6381 108.341L66.0701 106.488C66.1119 106.259 66.1711 106.034 66.2472 105.814C66.2383 106.047 66.208 106.278 66.1565 106.505C66.0658 106.985 65.9534 107.615 65.8152 108.376C65.5171 109.948 65.0894 112.121 64.6056 114.519C64.3594 115.715 64.1261 116.856 63.9144 117.897C63.7027 118.938 63.4824 119.88 63.7373 120.632C63.8244 120.925 63.9879 121.19 64.2111 121.399C64.4342 121.609 64.709 121.755 65.0074 121.824C65.2274 121.855 65.4516 121.838 65.664 121.772Z" fill="#263238"/>
<path d="M67.8495 111.762C67.8495 111.784 67.6724 111.784 67.3787 111.875C66.9665 112.011 66.6041 112.267 66.3375 112.609C66.1371 112.852 66.0024 113.143 65.9464 113.453C65.8904 113.763 65.915 114.082 66.0179 114.38C66.1308 114.75 66.3523 115.077 66.6536 115.319C66.9548 115.561 67.3219 115.707 67.7072 115.738C68.0925 115.769 68.4781 115.683 68.8139 115.492C69.1498 115.3 69.4204 115.012 69.5905 114.665C69.7393 114.388 69.8142 114.077 69.8082 113.762C69.8021 113.448 69.7153 113.14 69.5559 112.868C69.3485 112.487 69.0308 112.177 68.6444 111.978C68.3679 111.84 68.2124 111.814 68.2124 111.793C68.2124 111.771 68.2556 111.793 68.3377 111.793C68.4598 111.809 68.5791 111.842 68.6919 111.892C69.1177 112.071 69.474 112.383 69.7071 112.782C69.8723 113.057 69.9742 113.365 70.0052 113.685C70.0391 114.055 69.9641 114.428 69.7892 114.756C69.604 115.144 69.3053 115.467 68.9326 115.682C68.56 115.897 68.131 115.994 67.7022 115.959C67.2734 115.925 66.8651 115.762 66.5312 115.491C66.1973 115.219 65.9536 114.853 65.8321 114.441C65.7107 114.089 65.6956 113.708 65.7889 113.348C65.8887 112.971 66.0876 112.627 66.3648 112.353C66.6421 112.079 66.9877 111.884 67.3657 111.788C67.4854 111.756 67.6091 111.742 67.7329 111.745C67.7725 111.744 67.812 111.75 67.8495 111.762Z" fill="#263238"/>
<path d="M75.1037 139.268L36.1546 132.218L17.9717 136.209L58.6574 143.532L75.1037 139.268Z" fill="#009955"/>
<g opacity="0.6">
<path opacity="0.6" d="M75.1037 139.268L36.1546 132.218L17.9717 136.209L58.6574 143.532L75.1037 139.268Z" fill="black"/>
</g>
<path d="M50.1982 156.254C50.7253 149.074 52.6952 130.84 54.1726 123.794C54.6046 121.686 55.123 119.53 56.3326 117.746C57.5422 115.962 59.6763 114.657 61.8018 114.985C63.7026 115.279 65.2318 116.821 66.0008 118.584C66.7521 120.367 67.0875 122.298 66.9815 124.23C66.6143 132.939 65.8626 142.694 65.8712 150.768" fill="#455A64"/>
<path d="M63.3878 139.156C62.9151 139.333 62.4335 139.486 61.9449 139.614C59.62 140.332 57.3949 141.341 55.3224 142.616C54.9045 142.901 54.4719 143.163 54.0264 143.402C54.0264 143.402 54.1257 143.294 54.3331 143.13C54.5404 142.966 54.8472 142.746 55.236 142.482C56.2568 141.804 57.3301 141.209 58.4457 140.702C59.5618 140.195 60.7177 139.78 61.9017 139.462C62.3553 139.342 62.7268 139.255 62.9817 139.208C63.1143 139.173 63.2508 139.155 63.3878 139.156Z" fill="#263238"/>
<path d="M64.035 130.87C64.035 130.905 63.4518 131.034 62.5187 131.324C60.083 132.072 57.808 133.268 55.8097 134.849C55.0451 135.454 54.6001 135.868 54.5742 135.842C54.6549 135.724 54.7491 135.615 54.855 135.518C55.0451 135.32 55.3345 135.048 55.719 134.728C56.6967 133.892 57.7646 133.167 58.9029 132.568C60.0415 131.97 61.2425 131.499 62.4841 131.164C62.8581 131.059 63.2374 130.974 63.6203 130.909C63.7557 130.875 63.8956 130.862 64.035 130.87Z" fill="#263238"/>
<path d="M63.163 124.2C63.163 124.239 62.7007 124.26 61.9707 124.394C61.0214 124.57 60.1011 124.877 59.2361 125.306C58.3732 125.739 57.5738 126.288 56.8601 126.939C56.3115 127.44 55.9961 127.803 55.9961 127.772C55.9961 127.742 56.0479 127.664 56.1732 127.496C56.3509 127.257 56.5458 127.032 56.7564 126.822C58.1545 125.414 59.9755 124.504 61.9404 124.23C62.2353 124.189 62.5327 124.169 62.8303 124.169C63.0463 124.174 63.1587 124.182 63.163 124.2Z" fill="#263238"/>
<path d="M58.3204 144.97C58.3184 144.983 58.3184 144.996 58.3204 145.009V169.936C58.3204 171.029 57.4564 172.156 55.8191 173.011C54.1818 173.867 51.8447 174.45 48.9071 174.454H48.8682C42.9714 174.454 39.4463 172.126 39.4463 169.936V145.009C39.4474 144.996 39.4474 144.983 39.4463 144.97C39.4463 144.97 39.4463 144.94 39.4463 144.923C39.4463 142.486 41.2477 139.942 43.0535 137.428C44.2631 135.751 44.5525 133.332 44.6087 131.915C44.6087 131.743 44.6087 131.591 44.6087 131.453H44.4445C44.2729 131.468 44.1 131.448 43.936 131.395C43.772 131.342 43.6202 131.257 43.4895 131.145C43.3588 131.033 43.2517 130.896 43.1746 130.742C43.0976 130.588 43.052 130.42 43.0405 130.248V129.194C43.0509 129.021 43.0956 128.852 43.1723 128.697C43.2489 128.542 43.3557 128.404 43.4866 128.291C43.6174 128.178 43.7696 128.092 43.9341 128.038C44.0986 127.985 44.2722 127.965 44.4445 127.98H53.3005C53.5637 127.971 53.8241 128.036 54.0529 128.166C54.2816 128.297 54.4698 128.488 54.5965 128.719C54.6673 128.867 54.7042 129.029 54.7045 129.194V130.248C54.6931 130.42 54.6474 130.588 54.57 130.743C54.4927 130.897 54.3852 131.035 54.254 131.147C54.1228 131.259 53.9705 131.344 53.806 131.397C53.6416 131.449 53.4682 131.468 53.2962 131.453H53.1364C53.1364 131.591 53.1364 131.743 53.1364 131.915C53.1925 133.332 53.482 135.751 54.6959 137.428C56.4973 139.942 58.2901 142.486 58.3031 144.923C58.3204 144.94 58.3204 144.962 58.3204 144.97Z" fill="#FAFAFA"/>
<path d="M58.3206 144.971C58.3263 144.886 58.3263 144.801 58.3206 144.716C58.3048 144.466 58.2745 144.218 58.2298 143.973C58.0225 143.025 57.6745 142.113 57.1974 141.268C56.4305 139.927 55.5792 138.635 54.6486 137.402C54.0985 136.588 53.7058 135.678 53.4908 134.719C53.2346 133.651 53.1013 132.556 53.0934 131.458V131.38H53.1711C53.4986 131.402 53.8251 131.325 54.1086 131.16C54.2511 131.077 54.3737 130.964 54.4677 130.829C54.5618 130.694 54.625 130.54 54.6529 130.378C54.6529 130.045 54.6529 129.669 54.6529 129.311C54.6678 129.138 54.6407 128.963 54.5737 128.803C54.5068 128.643 54.402 128.501 54.2684 128.39C53.9861 128.161 53.6293 128.044 53.2662 128.062H49.6806H44.5786C44.3692 128.044 44.1582 128.07 43.96 128.14C43.7617 128.21 43.5808 128.322 43.4295 128.468C43.2853 128.618 43.189 128.808 43.153 129.012C43.1418 129.233 43.1418 129.453 43.153 129.673C43.153 129.894 43.153 130.144 43.153 130.347C43.1835 130.557 43.2769 130.753 43.4209 130.909C43.5752 131.066 43.7629 131.186 43.97 131.261C44.1771 131.336 44.3984 131.363 44.6175 131.341H44.7212V131.449C44.7141 132.465 44.6041 133.479 44.3929 134.473C44.1833 135.508 43.7787 136.493 43.2006 137.376C42.5914 138.24 41.965 139.104 41.3862 140.02C40.7871 140.93 40.2943 141.905 39.9174 142.927C39.7341 143.446 39.6165 143.986 39.5674 144.534C39.5372 145.074 39.5674 145.653 39.5674 146.215V156.712C39.5674 160.907 39.5674 165.007 39.5674 168.964C39.544 169.447 39.5672 169.932 39.6366 170.411C39.758 170.867 39.9911 171.286 40.3148 171.629C40.9661 172.322 41.7568 172.868 42.6346 173.232C43.4965 173.593 44.3944 173.861 45.313 174.031C46.2128 174.201 47.1239 174.304 48.039 174.338C49.801 174.428 51.5669 174.266 53.2834 173.858C54.1034 173.659 54.8987 173.369 55.6551 172.994C56.3874 172.645 57.0425 172.153 57.5818 171.547C57.8339 171.25 58.026 170.907 58.1478 170.536C58.2385 170.162 58.2705 169.776 58.2428 169.392V167.093C58.2428 165.594 58.2428 164.151 58.2428 162.773C58.2428 157.278 58.2687 152.837 58.2774 149.744C58.286 146.651 58.3162 144.966 58.3162 144.966C58.3293 145.071 58.3293 145.177 58.3162 145.282C58.3162 145.498 58.3162 145.804 58.3162 146.202C58.3162 147.018 58.3162 148.211 58.3162 149.744C58.3162 152.829 58.3162 157.278 58.3508 162.773C58.3508 164.147 58.3508 165.59 58.3508 167.093V169.979C58.3452 170.185 58.3133 170.39 58.2558 170.588C58.1285 170.983 57.9244 171.348 57.6553 171.664C57.1028 172.293 56.4282 172.803 55.6724 173.163C54.9041 173.537 54.0972 173.827 53.2662 174.027C51.5528 174.437 49.7904 174.606 48.0303 174.528C47.1052 174.496 46.1838 174.393 45.2742 174.221C44.3395 174.047 43.4257 173.775 42.5482 173.409C41.6389 173.043 40.8196 172.484 40.1463 171.772C39.798 171.408 39.5469 170.962 39.4162 170.476C39.3392 169.98 39.3131 169.478 39.3385 168.977V146.223C39.3385 145.653 39.3385 145.1 39.3385 144.526C39.3908 143.96 39.5127 143.403 39.7014 142.867C40.0841 141.827 40.5856 140.836 41.1961 139.912C41.775 138.992 42.41 138.123 43.0191 137.264C43.5778 136.4 43.9691 135.438 44.1726 134.43C44.3808 133.452 44.4923 132.457 44.5052 131.458L44.6046 131.557C44.3578 131.579 44.1093 131.546 43.8769 131.46C43.6445 131.374 43.4342 131.237 43.261 131.06C43.0885 130.875 42.9783 130.641 42.9457 130.391C42.9457 130.136 42.9457 129.924 42.9457 129.691C42.933 129.459 42.933 129.227 42.9457 128.995C42.9905 128.752 43.1063 128.528 43.2783 128.352C43.449 128.186 43.6528 128.059 43.8762 127.979C44.0996 127.899 44.3376 127.866 44.5743 127.885H49.6762H53.2402C53.6418 127.87 54.0351 128.002 54.3462 128.256C54.4968 128.383 54.6146 128.544 54.6898 128.726C54.765 128.908 54.7953 129.106 54.7782 129.302C54.7782 129.673 54.7782 130.015 54.7782 130.391C54.748 130.575 54.6773 130.75 54.5712 130.904C54.4651 131.058 54.3263 131.187 54.1647 131.28C53.8562 131.459 53.5008 131.541 53.1452 131.514L53.2143 131.445C53.2532 133.721 53.6938 135.829 54.722 137.324C55.6464 138.564 56.4892 139.863 57.2449 141.212C57.7195 142.066 58.0577 142.989 58.2471 143.947C58.2887 144.203 58.3133 144.461 58.3206 144.72C58.3355 144.803 58.3355 144.888 58.3206 144.971Z" fill="#263238"/>
<path d="M52.6526 131.392C51.3426 131.506 50.0271 131.544 48.7127 131.505C47.3969 131.544 46.08 131.506 44.7686 131.392C46.0801 131.281 47.3969 131.244 48.7127 131.28C50.0271 131.244 51.3424 131.281 52.6526 131.392Z" fill="#263238"/>
<path d="M57.5337 148.301C56.7389 147.783 55.6891 148.012 54.8338 148.418C53.9784 148.824 53.1706 149.39 52.2418 149.537C51.1488 149.714 50.0472 149.278 49.0752 148.729C48.1032 148.18 47.183 147.502 46.1376 147.126C45.1236 146.784 44.0339 146.732 42.9922 146.978C41.9505 147.224 40.9988 147.757 40.2451 148.517V169.919C40.2451 169.919 41.4202 173.569 49.6973 172.999C57.9744 172.429 57.3221 168.769 57.3221 168.769L57.5337 148.301Z" fill="#009955"/>
<path d="M35.606 133.734C35.7284 132.944 35.693 132.138 35.5019 131.362C35.3108 130.586 34.9676 129.855 34.4924 129.212C34.0172 128.569 33.4192 128.027 32.7332 127.617C32.0471 127.207 31.2865 126.937 30.4954 126.822C30.3504 126.785 30.1968 126.802 30.0634 126.87C29.8863 126.991 29.882 127.246 29.8992 127.457C30.044 129.001 30.6736 130.459 31.6979 131.623C32.7223 132.787 34.0888 133.597 35.6016 133.937" fill="#455A64"/>
<path d="M27.1081 144.927C28.6373 148.081 30.8362 150.206 33.5621 150.31C34.1065 150.31 34.5169 149.969 35.0353 149.939C35.3367 150.009 35.6273 150.119 35.8993 150.267C36.0359 150.327 36.1822 150.362 36.3313 150.371C39.1479 150.219 41.5455 148.241 43.1612 144.927C45.4119 140.292 44.7164 135.311 41.6103 133.795C41.2027 133.591 40.7776 133.425 40.3402 133.298C39.8377 133.163 39.3181 133.102 38.798 133.116C37.5971 133.202 36.4167 133.473 35.2988 133.92L35.1476 133.976C32.6204 132.862 30.6073 132.853 28.6676 133.799C25.5442 135.311 24.853 140.292 27.1081 144.927Z" fill="#009955"/>
<path d="M27.1604 140.232C27.013 139.941 26.9249 139.624 26.9012 139.298C26.8093 138.514 26.9042 137.718 27.1783 136.977C27.4523 136.236 27.8977 135.571 28.478 135.035C28.707 134.803 28.9802 134.619 29.2815 134.495C29.2815 134.529 28.9964 134.728 28.586 135.147C28.0615 135.696 27.6544 136.345 27.3894 137.056C27.1264 137.769 27.0146 138.528 27.061 139.286C27.0956 139.864 27.2166 140.219 27.1604 140.232Z" fill="#FAFAFA"/>
<path d="M27.7343 142.435C27.6738 142.435 27.5701 142.232 27.5053 141.946C27.4405 141.661 27.4362 141.424 27.5053 141.411C27.5744 141.398 27.6652 141.614 27.7343 141.899C27.8034 142.184 27.7948 142.422 27.7343 142.435Z" fill="#FAFAFA"/>
<path d="M42.0255 126.144C42.0255 126.183 41.4466 126.408 40.5696 126.935C40.0594 127.242 39.5741 127.588 39.1181 127.971C38.5634 128.445 38.0503 128.965 37.5845 129.527C37.1281 130.096 36.7205 130.703 36.3663 131.341C36.0823 131.864 35.8397 132.409 35.6405 132.97C35.2992 133.929 35.2085 134.559 35.1523 134.551C35.1525 134.405 35.1684 134.261 35.1999 134.119C35.221 133.945 35.2557 133.773 35.3035 133.605C35.3534 133.377 35.4154 133.152 35.4893 132.931C35.6711 132.353 35.9038 131.792 36.1848 131.255C36.8753 129.933 37.8295 128.767 38.9885 127.829C39.459 127.445 39.9637 127.105 40.4962 126.814C40.7165 126.68 40.9282 126.589 41.1183 126.498C41.2749 126.42 41.4365 126.352 41.6021 126.295C41.7367 126.228 41.8788 126.177 42.0255 126.144Z" fill="#263238"/>
<path d="M17.9717 136.209L13.0771 197.951L58.6964 208.98C58.6964 208.98 74.6112 203.584 74.8272 203.217C75.0432 202.85 75.1037 139.281 75.1037 139.281L58.6575 143.545L17.9717 136.209Z" fill="#009955"/>
<g opacity="0.4">
<path opacity="0.4" d="M17.9717 136.209L13.0771 197.951L58.6964 208.98C58.6964 208.98 74.6112 203.584 74.8272 203.217C75.0432 202.85 75.1037 139.281 75.1037 139.281L58.6575 143.545L17.9717 136.209Z" fill="black"/>
</g>
<path d="M89.5233 64.2898L86.9788 100.323C86.7787 103.158 85.5111 105.812 83.4316 107.75C81.352 109.688 78.6151 110.765 75.7727 110.764C74.2338 110.768 72.7107 110.455 71.2978 109.845C69.8848 109.235 68.6123 108.341 67.5591 107.219C66.5059 106.097 65.6946 104.771 65.1753 103.322C64.6561 101.874 64.4401 100.334 64.5407 98.798C64.7654 95.3679 64.9727 92.5556 64.9727 92.5556C64.9727 92.5556 56.2506 91.1991 56.1426 82.477C56.0822 77.4399 56.9505 66.0092 57.6935 57.2526C57.9374 54.3924 59.2477 51.7284 61.3644 49.7894C63.4811 47.8504 66.2494 46.7781 69.1199 46.7852H74.386C76.5396 46.9117 78.646 47.4686 80.5808 48.4229C82.5155 49.3772 84.2394 50.7097 85.6505 52.3415C87.0616 53.9733 88.1314 55.8714 88.7966 57.9236C89.4617 59.9758 89.7088 62.1405 89.5233 64.2898Z" fill="#FFBE9D"/>
<path d="M64.9905 92.5559C64.9905 92.5559 70.4898 92.8799 76.3478 89.1992C76.3478 89.1992 73.5398 95.5453 64.835 94.7591L64.9905 92.5559Z" fill="#EB996E"/>
<path d="M59.3479 66.247C59.5034 66.4111 60.4452 65.7113 61.7887 65.7156C63.1322 65.7199 64.1085 66.3895 64.2554 66.2254C64.3245 66.1519 64.169 65.8625 63.7413 65.5471C63.1608 65.1475 62.4719 64.935 61.7671 64.938C61.0696 64.939 60.3899 65.158 59.8231 65.5644C59.4127 65.8841 59.2745 66.1779 59.3479 66.247Z" fill="#263238"/>
<path d="M73.8721 67.789C73.8707 68.1132 73.995 68.4254 74.219 68.6598C74.443 68.8942 74.7491 69.0327 75.073 69.0461C75.2323 69.0597 75.3927 69.0411 75.5447 68.9917C75.6967 68.9422 75.8373 68.8628 75.9581 68.7581C76.0789 68.6534 76.1775 68.5255 76.2481 68.3821C76.3187 68.2386 76.3598 68.0825 76.369 67.9229C76.3726 67.5981 76.249 67.2847 76.0246 67.0498C75.8001 66.8149 75.4928 66.6771 75.1681 66.6658C75.0087 66.6517 74.848 66.6697 74.6958 66.719C74.5435 66.7682 74.4027 66.8476 74.2818 66.9524C74.1608 67.0572 74.0622 67.1853 73.9918 67.3291C73.9215 67.4728 73.8807 67.6292 73.8721 67.789Z" fill="#263238"/>
<path d="M60.5577 67.7893C60.5552 68.1138 60.6792 68.4266 60.9034 68.6613C61.1275 68.8959 61.4343 69.0341 61.7586 69.0464C61.918 69.0606 62.0787 69.0425 62.2309 68.9932C62.3832 68.944 62.524 68.8646 62.6449 68.7598C62.7659 68.655 62.8645 68.5269 62.9348 68.3832C63.0052 68.2394 63.046 68.083 63.0546 67.9232C63.0593 67.5988 62.9367 67.2854 62.7129 67.0504C62.4892 66.8153 62.1823 66.6774 61.858 66.6661C61.6981 66.6507 61.5368 66.6679 61.3837 66.7166C61.2307 66.7654 61.0891 66.8446 60.9676 66.9496C60.8461 67.0546 60.7471 67.1831 60.6766 67.3275C60.6061 67.4718 60.5657 67.6289 60.5577 67.7893Z" fill="#263238"/>
<path d="M72.3899 66.2513C72.5454 66.4111 73.4915 65.7113 74.8307 65.7156C76.1699 65.7199 77.1505 66.3895 77.2974 66.2254C77.3665 66.1519 77.211 65.8625 76.7833 65.5471C76.2028 65.1475 75.5139 64.935 74.8091 64.938C74.1116 64.939 73.4319 65.158 72.8651 65.5644C72.4547 65.8841 72.3165 66.1778 72.3899 66.2513Z" fill="#263238"/>
<path d="M67.5265 76.1873C67.5265 76.1139 66.7013 75.9713 65.3665 75.7985C65.0252 75.7597 64.7012 75.6948 64.645 75.4616C64.6139 75.1081 64.6923 74.7537 64.8697 74.4464L65.8849 71.8544C67.2889 68.1435 68.3084 65.0936 68.1572 65.0374C68.006 64.9812 66.7445 67.9448 65.3405 71.6556C64.9805 72.5571 64.6565 73.4254 64.3685 74.2606C64.1564 74.6746 64.0938 75.1493 64.1914 75.6041C64.2416 75.7251 64.3186 75.833 64.4167 75.9199C64.5147 76.0067 64.6312 76.0701 64.7573 76.1052C64.9461 76.1568 65.1406 76.1844 65.3362 76.1873C66.6797 76.2608 67.5221 76.2651 67.5265 76.1873Z" fill="#263238"/>
<path d="M71.4697 77.1164C71.2537 77.1164 71.2494 78.5592 70.0053 79.5917C68.7611 80.6242 67.2102 80.4557 67.1973 80.6674C67.1973 80.7581 67.5429 80.9482 68.1995 80.9698C69.0516 80.9806 69.8804 80.6916 70.5409 80.1533C71.1735 79.6331 71.5805 78.8886 71.6771 78.0754C71.7333 77.4706 71.5691 77.1077 71.4697 77.1164Z" fill="#263238"/>
<path d="M72.045 61.8922C72.1789 62.2551 73.5138 62.0823 75.069 62.2724C76.6242 62.4625 77.9158 62.8901 78.1232 62.5661C78.2182 62.4106 77.9936 62.065 77.4838 61.7021C76.8023 61.2636 76.0266 60.9927 75.2202 60.9116C74.4157 60.8138 73.5995 60.9101 72.8398 61.1924C72.2782 61.4343 71.9888 61.7194 72.045 61.8922Z" fill="#263238"/>
<path d="M59.5342 62.4111C59.7718 62.7178 60.6963 62.4111 61.8066 62.3851C62.9168 62.3592 63.8542 62.5925 64.0746 62.2728C64.1653 62.1173 64.0184 61.8106 63.608 61.5255C63.0567 61.1786 62.4145 61.004 61.7635 61.024C61.1125 61.044 60.4822 61.2577 59.9533 61.6378C59.5602 61.9488 59.4306 62.2642 59.5342 62.4111Z" fill="#263238"/>
<path d="M86.5811 70.8473C86.7323 70.7825 92.5773 69.0761 92.3872 75.0377C92.1971 80.9993 86.2485 79.5781 86.2442 79.4096C86.2399 79.2411 86.5811 70.8473 86.5811 70.8473Z" fill="#FFBE9D"/>
<path d="M88.1279 77.1941C88.1538 77.1941 88.2316 77.2718 88.4044 77.3582C88.6474 77.471 88.9246 77.485 89.1777 77.3971C89.817 77.1854 90.3786 76.2048 90.4391 75.1291C90.4734 74.619 90.3906 74.1077 90.1972 73.6344C90.1473 73.446 90.0524 73.2725 89.9208 73.1288C89.7891 72.9851 89.6245 72.8754 89.4412 72.8093C89.3226 72.7737 89.1952 72.7811 89.0815 72.83C88.9677 72.879 88.8748 72.9665 88.8191 73.0771C88.7327 73.2413 88.7673 73.3622 88.7371 73.3709C88.7068 73.3795 88.6118 73.2672 88.6679 73.021C88.7076 72.8749 88.7941 72.7459 88.9142 72.6537C89.0822 72.5351 89.29 72.487 89.493 72.5198C89.7363 72.5768 89.9611 72.6947 90.1462 72.8625C90.3314 73.0303 90.4708 73.2424 90.5514 73.4789C90.7872 74.0047 90.8924 74.5798 90.8582 75.155C90.7804 76.356 90.1281 77.4576 89.2598 77.6822C89.0979 77.7232 88.9289 77.7273 88.7652 77.6944C88.6015 77.6615 88.4472 77.5924 88.3137 77.4922C88.1279 77.328 88.1279 77.207 88.1279 77.1941Z" fill="#EB996E"/>
<path d="M89.899 70.6318C88.9918 70.4115 87.4193 71.2539 87.0305 72.1049C86.6417 72.956 86.5553 73.9193 86.1665 74.7704C85.7777 75.6214 84.9051 76.3947 84.0065 76.1787C83.6981 76.0815 83.421 75.9044 83.2032 75.6654C82.9854 75.4264 82.8348 75.134 82.7667 74.8179C82.6413 74.1832 82.6413 73.5302 82.7667 72.8955C83.1166 70.1091 83.6998 67.3486 83.8121 64.5449C83.9244 61.7413 83.527 58.8253 82.0539 56.4363C80.5807 54.0473 77.8764 52.2891 75.0771 52.5137C73.2238 52.6649 71.526 53.6326 69.6857 53.8875C68.5906 54.0325 67.4768 53.9262 66.4289 53.5766C65.381 53.2271 64.4265 52.6434 63.6377 51.8701C63.4347 51.6713 62.5059 51.0536 62.5059 51.0536C62.5059 50.911 62.6398 49.6669 63.1323 49.2133C66.7827 45.835 73.3663 44.8933 78.1918 46.1072C83.0172 47.3211 87.5403 50.7253 89.6139 55.2483C91.6875 59.7713 91.074 66.0483 89.9292 70.6318" fill="#263238"/>
<path d="M56.7568 55.68C57.5387 57.4901 59.5345 58.5441 61.5088 58.7429C63.483 58.9416 65.4313 58.4318 67.3278 57.8789C69.2243 57.3259 74.3176 56.4965 76.2918 56.5569C76.5856 56.5569 76.9398 56.557 77.0996 56.3107C77.307 55.9781 76.9744 55.5763 76.6676 55.3387C74.0756 53.2997 67.7814 52.0512 64.4809 51.9129C61.1804 51.7747 57.7201 53.2089 55.9316 55.9694" fill="#263238"/>
<path d="M57.6162 55.9049C57.6162 55.9049 80.5122 48.5609 90.3964 68.3422C90.3964 68.3422 91.8738 63.3871 91.8738 60.7303C91.8738 58.9591 90.8154 48.3924 79.9463 45.0703C79.9463 45.0703 63.5692 38.8236 57.6162 55.9049Z" fill="#009955"/>
<g opacity="0.4">
<path opacity="0.4" d="M57.6162 55.9049C59.5197 53.9005 62.1292 52.7166 64.8911 52.6044C71.6433 52.302 84.2749 56.0993 90.3791 68.3422C90.3791 68.3422 91.8565 63.3871 91.8565 60.7303C91.8565 58.9591 90.7981 48.3924 79.929 45.0703C79.9463 45.0703 63.5692 38.8236 57.6162 55.9049Z" fill="black"/>
</g>
<path d="M89.4243 66.0223C85.9536 60.855 81.4057 56.5001 76.0927 53.2567C70.8483 49.9692 62.1521 46.7206 56.1603 45.1265C54.3631 44.6513 52.4883 44.2322 50.6523 44.5519C48.8163 44.8716 47.0191 46.0898 46.5655 47.8956C45.9953 50.155 50.0215 53.6412 51.8921 55.0106C53.7387 56.2414 55.6509 57.3706 57.6204 58.3932C57.6204 58.3932 57.5686 54.2028 64.2775 53.3388C73.3971 52.1638 89.4243 66.0223 89.4243 66.0223Z" fill="#009955"/>
<path d="M70.675 48.9236C70.675 48.9236 67.3746 47.1005 64.0654 46.6772C64.6165 46.2427 65.2203 45.8798 65.8626 45.5972C67.6602 45.895 69.3986 46.4784 71.012 47.3252L70.675 48.9236Z" fill="#FAFAFA"/>
<path d="M99.4202 108.362C99.4202 108.362 93.1649 115.512 93.8561 125.461C93.9511 126.839 94.0202 128.761 94.1887 130.135C95.2428 138.671 96.8758 146.594 96.8758 146.594H97.4719L119.284 141.207C119.284 141.207 115.996 122.273 115.24 119.758C112.825 111.71 104.544 107.282 104.544 107.282L99.4202 108.362Z" fill="#009955"/>
<path d="M74.8268 203.217C74.8268 203.217 74.8268 203.109 74.8268 202.897C74.8268 202.686 74.8268 202.362 74.8268 201.947C74.8268 201.109 74.8268 199.882 74.8268 198.296C74.8268 195.113 74.8268 190.52 74.8527 184.766C74.8916 173.279 74.9478 157.295 75.0126 139.268L75.1508 139.376L66.8564 141.536L58.7089 143.648L58.791 143.54C58.9033 152.578 58.8731 161.106 58.8299 168.812C58.7867 176.519 58.7435 183.401 58.7089 189.155C58.6743 194.91 58.7089 199.523 58.7089 202.72C58.7089 204.31 58.7089 205.541 58.7089 206.383V207.334C58.7089 207.546 58.7089 207.654 58.7089 207.654C58.7089 207.654 58.7089 207.546 58.7089 207.334C58.7089 207.122 58.7089 206.798 58.7089 206.383C58.7089 205.519 58.6787 204.31 58.6527 202.72C58.6139 199.536 58.5879 194.91 58.5923 189.155C58.5966 183.401 58.6398 176.515 58.6657 168.812C58.6916 161.11 58.7175 152.578 58.6009 143.545V143.454L58.6873 143.432L66.8305 141.32L75.1292 139.16L75.2718 139.121V139.268C75.1767 157.295 75.0947 173.284 75.0385 184.766C74.9996 190.503 74.965 195.113 74.9435 198.296C74.9435 199.882 74.9175 201.109 74.9089 201.947C74.9089 202.379 74.9089 202.677 74.9089 202.897C74.9089 203.118 74.8268 203.217 74.8268 203.217Z" fill="#263238"/>
<path d="M64.7263 95.5064C64.7263 95.5064 63.8623 103.805 66.653 105.097C69.8023 106.548 72.9429 105.127 74.861 103.896C80.0061 100.613 87.6525 91.4932 87.6525 91.4932L92.8365 98.2237C92.8365 98.2237 79.7815 113.914 77.1593 113.81C75.4313 113.746 72.7745 112.082 71.1113 110.912C70.2011 110.276 69.3902 109.509 68.705 108.635L66.4457 105.762C63.6247 107.153 61.3437 108.937 59.7669 111.223C59.7669 111.223 59.0153 105.412 60.3674 102.777C61.7196 100.142 64.4153 95.5928 64.4153 95.5928L64.7263 95.5064Z" fill="#009955"/>
<path d="M60.2075 103.002C60.197 103.051 60.1795 103.099 60.1556 103.144C60.1167 103.248 60.0606 103.382 59.9871 103.55C59.8078 104.087 59.6791 104.64 59.6027 105.2C59.3519 107.266 59.3519 109.355 59.6027 111.421L59.4471 111.391C60.1739 110.163 61.1232 109.082 62.2465 108.203C63.5181 107.169 64.9072 106.289 66.3851 105.581L66.4542 105.546L66.506 105.607C67.4175 106.665 68.3809 107.767 69.3961 108.885C70.4115 110.058 71.5547 111.112 72.8046 112.03C73.4017 112.453 74.0507 112.797 74.7356 113.054C75.0727 113.177 75.4195 113.271 75.7724 113.335C76.118 113.391 76.4691 113.404 76.8179 113.374C78.2219 113.244 79.4099 112.441 80.3948 111.594L89.3329 102.064L91.9249 99.3296L92.6204 98.6081L92.8019 98.4224L92.871 98.3662L92.8191 98.4353L92.6463 98.6341L91.9767 99.3771L89.4279 102.155L80.5547 111.737C80.0429 112.192 79.4839 112.592 78.8871 112.929C78.2625 113.283 77.5711 113.504 76.8567 113.577C76.4878 113.607 76.1167 113.594 75.7508 113.538C75.3844 113.474 75.0244 113.377 74.6751 113.249C73.9695 112.985 73.3002 112.632 72.6836 112.199C71.4158 111.272 70.2565 110.206 69.2276 109.019C68.2081 107.896 67.2447 106.79 66.3375 105.728L66.4628 105.753C64.9993 106.456 63.6221 107.326 62.3588 108.345C61.2627 109.207 60.333 110.261 59.6156 111.456L59.486 111.68L59.4601 111.426C59.2187 109.346 59.242 107.244 59.5292 105.17C59.6178 104.609 59.7625 104.057 59.9612 103.524C60.039 103.343 60.1081 103.213 60.1513 103.123C60.1674 103.081 60.1861 103.041 60.2075 103.002Z" fill="#263238"/>
<g opacity="0.3">
<path opacity="0.3" d="M60.5279 109.996C60.4407 110.213 60.4246 110.453 60.482 110.681C60.5395 110.908 60.6674 111.111 60.8476 111.261C61.0275 111.33 61.2229 111.349 61.4126 111.315C61.6022 111.28 61.7789 111.195 61.9233 111.067C62.2063 110.808 62.4507 110.51 62.649 110.181C63.1657 109.437 63.7869 108.77 64.4937 108.203C65.1892 107.641 66.1439 107.166 66.9431 107.564C67.4429 107.894 67.8219 108.377 68.0231 108.942C69.1074 111.158 70.4077 113.413 72.5289 114.679C74.65 115.944 77.3759 116 79.713 115.175C82.0365 114.271 84.0807 112.771 85.6401 110.825C87.1873 108.886 88.5593 106.812 89.7397 104.63C90.7161 102.941 91.7053 101.2 92.0077 99.2734C91.7399 99.4246 91.1092 100.397 90.8413 100.548C90.8413 100.548 80.7714 111.637 79.8253 112.212C78.8793 112.786 76.27 116.614 68.8785 108.324L66.4333 105.671C66.4333 105.671 61.7764 107.931 60.5279 109.996Z" fill="black"/>
</g>
<path d="M87.4981 133.921L76.4258 132.223L75.913 135.566L86.9852 137.264L87.4981 133.921Z" fill="white"/>
<path d="M117.452 141.626L100.172 145.804L102.168 162.103L69.0764 186.956C67.7545 187.142 66.3981 187.354 65.6464 187.544C63.8363 187.976 60.6395 192.533 59.7366 192.987L53.2868 197.964C53.2868 197.964 52.7209 200.227 55.6629 199.774C58.6048 199.32 61.8836 197.061 62.2249 197.061C62.5662 197.061 63.5944 197.748 63.0889 199.221C62.6569 200.517 60.8857 204.975 60.8857 204.975L58.6955 208.993C58.6955 208.993 68.1649 209.304 70.7915 205.791C72.5886 203.407 78.1355 196.646 78.1355 196.646C78.1355 196.646 117.089 177.482 119.426 173.469C122.61 168.009 117.452 141.626 117.452 141.626Z" fill="#FFBE9D"/>
<path d="M109.487 169.128C109.51 168.534 109.484 167.938 109.409 167.348C109.2 165.923 108.501 164.615 107.433 163.649C106.365 162.683 104.994 162.118 103.555 162.052C102.96 162.036 102.365 162.069 101.775 162.151C101.923 162.081 102.08 162.033 102.242 162.009C102.676 161.917 103.12 161.878 103.564 161.892C105.053 161.917 106.482 162.481 107.586 163.481C108.69 164.481 109.393 165.847 109.564 167.327C109.618 167.767 109.618 168.212 109.564 168.653C109.562 168.814 109.536 168.974 109.487 169.128Z" fill="#EB996E"/>
<path d="M66.4761 202.906C66.4422 203.276 66.3668 203.641 66.2515 203.994C66.0302 204.868 65.7084 205.713 65.2924 206.513C64.878 207.331 64.2475 208.02 63.4694 208.504C63.2317 208.646 62.9739 208.751 62.7047 208.816C62.6077 208.849 62.5041 208.86 62.4023 208.846C62.7432 208.715 63.0726 208.556 63.3873 208.371C64.1151 207.866 64.7083 207.191 65.1153 206.405C65.5137 205.616 65.8419 204.793 66.096 203.947C66.1922 203.589 66.3194 203.241 66.4761 202.906Z" fill="#EB996E"/>
<path d="M71.0642 201.398C70.9989 201.761 70.8871 202.114 70.7316 202.448C70.4065 203.275 70.0284 204.08 69.5998 204.859C69.1696 205.637 68.6906 206.387 68.1655 207.105C67.9662 207.422 67.7282 207.712 67.457 207.969C67.6236 207.641 67.8173 207.328 68.0359 207.032C68.4074 206.466 68.8999 205.671 69.401 204.768C69.9021 203.865 70.3039 203.04 70.5847 202.405C70.715 202.056 70.8754 201.719 71.0642 201.398Z" fill="#EB996E"/>
<path d="M70.9386 173.188C70.9856 173.369 71.0117 173.555 71.0164 173.741C71.0553 174.096 71.0855 174.605 71.1028 175.249C71.184 178.583 70.7021 181.908 69.6772 185.081C69.4785 185.686 69.3057 186.174 69.1674 186.503C69.1084 186.679 69.0317 186.848 68.9385 187.008C68.9673 186.825 69.0166 186.645 69.0854 186.472C69.1977 186.136 69.3489 185.643 69.5174 185.034C69.9813 183.446 70.3336 181.828 70.5714 180.191C70.8051 178.554 70.9263 176.903 70.9343 175.249C70.9343 174.614 70.9343 174.1 70.9343 173.746C70.9182 173.56 70.9197 173.374 70.9386 173.188Z" fill="#263238"/>
<path d="M61.5771 178.377C61.7873 178.819 61.9691 179.273 62.1215 179.738C62.4412 180.602 62.8861 181.751 63.4175 183.025C63.9488 184.3 64.4413 185.444 64.8085 186.27C65.0248 186.708 65.2138 187.16 65.3744 187.622C65.0959 187.214 64.8586 186.78 64.666 186.326C64.2599 185.514 63.7372 184.377 63.2101 183.099C62.6831 181.82 62.264 180.641 61.9832 179.777C61.8051 179.324 61.6691 178.855 61.5771 178.377Z" fill="#263238"/>
<path d="M59.0675 189.561C58.9804 189.599 58.8889 189.625 58.7953 189.639L58.0048 189.829C57.6592 189.911 57.2401 190.006 56.7433 190.088C56.2465 190.171 55.6892 190.291 55.0585 190.369C54.4278 190.447 53.7625 190.555 53.0065 190.62C52.2505 190.685 51.4686 190.741 50.6348 190.788C47.0033 190.949 43.3656 190.672 39.8003 189.963C38.9838 189.786 38.2019 189.631 37.4848 189.432C36.7676 189.233 36.098 189.06 35.4932 188.875C34.8884 188.689 34.3441 188.503 33.8689 188.343C33.3937 188.183 33.0049 188.028 32.6636 187.911L31.9076 187.609C31.8185 187.575 31.7318 187.534 31.6484 187.488C31.7437 187.501 31.8367 187.527 31.9249 187.566L32.6939 187.829C33.0222 187.95 33.4326 188.097 33.9078 188.261C34.383 188.425 34.9273 188.598 35.5364 188.758C36.1456 188.918 36.8065 189.121 37.528 189.285C38.2494 189.449 39.0227 189.626 39.8392 189.795C41.6155 190.126 43.4078 190.365 45.2089 190.512C47.0116 190.641 48.8199 190.676 50.6262 190.615C51.46 190.572 52.2505 190.542 52.9892 190.469C53.728 190.395 54.4105 190.326 55.0369 190.248C55.6633 190.171 56.2249 190.075 56.7217 189.998C57.2185 189.92 57.6419 189.847 57.9875 189.777L58.7867 189.631C58.8773 189.597 58.9715 189.574 59.0675 189.561Z" fill="#263238"/>
<path d="M57.4218 182.049C56.7069 181.787 56.0196 181.456 55.3698 181.06C54.6857 180.728 54.0347 180.331 53.4258 179.876C54.142 180.134 54.8296 180.466 55.4778 180.865C56.1636 181.194 56.8149 181.591 57.4218 182.049Z" fill="#263238"/>
<path d="M119.284 141.208L119.176 141.243L118.857 141.329L117.621 141.644L112.973 142.793L96.9023 146.681L96.7856 146.707V146.591C96.332 143.623 95.7099 140.422 95.1095 137.087C94.7163 134.862 94.3751 132.68 94.1418 130.564C93.9085 128.447 93.8048 126.386 93.7746 124.425C93.727 122.569 93.8353 120.712 94.0986 118.874C94.3325 117.265 94.8103 115.702 95.5155 114.238C96.1188 113.038 96.9257 111.952 97.9002 111.028C98.6334 110.33 99.4753 109.755 100.393 109.326C100.976 109.066 101.588 108.873 102.216 108.752L102.708 108.691C102.764 108.686 102.821 108.686 102.877 108.691C102.822 108.709 102.766 108.721 102.708 108.726L102.225 108.812C101.606 108.946 101.005 109.149 100.432 109.417C99.5305 109.86 98.7052 110.444 97.9866 111.145C97.0349 112.068 96.2475 113.146 95.6581 114.333C94.9726 115.786 94.5095 117.335 94.2843 118.925C94.0307 120.756 93.9295 122.604 93.9819 124.451C94.0165 126.403 94.1288 128.451 94.3621 130.564C94.5954 132.676 94.941 134.853 95.3341 137.074C95.9303 140.404 96.548 143.61 97.0016 146.578L96.8677 146.487L112.96 142.664L117.621 141.575L118.865 141.294L119.189 141.225C119.22 141.217 119.252 141.211 119.284 141.208Z" fill="#263238"/>
</svg>
