<svg width="247" height="247" viewBox="0 0 247 247" fill="none" xmlns="http://www.w3.org/2000/svg">
<path d="M247 188.906H0V189.029H247V188.906Z" fill="#EBEBEB"/>
<path d="M163.622 198.198H159.33V198.321H163.622V198.198Z" fill="#EBEBEB"/>
<path d="M85.571 192.057H74.1201V192.181H85.571V192.057Z" fill="#EBEBEB"/>
<path d="M226.633 194.705H198.638V194.829H226.633V194.705Z" fill="#EBEBEB"/>
<path d="M49.0985 194.705H21.1035V194.829H49.0985V194.705Z" fill="#EBEBEB"/>
<path d="M117.078 166.873H21.6918C20.9445 166.872 20.2283 166.574 19.7004 166.045C19.1725 165.516 18.876 164.8 18.876 164.052V29.966C18.8825 29.223 19.1819 28.5126 19.7091 27.9891C20.2363 27.4656 20.9488 27.1712 21.6918 27.1699H117.078C117.826 27.1699 118.544 27.4671 119.073 27.9961C119.602 28.5251 119.899 29.2426 119.899 29.9907V164.052C119.899 164.801 119.602 165.518 119.073 166.047C118.544 166.576 117.826 166.873 117.078 166.873ZM21.6918 27.2687C20.9773 27.27 20.2925 27.5548 19.7877 28.0605C19.283 28.5662 18.9995 29.2515 18.9995 29.966V164.052C18.9995 164.767 19.283 165.452 19.7877 165.958C20.2925 166.464 20.9773 166.748 21.6918 166.75H117.078C117.793 166.748 118.478 166.464 118.984 165.958C119.49 165.453 119.774 164.767 119.775 164.052V29.966C119.774 29.251 119.49 28.5657 118.984 28.0602C118.478 27.5546 117.793 27.27 117.078 27.2687H21.6918Z" fill="#EBEBEB"/>
<path d="M223.935 166.873H128.544C127.796 166.872 127.079 166.574 126.551 166.046C126.022 165.517 125.724 164.8 125.723 164.052V29.966C125.731 29.2225 126.031 28.5122 126.559 27.9888C127.087 27.4654 127.8 27.1712 128.544 27.1699H223.935C224.677 27.1725 225.389 27.4674 225.915 27.9908C226.441 28.5142 226.74 29.2239 226.746 29.966V164.052C226.746 164.799 226.45 165.515 225.923 166.043C225.397 166.572 224.682 166.871 223.935 166.873ZM128.544 27.2687C127.829 27.27 127.144 27.5546 126.638 28.0602C126.133 28.5657 125.848 29.251 125.847 29.966V164.052C125.848 164.767 126.133 165.453 126.638 165.958C127.144 166.464 127.829 166.748 128.544 166.75H223.935C224.65 166.748 225.336 166.464 225.841 165.958C226.347 165.453 226.631 164.767 226.633 164.052V29.966C226.631 29.251 226.347 28.5657 225.841 28.0602C225.336 27.5546 224.65 27.27 223.935 27.2687H128.544Z" fill="#EBEBEB"/>
<path d="M55.9698 116.762L187.137 116.762V45.5121L55.9698 45.5121V116.762Z" fill="#E6E6E6"/>
<path d="M54.4786 116.762L185.646 116.762V45.5121L54.4786 45.5121V116.762Z" fill="#F5F5F5"/>
<path d="M182.973 113.758V48.5156L57.1563 48.5156V113.758L182.973 113.758Z" fill="white"/>
<path d="M58.2822 113.763L58.2822 48.5205H57.1559L57.1559 113.763H58.2822Z" fill="#E6E6E6"/>
<path d="M55.5853 102.337L184.539 102.337V98.3059L55.5853 98.3059V102.337Z" fill="#F5F5F5"/>
<path d="M55.5853 68.083L184.539 68.083V64.052L55.5853 64.052V68.083Z" fill="#F5F5F5"/>
<path d="M51.5693 40.5425H190.052C190.161 40.5438 190.266 40.5881 190.343 40.6658C190.419 40.7434 190.462 40.8482 190.462 40.9574C190.462 41.0662 190.419 41.1705 190.342 41.2474C190.265 41.3243 190.161 41.3675 190.052 41.3675H51.5693C51.4601 41.3675 51.3552 41.3244 51.2776 41.2477C51.1999 41.1709 51.1556 41.0666 51.1543 40.9574C51.1556 40.8478 51.1997 40.743 51.2773 40.6654C51.3548 40.5879 51.4596 40.5438 51.5693 40.5425Z" fill="#E6E6E6"/>
<path d="M49.0986 40.9575C49.0986 41.3651 49.2196 41.7636 49.4462 42.1024C49.6727 42.4413 49.9947 42.7053 50.3714 42.8611C50.7481 43.0169 51.1626 43.0574 51.5623 42.9775C51.962 42.8976 52.3291 42.7009 52.617 42.4123C52.9049 42.1237 53.1007 41.7562 53.1796 41.3563C53.2585 40.9564 53.217 40.542 53.0604 40.1657C52.9037 39.7894 52.6389 39.468 52.2995 39.2422C51.9601 39.0165 51.5613 38.8965 51.1537 38.8975C50.8834 38.8975 50.6158 38.9508 50.3661 39.0544C50.1165 39.158 49.8897 39.3098 49.6988 39.5011C49.5079 39.6925 49.3566 39.9196 49.2537 40.1695C49.1507 40.4194 49.098 40.6872 49.0986 40.9575Z" fill="#E6E6E6"/>
<path d="M186.584 43.2595C186.73 43.2595 186.871 43.2012 186.975 43.0974C187.079 42.9937 187.137 42.8529 187.137 42.7062V41.4959C187.137 41.3492 187.079 41.2084 186.975 41.1047C186.871 41.0009 186.73 40.9426 186.584 40.9426C186.437 40.9426 186.295 41.0008 186.191 41.1044C186.086 41.208 186.027 41.3487 186.025 41.4959V42.6914C186.024 42.7655 186.038 42.8392 186.065 42.908C186.093 42.9769 186.133 43.0396 186.185 43.0925C186.237 43.1454 186.299 43.1874 186.368 43.2161C186.436 43.2447 186.51 43.2595 186.584 43.2595Z" fill="#E6E6E6"/>
<path d="M57.7979 43.2596C57.9451 43.2596 58.0864 43.2015 58.1909 43.0979C58.2954 42.9943 58.3548 42.8535 58.3561 42.7064V41.4961C58.351 41.3515 58.2899 41.2145 58.1858 41.114C58.0817 41.0136 57.9426 40.9575 57.7979 40.9576C57.7244 40.9543 57.651 40.9657 57.582 40.9911C57.513 41.0164 57.4497 41.0554 57.3959 41.1055C57.3421 41.1556 57.2988 41.216 57.2686 41.283C57.2384 41.3501 57.2218 41.4225 57.2199 41.4961V42.6915C57.2178 42.7676 57.2314 42.8432 57.2598 42.9137C57.2883 42.9843 57.3309 43.0482 57.3852 43.1015C57.4394 43.1548 57.504 43.1964 57.5751 43.2236C57.6461 43.2508 57.7219 43.2631 57.7979 43.2596Z" fill="#E6E6E6"/>
<path opacity="0.5" d="M51.7019 55.9158L184.543 55.9158V40.9575L51.7019 40.9575V55.9158Z" fill="#E0E0E0"/>
<path d="M179.959 43.0174C181.097 43.0174 182.019 42.0951 182.019 40.9574C182.019 39.8197 181.097 38.8975 179.959 38.8975C178.822 38.8975 177.899 39.8197 177.899 40.9574C177.899 42.0951 178.822 43.0174 179.959 43.0174Z" fill="#E6E6E6"/>
<path d="M146.17 188.906H154.597V132.57H146.17V188.906Z" fill="#E6E6E6"/>
<path d="M148.388 188.905H146.17V181.234H150.71L148.388 188.905Z" fill="#F0F0F0"/>
<path d="M214.608 188.906H223.036V132.57H214.608V188.906Z" fill="#E6E6E6"/>
<path d="M146.17 184.198H216.54V132.57H146.17V184.198Z" fill="#F0F0F0"/>
<path d="M147.889 149.01H214.821V134.852H147.889V149.01Z" fill="#E6E6E6"/>
<path d="M161.168 139.254H200.07C202.229 139.254 204.299 137.51 205.786 134.422H155.452C156.939 137.51 159.004 139.254 161.168 139.254Z" fill="#F0F0F0"/>
<path d="M214.327 188.905H216.54V181.234H212L214.327 188.905Z" fill="#F0F0F0"/>
<path d="M147.889 165.46H214.821V151.302H147.889V165.46Z" fill="#E6E6E6"/>
<path d="M161.168 155.704H200.07C202.229 155.704 204.299 153.955 205.786 150.873H155.452C156.939 153.955 159.004 155.704 161.168 155.704Z" fill="#F0F0F0"/>
<path d="M147.889 181.91H214.821V167.752H147.889V181.91Z" fill="#E6E6E6"/>
<path d="M161.168 172.149H200.07C202.229 172.149 204.299 170.4 205.786 167.318H155.452C156.939 170.4 159.004 172.149 161.168 172.149Z" fill="#F0F0F0"/>
<path d="M197.215 104.323C195.881 99.8323 212.494 77.3651 219.786 78.037C227.077 78.7088 214.258 105.963 210.321 108.374C205.88 111.095 198.667 109.208 197.215 104.323Z" fill="#F5F5F5"/>
<path d="M196.261 110.799C195.619 108.507 207.233 104.777 211.847 107.48C216.461 110.182 207.04 117.142 204.437 116.826C201.468 116.47 196.962 113.294 196.261 110.799Z" fill="#F5F5F5"/>
<path d="M210.37 108.744C211.976 105.731 200.149 88.1297 193.846 87.8036C187.542 87.4776 195.639 108.058 198.746 110.167C202.259 112.563 208.616 112.02 210.37 108.744Z" fill="#F5F5F5"/>
<path d="M204.309 99.3778H204.284C203.984 99.3732 203.693 99.4772 203.464 99.6706C203.235 99.8641 203.084 100.134 203.039 100.43C201.67 109.716 201.504 119.141 202.545 128.469C202.58 128.767 202.721 129.041 202.943 129.242C203.164 129.443 203.451 129.556 203.75 129.561H203.775C203.95 129.564 204.123 129.529 204.283 129.459C204.443 129.39 204.587 129.287 204.704 129.157C204.822 129.028 204.91 128.875 204.964 128.709C205.017 128.542 205.035 128.366 205.015 128.193C204.023 119.07 204.187 109.858 205.504 100.776C205.529 100.604 205.516 100.428 205.468 100.261C205.419 100.094 205.336 99.9389 205.222 99.8066C205.109 99.6743 204.969 99.5677 204.812 99.4938C204.654 99.4198 204.483 99.3803 204.309 99.3778Z" fill="#EBEBEB"/>
<path d="M203.404 132.565C207.771 132.565 211.451 129.996 212.346 126.513C212.565 125.583 212.877 124.678 213.279 123.811L213.348 123.668H193.46L193.529 123.811C193.931 124.678 194.244 125.583 194.463 126.513C195.357 129.996 199.042 132.565 203.404 132.565Z" fill="#FAFAFA"/>
<path d="M193.421 124.542H213.408C213.966 124.542 214.45 123.999 214.589 123.218C214.786 122.097 214.203 121.01 213.408 121.01H193.421C192.625 121.01 192.043 122.097 192.245 123.218C192.383 123.994 192.868 124.542 193.421 124.542Z" fill="#F0F0F0"/>
<path d="M131.854 153.417H107.248V188.905H131.854V153.417Z" fill="#F0F0F0"/>
<path d="M34.0708 188.906H107.252V153.417H34.0708V188.906Z" fill="#F5F5F5"/>
<path d="M40.4986 181.046H55.9707V165.292H40.4986V181.046Z" fill="#FAFAFA"/>
<path d="M61.503 181.046H76.9751V165.292H61.503V181.046Z" fill="#FAFAFA"/>
<g style="mix-blend-mode:multiply" opacity="0.7">
<path d="M131.853 157.191H33.8086V159.211H131.853V157.191Z" fill="#E6E6E6"/>
</g>
<path d="M133.212 152.191H107.248V158.045H133.212V152.191Z" fill="#F0F0F0"/>
<path d="M32.7123 158.041H107.252V152.187H32.7123V158.041Z" fill="#F5F5F5"/>
<path d="M53.7959 142.228C53.7959 142.228 54.2652 152.191 72.2221 152.191C90.179 152.191 90.6483 142.228 90.6483 142.228H53.7959Z" fill="#F0F0F0"/>
<path d="M53.7959 135.628C53.7959 135.628 54.2652 145.592 72.2221 145.592C90.179 145.592 90.6483 135.628 90.6483 135.628H53.7959Z" fill="#F0F0F0"/>
<path d="M123.499 211.215C176.398 211.215 219.281 208.711 219.281 205.623C219.281 202.534 176.398 200.031 123.499 200.031C70.6007 200.031 27.7178 202.534 27.7178 205.623C27.7178 208.711 70.6007 211.215 123.499 211.215Z" fill="#F5F5F5"/>
<path d="M94.5215 194.863H46.0156V203.992H94.5215V194.863Z" fill="#009955"/>
<path opacity="0.2" d="M94.5215 194.863H46.0156V195.901H94.5215V194.863Z" fill="black"/>
<path opacity="0.2" d="M51.4792 194.863H49.5674V203.992H51.4792V194.863Z" fill="black"/>
<path opacity="0.2" d="M55.8659 194.863H53.9541V203.992H55.8659V194.863Z" fill="black"/>
<path opacity="0.2" d="M60.2575 194.863H58.3457V203.992H60.2575V194.863Z" fill="black"/>
<path opacity="0.2" d="M64.6442 194.863H62.7324V203.992H64.6442V194.863Z" fill="black"/>
<path opacity="0.2" d="M69.0309 194.863H67.1191V203.992H69.0309V194.863Z" fill="black"/>
<path opacity="0.2" d="M73.4225 194.863H71.5107V203.992H73.4225V194.863Z" fill="black"/>
<path opacity="0.2" d="M77.8092 194.863H75.8975V203.992H77.8092V194.863Z" fill="black"/>
<path opacity="0.2" d="M82.1959 194.863H80.2842V203.992H82.1959V194.863Z" fill="black"/>
<path opacity="0.2" d="M86.5876 194.863H84.6758V203.992H86.5876V194.863Z" fill="black"/>
<path opacity="0.2" d="M90.9743 194.863H89.0625V203.992H90.9743V194.863Z" fill="black"/>
<path d="M92.5508 185.734H44.0449V194.863H92.5508V185.734Z" fill="#009955"/>
<path opacity="0.2" d="M92.5508 185.734H44.0449V186.772H92.5508V185.734Z" fill="black"/>
<path opacity="0.2" d="M49.5036 185.734H47.5918V194.863H49.5036V185.734Z" fill="black"/>
<path opacity="0.2" d="M53.8942 185.734H51.9824V194.863H53.8942V185.734Z" fill="black"/>
<path opacity="0.2" d="M58.2809 185.734H56.3691V194.863H58.2809V185.734Z" fill="black"/>
<path opacity="0.2" d="M62.6686 185.734H60.7568V194.863H62.6686V185.734Z" fill="black"/>
<path opacity="0.2" d="M67.0602 185.734H65.1484V194.863H67.0602V185.734Z" fill="black"/>
<path opacity="0.2" d="M71.4469 185.734H69.5352V194.863H71.4469V185.734Z" fill="black"/>
<path opacity="0.2" d="M75.8336 185.734H73.9219V194.863H75.8336V185.734Z" fill="black"/>
<path opacity="0.2" d="M80.2248 185.734H78.313V194.863H80.2248V185.734Z" fill="black"/>
<path opacity="0.2" d="M84.6115 185.734H82.6997V194.863H84.6115V185.734Z" fill="black"/>
<path opacity="0.2" d="M88.9987 185.734H87.0869V194.863H88.9987V185.734Z" fill="black"/>
<path d="M91.1523 176.605H42.6465V185.734H91.1523V176.605Z" fill="#009955"/>
<path opacity="0.2" d="M91.1523 176.605H42.6465V177.642H91.1523V176.605Z" fill="black"/>
<path opacity="0.2" d="M48.11 176.605H46.1982V185.734H48.11V176.605Z" fill="black"/>
<path opacity="0.2" d="M52.4967 176.605H50.585V185.734H52.4967V176.605Z" fill="black"/>
<path opacity="0.2" d="M56.8883 176.605H54.9766V185.734H56.8883V176.605Z" fill="black"/>
<path opacity="0.2" d="M61.2751 176.605H59.3633V185.734H61.2751V176.605Z" fill="black"/>
<path opacity="0.2" d="M65.6618 176.605H63.75V185.734H65.6618V176.605Z" fill="black"/>
<path opacity="0.2" d="M70.0534 176.605H68.1416V185.734H70.0534V176.605Z" fill="black"/>
<path opacity="0.2" d="M74.4401 176.605H72.5283V185.734H74.4401V176.605Z" fill="black"/>
<path opacity="0.2" d="M78.8268 176.605H76.915V185.734H78.8268V176.605Z" fill="black"/>
<path opacity="0.2" d="M83.2189 176.605H81.3071V185.734H83.2189V176.605Z" fill="black"/>
<path opacity="0.2" d="M87.6056 176.605H85.6938V185.734H87.6056V176.605Z" fill="black"/>
<path d="M93.3506 167.481H44.8447V176.61H93.3506V167.481Z" fill="#009955"/>
<path opacity="0.2" d="M93.3506 167.481H44.8447V168.518H93.3506V167.481Z" fill="black"/>
<path opacity="0.2" d="M50.3034 167.481H48.3916V176.61H50.3034V167.481Z" fill="black"/>
<path opacity="0.2" d="M54.696 167.481H52.7842V176.61H54.696V167.481Z" fill="black"/>
<path opacity="0.2" d="M59.0817 167.481H57.1699V176.61H59.0817V167.481Z" fill="black"/>
<path opacity="0.2" d="M63.4684 167.481H61.5566V176.61H63.4684V167.481Z" fill="black"/>
<path opacity="0.2" d="M67.86 167.481H65.9482V176.61H67.86V167.481Z" fill="black"/>
<path opacity="0.2" d="M72.2467 167.481H70.335V176.61H72.2467V167.481Z" fill="black"/>
<path opacity="0.2" d="M76.6335 167.481H74.7217V176.61H76.6335V167.481Z" fill="black"/>
<path opacity="0.2" d="M81.0251 167.481H79.1133V176.61H81.0251V167.481Z" fill="black"/>
<path opacity="0.2" d="M85.4118 167.481H83.5V176.61H85.4118V167.481Z" fill="black"/>
<path opacity="0.2" d="M89.7985 167.481H87.8867V176.61H89.7985V167.481Z" fill="black"/>
<path d="M42.7153 167.476H91.2212V158.347H42.7153V167.476Z" fill="#009955"/>
<path opacity="0.2" d="M42.7153 159.384H91.2212V158.347H42.7153V159.384Z" fill="black"/>
<path opacity="0.2" d="M85.7581 167.476H87.6699V158.347H85.7581V167.476Z" fill="black"/>
<path opacity="0.2" d="M81.366 167.476H83.2778V158.347H81.366V167.476Z" fill="black"/>
<path opacity="0.2" d="M76.9793 167.476H78.8911V158.347H76.9793V167.476Z" fill="black"/>
<path opacity="0.2" d="M72.5921 167.476H74.5039V158.347H72.5921V167.476Z" fill="black"/>
<path opacity="0.2" d="M68.2015 167.476H70.1133V158.347H68.2015V167.476Z" fill="black"/>
<path opacity="0.2" d="M63.8148 167.476H65.7266V158.347H63.8148V167.476Z" fill="black"/>
<path opacity="0.2" d="M59.4281 167.476H61.3398V158.347H59.4281V167.476Z" fill="black"/>
<path opacity="0.2" d="M55.0355 167.476H56.9473V158.347H55.0355V167.476Z" fill="black"/>
<path opacity="0.2" d="M50.6488 167.476H52.5605V158.347H50.6488V167.476Z" fill="black"/>
<path opacity="0.2" d="M46.2621 167.476H48.1738V158.347H46.2621V167.476Z" fill="black"/>
<path d="M44.6865 158.352H93.1924V149.223H44.6865V158.352Z" fill="#009955"/>
<path opacity="0.2" d="M44.6865 150.26H93.1924V149.222H44.6865V150.26Z" fill="black"/>
<path opacity="0.2" d="M87.7288 158.352H89.6406V149.223H87.7288V158.352Z" fill="black"/>
<path opacity="0.2" d="M83.3475 158.352H85.2593V149.223H83.3475V158.352Z" fill="black"/>
<path opacity="0.2" d="M78.9554 158.352H80.8672V149.223H78.9554V158.352Z" fill="black"/>
<path opacity="0.2" d="M74.5633 158.352H76.4751V149.223H74.5633V158.352Z" fill="black"/>
<path opacity="0.2" d="M70.182 158.352H72.0938V149.223H70.182V158.352Z" fill="black"/>
<path opacity="0.2" d="M65.7904 158.352H67.7021V149.223H65.7904V158.352Z" fill="black"/>
<path opacity="0.2" d="M61.3988 158.352H63.3105V149.223H61.3988V158.352Z" fill="black"/>
<path opacity="0.2" d="M57.0169 158.352H58.9287V149.223H57.0169V158.352Z" fill="black"/>
<path opacity="0.2" d="M52.6253 158.352H54.5371V149.223H52.6253V158.352Z" fill="black"/>
<path opacity="0.2" d="M48.2337 158.352H50.1455V149.223H48.2337V158.352Z" fill="black"/>
<path d="M46.0845 149.223H94.5903V140.094H46.0845V149.223Z" fill="#009955"/>
<path opacity="0.2" d="M46.0845 141.131H94.5903V140.093H46.0845V141.131Z" fill="black"/>
<path opacity="0.2" d="M89.1268 149.223H91.0386V140.094H89.1268V149.223Z" fill="black"/>
<path opacity="0.2" d="M84.7352 149.223H86.647V140.094H84.7352V149.223Z" fill="black"/>
<path opacity="0.2" d="M80.3485 149.223H82.2603V140.094H80.3485V149.223Z" fill="black"/>
<path opacity="0.2" d="M75.9622 149.223H77.874V140.094H75.9622V149.223Z" fill="black"/>
<path opacity="0.2" d="M71.5706 149.223H73.4824V140.094H71.5706V149.223Z" fill="black"/>
<path opacity="0.2" d="M67.1839 149.223H69.0957V140.094H67.1839V149.223Z" fill="black"/>
<path opacity="0.2" d="M62.7962 149.223H64.708V140.094H62.7962V149.223Z" fill="black"/>
<path opacity="0.2" d="M58.4056 149.223H60.3174V140.094H58.4056V149.223Z" fill="black"/>
<path opacity="0.2" d="M54.0189 149.223H55.9307V140.094H54.0189V149.223Z" fill="black"/>
<path opacity="0.2" d="M49.6322 149.223H51.5439V140.094H49.6322V149.223Z" fill="black"/>
<path d="M43.8862 140.094H92.3921V130.964H43.8862V140.094Z" fill="#009955"/>
<path opacity="0.2" d="M43.8862 132.002H92.3921V130.964H43.8862V132.002Z" fill="black"/>
<path opacity="0.2" d="M86.929 140.094H88.8408V130.964H86.929V140.094Z" fill="black"/>
<path opacity="0.2" d="M82.5472 140.094H84.459V130.964H82.5472V140.094Z" fill="black"/>
<path opacity="0.2" d="M78.1551 140.094H80.0669V130.964H78.1551V140.094Z" fill="black"/>
<path opacity="0.2" d="M73.763 140.094H75.6748V130.964H73.763V140.094Z" fill="black"/>
<path opacity="0.2" d="M69.3812 140.094H71.293V130.964H69.3812V140.094Z" fill="black"/>
<path opacity="0.2" d="M64.9906 140.094H66.9023V130.964H64.9906V140.094Z" fill="black"/>
<path opacity="0.2" d="M60.598 140.094H62.5098V130.964H60.598V140.094Z" fill="black"/>
<path opacity="0.2" d="M56.2171 140.094H58.1289V130.964H56.2171V140.094Z" fill="black"/>
<path opacity="0.2" d="M51.8245 140.094H53.7363V130.964H51.8245V140.094Z" fill="black"/>
<path opacity="0.2" d="M47.4339 140.094H49.3457V130.964H47.4339V140.094Z" fill="black"/>
<path d="M197.926 94.8481L178.581 98.1628C178.209 98.2254 177.864 98.3974 177.59 98.6567C177.316 98.9161 177.125 99.2511 177.042 99.6193C176.959 99.9874 176.987 100.372 177.123 100.724C177.259 101.076 177.497 101.38 177.806 101.596L181.372 104.12L159.503 135.035C159.361 135.236 159.18 135.407 158.972 135.538C158.764 135.669 158.531 135.758 158.289 135.799C158.046 135.841 157.797 135.834 157.557 135.779C157.317 135.724 157.091 135.622 156.89 135.48L124.745 112.756C124.338 112.469 123.834 112.355 123.343 112.44C122.853 112.524 122.415 112.799 122.127 113.205L57.3291 204.793H80.6163L126.672 139.688C126.814 139.487 126.995 139.316 127.203 139.185C127.411 139.054 127.644 138.965 127.886 138.924C128.129 138.883 128.378 138.89 128.618 138.945C128.858 138.999 129.084 139.101 129.285 139.244L161.43 161.968C161.631 162.11 161.859 162.212 162.099 162.266C162.34 162.321 162.589 162.328 162.832 162.286C163.075 162.244 163.308 162.155 163.516 162.023C163.725 161.891 163.906 161.72 164.048 161.518L196.894 115.082L200.466 117.607C200.773 117.819 201.137 117.936 201.511 117.943C201.884 117.95 202.252 117.848 202.568 117.647C202.884 117.447 203.134 117.159 203.287 116.818C203.44 116.477 203.49 116.098 203.43 115.729L200.11 96.3844C200.021 95.8929 199.742 95.4562 199.333 95.1687C198.924 94.8813 198.419 94.7661 197.926 94.8481Z" fill="#009955"/>
<path opacity="0.2" d="M197.926 94.8481L178.581 98.1628C178.209 98.2254 177.864 98.3974 177.59 98.6567C177.316 98.9161 177.125 99.2511 177.042 99.6193C176.959 99.9874 176.987 100.372 177.123 100.724C177.259 101.076 177.497 101.38 177.806 101.596L181.372 104.12L159.503 135.035C159.361 135.236 159.18 135.407 158.972 135.538C158.764 135.669 158.531 135.758 158.289 135.799C158.046 135.841 157.797 135.834 157.557 135.779C157.317 135.724 157.091 135.622 156.89 135.48L124.745 112.756C124.338 112.469 123.834 112.355 123.343 112.44C122.853 112.524 122.415 112.799 122.127 113.205L57.3291 204.793H80.6163L126.672 139.688C126.814 139.487 126.995 139.316 127.203 139.185C127.411 139.054 127.644 138.965 127.886 138.924C128.129 138.883 128.378 138.89 128.618 138.945C128.858 138.999 129.084 139.101 129.285 139.244L161.43 161.968C161.631 162.11 161.859 162.212 162.099 162.266C162.34 162.321 162.589 162.328 162.832 162.286C163.075 162.244 163.308 162.155 163.516 162.023C163.725 161.891 163.906 161.72 164.048 161.518L196.894 115.082L200.466 117.607C200.773 117.819 201.137 117.936 201.511 117.943C201.884 117.95 202.252 117.848 202.568 117.647C202.884 117.447 203.134 117.159 203.287 116.818C203.44 116.477 203.49 116.098 203.43 115.729L200.11 96.3844C200.021 95.8929 199.742 95.4562 199.333 95.1687C198.924 94.8813 198.419 94.7661 197.926 94.8481Z" fill="black"/>
<path opacity="0.2" d="M79.1582 202.1H62.7673C62.7447 202.1 62.7228 202.093 62.7037 202.08C62.6846 202.068 62.6691 202.051 62.6586 202.031C62.6469 202.012 62.6406 201.99 62.6406 201.967C62.6406 201.944 62.6469 201.922 62.6586 201.903L122.69 117.034C122.84 116.818 123.032 116.633 123.254 116.491C123.475 116.35 123.723 116.253 123.982 116.207C124.242 116.161 124.508 116.167 124.765 116.224C125.022 116.281 125.265 116.388 125.481 116.54L157.62 139.264C157.809 139.401 158.024 139.498 158.251 139.552C158.478 139.605 158.713 139.612 158.943 139.573C159.174 139.534 159.393 139.449 159.59 139.324C159.787 139.199 159.957 139.035 160.09 138.844L185.141 103.434L181.189 100.623C181.168 100.61 181.152 100.59 181.143 100.567C181.134 100.544 181.133 100.518 181.14 100.495C181.145 100.471 181.157 100.449 181.175 100.433C181.192 100.416 181.215 100.405 181.238 100.401L197.54 97.6096C197.556 97.6067 197.572 97.6071 197.587 97.6105C197.603 97.614 197.618 97.6205 197.63 97.6298C197.643 97.639 197.654 97.6507 197.663 97.6642C197.671 97.6777 197.676 97.6927 197.679 97.7084L200.47 114.01C200.473 114.035 200.47 114.06 200.461 114.082C200.451 114.105 200.436 114.124 200.415 114.139C200.395 114.152 200.371 114.159 200.346 114.159C200.322 114.159 200.298 114.152 200.277 114.139L196.325 111.328L163.548 157.665C163.398 157.881 163.206 158.064 162.985 158.206C162.763 158.347 162.516 158.443 162.257 158.489C161.999 158.535 161.734 158.53 161.477 158.473C161.22 158.416 160.977 158.31 160.762 158.159L128.618 135.435C128.429 135.302 128.217 135.207 127.992 135.156C127.767 135.106 127.535 135.099 127.308 135.138C127.081 135.177 126.864 135.261 126.669 135.384C126.474 135.507 126.305 135.667 126.172 135.855L79.262 202.046C79.2502 202.063 79.2347 202.076 79.2167 202.086C79.1986 202.095 79.1786 202.1 79.1582 202.1ZM63.0044 201.853H79.094L125.896 135.692C126.2 135.257 126.666 134.96 127.189 134.868C127.712 134.775 128.251 134.894 128.687 135.198L160.831 157.922C161.019 158.055 161.232 158.15 161.457 158.201C161.681 158.252 161.914 158.258 162.141 158.219C162.368 158.18 162.585 158.096 162.78 157.973C162.975 157.85 163.144 157.69 163.277 157.502L196.123 111.066C196.131 111.052 196.143 111.041 196.156 111.032C196.17 111.023 196.186 111.018 196.202 111.017C196.216 111.01 196.232 111.006 196.249 111.006C196.265 111.006 196.281 111.01 196.296 111.017L200.124 113.724L197.402 97.9109L181.54 100.628L185.368 103.335C185.394 103.355 185.411 103.383 185.418 103.414C185.43 103.444 185.43 103.478 185.418 103.508L160.298 139.022C160.147 139.237 159.955 139.419 159.733 139.559C159.51 139.699 159.263 139.794 159.003 139.837C158.485 139.923 157.952 139.802 157.521 139.501L125.382 116.777C125.193 116.64 124.979 116.542 124.751 116.489C124.524 116.436 124.289 116.429 124.059 116.468C123.829 116.507 123.609 116.591 123.412 116.717C123.215 116.842 123.045 117.005 122.912 117.197L63.0044 201.853Z" fill="white"/>
<path d="M171.937 173.784H169.907V203.992H171.937V173.784Z" fill="#263238"/>
<path d="M189.701 157.324H187.671V203.992H189.701V157.324Z" fill="#263238"/>
<path d="M207.792 168.518H205.761V203.992H207.792V168.518Z" fill="#263238"/>
<path d="M169.911 173.784H155.674V203.992H169.911V173.784Z" fill="#009955"/>
<path opacity="0.2" d="M155.674 173.784V191.697L162.788 173.784H155.674Z" fill="white"/>
<path d="M187.671 157.324H173.434V203.992H187.671V157.324Z" fill="#009955"/>
<path opacity="0.2" d="M173.434 157.324V175.237L180.552 157.324H173.434Z" fill="white"/>
<path d="M205.766 168.518H191.529V203.992H205.766V168.518Z" fill="#009955"/>
<path opacity="0.2" d="M191.529 168.518V184.46L198.647 168.518H191.529Z" fill="white"/>
<path d="M122.552 201.523L118.733 200.806L119.381 191.771L123.199 192.492L122.552 201.523Z" fill="#7F3E3B"/>
<path d="M148.25 201.419H144.362L143.399 192.423H147.282L148.25 201.419Z" fill="#7F3E3B"/>
<path d="M144.046 200.969H148.778C148.855 200.969 148.93 200.996 148.99 201.044C149.05 201.093 149.092 201.16 149.109 201.236L149.88 204.694C149.898 204.778 149.896 204.865 149.876 204.948C149.855 205.032 149.816 205.11 149.762 205.176C149.707 205.242 149.639 205.296 149.561 205.332C149.483 205.368 149.398 205.386 149.312 205.385C147.785 205.361 146.674 205.267 144.757 205.267C143.576 205.267 140.015 205.39 138.384 205.39C136.754 205.39 136.542 203.78 137.209 203.632C140.202 202.98 142.455 202.076 143.413 201.216C143.586 201.058 143.811 200.97 144.046 200.969Z" fill="#263238"/>
<path d="M118.813 199.966L122.997 200.687C123.073 200.701 123.142 200.739 123.193 200.796C123.244 200.854 123.274 200.927 123.278 201.004L123.446 204.536C123.451 204.621 123.436 204.706 123.403 204.785C123.369 204.864 123.319 204.934 123.255 204.99C123.191 205.047 123.115 205.088 123.032 205.111C122.95 205.134 122.864 205.138 122.78 205.123C121.298 204.837 119.109 204.373 117.217 204.047C114.999 203.666 113.917 203.39 111.319 202.94C109.748 202.668 110.089 200.964 110.775 200.92C113.883 200.781 114.979 201.255 117.84 200.104C118.145 199.969 118.482 199.921 118.813 199.966Z" fill="#263238"/>
<path d="M132.116 82.5424C131.982 82.9376 131.879 83.2241 131.755 83.5304C131.632 83.8367 131.508 84.1627 131.38 84.4739C131.123 85.1013 130.851 85.7139 130.564 86.3264C129.992 87.5557 129.351 88.7515 128.643 89.9079C127.195 92.3818 125.308 94.5713 123.075 96.3695C122.454 96.8434 121.793 97.2632 121.099 97.6242C120.922 97.723 120.739 97.807 120.551 97.891C120.363 97.975 120.195 98.054 119.973 98.138C119.535 98.2991 119.084 98.4215 118.625 98.5035C117.879 98.6294 117.123 98.6938 116.367 98.6962C115.656 98.6962 114.974 98.6962 114.302 98.632C111.681 98.423 109.088 97.953 106.561 97.229L106.951 94.3391C109.421 94.2453 111.926 94.1662 114.277 93.9587C114.865 93.9044 115.443 93.8352 115.991 93.7513C116.494 93.6831 116.989 93.5741 117.473 93.4252C117.632 93.38 117.784 93.3171 117.928 93.2375C118.091 93.1387 118.313 93.0448 118.496 92.9164C118.899 92.6625 119.28 92.3767 119.637 92.0618C120.425 91.3628 121.136 90.5811 121.756 89.7301C122.433 88.8275 123.05 87.882 123.604 86.8995C124.182 85.9115 124.701 84.8593 125.21 83.8021C125.457 83.2735 125.704 82.7351 125.921 82.1966L126.252 81.3914L126.553 80.6306L132.116 82.5424Z" fill="#7F3E3B"/>
<path d="M130.243 77.9878C137.332 77.9878 129.542 93.3018 129.542 93.3018L120.497 89.6412C120.497 89.6412 122.967 84.3159 124.592 81.2679C125.118 80.2353 125.931 79.3765 126.934 78.7947C127.936 78.2128 129.085 77.9327 130.243 77.9878Z" fill="#009955"/>
<g opacity="0.3">
<path opacity="0.3" d="M130.243 77.9878C137.332 77.9878 129.542 93.3018 129.542 93.3018L120.497 89.6412C120.497 89.6412 122.967 84.3159 124.592 81.2679C125.118 80.2353 125.931 79.3765 126.934 78.7947C127.936 78.2128 129.085 77.9327 130.243 77.9878Z" fill="white"/>
</g>
<path opacity="0.2" d="M128.509 82.9375C125.916 84.7604 124.113 88.1443 123.599 90.8909L128.766 92.9855C129.705 91.5825 130.619 89.9276 131.627 88.4752C131.903 87.7194 132.175 86.9241 132.412 86.1189L128.509 82.9375Z" fill="black"/>
<path d="M109.174 94.7098L106.067 92.9561L103.686 97.4021C105.061 97.6348 106.469 97.5995 107.831 97.2983L109.174 94.7098Z" fill="#7F3E3B"/>
<path d="M103.093 92.9561L101.364 96.8784L103.666 97.4169L106.047 92.9561H103.093Z" fill="#7F3E3B"/>
<path opacity="0.2" d="M119.38 191.776L119.049 196.429L122.868 197.146L123.199 192.492L119.38 191.776Z" fill="black"/>
<path opacity="0.2" d="M147.282 192.428H143.394L143.898 197.066H147.781L147.282 192.428Z" fill="black"/>
<path d="M149.573 79.6821C148.434 83.8749 147.609 88.1466 147.103 92.4619C146.733 95.4704 146.516 98.3405 146.377 100.949C146.051 107.055 146.19 111.708 146.007 113.299C142.969 113.091 131.523 112.311 125.259 111.856C122.438 89.7597 127.828 78.378 127.828 78.378C129.46 78.0711 131.11 77.8649 132.768 77.7605C133.118 77.7605 133.479 77.7259 133.84 77.7209C136.787 77.7555 139.729 77.96 142.653 78.3335C143.206 78.3977 143.769 78.4817 144.312 78.5706C147.133 79.0053 149.573 79.6821 149.573 79.6821Z" fill="#009955"/>
<g opacity="0.3">
<path opacity="0.3" d="M149.573 79.6821C148.434 83.8749 147.609 88.1466 147.103 92.4619C146.733 95.4704 146.516 98.3405 146.377 100.949C146.051 107.055 146.19 111.708 146.007 113.299C142.969 113.091 131.523 112.311 125.259 111.856C122.438 89.7597 127.828 78.378 127.828 78.378C129.46 78.0711 131.11 77.8649 132.768 77.7605C133.118 77.7605 133.479 77.7259 133.84 77.7209C136.787 77.7555 139.729 77.96 142.653 78.3335C143.206 78.3977 143.769 78.4817 144.312 78.5706C147.133 79.0053 149.573 79.6821 149.573 79.6821Z" fill="white"/>
</g>
<path opacity="0.2" d="M144.342 85.2742C144.303 88.4538 145.194 91.5756 146.906 94.2551C146.965 93.6623 147.034 93.0646 147.108 92.4619C147.385 90.1994 147.741 87.8578 148.21 85.4915L144.342 85.2742Z" fill="black"/>
<path d="M142.514 68.335C141.764 71.1359 140.845 76.2884 142.697 78.3187C141.76 79.1686 140.652 79.8073 139.447 80.1917C138.242 80.5761 136.968 80.6971 135.712 80.5466C133.277 80.3243 133.277 78.6102 133.884 77.7061C137.1 77.1726 137.179 74.8212 136.784 72.5784L142.514 68.335Z" fill="#7F3E3B"/>
<path d="M133.929 81.4703C133.986 81.9063 134.089 82.3351 134.235 82.7498C134.277 82.8819 134.36 82.9971 134.472 83.0788C134.584 83.1606 134.719 83.2045 134.858 83.2043C135.264 83.1983 135.669 83.2331 136.068 83.308C136.152 83.3277 136.239 83.33 136.324 83.3147C136.409 83.2994 136.49 83.2669 136.562 83.2191C137.056 82.9079 137.689 82.4485 137.526 81.8754C137.333 81.2036 136.177 80.5959 136.177 80.5959C136.177 80.5959 134.191 81.085 133.929 81.4703Z" fill="#263238"/>
<path d="M134.971 82.75C134.175 84.4889 132.338 95.6236 132.111 97.3082C131.883 98.9927 132.659 101.71 133.736 103.869C134.974 102.171 135.679 100.144 135.761 98.0442C135.904 95.7422 136.043 83.0266 136.043 83.0266L134.971 82.75Z" fill="#263238"/>
<path d="M136.162 80.5961C136.897 81.2095 137.505 81.9615 137.95 82.8092C139.2 82.7104 144.718 80.2898 143.932 78.4225C143.246 78.2298 142.643 77.8347 142.45 78.0372C142.188 78.4373 139.847 79.8502 136.162 80.5961Z" fill="white"/>
<path d="M136.162 80.596C136.162 80.596 134.042 81.3123 133.549 82.5177C132.269 81.9496 131.573 79.3857 132.704 77.7012C133.41 77.6419 134.087 77.2912 134.215 77.5234C134.413 77.963 133.875 79.1437 136.162 80.596Z" fill="white"/>
<path opacity="0.2" d="M140.178 70.0688L136.784 72.5734C136.887 73.096 136.941 73.6267 136.947 74.1592C138.167 74.0702 139.911 72.8599 140.138 71.6052C140.246 71.0999 140.259 70.579 140.178 70.0688Z" fill="black"/>
<path d="M134.285 59.3393C132.803 59.9222 132.254 65.6575 135.273 65.0944C138.291 64.5312 137.268 58.1685 134.285 59.3393Z" fill="#263238"/>
<path d="M144.071 65.0746C142.86 68.7351 142.342 70.9384 139.96 72.3561C136.374 74.4853 132.229 71.5707 132.318 67.6236C132.397 64.0717 134.359 58.6773 138.394 58.1586C139.283 58.0383 140.188 58.1474 141.022 58.4754C141.857 58.8035 142.594 59.3395 143.162 60.0327C143.731 60.7258 144.113 61.553 144.272 62.4355C144.431 63.318 144.362 64.2265 144.071 65.0746Z" fill="#7F3E3B"/>
<path d="M142.697 67.594C141.161 67.6237 139.901 62.9702 142.998 61.666C140.558 61.3844 133.064 61.7945 131.72 58.4451C130.377 55.0958 135.588 54.5771 137.362 55.8418C136.799 53.9991 139.091 51.2821 143.211 53.7521C147.331 56.2221 147.281 59.2701 146.896 60.1741C148.734 60.6681 149.094 64.7585 147.064 65.3068C148.254 66.9568 147.227 70.4246 144.016 69.6836C143.907 71.7041 141.655 70.8198 141.793 69.2687C141.931 67.7175 142.697 67.594 142.697 67.594Z" fill="#263238"/>
<path d="M135.85 68.488C136.285 68.615 136.743 68.6365 137.187 68.5506C137.632 68.4646 138.049 68.2738 138.404 67.994C138.423 67.9747 138.433 67.9491 138.433 67.9224C138.433 67.8957 138.423 67.8701 138.404 67.8508C138.386 67.8327 138.361 67.8225 138.335 67.8225C138.309 67.8225 138.285 67.8327 138.266 67.8508C137.938 68.114 137.552 68.296 137.14 68.3818C136.728 68.4676 136.301 68.455 135.895 68.3448C135.883 68.3411 135.87 68.3399 135.857 68.3414C135.844 68.343 135.832 68.3471 135.821 68.3536C135.809 68.3601 135.8 68.3688 135.792 68.3791C135.785 68.3895 135.779 68.4014 135.776 68.4139C135.78 68.4322 135.789 68.4491 135.802 68.4623C135.815 68.4755 135.832 68.4844 135.85 68.488Z" fill="#263238"/>
<path d="M144.836 68.9574C144.126 69.6199 143.184 69.975 142.213 69.9454C140.929 69.8911 140.682 68.6462 141.368 67.6434C141.991 66.7394 143.404 65.6674 144.53 66.2157C144.775 66.3387 144.985 66.5208 145.142 66.7457C145.299 66.9706 145.397 67.2311 145.427 67.5035C145.458 67.7759 145.419 68.0516 145.316 68.3055C145.213 68.5594 145.048 68.7835 144.836 68.9574Z" fill="#7F3E3B"/>
<path d="M117.761 194.922L124.183 196.439C124.183 196.439 126.455 171.418 128.406 157.67C128.925 154.024 129.725 148.896 130.945 143.433C132.482 136.551 134.403 129.107 135.994 123.278C137.659 117.137 138.929 112.795 138.929 112.795L125.304 111.842C125.304 111.842 117.929 144.001 117.148 155.808C116.313 168.128 117.761 194.922 117.761 194.922Z" fill="#263238"/>
<path opacity="0.2" d="M130.91 143.433C132.447 136.551 134.368 129.107 135.959 123.278L134.541 120.23C131.177 124.246 130.268 136.68 130.91 143.433Z" fill="black"/>
<path d="M132.634 112.355C132.634 112.355 134.116 145.612 135.746 156.875C137.54 169.225 142.099 196.168 142.099 196.168H149.218C149.218 196.168 147.242 170.544 145.903 158.465C144.377 144.708 146.007 113.289 146.007 113.289L132.634 112.355Z" fill="#263238"/>
<path d="M141.25 196.321H149.628L149.999 193.816L140.751 193.653L141.25 196.321Z" fill="#009955"/>
<path d="M117.35 195.352L124.647 196.726L125.472 194.182L117.153 192.606L117.35 195.352Z" fill="#009955"/>
<path d="M138.444 64.7831C138.36 65.0844 138.138 65.2771 137.95 65.2376C137.762 65.198 137.654 64.8967 137.733 64.5954C137.812 64.294 138.039 64.1013 138.227 64.1409C138.414 64.1804 138.523 64.4817 138.444 64.7831Z" fill="#263238"/>
<path d="M135.016 63.8841C134.937 64.1854 134.71 64.3781 134.522 64.3336C134.334 64.2891 134.23 63.9977 134.309 63.6914C134.388 63.3851 134.616 63.1974 134.803 63.2369C134.991 63.2764 135.095 63.5778 135.016 63.8841Z" fill="#263238"/>
<path d="M135.776 64.1658C135.17 64.9964 134.454 65.7409 133.647 66.3789C134.047 67.0162 135.08 66.9618 135.08 66.9618L135.776 64.1658Z" fill="#630F0F"/>
<path d="M139.506 63.8001C139.472 63.798 139.439 63.7862 139.411 63.7661C139.383 63.746 139.361 63.7184 139.348 63.6865C139.264 63.4707 139.132 63.2774 138.96 63.1221C138.789 62.9669 138.583 62.8539 138.36 62.7924C138.336 62.7878 138.314 62.7787 138.294 62.7654C138.273 62.7522 138.256 62.7351 138.243 62.7151C138.229 62.6952 138.22 62.6727 138.215 62.6491C138.21 62.6255 138.21 62.6012 138.214 62.5775C138.219 62.5538 138.228 62.5313 138.241 62.5111C138.254 62.491 138.272 62.4736 138.291 62.4601C138.311 62.4466 138.334 62.4371 138.357 62.4322C138.381 62.4274 138.405 62.4272 138.429 62.4318C138.712 62.504 138.974 62.6431 139.192 62.8373C139.411 63.0316 139.579 63.2754 139.684 63.5482C139.694 63.5705 139.699 63.5946 139.699 63.619C139.699 63.6433 139.695 63.6675 139.685 63.69C139.676 63.7126 139.663 63.7331 139.645 63.7503C139.628 63.7675 139.608 63.7811 139.585 63.7903C139.56 63.7997 139.533 63.803 139.506 63.8001Z" fill="#263238"/>
<path d="M133.568 62.165C133.53 62.1606 133.494 62.1451 133.464 62.1206C133.447 62.1035 133.433 62.0832 133.424 62.0607C133.414 62.0382 133.409 62.014 133.409 61.9896C133.409 61.9652 133.414 61.9411 133.424 61.9186C133.433 61.8961 133.447 61.8758 133.464 61.8587C133.649 61.6325 133.886 61.4538 134.154 61.3378C134.422 61.2218 134.714 61.1717 135.006 61.1918C135.053 61.2003 135.096 61.2263 135.125 61.2648C135.154 61.3032 135.168 61.3512 135.164 61.3993C135.156 61.4474 135.131 61.4908 135.092 61.5203C135.053 61.5498 135.005 61.5631 134.956 61.5574C134.725 61.5469 134.495 61.5906 134.284 61.685C134.073 61.7793 133.887 61.9217 133.741 62.1008C133.72 62.1255 133.693 62.1444 133.663 62.1556C133.633 62.1669 133.6 62.1701 133.568 62.165Z" fill="#263238"/>
<path d="M142.766 201.651C142.501 201.671 142.237 201.601 142.015 201.453C141.945 201.393 141.892 201.316 141.859 201.23C141.826 201.144 141.815 201.051 141.828 200.959C141.826 200.906 141.841 200.853 141.869 200.807C141.897 200.762 141.937 200.725 141.986 200.702C142.416 200.48 143.665 201.251 143.809 201.339C143.824 201.348 143.836 201.362 143.843 201.378C143.85 201.394 143.852 201.411 143.848 201.428C143.847 201.447 143.839 201.465 143.827 201.479C143.814 201.493 143.797 201.503 143.779 201.507C143.448 201.593 143.108 201.641 142.766 201.651ZM142.188 200.845C142.147 200.842 142.106 200.851 142.07 200.87C142.045 200.87 142.015 200.905 142.011 200.979C142.002 201.04 142.009 201.102 142.03 201.16C142.052 201.218 142.088 201.269 142.134 201.31C142.568 201.508 143.061 201.532 143.512 201.379C143.108 201.117 142.657 200.935 142.183 200.845H142.188Z" fill="#009955"/>
<path d="M143.755 201.512H143.71C143.31 201.295 142.53 200.44 142.614 200.03C142.627 199.963 142.664 199.902 142.717 199.858C142.77 199.814 142.836 199.789 142.905 199.788C142.976 199.778 143.048 199.784 143.116 199.804C143.184 199.825 143.247 199.86 143.3 199.907C143.75 200.272 143.844 201.389 143.849 201.443C143.849 201.46 143.845 201.476 143.837 201.491C143.829 201.506 143.818 201.518 143.804 201.527C143.787 201.527 143.769 201.522 143.755 201.512ZM142.969 199.936H142.93C142.811 199.936 142.801 200.006 142.796 200.03C142.747 200.282 143.241 200.929 143.641 201.231C143.615 200.788 143.455 200.364 143.182 200.015C143.123 199.964 143.047 199.936 142.969 199.936Z" fill="#009955"/>
<path d="M118.348 200.431C117.711 200.431 116.589 200.406 116.234 199.966C116.177 199.899 116.139 199.818 116.123 199.731C116.106 199.645 116.112 199.556 116.14 199.472C116.15 199.424 116.173 199.379 116.206 199.342C116.239 199.305 116.281 199.276 116.328 199.26C116.822 199.087 118.244 200.124 118.402 200.248C118.418 200.259 118.429 200.274 118.434 200.292C118.439 200.31 118.439 200.329 118.432 200.347C118.43 200.368 118.42 200.388 118.405 200.404C118.39 200.419 118.37 200.428 118.348 200.431ZM116.402 199.443C116.382 199.449 116.365 199.461 116.352 199.476C116.339 199.492 116.33 199.511 116.328 199.532C116.311 199.584 116.308 199.639 116.319 199.692C116.329 199.746 116.353 199.796 116.387 199.838C116.584 200.09 117.207 200.233 118.076 200.238C117.488 199.853 116.698 199.383 116.402 199.448V199.443Z" fill="#009955"/>
<path d="M118.348 200.431C118.326 200.439 118.301 200.439 118.279 200.431C117.854 200.144 117.083 199.156 117.226 198.736C117.261 198.637 117.355 198.524 117.607 198.539C117.701 198.543 117.794 198.566 117.879 198.608C117.964 198.65 118.04 198.709 118.101 198.781C118.521 199.275 118.447 200.317 118.442 200.361C118.441 200.377 118.436 200.392 118.427 200.405C118.418 200.418 118.406 200.429 118.392 200.436L118.348 200.431ZM117.488 198.717C117.419 198.717 117.404 198.766 117.399 198.781C117.315 199.033 117.824 199.793 118.244 200.154C118.279 199.711 118.173 199.269 117.943 198.889C117.9 198.838 117.848 198.796 117.788 198.765C117.729 198.734 117.664 198.716 117.597 198.712C117.561 198.705 117.524 198.707 117.488 198.717Z" fill="#009955"/>
<path d="M131.953 97.0313L130.377 95.905L104.541 132.071L106.116 133.197C110.918 136.45 116.801 137.698 122.51 136.674C128.219 135.649 133.302 132.435 136.673 127.715C140.045 122.996 141.438 117.145 140.556 111.413C139.674 105.68 136.587 100.519 131.953 97.0313Z" fill="#009955"/>
<path opacity="0.1" d="M131.953 97.0313L130.377 95.905L104.541 132.071L106.116 133.197C110.918 136.45 116.801 137.698 122.51 136.674C128.219 135.649 133.302 132.435 136.673 127.715C140.045 122.996 141.438 117.145 140.556 111.413C139.674 105.68 136.587 100.519 131.953 97.0313Z" fill="black"/>
<path d="M93.6872 116.816C93.3194 113.76 93.5459 110.662 94.3541 107.692L94.8481 107.821C94.0542 110.731 93.8327 113.767 94.196 116.762L93.6872 116.816Z" fill="#009955"/>
<path d="M95.1846 122.779C94.7441 121.655 94.389 120.499 94.1226 119.321L94.6166 119.212C94.8799 120.363 95.2283 121.492 95.6589 122.591L95.1846 122.779Z" fill="#009955"/>
<path d="M121.95 135.745C133.97 133.269 141.706 121.518 139.23 109.498C136.754 97.4788 125.003 89.7423 112.984 92.2182C100.964 94.6942 93.2279 106.445 95.7039 118.465C98.1799 130.484 109.931 138.221 121.95 135.745Z" fill="#009955"/>
<path d="M112.213 119.607L115.701 114.731C114.489 113.21 113.841 111.754 113.759 110.364C113.697 108.944 114.132 107.546 114.989 106.412C115.804 105.204 117.059 104.362 118.487 104.066C119.962 103.785 121.489 104.069 122.765 104.861L123.605 103.686L125.294 104.891L124.449 106.067C125.483 106.934 126.201 108.118 126.494 109.436C126.715 110.73 126.507 112.06 125.902 113.225L122.681 111.506C122.916 111.062 123.033 110.566 123.021 110.064C123.008 109.562 122.868 109.072 122.612 108.64L119.361 113.195C120.863 115.033 121.665 116.594 121.767 117.878C121.841 119.252 121.417 120.606 120.571 121.692C119.679 123.022 118.317 123.966 116.758 124.335C115.115 124.673 113.405 124.403 111.946 123.574L111.106 124.75L109.417 123.544L110.217 122.423C109.065 121.434 108.289 120.079 108.019 118.585C107.812 116.958 108.138 115.308 108.948 113.882L112.223 115.729C111.914 116.387 111.76 117.107 111.773 117.834C111.779 118.451 111.93 119.058 112.213 119.607ZM120.947 107.381C120.407 107.205 119.826 107.205 119.287 107.381C118.766 107.547 118.313 107.878 117.998 108.324C117.706 108.737 117.55 109.231 117.553 109.737C117.559 110.327 117.73 110.904 118.047 111.402L120.947 107.381ZM113.784 120.98C114.398 121.278 115.098 121.349 115.76 121.183C116.424 121.02 117.006 120.619 117.395 120.057C117.752 119.574 117.927 118.981 117.889 118.382C117.795 117.659 117.485 116.981 117 116.436L113.784 120.98Z" fill="white"/>
<path opacity="0.1" d="M135.46 112.138C134.426 107.648 131.718 103.721 127.889 101.159C124.06 98.5958 119.397 97.5899 114.852 98.3459C110.307 99.1018 106.221 101.563 103.427 105.227C100.634 108.891 99.343 113.483 99.8178 118.066C99.2632 115.658 99.2075 113.163 99.6539 110.732C100.1 108.302 101.04 105.989 102.414 103.936C103.788 101.883 105.568 100.132 107.644 98.7931C109.721 97.4538 112.049 96.5537 114.486 96.1483C116.924 95.743 119.418 95.8409 121.816 96.4361C124.214 97.0313 126.465 98.1111 128.43 99.6091C130.395 101.107 132.032 102.991 133.241 105.146C134.45 107.301 135.205 109.68 135.46 112.138Z" fill="black"/>
<path d="M150.072 81.8064C150.566 82.4338 150.976 82.9969 151.391 83.6095C151.806 84.2221 152.211 84.8099 152.607 85.4225C153.392 86.6476 154.138 87.8925 154.83 89.1917C155.521 90.4909 156.163 91.8198 156.746 93.1931L157.171 94.2354L157.556 95.3074C157.685 95.6581 157.794 96.0336 157.907 96.3992L158.07 96.9524L158.115 97.0907L158.189 97.3921C158.236 97.5971 158.269 97.8051 158.288 98.0145C158.335 98.7108 158.242 99.4094 158.016 100.07C157.845 100.566 157.622 101.043 157.349 101.492C156.898 102.227 156.375 102.916 155.788 103.547C154.746 104.655 153.614 105.674 152.404 106.595C150.104 108.352 147.654 109.904 145.083 111.234L143.482 108.794C145.552 107.03 147.622 105.173 149.494 103.29C150.404 102.389 151.249 101.425 152.024 100.405C152.353 99.9794 152.637 99.5209 152.873 99.0371C152.946 98.8787 153.003 98.7132 153.041 98.5431C153.041 98.4344 153.041 98.4147 153.041 98.5431C153.034 98.579 153.034 98.6159 153.041 98.6518C153.04 98.6666 153.04 98.6814 153.041 98.6962L152.997 98.5876L152.824 98.1529C152.705 97.8565 152.602 97.565 152.463 97.2735L152.068 96.3992L151.648 95.5248C151.06 94.3639 150.433 93.2079 149.751 92.0668C149.07 90.9256 148.363 89.7894 147.627 88.673C147.266 88.1098 146.891 87.5516 146.516 87.0033L145.389 85.3978L150.072 81.8064Z" fill="#7F3E3B"/>
<path d="M149.574 79.6823C153.215 80.4184 156.411 89.3202 156.411 89.3202L148.813 95.5101C148.813 95.5101 146.343 90.985 144.328 86.6181C142.159 81.8608 145.163 78.7931 149.574 79.6823Z" fill="#009955"/>
<g opacity="0.3">
<path opacity="0.3" d="M149.574 79.6823C153.215 80.4184 156.411 89.3202 156.411 89.3202L148.813 95.5101C148.813 95.5101 146.343 90.985 144.328 86.6181C142.159 81.8608 145.163 78.7931 149.574 79.6823Z" fill="white"/>
</g>
<path d="M144.381 108.453L140.459 108.883L143.003 113.141C143.003 113.141 146.264 112.034 145.868 110.246L144.381 108.453Z" fill="#7F3E3B"/>
<path d="M138.123 111.13L140.391 114.553L143.004 113.141L140.46 108.882L138.123 111.13Z" fill="#7F3E3B"/>
</svg>
